<svg width="125" height="125" viewBox="0 0 125 125" fill="none" xmlns="http://www.w3.org/2000/svg">
<path fill-rule="evenodd" clip-rule="evenodd" d="M62.5 125C97.0178 125 125 97.0178 125 62.5C125 27.9822 97.0178 0 62.5 0C27.9822 0 0 27.9822 0 62.5C0 97.0178 27.9822 125 62.5 125Z" fill="#EBF5FB"/>
<mask id="mask0" mask-type="alpha" maskUnits="userSpaceOnUse" x="0" y="0" width="125" height="125">
<path fill-rule="evenodd" clip-rule="evenodd" d="M62.5 125C97.0178 125 125 97.0178 125 62.5C125 27.9822 97.0178 0 62.5 0C27.9822 0 0 27.9822 0 62.5C0 97.0178 27.9822 125 62.5 125Z" fill="white"/>
</mask>
<g mask="url(#mask0)">
<path d="M64.7684 87.1111C64.7679 87.1169 64.7675 87.1226 64.7671 87.1284C64.7132 87.8439 64.6483 88.8758 64.6035 90.1502C64.514 92.6973 64.5045 96.2206 64.8252 100.125C65.4079 107.216 67.0938 115.754 71.5413 121.917H71.5383H71.4842H71.4303H71.3765H71.323H71.2696H71.2164H71.1633H71.1105H71.0578H71.0052H70.9529H70.9007H70.8487H70.7968H70.7452H70.6936H70.6423H70.5911H70.5401H70.4892H70.4385H70.388H70.3376H70.2874H70.2374H70.1875H70.1377H70.0882H70.0387H69.9895H69.9404H69.8914H69.8426H69.7939H69.7454H69.6971H69.6489H69.6008H69.5529H69.5051H69.4575H69.41H69.3627H69.3155H69.2685H69.2216H69.1748H69.1282H69.0818H69.0354H68.9892H68.9432H68.8972H68.8514H68.8058H68.7603H68.7149H68.6696H68.6245H68.5795H68.5346H68.4899H68.4453H68.4008H68.3565H68.3123H68.2682H68.2242H68.1803H68.1366H68.093H68.0495H68.0061H67.9629H67.9198H67.8767H67.8339H67.7911H67.7484H67.7059H67.6634H67.6211H67.5789H67.5368H67.4948H67.4529H67.4112H67.3695H67.328H67.2865H67.2452H67.2039H67.1628H67.1218H67.0808H67.04H66.9993H66.9587H66.9181H66.8777H66.8374H66.7971H66.757H66.717H66.677H66.6372H66.5974H66.5577H66.5181H66.4787H66.4392H66.3999H66.3607H66.3216H66.2825H66.2436H66.2047H66.1659H66.1272H66.0885H66.05H66.0115H65.9731H65.9348H65.8966H65.8584H65.8203H65.7823H65.7444H65.7065H65.6687H65.631H65.5934H65.5558H65.5183H65.4809H65.4435H65.4062H65.369H65.3318H65.2947H65.2577H65.2207H65.1838H65.147H65.1102H65.0735H65.0368H65.0002H64.9636H64.9272H64.8907H64.8543H64.818H64.7817H64.7455H64.7093H64.6732H64.6372H64.6011H64.5652H64.5292H64.4934H64.4575H64.4218H64.386H64.3503H64.3147H64.2791H64.2435H64.208H64.1725H64.137H64.1016H64.0663H64.0309H63.9956H63.9604H63.9251H63.8899H63.8548H63.8196H63.7845H63.7495H63.7144H63.6794H63.6444H63.6094H63.5745H63.5396H63.5047H63.4699H63.435H63.4002H63.3654H63.3306H63.2959H63.2611H63.2264H63.1917H63.157H63.1224H63.0877H63.0531H63.0184H62.9838H62.9492H62.9146H62.88H62.8454H62.8109H62.7763H62.7418H62.7072H62.6727H62.6381H62.6036H62.5691H62.5345H62.5H62.4655H62.4309H62.3964H62.3619H62.3273H62.2928H62.2582H62.2237H62.1891H62.1545H62.12H62.0854H62.0508H62.0162H61.9816H61.9469H61.9123H61.8776H61.843H61.8083H61.7736H61.7389H61.7041H61.6694H61.6346H61.5998H61.565H61.5301H61.4953H61.4604H61.4255H61.3905H61.3556H61.3206H61.2856H61.2505H61.2155H61.1804H61.1452H61.1101H61.0749H61.0396H61.0044H60.9691H60.9337H60.8984H60.8629H60.8275H60.792H60.7565H60.7209H60.6853H60.6497H60.614H60.5782H60.5424H60.5066H60.4707H60.4348H60.3989H60.3628H60.3268H60.2906H60.2545H60.2183H60.182H60.1457H60.1093H60.0728H60.0363H59.9998H59.9632H59.9265H59.8898H59.853H59.8162H59.7793H59.7423H59.7052H59.6682H59.631H59.5938H59.5565H59.5191H59.4817H59.4442H59.4066H59.369H59.3312H59.2935H59.2556H59.2177H59.1797H59.1416H59.1034H59.0652H59.0269H58.9885H58.95H58.9115H58.8728H58.8341H58.7953H58.7564H58.7175H58.6784H58.6393H58.6001H58.5607H58.5213H58.4818H58.4423H58.4026H58.3628H58.323H58.283H58.243H58.2028H58.1626H58.1223H58.0819H58.0413H58.0007H57.96H57.9192H57.8782H57.8372H57.7961H57.7548H57.7135H57.672H57.6305H57.5888H57.547H57.5052H57.4632H57.4211H57.3789H57.3366H57.2941H57.2516H57.2089H57.1661H57.1232H57.0802H57.0371H56.9939H56.9505H56.907H56.8634H56.8197H56.7758H56.7318H56.6877H56.6435H56.5992H56.5547H56.5101H56.4653H56.4205H56.3755H56.3304H56.2851H56.2397H56.1942H56.1485H56.1028H56.0568H56.0108H55.9646H55.9182H55.8718H55.8251H55.7784H55.7315H55.6845H55.6373H55.5899H55.5425H55.4949H55.4471H55.3992H55.3511H55.3029H55.2546H55.2061H55.1574H55.1086H55.0596H55.0105H54.9613H54.9118H54.8623H54.8125H54.7626H54.7126H54.6624H54.612H54.5615H54.5108H54.4599H54.4089H54.3577H54.3063H54.2548H54.2032H54.1513H54.0993H54.0471H53.9948H53.9422H53.8895H53.8367H53.7836H53.7304H53.677H53.6234H53.5697H53.5158H53.5038C57.9227 115.947 59.5953 107.431 60.1748 100.318C60.4955 96.3822 60.4859 92.8106 60.3965 90.2236C60.3517 88.9293 60.2869 87.8794 60.233 87.1511C60.232 87.1376 60.231 87.1243 60.2301 87.1111H64.7684Z" fill="white" stroke="#264887" stroke-width="2"/>
<mask id="path-4-inside-1" fill="white">
<path fill-rule="evenodd" clip-rule="evenodd" d="M72.4803 110.453C72.6502 110.002 72.7431 109.513 72.7431 109.003C72.7431 106.715 70.8776 104.861 68.5764 104.861C66.2752 104.861 64.4097 106.715 64.4097 109.003C64.4097 110.641 65.3669 112.057 66.7558 112.729C66.586 113.18 66.4931 113.669 66.4931 114.179C66.4931 114.558 66.5442 114.925 66.6399 115.273C64.0113 115.618 61.8582 117.462 61.0781 119.912C60.7183 119.95 60.3669 120.017 60.0261 120.109C59.6681 119.594 59.196 119.164 58.6462 118.855C58.6689 118.68 58.6806 118.502 58.6806 118.321C58.6806 117.468 58.4215 116.676 57.9773 116.017C59.6002 115.451 60.7639 113.915 60.7639 112.109C60.7639 109.821 58.8984 107.967 56.5972 107.967C54.2961 107.967 52.4306 109.821 52.4306 112.109C52.4306 112.961 52.6897 113.753 53.1339 114.412C51.8496 114.86 50.853 115.915 50.4929 117.231C49.2642 115.987 47.5527 115.215 45.6597 115.215C43.2954 115.215 41.2141 116.419 40.0032 118.244C39.577 117.663 38.8867 117.285 38.1077 117.285C36.8132 117.285 35.7639 118.328 35.7639 119.615C35.7639 120.232 36.0057 120.794 36.4004 121.211C35.3818 121.966 34.7222 123.173 34.7222 124.533C34.7222 124.892 34.7681 125.24 34.8544 125.572C33.6196 125.638 32.6389 126.654 32.6389 127.898C32.6389 129.184 33.6882 130.227 34.9827 130.227C36.1197 130.227 37.0676 129.422 37.2813 128.355C37.776 128.561 38.3191 128.674 38.8889 128.674C40.0282 128.674 41.0607 128.22 41.8129 127.483C42.9054 128.234 44.2309 128.674 45.6597 128.674C47.2954 128.674 48.7956 128.098 49.9659 127.138C50.2924 128.034 51.156 128.674 52.1702 128.674C53.4646 128.674 54.5139 127.631 54.5139 126.345C54.5139 126.241 54.5071 126.138 54.4938 126.038C54.6685 126.14 54.8514 126.229 55.0413 126.305C55.0369 126.404 55.0347 126.504 55.0347 126.604C55.0347 130.32 58.0662 133.333 61.8056 133.333C64.8324 133.333 67.3953 131.359 68.2622 128.636C68.9258 128.565 69.5607 128.4 70.1528 128.153C70.2806 129.319 71.2749 130.227 72.4827 130.227C73.6197 130.227 74.5676 129.422 74.7813 128.355C75.276 128.561 75.8191 128.674 76.3889 128.674C77.5282 128.674 78.5607 128.22 79.3129 127.483C80.4054 128.234 81.7309 128.674 83.1597 128.674C84.9794 128.674 86.6314 127.961 87.8481 126.8L87.8474 126.837L87.8472 126.862C87.8472 128.149 88.8966 129.192 90.191 129.192C91.4854 129.192 92.5347 128.149 92.5347 126.862C92.5347 125.576 91.4854 124.533 90.191 124.533C89.8921 124.533 89.6063 124.588 89.3434 124.69C89.7208 123.851 89.9306 122.922 89.9306 121.944C89.9306 121.901 89.9302 121.858 89.9293 121.814C91.7271 121.355 93.0556 119.733 93.0556 117.803C93.0556 115.516 91.1901 113.662 88.8889 113.662C87.41 113.662 86.111 114.427 85.3716 115.582C84.6784 115.344 83.9343 115.215 83.1597 115.215C80.7954 115.215 78.7141 116.419 77.5032 118.244C77.3397 118.021 77.1374 117.828 76.9061 117.675C76.9085 117.632 76.9097 117.588 76.9097 117.544C76.9097 116.3 75.929 115.284 74.6943 115.218C74.7805 114.886 74.8264 114.538 74.8264 114.179C74.8264 112.541 73.8692 111.125 72.4803 110.453ZM82.6389 112.367C82.6389 113.654 81.5896 114.697 80.2952 114.697C79.0007 114.697 77.9514 113.654 77.9514 112.367C77.9514 111.081 79.0007 110.038 80.2952 110.038C81.5896 110.038 82.6389 111.081 82.6389 112.367ZM48.0035 113.662C49.2979 113.662 50.3473 112.619 50.3473 111.332C50.3473 110.045 49.2979 109.003 48.0035 109.003C46.7091 109.003 45.6597 110.045 45.6597 111.332C45.6597 112.619 46.7091 113.662 48.0035 113.662Z"/>
</mask>
<path fill-rule="evenodd" clip-rule="evenodd" d="M72.4803 110.453C72.6502 110.002 72.7431 109.513 72.7431 109.003C72.7431 106.715 70.8776 104.861 68.5764 104.861C66.2752 104.861 64.4097 106.715 64.4097 109.003C64.4097 110.641 65.3669 112.057 66.7558 112.729C66.586 113.18 66.4931 113.669 66.4931 114.179C66.4931 114.558 66.5442 114.925 66.6399 115.273C64.0113 115.618 61.8582 117.462 61.0781 119.912C60.7183 119.95 60.3669 120.017 60.0261 120.109C59.6681 119.594 59.196 119.164 58.6462 118.855C58.6689 118.68 58.6806 118.502 58.6806 118.321C58.6806 117.468 58.4215 116.676 57.9773 116.017C59.6002 115.451 60.7639 113.915 60.7639 112.109C60.7639 109.821 58.8984 107.967 56.5972 107.967C54.2961 107.967 52.4306 109.821 52.4306 112.109C52.4306 112.961 52.6897 113.753 53.1339 114.412C51.8496 114.86 50.853 115.915 50.4929 117.231C49.2642 115.987 47.5527 115.215 45.6597 115.215C43.2954 115.215 41.2141 116.419 40.0032 118.244C39.577 117.663 38.8867 117.285 38.1077 117.285C36.8132 117.285 35.7639 118.328 35.7639 119.615C35.7639 120.232 36.0057 120.794 36.4004 121.211C35.3818 121.966 34.7222 123.173 34.7222 124.533C34.7222 124.892 34.7681 125.24 34.8544 125.572C33.6196 125.638 32.6389 126.654 32.6389 127.898C32.6389 129.184 33.6882 130.227 34.9827 130.227C36.1197 130.227 37.0676 129.422 37.2813 128.355C37.776 128.561 38.3191 128.674 38.8889 128.674C40.0282 128.674 41.0607 128.22 41.8129 127.483C42.9054 128.234 44.2309 128.674 45.6597 128.674C47.2954 128.674 48.7956 128.098 49.9659 127.138C50.2924 128.034 51.156 128.674 52.1702 128.674C53.4646 128.674 54.5139 127.631 54.5139 126.345C54.5139 126.241 54.5071 126.138 54.4938 126.038C54.6685 126.14 54.8514 126.229 55.0413 126.305C55.0369 126.404 55.0347 126.504 55.0347 126.604C55.0347 130.32 58.0662 133.333 61.8056 133.333C64.8324 133.333 67.3953 131.359 68.2622 128.636C68.9258 128.565 69.5607 128.4 70.1528 128.153C70.2806 129.319 71.2749 130.227 72.4827 130.227C73.6197 130.227 74.5676 129.422 74.7813 128.355C75.276 128.561 75.8191 128.674 76.3889 128.674C77.5282 128.674 78.5607 128.22 79.3129 127.483C80.4054 128.234 81.7309 128.674 83.1597 128.674C84.9794 128.674 86.6314 127.961 87.8481 126.8L87.8474 126.837L87.8472 126.862C87.8472 128.149 88.8966 129.192 90.191 129.192C91.4854 129.192 92.5347 128.149 92.5347 126.862C92.5347 125.576 91.4854 124.533 90.191 124.533C89.8921 124.533 89.6063 124.588 89.3434 124.69C89.7208 123.851 89.9306 122.922 89.9306 121.944C89.9306 121.901 89.9302 121.858 89.9293 121.814C91.7271 121.355 93.0556 119.733 93.0556 117.803C93.0556 115.516 91.1901 113.662 88.8889 113.662C87.41 113.662 86.111 114.427 85.3716 115.582C84.6784 115.344 83.9343 115.215 83.1597 115.215C80.7954 115.215 78.7141 116.419 77.5032 118.244C77.3397 118.021 77.1374 117.828 76.9061 117.675C76.9085 117.632 76.9097 117.588 76.9097 117.544C76.9097 116.3 75.929 115.284 74.6943 115.218C74.7805 114.886 74.8264 114.538 74.8264 114.179C74.8264 112.541 73.8692 111.125 72.4803 110.453ZM82.6389 112.367C82.6389 113.654 81.5896 114.697 80.2952 114.697C79.0007 114.697 77.9514 113.654 77.9514 112.367C77.9514 111.081 79.0007 110.038 80.2952 110.038C81.5896 110.038 82.6389 111.081 82.6389 112.367ZM48.0035 113.662C49.2979 113.662 50.3473 112.619 50.3473 111.332C50.3473 110.045 49.2979 109.003 48.0035 109.003C46.7091 109.003 45.6597 110.045 45.6597 111.332C45.6597 112.619 46.7091 113.662 48.0035 113.662Z" fill="white"/>
<path d="M72.4803 110.453L70.6085 109.749L69.9652 111.458L71.6096 112.254L72.4803 110.453ZM66.7558 112.729L68.6277 113.433L69.271 111.723L67.6265 110.928L66.7558 112.729ZM66.6399 115.273L66.9001 117.256L69.1767 116.957L68.5684 114.743L66.6399 115.273ZM61.0781 119.912L61.2893 121.901L62.5878 121.763L62.9839 120.519L61.0781 119.912ZM60.0261 120.109L58.3847 121.251L59.1887 122.406L60.5475 122.039L60.0261 120.109ZM58.6462 118.855L56.6628 118.598L56.4892 119.937L57.6658 120.598L58.6462 118.855ZM57.9773 116.017L57.3186 114.129L54.8677 114.984L56.3192 117.136L57.9773 116.017ZM53.1339 114.412L53.7925 116.3L56.2435 115.445L54.792 113.293L53.1339 114.412ZM50.4929 117.231L49.0696 118.636L51.5066 121.105L52.422 117.759L50.4929 117.231ZM40.0032 118.244L38.3902 119.427L40.085 121.739L41.6697 119.35L40.0032 118.244ZM36.4004 121.211L37.5914 122.818L39.4036 121.474L37.8528 119.836L36.4004 121.211ZM34.8544 125.572L34.9615 127.569L37.4058 127.438L36.7901 125.069L34.8544 125.572ZM37.2813 128.355L38.0496 126.508L35.7986 125.572L35.3202 127.962L37.2813 128.355ZM41.8129 127.483L42.9458 125.835L41.5896 124.903L40.4136 126.054L41.8129 127.483ZM49.9659 127.138L51.845 126.453L50.8791 123.803L48.6977 125.592L49.9659 127.138ZM54.4938 126.038L55.5003 124.31L51.9757 122.257L52.5111 126.3L54.4938 126.038ZM55.0413 126.305L57.0394 126.393L57.1016 124.976L55.7847 124.448L55.0413 126.305ZM68.2622 128.636L68.051 126.647L66.7525 126.785L66.3564 128.029L68.2622 128.636ZM70.1528 128.153L72.1409 127.935L71.8499 125.278L69.3829 126.307L70.1528 128.153ZM74.7813 128.355L75.5496 126.508L73.2986 125.572L72.8202 127.962L74.7813 128.355ZM79.3129 127.483L80.4458 125.835L79.0896 124.903L77.9136 126.054L79.3129 127.483ZM87.8481 126.8L89.8477 126.837L89.9376 122.042L86.4674 125.353L87.8481 126.8ZM87.8474 126.837L85.8477 126.799L85.8475 126.812L85.8474 126.826L87.8474 126.837ZM87.8472 126.862L85.8472 126.851V126.862H87.8472ZM89.3434 124.69L87.5196 123.869L85.522 128.307L90.0631 126.556L89.3434 124.69ZM89.9293 121.814L89.4343 119.877L87.8994 120.269L87.9297 121.853L89.9293 121.814ZM85.3716 115.582L84.722 117.473L86.2082 117.984L87.0557 116.661L85.3716 115.582ZM77.5032 118.244L75.8902 119.427L77.585 121.739L79.1697 119.35L77.5032 118.244ZM76.9061 117.675L74.9092 117.564L74.8453 118.709L75.8014 119.342L76.9061 117.675ZM74.6943 115.218L72.7586 114.715L72.1429 117.084L74.5872 117.215L74.6943 115.218ZM70.7431 109.003C70.7431 109.268 70.695 109.519 70.6085 109.749L74.3522 111.157C74.6055 110.484 74.7431 109.757 74.7431 109.003H70.7431ZM68.5764 106.861C69.7845 106.861 70.7431 107.831 70.7431 109.003H74.7431C74.7431 105.599 71.9707 102.861 68.5764 102.861V106.861ZM66.4097 109.003C66.4097 107.831 67.3683 106.861 68.5764 106.861V102.861C65.1821 102.861 62.4097 105.599 62.4097 109.003H66.4097ZM67.6265 110.928C66.8973 110.576 66.4097 109.84 66.4097 109.003H62.4097C62.4097 111.442 63.8365 113.539 65.8851 114.529L67.6265 110.928ZM68.4931 114.179C68.4931 113.913 68.5412 113.663 68.6277 113.433L64.8839 112.024C64.6307 112.697 64.4931 113.425 64.4931 114.179H68.4931ZM68.5684 114.743C68.5197 114.566 68.4931 114.377 68.4931 114.179H64.4931C64.4931 114.739 64.5687 115.283 64.7114 115.803L68.5684 114.743ZM62.9839 120.519C63.5309 118.8 65.0477 117.499 66.9001 117.256L66.3797 113.29C62.9749 113.737 60.1854 116.123 59.1724 119.305L62.9839 120.519ZM60.5475 122.039C60.7872 121.975 61.0349 121.928 61.2893 121.901L60.867 117.923C60.4017 117.973 59.9465 118.058 59.5048 118.178L60.5475 122.039ZM57.6658 120.598C57.9524 120.76 58.1987 120.984 58.3847 121.251L61.6676 118.966C61.1376 118.205 60.4396 117.569 59.6266 117.112L57.6658 120.598ZM56.6806 118.321C56.6806 118.416 56.6745 118.508 56.6628 118.598L60.6296 119.112C60.6633 118.852 60.6806 118.588 60.6806 118.321H56.6806ZM56.3192 117.136C56.548 117.475 56.6806 117.88 56.6806 118.321H60.6806C60.6806 117.057 60.295 115.877 59.6354 114.899L56.3192 117.136ZM58.7639 112.109C58.7639 113.032 58.1695 113.832 57.3186 114.129L58.6359 117.906C61.031 117.071 62.7639 114.798 62.7639 112.109H58.7639ZM56.5972 109.967C57.8053 109.967 58.7639 110.937 58.7639 112.109H62.7639C62.7639 108.705 59.9915 105.967 56.5972 105.967V109.967ZM54.4306 112.109C54.4306 110.937 55.3892 109.967 56.5972 109.967V105.967C53.203 105.967 50.4306 108.705 50.4306 112.109H54.4306ZM54.792 113.293C54.5632 112.954 54.4306 112.549 54.4306 112.109H50.4306C50.4306 113.373 50.8162 114.552 51.4758 115.53L54.792 113.293ZM52.422 117.759C52.6062 117.086 53.1222 116.534 53.7925 116.3L52.4753 112.523C50.577 113.185 49.0997 114.745 48.5638 116.704L52.422 117.759ZM45.6597 117.215C46.998 117.215 48.2026 117.758 49.0696 118.636L51.9162 115.826C50.3258 114.215 48.1074 113.215 45.6597 113.215V117.215ZM41.6697 119.35C42.524 118.063 43.9903 117.215 45.6597 117.215V113.215C42.6005 113.215 39.9043 114.776 38.3366 117.139L41.6697 119.35ZM38.1077 119.285C38.2256 119.285 38.3263 119.34 38.3902 119.427L41.6161 117.062C40.8276 115.986 39.5479 115.285 38.1077 115.285V119.285ZM37.7639 119.615C37.7639 119.444 37.9063 119.285 38.1077 119.285V115.285C35.7202 115.285 33.7639 117.212 33.7639 119.615H37.7639ZM37.8528 119.836C37.7946 119.774 37.7639 119.699 37.7639 119.615H33.7639C33.7639 120.766 34.2168 121.813 34.9479 122.586L37.8528 119.836ZM36.7222 124.533C36.7222 123.836 37.0574 123.213 37.5914 122.818L35.2094 119.604C33.7063 120.718 32.7222 122.51 32.7222 124.533H36.7222ZM36.7901 125.069C36.7462 124.899 36.7222 124.72 36.7222 124.533H32.7222C32.7222 125.063 32.7901 125.58 32.9187 126.075L36.7901 125.069ZM34.6389 127.898C34.6389 127.733 34.7718 127.579 34.9615 127.569L34.7474 123.574C32.4675 123.697 30.6389 125.575 30.6389 127.898H34.6389ZM34.9827 128.227C34.7813 128.227 34.6389 128.068 34.6389 127.898H30.6389C30.6389 130.3 32.5952 132.227 34.9827 132.227V128.227ZM35.3202 127.962C35.2916 128.105 35.1563 128.227 34.9827 128.227V132.227C37.0831 132.227 38.8437 130.74 39.2424 128.747L35.3202 127.962ZM38.8889 126.674C38.5872 126.674 38.3049 126.614 38.0496 126.508L36.5131 130.201C37.2471 130.507 38.051 130.674 38.8889 130.674V126.674ZM40.4136 126.054C40.0213 126.438 39.4859 126.674 38.8889 126.674V130.674C40.5705 130.674 42.1 130.001 43.2121 128.912L40.4136 126.054ZM45.6597 126.674C44.6474 126.674 43.715 126.364 42.9458 125.835L40.6799 129.131C42.0957 130.105 43.8143 130.674 45.6597 130.674V126.674ZM48.6977 125.592C47.8728 126.268 46.8174 126.674 45.6597 126.674V130.674C47.7734 130.674 49.7184 129.927 51.234 128.685L48.6977 125.592ZM48.0867 127.823C48.694 129.489 50.2951 130.674 52.1702 130.674V126.674C52.017 126.674 51.8908 126.579 51.845 126.453L48.0867 127.823ZM52.1702 130.674C54.5577 130.674 56.5139 128.747 56.5139 126.345H52.5139C52.5139 126.515 52.3715 126.674 52.1702 126.674V130.674ZM56.5139 126.345C56.5139 126.153 56.5012 125.962 56.4765 125.775L52.5111 126.3C52.5129 126.314 52.5139 126.329 52.5139 126.345H56.5139ZM55.7847 124.448C55.6862 124.409 55.5913 124.363 55.5003 124.31L53.4872 127.766C53.7458 127.917 54.0167 128.049 54.2979 128.162L55.7847 124.448ZM57.0347 126.604C57.0347 126.533 57.0363 126.463 57.0394 126.393L53.0432 126.217C53.0376 126.346 53.0347 126.474 53.0347 126.604H57.0347ZM61.8056 131.333C59.1592 131.333 57.0347 129.204 57.0347 126.604H53.0347C53.0347 131.436 56.9731 135.333 61.8056 135.333V131.333ZM66.3564 128.029C65.7481 129.94 63.9432 131.333 61.8056 131.333V135.333C65.7215 135.333 69.0425 132.778 70.168 129.242L66.3564 128.029ZM69.3829 126.307C68.9666 126.48 68.5197 126.597 68.051 126.647L68.4734 130.625C69.3318 130.534 70.1548 130.319 70.9227 129.999L69.3829 126.307ZM72.4827 128.227C72.2967 128.227 72.1578 128.089 72.1409 127.935L68.1647 128.37C68.4034 130.55 70.2532 132.227 72.4827 132.227V128.227ZM72.8202 127.962C72.7916 128.105 72.6563 128.227 72.4827 128.227V132.227C74.5831 132.227 76.3437 130.74 76.7424 128.747L72.8202 127.962ZM76.3889 126.674C76.0872 126.674 75.8049 126.614 75.5496 126.508L74.0131 130.201C74.7471 130.507 75.551 130.674 76.3889 130.674V126.674ZM77.9136 126.054C77.5213 126.438 76.9859 126.674 76.3889 126.674V130.674C78.0705 130.674 79.6 130.001 80.7121 128.912L77.9136 126.054ZM83.1597 126.674C82.1474 126.674 81.215 126.364 80.4458 125.835L78.1799 129.131C79.5957 130.105 81.3143 130.674 83.1597 130.674V126.674ZM86.4674 125.353C85.6091 126.172 84.4466 126.674 83.1597 126.674V130.674C85.5123 130.674 87.6538 129.75 89.2287 128.247L86.4674 125.353ZM89.847 126.874L89.8477 126.837L85.8484 126.762L85.8477 126.799L89.847 126.874ZM89.8472 126.873L89.8474 126.847L85.8474 126.826L85.8473 126.851L89.8472 126.873ZM90.191 127.192C89.9897 127.192 89.8472 127.033 89.8472 126.862H85.8472C85.8472 129.265 87.8035 131.192 90.191 131.192V127.192ZM90.5347 126.862C90.5347 127.033 90.3923 127.192 90.191 127.192V131.192C92.5785 131.192 94.5347 129.265 94.5347 126.862H90.5347ZM90.191 126.533C90.3923 126.533 90.5347 126.692 90.5347 126.862H94.5347C94.5347 124.46 92.5785 122.533 90.191 122.533V126.533ZM90.0631 126.556C90.0999 126.542 90.1419 126.533 90.191 126.533V122.533C89.6423 122.533 89.1127 122.635 88.6237 122.824L90.0631 126.556ZM87.9306 121.944C87.9306 122.633 87.7832 123.283 87.5196 123.869L91.1672 125.511C91.6583 124.42 91.9306 123.211 91.9306 121.944H87.9306ZM87.9297 121.853C87.9303 121.883 87.9306 121.914 87.9306 121.944H91.9306C91.9306 121.888 91.9301 121.832 91.929 121.776L87.9297 121.853ZM91.0556 117.803C91.0556 118.79 90.3755 119.636 89.4343 119.877L90.4244 123.752C93.0787 123.074 95.0556 120.677 95.0556 117.803H91.0556ZM88.8889 115.662C90.097 115.662 91.0556 116.632 91.0556 117.803H95.0556C95.0556 114.4 92.2832 111.662 88.8889 111.662V115.662ZM87.0557 116.661C87.441 116.059 88.1164 115.662 88.8889 115.662V111.662C86.7036 111.662 84.781 112.796 83.6874 114.503L87.0557 116.661ZM83.1597 117.215C83.7105 117.215 84.2353 117.306 84.722 117.473L86.0211 113.69C85.1216 113.381 84.1581 113.215 83.1597 113.215V117.215ZM79.1697 119.35C80.024 118.063 81.4903 117.215 83.1597 117.215V113.215C80.1005 113.215 77.4043 114.776 75.8366 117.139L79.1697 119.35ZM75.8014 119.342C75.8361 119.365 75.8663 119.394 75.8902 119.427L79.1161 117.062C78.8131 116.649 78.4387 116.292 78.0108 116.008L75.8014 119.342ZM74.9097 117.544C74.9097 117.551 74.9096 117.557 74.9092 117.564L78.903 117.787C78.9075 117.706 78.9097 117.625 78.9097 117.544H74.9097ZM74.5872 117.215C74.7769 117.225 74.9097 117.38 74.9097 117.544H78.9097C78.9097 115.221 77.0812 113.343 74.8013 113.221L74.5872 117.215ZM72.8264 114.179C72.8264 114.367 72.8025 114.546 72.7586 114.715L76.63 115.721C76.7585 115.226 76.8264 114.709 76.8264 114.179H72.8264ZM71.6096 112.254C72.3388 112.606 72.8264 113.342 72.8264 114.179H76.8264C76.8264 111.74 75.3996 109.643 73.3511 108.653L71.6096 112.254ZM80.2952 116.697C82.6827 116.697 84.6389 114.77 84.6389 112.367H80.6389C80.6389 112.538 80.4965 112.697 80.2952 112.697V116.697ZM75.9514 112.367C75.9514 114.77 77.9077 116.697 80.2952 116.697V112.697C80.0938 112.697 79.9514 112.538 79.9514 112.367H75.9514ZM80.2952 108.038C77.9077 108.038 75.9514 109.965 75.9514 112.367H79.9514C79.9514 112.197 80.0938 112.038 80.2952 112.038V108.038ZM84.6389 112.367C84.6389 109.965 82.6827 108.038 80.2952 108.038V112.038C80.4965 112.038 80.6389 112.197 80.6389 112.367H84.6389ZM48.3473 111.332C48.3473 111.503 48.2048 111.662 48.0035 111.662V115.662C50.391 115.662 52.3473 113.735 52.3473 111.332H48.3473ZM48.0035 111.003C48.2048 111.003 48.3473 111.161 48.3473 111.332H52.3473C52.3473 108.929 50.391 107.003 48.0035 107.003V111.003ZM47.6597 111.332C47.6597 111.161 47.8022 111.003 48.0035 111.003V107.003C45.616 107.003 43.6597 108.929 43.6597 111.332H47.6597ZM48.0035 111.662C47.8022 111.662 47.6597 111.503 47.6597 111.332H43.6597C43.6597 113.735 45.616 115.662 48.0035 115.662V111.662Z" fill="#264887" mask="url(#path-4-inside-1)"/>
</g>
<g filter="url(#filter0_i)">
<path fill-rule="evenodd" clip-rule="evenodd" d="M62.1528 89.696C63.2588 89.696 64.3201 88.9855 65.3053 87.6807L74.5646 94.7456C75.8809 95.7499 77.7778 94.8112 77.7778 93.1555V91.3811C77.7778 89.3004 76.9671 87.3015 75.5177 85.8086L68.9147 79.0071C70.533 72.7571 71.5278 64.2682 71.5278 54.9174C71.5278 35.7098 62.1528 20.1389 62.1528 20.1389C62.1528 20.1389 52.7778 35.7098 52.7778 54.9174C52.7778 64.2682 53.7725 72.7571 55.3909 79.0071L48.7878 85.8086C47.3384 87.3015 46.5278 89.3004 46.5278 91.3811V93.1555C46.5278 94.8112 48.4246 95.7499 49.741 94.7456L59.0002 87.6807C59.9854 88.9855 61.0467 89.696 62.1528 89.696Z" fill="white"/>
</g>
<path d="M65.3053 87.6807L65.9119 86.8857C65.7004 86.7243 65.4332 86.6539 65.1696 86.69C64.906 86.7261 64.6676 86.8658 64.5073 87.0781L65.3053 87.6807ZM74.5646 94.7456L73.958 95.5406H73.958L74.5646 94.7456ZM75.5177 85.8086L76.2352 85.1121L75.5177 85.8086ZM68.9147 79.0071L67.9466 78.7564C67.8591 79.0943 67.9541 79.4533 68.1972 79.7037L68.9147 79.0071ZM62.1528 20.1389L63.0095 19.6231C62.8286 19.3226 62.5035 19.1389 62.1528 19.1389C61.8021 19.1389 61.477 19.3226 61.2961 19.6231L62.1528 20.1389ZM55.3909 79.0071L56.1084 79.7037C56.3515 79.4533 56.4464 79.0943 56.359 78.7564L55.3909 79.0071ZM48.7878 85.8086L48.0703 85.1121L48.7878 85.8086ZM49.741 94.7456L50.3476 95.5406H50.3476L49.741 94.7456ZM59.0002 87.6807L59.7983 87.0781C59.6379 86.8658 59.3996 86.7261 59.1359 86.69C58.8723 86.6539 58.6052 86.7243 58.3936 86.8857L59.0002 87.6807ZM63.4165 88.2088C62.9742 88.5395 62.8837 89.1662 63.2145 89.6085C63.5452 90.0508 64.1719 90.1412 64.6142 89.8105L63.4165 88.2088ZM64.5207 89.8789C64.9698 89.5575 65.0734 88.9329 64.752 88.4837C64.4306 88.0346 63.806 87.931 63.3568 88.2524L64.5207 89.8789ZM63.3483 88.2585C62.8982 88.5785 62.7927 89.2028 63.1126 89.6529C63.4326 90.1031 64.057 90.2086 64.5071 89.8886L63.3483 88.2585ZM64.4526 89.9268C64.9067 89.6124 65.02 88.9895 64.7056 88.5354C64.3912 88.0813 63.7683 87.9681 63.3142 88.2824L64.4526 89.9268ZM60.9914 88.2824C60.5373 87.9681 59.9143 88.0813 59.5999 88.5354C59.2856 88.9895 59.3988 89.6124 59.8529 89.9268L60.9914 88.2824ZM59.7578 89.8594C60.205 90.1835 60.8302 90.0838 61.1544 89.6366C61.4785 89.1894 61.3787 88.5642 60.9316 88.2401L59.7578 89.8594ZM60.923 88.2338C60.4768 87.9083 59.8512 88.0062 59.5258 88.4524C59.2003 88.8986 59.2981 89.5241 59.7443 89.8496L60.923 88.2338ZM59.6913 89.8105C60.1336 90.1412 60.7603 90.0508 61.0911 89.6085C61.4218 89.1662 61.3314 88.5395 60.8891 88.2088L59.6913 89.8105ZM53.9582 90.2699C53.5192 90.6049 53.4348 91.2324 53.7698 91.6715C54.1048 92.1106 54.7324 92.1949 55.1714 91.8599L53.9582 90.2699ZM54.9448 92.0328C55.3839 91.6978 55.4682 91.0703 55.1332 90.6312C54.7982 90.1922 54.1707 90.1078 53.7316 90.4428L54.9448 92.0328ZM53.6992 90.4675C53.2602 90.8025 53.1758 91.4301 53.5108 91.8691C53.8458 92.3082 54.4734 92.3926 54.9124 92.0575L53.6992 90.4675ZM54.7829 92.1564C55.222 91.8213 55.3064 91.1938 54.9714 90.7548C54.6363 90.3157 54.0088 90.2313 53.5697 90.5663L54.7829 92.1564ZM48.1276 94.0721C47.622 93.8499 47.032 94.0796 46.8098 94.5852C46.5876 95.0909 46.8174 95.6809 47.323 95.9031L48.1276 94.0721ZM47.1765 95.834C47.6697 96.0827 48.271 95.8845 48.5197 95.3914C48.7684 94.8983 48.5702 94.2969 48.0771 94.0482L47.1765 95.834ZM48.07 94.0446C47.5788 93.7922 46.9759 93.9858 46.7235 94.477C46.4711 94.9682 46.6647 95.5711 47.1559 95.8235L48.07 94.0446ZM47.0743 95.78C47.5576 96.0471 48.166 95.8719 48.4332 95.3886C48.7004 94.9052 48.5252 94.2968 48.0418 94.0296L47.0743 95.78ZM47.5278 92.3055C47.5278 91.7533 47.0801 91.3055 46.5278 91.3055C45.9755 91.3055 45.5278 91.7533 45.5278 92.3055H47.5278ZM45.5278 92.2621C45.5278 92.8144 45.9755 93.2621 46.5278 93.2621C47.0801 93.2621 47.5278 92.8144 47.5278 92.2621H45.5278ZM47.5278 92.2559C47.5278 91.7036 47.0801 91.2559 46.5278 91.2559C45.9755 91.2559 45.5278 91.7036 45.5278 92.2559H47.5278ZM45.5278 92.2311C45.5278 92.7834 45.9755 93.2311 46.5278 93.2311C47.0801 93.2311 47.5278 92.7834 47.5278 92.2311H45.5278ZM47.9993 88.8555C48.1986 88.3404 47.9425 87.7613 47.4275 87.562C46.9124 87.3628 46.3333 87.6188 46.134 88.1339L47.9993 88.8555ZM46.1967 87.9762C45.9878 88.4874 46.2328 89.0712 46.7441 89.2802C47.2553 89.4891 47.8391 89.244 48.0481 88.7328L46.1967 87.9762ZM48.0552 88.7154C48.2656 88.2047 48.0221 87.6202 47.5114 87.4099C47.0007 87.1996 46.4163 87.443 46.2059 87.9537L48.0552 88.7154ZM46.2434 87.8642C46.0275 88.3726 46.2647 88.9597 46.7731 89.1755C47.2815 89.3913 47.8685 89.1541 48.0843 88.6458L46.2434 87.8642ZM52.6683 83.2471C53.053 82.8509 53.0436 82.2178 52.6474 81.8331C52.2511 81.4484 51.618 81.4577 51.2333 81.854L52.6683 83.2471ZM51.3949 81.6875C51.0102 82.0838 51.0196 82.7169 51.4159 83.1016C51.8121 83.4863 52.4452 83.4769 52.8299 83.0806L51.3949 81.6875ZM52.853 83.0569C53.2377 82.6606 53.2283 82.0275 52.8321 81.6428C52.4358 81.2581 51.8027 81.2675 51.418 81.6637L52.853 83.0569ZM51.5104 81.5686C51.1257 81.9649 51.135 82.598 51.5313 82.9827C51.9276 83.3674 52.5607 83.358 52.9454 82.9617L51.5104 81.5686ZM54.4101 67.4469C54.3523 66.8976 53.8602 66.4992 53.311 66.557C52.7617 66.6147 52.3633 67.1068 52.421 67.656L54.4101 67.4469ZM52.36 67.0593C52.4146 67.6088 52.9045 68.01 53.4541 67.9553C54.0036 67.9007 54.4048 67.4108 54.3501 66.8612L52.36 67.0593ZM54.3418 66.7775C54.2876 66.2278 53.7981 65.8263 53.2484 65.8805C52.6988 65.9348 52.2973 66.4243 52.3515 66.9739L54.3418 66.7775ZM52.3183 66.6319C52.3708 67.1817 52.8591 67.5848 53.4088 67.5323C53.9586 67.4797 54.3617 66.9915 54.3092 66.4417L52.3183 66.6319ZM56.0886 37.9435C56.23 37.4096 55.9118 36.8622 55.378 36.7208C54.8441 36.5794 54.2967 36.8975 54.1552 37.4314L56.0886 37.9435ZM54.3903 36.5644C54.2427 37.0966 54.5545 37.6477 55.0867 37.7952C55.6189 37.9428 56.17 37.631 56.3176 37.0988L54.3903 36.5644ZM56.3516 36.9764C56.5 36.4444 56.1891 35.8928 55.6572 35.7444C55.1252 35.596 54.5736 35.9069 54.4252 36.4388L56.3516 36.9764ZM54.5662 35.9399C54.4142 36.4709 54.7215 37.0245 55.2525 37.1765C55.7834 37.3284 56.3371 37.0211 56.489 36.4902L54.5662 35.9399ZM67.8165 36.4902C67.9685 37.0211 68.5221 37.3284 69.0531 37.1765C69.584 37.0245 69.8913 36.4709 69.7394 35.9399L67.8165 36.4902ZM69.9833 36.8115C69.8375 36.2788 69.2875 35.9652 68.7548 36.111C68.2221 36.2568 67.9085 36.8068 68.0543 37.3395L69.9833 36.8115ZM68.0871 37.4597C68.232 37.9926 68.7816 38.3071 69.3145 38.1622C69.8474 38.0173 70.1619 37.4677 70.017 36.9348L68.0871 37.4597ZM70.1503 37.4314C70.0089 36.8975 69.4614 36.5794 68.9276 36.7208C68.3937 36.8622 68.0756 37.4096 68.217 37.9435L70.1503 37.4314ZM69.9963 66.4417C69.9438 66.9915 70.3469 67.4797 70.8967 67.5323C71.4465 67.5848 71.9347 67.1817 71.9873 66.6319L69.9963 66.4417ZM71.9285 67.2297C71.984 66.6802 71.5836 66.1897 71.0342 66.1342C70.4847 66.0786 69.9942 66.479 69.9386 67.0285L71.9285 67.2297ZM69.9302 67.112C69.8742 67.6614 70.2742 68.1522 70.8236 68.2082C71.3731 68.2642 71.8639 67.8642 71.9199 67.3148L69.9302 67.112ZM71.8845 67.656C71.9423 67.1068 71.5438 66.6147 70.9946 66.557C70.4453 66.4992 69.9532 66.8976 69.8955 67.4469L71.8845 67.656ZM71.3602 82.9617C71.7449 83.358 72.378 83.3674 72.7742 82.9827C73.1705 82.598 73.1799 81.9649 72.7952 81.5686L71.3602 82.9617ZM72.9568 81.7351C72.5721 81.3388 71.939 81.3294 71.5427 81.7141C71.1465 82.0989 71.1371 82.7319 71.5218 83.1282L72.9568 81.7351ZM71.5449 83.152C71.9296 83.5483 72.5627 83.5576 72.9589 83.1729C73.3552 82.7882 73.3646 82.1551 72.9799 81.7589L71.5449 83.152ZM73.0722 81.854C72.6875 81.4577 72.0544 81.4484 71.6582 81.8331C71.2619 82.2178 71.2525 82.8509 71.6372 83.2471L73.0722 81.854ZM76.2212 88.6458C76.437 89.1541 77.0241 89.3913 77.5324 89.1755C78.0408 88.9597 78.278 88.3726 78.0622 87.8642L76.2212 88.6458ZM78.127 88.0211C77.9208 87.5087 77.3383 87.2605 76.826 87.4667C76.3136 87.6729 76.0654 88.2554 76.2716 88.7678L78.127 88.0211ZM76.2787 88.7853C76.4835 89.2982 77.0653 89.5479 77.5782 89.3431C78.0911 89.1383 78.3409 88.5565 78.136 88.0436L76.2787 88.7853ZM78.1715 88.1339C77.9723 87.6188 77.3932 87.3628 76.8781 87.562C76.363 87.7613 76.107 88.3404 76.3063 88.8555L78.1715 88.1339ZM76.7778 92.2311C76.7778 92.7834 77.2255 93.2311 77.7778 93.2311C78.33 93.2311 78.7778 92.7834 78.7778 92.2311H76.7778ZM78.7778 92.2745C78.7778 91.7222 78.33 91.2745 77.7778 91.2745C77.2255 91.2745 76.7778 91.7222 76.7778 92.2745H78.7778ZM76.7778 92.2807C76.7778 92.833 77.2255 93.2807 77.7778 93.2807C78.33 93.2807 78.7778 92.833 78.7778 92.2807H76.7778ZM78.7778 92.3055C78.7778 91.7533 78.33 91.3055 77.7778 91.3055C77.2255 91.3055 76.7778 91.7533 76.7778 92.3055H78.7778ZM76.2637 94.0296C75.7803 94.2968 75.6051 94.9052 75.8723 95.3886C76.1395 95.8719 76.7479 96.0471 77.2313 95.78L76.2637 94.0296ZM77.0875 95.8545C77.5844 95.6133 77.7916 95.015 77.5504 94.5182C77.3092 94.0214 76.7109 93.8141 76.2141 94.0553L77.0875 95.8545ZM76.2069 94.0588C75.7083 94.2962 75.4965 94.8929 75.7339 95.3915C75.9713 95.8902 76.568 96.102 77.0667 95.8645L76.2069 94.0588ZM76.9825 95.9031C77.4881 95.6809 77.7179 95.0909 77.4957 94.5852C77.2735 94.0796 76.6835 93.8499 76.1779 94.0721L76.9825 95.9031ZM70.7358 90.5663C70.2967 90.2313 69.6692 90.3157 69.3342 90.7548C68.9992 91.1938 69.0835 91.8213 69.5226 92.1564L70.7358 90.5663ZM69.296 91.9834C69.735 92.3185 70.3626 92.2341 70.6976 91.795C71.0326 91.356 70.9482 90.7284 70.5092 90.3934L69.296 91.9834ZM70.4768 90.3687C70.0377 90.0337 69.4102 90.1181 69.0752 90.5571C68.7402 90.9962 68.8245 91.6237 69.2636 91.9587L70.4768 90.3687ZM69.1341 91.8599C69.5732 92.1949 70.2007 92.1106 70.5357 91.6715C70.8707 91.2324 70.7864 90.6049 70.3473 90.2699L69.1341 91.8599ZM64.5073 87.0781C64.1315 87.5757 63.7651 87.948 63.4165 88.2088L64.6142 89.8105C65.1496 89.4101 65.6448 88.8906 66.1034 88.2833L64.5073 87.0781ZM63.3568 88.2524C63.354 88.2544 63.3511 88.2565 63.3483 88.2585L64.5071 89.8886C64.5116 89.8854 64.5161 89.8821 64.5207 89.8789L63.3568 88.2524ZM63.3142 88.2824C62.8862 88.5787 62.5025 88.696 62.1528 88.696V90.696C62.9855 90.696 63.7588 90.4072 64.4526 89.9268L63.3142 88.2824ZM62.1528 88.696C61.803 88.696 61.4193 88.5787 60.9914 88.2824L59.8529 89.9268C60.5467 90.4072 61.32 90.696 62.1528 90.696V88.696ZM60.9316 88.2401C60.9287 88.238 60.9258 88.2359 60.923 88.2338L59.7443 89.8496C59.7488 89.8529 59.7533 89.8561 59.7578 89.8594L60.9316 88.2401ZM60.8891 88.2088C60.5404 87.948 60.174 87.5757 59.7983 87.0781L58.2022 88.2833C58.6607 88.8906 59.1559 89.4101 59.6913 89.8105L60.8891 88.2088ZM58.3936 86.8857L53.9582 90.2699L55.1714 91.8599L59.6068 88.4757L58.3936 86.8857ZM53.7316 90.4428L53.6992 90.4675L54.9124 92.0575L54.9448 92.0328L53.7316 90.4428ZM53.5697 90.5663L49.1344 93.9505L50.3476 95.5406L54.7829 92.1564L53.5697 90.5663ZM49.1344 93.9505C48.8174 94.1924 48.446 94.212 48.1276 94.0721L47.323 95.9031C48.2527 96.3116 49.4057 96.2592 50.3476 95.5406L49.1344 93.9505ZM48.0771 94.0482C48.0747 94.047 48.0724 94.0458 48.07 94.0446L47.1559 95.8235C47.1628 95.827 47.1697 95.8305 47.1765 95.834L48.0771 94.0482ZM48.0418 94.0296C47.7375 93.8613 47.5278 93.5542 47.5278 93.1555H45.5278C45.5278 94.3403 46.1855 95.2887 47.0743 95.78L48.0418 94.0296ZM47.5278 93.1555V92.3055H45.5278V93.1555H47.5278ZM47.5278 92.2621V92.2559H45.5278V92.2621H47.5278ZM47.5278 92.2311V91.3811H45.5278V92.2311H47.5278ZM47.5278 91.3811C47.5278 90.5092 47.6904 89.6538 47.9993 88.8555L46.134 88.1339C45.7369 89.1602 45.5278 90.2601 45.5278 91.3811H47.5278ZM48.0481 88.7328C48.0505 88.727 48.0528 88.7212 48.0552 88.7154L46.2059 87.9537C46.2029 87.9612 46.1998 87.9687 46.1967 87.9762L48.0481 88.7328ZM48.0843 88.6458C48.4188 87.8578 48.898 87.1308 49.5053 86.5052L48.0703 85.1121C47.2895 85.9164 46.6734 86.8513 46.2434 87.8642L48.0843 88.6458ZM49.5053 86.5052L52.6683 83.2471L51.2333 81.854L48.0703 85.1121L49.5053 86.5052ZM52.8299 83.0806L52.853 83.0569L51.418 81.6637L51.3949 81.6875L52.8299 83.0806ZM52.9454 82.9617L56.1084 79.7037L54.6734 78.3105L51.5104 81.5686L52.9454 82.9617ZM56.359 78.7564C55.5269 75.543 54.8582 71.7089 54.4101 67.4469L52.421 67.656C52.8772 71.9945 53.5609 75.929 54.4228 79.2578L56.359 78.7564ZM54.3501 66.8612C54.3474 66.8333 54.3446 66.8054 54.3418 66.7775L52.3515 66.9739C52.3543 67.0024 52.3571 67.0308 52.36 67.0593L54.3501 66.8612ZM54.3092 66.4417C53.9653 62.8411 53.7778 58.9618 53.7778 54.9174H51.7778C51.7778 59.0226 51.9681 62.9655 52.3183 66.6319L54.3092 66.4417ZM53.7778 54.9174C53.7778 48.7528 54.7601 42.9587 56.0886 37.9435L54.1552 37.4314C52.7928 42.5748 51.7778 48.5439 51.7778 54.9174H53.7778ZM56.3176 37.0988C56.3289 37.0579 56.3402 37.0171 56.3516 36.9764L54.4252 36.4388C54.4135 36.4806 54.4019 36.5225 54.3903 36.5644L56.3176 37.0988ZM56.489 36.4902C57.8548 31.7173 59.4906 27.7481 60.7839 24.9745C61.4302 23.5882 61.9902 22.5023 62.387 21.7656C62.5854 21.3973 62.7428 21.1165 62.8498 20.9293C62.9033 20.8357 62.9442 20.7655 62.9712 20.7195C62.9847 20.6964 62.9947 20.6795 63.0012 20.6687C63.0044 20.6633 63.0067 20.6594 63.0081 20.6571C63.0088 20.6559 63.0092 20.6551 63.0095 20.6547C63.0096 20.6545 63.0097 20.6544 63.0097 20.6544C63.0097 20.6544 63.0096 20.6545 63.0096 20.6545C63.0095 20.6546 63.0095 20.6547 62.1528 20.1389C61.2961 19.6231 61.296 19.6233 61.2958 19.6235C61.2958 19.6236 61.2957 19.6238 61.2955 19.624C61.2953 19.6244 61.295 19.6249 61.2947 19.6255C61.294 19.6266 61.293 19.6282 61.2918 19.6301C61.2895 19.6341 61.2862 19.6395 61.2821 19.6465C61.2737 19.6606 61.2618 19.6808 61.2463 19.7071C61.2155 19.7596 61.1707 19.8366 61.1133 19.9371C60.9984 20.1381 60.8328 20.4336 60.6262 20.8172C60.213 21.5844 59.6354 22.7049 58.9712 24.1293C57.6434 26.9771 55.9667 31.0459 54.5662 35.9399L56.489 36.4902ZM62.1528 20.1389C61.2961 20.6547 61.296 20.6546 61.2959 20.6545C61.2959 20.6545 61.2959 20.6544 61.2959 20.6544C61.2959 20.6544 61.2959 20.6545 61.2961 20.6547C61.2963 20.6551 61.2968 20.6559 61.2975 20.6571C61.2989 20.6594 61.3012 20.6633 61.3044 20.6687C61.3108 20.6795 61.3209 20.6964 61.3344 20.7195C61.3614 20.7655 61.4022 20.8357 61.4557 20.9293C61.5627 21.1165 61.7202 21.3973 61.9185 21.7656C62.3153 22.5023 62.8753 23.5882 63.5217 24.9745C64.8149 27.7481 66.4507 31.7173 67.8165 36.4902L69.7394 35.9399C68.3389 31.0459 66.6621 26.9771 65.3343 24.1293C64.6702 22.7049 64.0926 21.5844 63.6794 20.8172C63.4727 20.4336 63.3071 20.1381 63.1923 19.9371C63.1348 19.8366 63.0901 19.7596 63.0592 19.7071C63.0438 19.6808 63.0318 19.6606 63.0235 19.6465C63.0193 19.6395 63.016 19.6341 63.0137 19.6301C63.0125 19.6282 63.0116 19.6266 63.0109 19.6255C63.0105 19.6249 63.0102 19.6244 63.01 19.624C63.0099 19.6238 63.0098 19.6236 63.0097 19.6235C63.0096 19.6233 63.0095 19.6231 62.1528 20.1389ZM68.0543 37.3395C68.0653 37.3795 68.0762 37.4196 68.0871 37.4597L70.017 36.9348C70.0058 36.8936 69.9946 36.8525 69.9833 36.8115L68.0543 37.3395ZM68.217 37.9435C69.5454 42.9587 70.5278 48.7528 70.5278 54.9174H72.5278C72.5278 48.5439 71.5127 42.5748 70.1503 37.4314L68.217 37.9435ZM70.5278 54.9174C70.5278 58.9618 70.3403 62.8411 69.9963 66.4417L71.9873 66.6319C72.3375 62.9655 72.5278 59.0226 72.5278 54.9174H70.5278ZM69.9386 67.0285C69.9358 67.0564 69.933 67.0842 69.9302 67.112L71.9199 67.3148C71.9227 67.2864 71.9256 67.2581 71.9285 67.2297L69.9386 67.0285ZM69.8955 67.4469C69.4473 71.7089 68.7786 75.543 67.9466 78.7564L69.8827 79.2578C70.7447 75.929 71.4283 71.9945 71.8845 67.656L69.8955 67.4469ZM68.1972 79.7037L71.3602 82.9617L72.7952 81.5686L69.6321 78.3105L68.1972 79.7037ZM71.5218 83.1282L71.5449 83.152L72.9799 81.7589L72.9568 81.7351L71.5218 83.1282ZM71.6372 83.2471L74.8002 86.5052L76.2352 85.1121L73.0722 81.854L71.6372 83.2471ZM74.8002 86.5052C75.4076 87.1308 75.8867 87.8578 76.2212 88.6458L78.0622 87.8642C77.6322 86.8513 77.0161 85.9164 76.2352 85.1121L74.8002 86.5052ZM76.2716 88.7678C76.274 88.7736 76.2763 88.7794 76.2787 88.7853L78.136 88.0436C78.1331 88.0361 78.13 88.0286 78.127 88.0211L76.2716 88.7678ZM76.3063 88.8555C76.6151 89.6538 76.7778 90.5092 76.7778 91.3811H78.7778C78.7778 90.2601 78.5686 89.1602 78.1715 88.1339L76.3063 88.8555ZM76.7778 91.3811V92.2311H78.7778V91.3811H76.7778ZM76.7778 92.2745V92.2807H78.7778V92.2745H76.7778ZM76.7778 92.3055V93.1555H78.7778V92.3055H76.7778ZM76.7778 93.1555C76.7778 93.5542 76.5681 93.8613 76.2637 94.0296L77.2313 95.78C78.12 95.2887 78.7778 94.3403 78.7778 93.1555H76.7778ZM76.2141 94.0553C76.2117 94.0565 76.2093 94.0576 76.2069 94.0588L77.0667 95.8645C77.0736 95.8612 77.0806 95.8579 77.0875 95.8545L76.2141 94.0553ZM76.1779 94.0721C75.8595 94.212 75.4881 94.1924 75.1712 93.9505L73.958 95.5406C74.8999 96.2592 76.0528 96.3116 76.9825 95.9031L76.1779 94.0721ZM75.1712 93.9505L70.7358 90.5663L69.5226 92.1564L73.958 95.5406L75.1712 93.9505ZM70.5092 90.3934L70.4768 90.3687L69.2636 91.9587L69.296 91.9834L70.5092 90.3934ZM70.3473 90.2699L65.9119 86.8857L64.6987 88.4757L69.1341 91.8599L70.3473 90.2699Z" fill="#264887"/>
<g filter="url(#filter1_i)">
<path fill-rule="evenodd" clip-rule="evenodd" d="M62.1528 43.262C64.4039 43.262 66.2289 41.4302 66.2289 39.1705C66.2289 36.9107 64.4039 35.0789 62.1528 35.0789C59.9016 35.0789 58.0767 36.9107 58.0767 39.1705C58.0767 41.4302 59.9016 43.262 62.1528 43.262Z" fill="#D32D27"/>
</g>
<path d="M65.2289 39.1705C65.2289 40.8815 63.8481 42.262 62.1528 42.262C60.4575 42.262 59.0767 40.8815 59.0767 39.1705C59.0767 37.4594 60.4575 36.0789 62.1528 36.0789C63.8481 36.0789 65.2289 37.4594 65.2289 39.1705Z" stroke="white" stroke-width="2"/>
<path d="M55.5555 45.8333C55.5555 45.8333 58.1247 47.2222 61.8055 47.2222C65.3493 47.2222 68.0555 45.8333 68.0555 45.8333" stroke="#264887" stroke-width="2" stroke-linecap="round"/>
<path d="M55.5555 48.6111C55.5555 48.6111 58.1247 50 61.8055 50C65.3493 50 68.0555 48.6111 68.0555 48.6111" stroke="#264887" stroke-width="2" stroke-linecap="round" stroke-dasharray="1 5"/>
<g filter="url(#filter2_i)">
<path fill-rule="evenodd" clip-rule="evenodd" d="M62.5 81.25C63.5417 81.25 64.5833 72.3758 64.5833 69.1092C64.5833 65.8426 63.6506 63.1945 62.5 63.1945C61.3494 63.1945 60.4167 65.8426 60.4167 69.1092C60.4167 72.3758 61.4583 81.25 62.5 81.25Z" fill="white"/>
</g>
<path fill-rule="evenodd" clip-rule="evenodd" d="M62.5 81.25C63.5417 81.25 64.5833 72.3758 64.5833 69.1092C64.5833 65.8426 63.6506 63.1945 62.5 63.1945C61.3494 63.1945 60.4167 65.8426 60.4167 69.1092C60.4167 72.3758 61.4583 81.25 62.5 81.25Z" stroke="#1C315F" stroke-width="2"/>
<rect x="11.6371" y="68.75" width="4.16667" height="4.16667" transform="rotate(-45 11.6371 68.75)" stroke="#B5D9F1" stroke-width="2" stroke-linecap="round" stroke-linejoin="round"/>
<path fill-rule="evenodd" clip-rule="evenodd" d="M41.6666 17.3611C42.8172 17.3611 43.75 16.4284 43.75 15.2778C43.75 14.1272 42.8172 13.1945 41.6666 13.1945C40.5161 13.1945 39.5833 14.1272 39.5833 15.2778C39.5833 16.4284 40.5161 17.3611 41.6666 17.3611Z" stroke="#B5D9F1" stroke-width="2" stroke-linecap="round" stroke-linejoin="round"/>
<path d="M93.1978 85.559L96.4429 88.804" stroke="#B5D9F1" stroke-width="2" stroke-linecap="round" stroke-linejoin="round"/>
<path d="M96.3285 85.559L93.0835 88.804" stroke="#B5D9F1" stroke-width="2" stroke-linecap="round" stroke-linejoin="round"/>
<defs>
<filter id="filter0_i" x="45.5278" y="19.1389" width="33.25" height="77.0201" filterUnits="userSpaceOnUse" color-interpolation-filters="sRGB">
<feFlood flood-opacity="0" result="BackgroundImageFix"/>
<feBlend mode="normal" in="SourceGraphic" in2="BackgroundImageFix" result="shape"/>
<feColorMatrix in="SourceAlpha" type="matrix" values="0 0 0 0 0 0 0 0 0 0 0 0 0 0 0 0 0 0 127 0" result="hardAlpha"/>
<feOffset dx="-2" dy="-4"/>
<feComposite in2="hardAlpha" operator="arithmetic" k2="-1" k3="1"/>
<feColorMatrix type="matrix" values="0 0 0 0 0.709804 0 0 0 0 0.85098 0 0 0 0 0.945098 0 0 0 1 0"/>
<feBlend mode="normal" in2="shape" result="effect1_innerShadow"/>
</filter>
<filter id="filter1_i" x="58.0767" y="35.0789" width="8.15218" height="8.18319" filterUnits="userSpaceOnUse" color-interpolation-filters="sRGB">
<feFlood flood-opacity="0" result="BackgroundImageFix"/>
<feBlend mode="normal" in="SourceGraphic" in2="BackgroundImageFix" result="shape"/>
<feColorMatrix in="SourceAlpha" type="matrix" values="0 0 0 0 0 0 0 0 0 0 0 0 0 0 0 0 0 0 127 0" result="hardAlpha"/>
<feOffset dx="4" dy="1"/>
<feComposite in2="hardAlpha" operator="arithmetic" k2="-1" k3="1"/>
<feColorMatrix type="matrix" values="0 0 0 0 0.937255 0 0 0 0 0.698039 0 0 0 0 0.690196 0 0 0 1 0"/>
<feBlend mode="normal" in2="shape" result="effect1_innerShadow"/>
</filter>
<filter id="filter2_i" x="59.4167" y="62.1945" width="6.16666" height="20.0556" filterUnits="userSpaceOnUse" color-interpolation-filters="sRGB">
<feFlood flood-opacity="0" result="BackgroundImageFix"/>
<feBlend mode="normal" in="SourceGraphic" in2="BackgroundImageFix" result="shape"/>
<feColorMatrix in="SourceAlpha" type="matrix" values="0 0 0 0 0 0 0 0 0 0 0 0 0 0 0 0 0 0 127 0" result="hardAlpha"/>
<feOffset dx="-3" dy="1"/>
<feComposite in2="hardAlpha" operator="arithmetic" k2="-1" k3="1"/>
<feColorMatrix type="matrix" values="0 0 0 0 0.854902 0 0 0 0 0.92549 0 0 0 0 0.968627 0 0 0 1 0"/>
<feBlend mode="normal" in2="shape" result="effect1_innerShadow"/>
</filter>
</defs>
</svg>
