<?xml version="1.0" encoding="UTF-8" standalone="no"?>
<!-- Created with Inkscape (http://www.inkscape.org/) -->

<svg
   xmlns:osb="http://www.openswatchbook.org/uri/2009/osb"
   xmlns:dc="http://purl.org/dc/elements/1.1/"
   xmlns:cc="http://creativecommons.org/ns#"
   xmlns:rdf="http://www.w3.org/1999/02/22-rdf-syntax-ns#"
   xmlns:svg="http://www.w3.org/2000/svg"
   xmlns="http://www.w3.org/2000/svg"
   xmlns:sodipodi="http://sodipodi.sourceforge.net/DTD/sodipodi-0.dtd"
   xmlns:inkscape="http://www.inkscape.org/namespaces/inkscape"
   version="1.1"
   id="svg2"
   width="300"
   height="300"
   viewBox="0 0 300 300"
   sodipodi:docname="arcolinux.svg"
   inkscape:version="0.92.2 2405546, 2018-03-11"
   inkscape:export-filename="/home/erik/.config/neofetch/arcolinux-hibiscus.png"
   inkscape:export-xdpi="96"
   inkscape:export-ydpi="96">
  <metadata
     id="metadata8">
    <rdf:RDF>
      <cc:Work
         rdf:about="">
        <dc:format>image/svg+xml</dc:format>
        <dc:type
           rdf:resource="http://purl.org/dc/dcmitype/StillImage" />
        <dc:title></dc:title>
      </cc:Work>
    </rdf:RDF>
  </metadata>
  <defs
     id="defs6">
    <linearGradient
       id="linearGradient2351"
       osb:paint="solid">
      <stop
         style="stop-color:#376ee5;stop-opacity:1;"
         offset="0"
         id="stop2349" />
    </linearGradient>
  </defs>
  <sodipodi:namedview
     pagecolor="#ffffff"
     bordercolor="#666666"
     borderopacity="1"
     objecttolerance="10"
     gridtolerance="10"
     guidetolerance="10"
     inkscape:pageopacity="0"
     inkscape:pageshadow="2"
     inkscape:window-width="1920"
     inkscape:window-height="1052"
     id="namedview4"
     showgrid="false"
     inkscape:zoom="1.5577558"
     inkscape:cx="9.6202495"
     inkscape:cy="129.08247"
     inkscape:window-x="1920"
     inkscape:window-y="0"
     inkscape:window-maximized="1"
     inkscape:current-layer="svg2"
     showguides="true"
     inkscape:guide-bbox="true">
    <sodipodi:guide
       position="6465.7119,4606.6272"
       orientation="1,0"
       id="guide940"
       inkscape:locked="false" />
  </sodipodi:namedview>
  <path
     style="fill:#5294e2;fill-opacity:1;stroke-width:1.19816113"
     d="m 27.213714,267.84107 c 0,-0.8113 117.683576,-224.673292 121.628726,-231.366589 l 2.72546,-4.624084 2.97675,5.223151 c 1.63723,2.872676 13.63555,25.711681 26.66285,50.753201 13.02733,25.041581 39.29676,75.389101 58.37649,111.883361 26.77315,51.20961 34.32125,66.58713 33.07294,67.37815 -0.88963,0.56376 -11.61061,1.03328 -23.82439,1.04344 l -22.20692,0.0179 -6.54894,-6.64058 c -16.43022,-16.66008 -45.1474,-31.76436 -77.24051,-40.62592 l -14.37785,-3.97003 17.97239,-0.90148 c 16.88354,-0.84682 35.92971,-0.27593 46.34294,1.38924 3.48052,0.5566 4.57889,0.32855 4.57889,-0.95064 0,-3.1603 -44.05652,-83.69283 -45.78549,-83.69283 -1.26005,0 -10.15396,15.50295 -44.67961,77.88042 -16.960709,30.64295 -30.931228,55.82806 -31.045676,55.96692 -0.51109,0.62021 -48.62805,1.84319 -48.62805,1.23586 z"
     id="path4559-6-7-5"
     inkscape:connector-curvature="0" />
</svg>
