<?xml version="1.0" encoding="UTF-8"?>
<svg width="96px" height="96px" viewBox="0 0 96 96" version="1.1" xmlns="http://www.w3.org/2000/svg" xmlns:xlink="http://www.w3.org/1999/xlink">
    <!-- Generator: Sketch 55.2 (78181) - https://sketchapp.com -->
    <title>illustration</title>
    <desc>Created with Sketch.</desc>
    <defs>
        <polygon id="path-1" points="0.00226341463 0.015052717 15.4516527 0.015052717 15.4516527 10.4027445 0.00226341463 10.4027445"></polygon>
        <polygon id="path-3" points="0.00226341463 0.015052717 15.4516527 0.015052717 15.4516527 15.4291101 0.00226341463 15.4291101"></polygon>
        <polygon id="path-5" points="0.00226341463 0.015052717 15.4516527 0.015052717 15.4516527 15.4291101 0.00226341463 15.4291101"></polygon>
        <polygon id="path-7" points="0.00226341463 0.015052717 15.4516527 0.015052717 15.4516527 15.4291101 0.00226341463 15.4291101"></polygon>
        <polygon id="path-9" points="0.00226341463 0.015052717 15.4516527 0.015052717 15.4516527 15.4291101 0.00226341463 15.4291101"></polygon>
        <polygon id="path-11" points="0.00226341463 0.015052717 15.185362 0.015052717 15.185362 11.7430761 0.00226341463 11.7430761"></polygon>
        <polygon id="path-13" points="0.00226341463 0.015052717 15.4516527 0.015052717 15.4516527 15.4291101 0.00226341463 15.4291101"></polygon>
        <polygon id="path-15" points="0.00226341463 0.0059458232 15.4516527 0.0059458232 15.4516527 6.7076412 0.00226341463 6.7076412"></polygon>
    </defs>
    <g id="Extension" stroke="none" stroke-width="1" fill="none" fill-rule="evenodd">
        <g id="modal" transform="translate(-126.000000, -67.000000)">
            <g transform="translate(31.000000, 40.000000)" id="notification">
                <g transform="translate(0.000000, 11.000000)">
                    <g id="Languages" transform="translate(95.000000, 16.000000)">
                        <g id="Group-13-Copy">
                            <circle id="Oval-5-Copy-2" fill="#EFF9FF" cx="48" cy="48" r="48"></circle>
                            <g id="App-Logo-Copy-3" transform="translate(28.800000, 28.266667)">
                                <rect id="Rectangle-1" fill="#EF574C" x="0" y="0" width="38.2845748" height="38.9734273" rx="6.00145522"></rect>
                                <ellipse id="Oval-1" fill="#FFFFFF" cx="8.20383745" cy="19.4410773" rx="2.73461248" ry="2.78381623"></ellipse>
                                <ellipse id="Oval-1" fill="#FFFFFF" cx="16.4076749" cy="19.4410773" rx="2.73461248" ry="2.78381623"></ellipse>
                                <ellipse id="Oval-1" fill="#FFFFFF" cx="24.6115124" cy="19.4410773" rx="2.73461248" ry="2.78381623"></ellipse>
                                <path d="M30.4115028,12.4929458 L30.4115028,26.412027 C30.4115028,27.0012736 30.8891815,27.4789523 31.4784282,27.4789523 C32.0676748,27.4789523 32.5453535,27.0012736 32.5453535,26.412027 L32.5453535,12.4929458 C32.5453535,11.9036992 32.0676748,11.4260204 31.4784282,11.4260204 C30.8891815,11.4260204 30.4115028,11.9036992 30.4115028,12.4929458 Z" id="Line" fill="#FEFDFD" fill-rule="nonzero"></path>
                            </g>
                            <g id="Group-29" transform="translate(11.873224, 12.187978)" stroke="#B1D9F2" stroke-width="2">
                                <circle id="Oval-6-Copy-2" cx="16.8918033" cy="2.17704918" r="2.09836066"></circle>
                                <rect id="Rectangle-22-Copy-4" stroke-linecap="round" stroke-linejoin="round" x="72.3934426" y="56.6120219" width="3.67213115" height="3.67213115"></rect>
                                <polygon id="Rectangle-22-Copy-5" stroke-linecap="round" stroke-linejoin="round" transform="translate(2.990031, 53.875277) rotate(-45.000000) translate(-2.990031, -53.875277) " points="1.15396589 52.0392118 4.82609703 52.0392118 4.82609703 55.7113429 1.15396589 55.7113429"></polygon>
                                <g id="Group-25-Copy-2" transform="translate(56.393443, 3.278689)" stroke-linecap="round">
                                    <path d="M0.131147541,0.131147541 L3.12177161,3.12177161" id="Line-3"></path>
                                    <path d="M0.131147541,0.131147541 L3.12177161,3.12177161" id="Line-3-Copy" transform="translate(1.573770, 1.573770) scale(-1, 1) translate(-1.573770, -1.573770) "></path>
                                </g>
                            </g>
                        </g>
                        <g id="germany" transform="translate(65.600000, 77.333333)">
                            <path d="M0.480522927,10.4027445 C1.5721678,13.3375727 4.40392585,15.4291101 7.72582634,15.4291101 C11.0475382,15.4291101 13.8794849,13.3375727 14.971092,10.4027445 L7.72582634,9.73259757 L0.480522927,10.4027445 Z" id="Fill-1" fill="#FFDA44"></path>
                            <g id="Group-5">
                                <mask id="mask-2" fill="white">
                                    <use xlink:href="#path-1"></use>
                                </mask>
                                <g id="Clip-3"></g>
                                <path d="M7.72582634,0.015052717 C4.40392585,0.015052717 1.5721678,2.10655247 0.480522927,5.0413807 L7.72582634,5.71156529 L14.971092,5.0413807 C13.8794849,2.10655247 11.0475382,0.015052717 7.72582634,0.015052717 Z" id="Fill-2" fill="#000000" mask="url(#mask-2)"></path>
                                <path d="M0.480522927,5.0413807 C0.170057886,5.87635491 0,6.7793674 0,7.72208143 C0,8.66479546 0.170057886,9.56780795 0.480522927,10.4027445 L14.971092,10.4027445 C15.2815948,9.56780795 15.4516527,8.66479546 15.4516527,7.72208143 C15.4516527,6.7793674 15.2815948,5.87635491 14.971092,5.0413807 L0.480522927,5.0413807 Z" id="Fill-4" fill="#D80027" mask="url(#mask-2)"></path>
                            </g>
                        </g>
                        <g id="italy" transform="translate(74.666667, 5.866667)">
                            <mask id="mask-4" fill="white">
                                <use xlink:href="#path-3"></use>
                            </mask>
                            <g id="Clip-2"></g>
                            <path d="M15.4516527,7.72208143 C15.4516527,11.9784253 11.9925515,15.4291101 7.72582634,15.4291101 C3.45891252,15.4291101 0,11.9784253 0,7.72208143 C0,3.46554939 3.45891252,0.015052717 7.72582634,0.015052717 C11.9925515,0.015052717 15.4516527,3.46554939 15.4516527,7.72208143 Z" id="Fill-1" fill="#F3F3F3" mask="url(#mask-4)"></path>
                            <path d="M15.4516527,7.72208143 C15.4516527,4.40826342 13.355014,1.5833953 10.4130276,0.494406488 L10.4130276,14.9497187 C13.355014,13.8607676 15.4516527,11.0357113 15.4516527,7.72208143 Z" id="Fill-3" fill="#D80027" mask="url(#mask-4)"></path>
                            <path d="M0,7.72208143 C0,11.0357113 2.09660098,13.8607676 5.03858732,14.9497187 L5.03858732,0.494406488 C2.09660098,1.5833953 0,4.40826342 0,7.72208143 Z" id="Fill-4" fill="#6DA544" mask="url(#mask-4)"></path>
                        </g>
                        <g id="france" transform="translate(2.133333, 40.533333)">
                            <mask id="mask-6" fill="white">
                                <use xlink:href="#path-5"></use>
                            </mask>
                            <g id="Clip-2"></g>
                            <path d="M15.4516527,7.72208143 C15.4516527,11.9784253 11.9925515,15.4291101 7.72582634,15.4291101 C3.45891252,15.4291101 0,11.9784253 0,7.72208143 C0,3.46554939 3.45891252,0.015052717 7.72582634,0.015052717 C11.9925515,0.015052717 15.4516527,3.46554939 15.4516527,7.72208143 Z" id="Fill-1" fill="#F3F3F3" mask="url(#mask-6)"></path>
                            <path d="M15.4516527,7.72208143 C15.4516527,4.40826342 13.355014,1.5833953 10.4130276,0.494406488 L10.4130276,14.9497187 C13.355014,13.8607676 15.4516527,11.0357113 15.4516527,7.72208143 Z" id="Fill-3" fill="#D80027" mask="url(#mask-6)"></path>
                            <path d="M0,7.72208143 C0,11.0357113 2.09660098,13.8607676 5.03858732,14.9497187 L5.03858732,0.494406488 C2.09660098,1.5833953 0,4.40826342 0,7.72208143 Z" id="Fill-4" fill="#0052B4" mask="url(#mask-6)"></path>
                        </g>
                        <g id="brazil" transform="translate(6.400000, 5.866667)">
                            <g id="Group-3">
                                <mask id="mask-8" fill="white">
                                    <use xlink:href="#path-7"></use>
                                </mask>
                                <g id="Clip-2"></g>
                                <path d="M15.4516527,7.72208143 C15.4516527,11.9784253 11.9925515,15.4291101 7.72582634,15.4291101 C3.45891252,15.4291101 0,11.9784253 0,7.72208143 C0,3.46554939 3.45891252,0.015052717 7.72582634,0.015052717 C11.9925515,0.015052717 15.4516527,3.46554939 15.4516527,7.72208143 Z" id="Fill-1" fill="#6DA544" mask="url(#mask-8)"></path>
                            </g>
                            <polygon id="Fill-4" fill="#FFDA44" points="7.72582634 3.03090219 14.1078634 7.72208143 7.72582634 12.4132607 1.34360065 7.72208143"></polygon>
                            <path d="M10.4130276,7.72208143 C10.4130276,9.20251614 9.20987187,10.4027445 7.72582634,10.4027445 C6.24162992,10.4027445 5.03858732,9.20251614 5.03858732,7.72208143 C5.03858732,6.24149619 6.24162992,5.0413807 7.72582634,5.0413807 C9.20987187,5.0413807 10.4130276,6.24149619 10.4130276,7.72208143 Z" id="Fill-5" fill="#F3F3F3"></path>
                            <path d="M6.38222569,7.55450706 C5.91494374,7.55450706 5.46388293,7.62533009 5.03949268,7.75692847 C5.05820358,9.22133204 6.2534374,10.4027445 7.72582634,10.4027445 C8.63620943,10.4027445 9.4403252,9.95071144 9.92646894,9.25967883 C9.09477724,8.22111663 7.81511805,7.55450706 6.38222569,7.55450706 Z" id="Fill-6" fill="#0052B4"></path>
                            <path d="M10.3632325,8.23568013 C10.3954862,8.06927234 10.4130276,7.89774663 10.4130276,7.72208143 C10.4130276,6.24149619 9.20987187,5.0413807 7.72582634,5.0413807 C6.61841301,5.0413807 5.66781659,5.70979659 5.25640325,6.66398832 C5.62005854,6.58883763 5.99657756,6.54932425 6.38222569,6.54932425 C7.9430387,6.54917372 9.35499447,7.19640292 10.3632325,8.23568013 Z" id="Fill-7" fill="#0052B4"></path>
                        </g>
                        <g id="united-states-of-america" transform="translate(40.533333, 9.066667)">
                            <g id="Group-3">
                                <mask id="mask-10" fill="white">
                                    <use xlink:href="#path-9"></use>
                                </mask>
                                <g id="Clip-2"></g>
                                <path d="M15.4516527,7.72208143 C15.4516527,11.9784253 11.9925515,15.4291101 7.72582634,15.4291101 C3.45891252,15.4291101 0,11.9784253 0,7.72208143 C0,3.46554939 3.45891252,0.015052717 7.72582634,0.015052717 C11.9925515,0.015052717 15.4516527,3.46554939 15.4516527,7.72208143 Z" id="Fill-1" fill="#F3F3F3" mask="url(#mask-10)"></path>
                            </g>
                            <path d="M7.38986016,7.72208143 L15.4516527,7.72208143 C15.4516527,7.02645775 15.3586641,6.35247234 15.185362,5.71156529 L7.38986016,5.71156529 L7.38986016,7.72208143 Z" id="Fill-4" fill="#D80027"></path>
                            <path d="M7.38986016,3.70104915 L14.3175688,3.70104915 C13.8447037,2.93121557 13.2399571,2.25060697 12.5349789,1.69053301 L7.38986016,1.69053301 L7.38986016,3.70104915 Z" id="Fill-5" fill="#D80027"></path>
                            <path d="M7.72582634,15.4291101 C9.54406504,15.4291101 11.2152572,14.8021268 12.5349789,13.7535922 L2.9166361,13.7535922 C4.23639545,14.8021268 5.90758764,15.4291101 7.72582634,15.4291101 Z" id="Fill-6" fill="#D80027"></path>
                            <g id="Group-10">
                                <mask id="mask-12" fill="white">
                                    <use xlink:href="#path-11"></use>
                                </mask>
                                <g id="Clip-8"></g>
                                <path d="M1.13393301,11.7430761 L14.3175688,11.7430761 C14.6972943,11.1250868 14.9917268,10.4494832 15.185362,9.73259757 L0.266139837,9.73259757 C0.459774959,10.4494832 0.75432065,11.1250868 1.13393301,11.7430761 Z" id="Fill-7" fill="#D80027" mask="url(#mask-12)"></path>
                                <path d="M3.5787226,1.21851744 L4.28279545,1.21851744 L3.62795187,1.69320487 L3.87802146,2.46111922 L3.22314016,1.98661995 L2.56829659,2.46111922 L2.78445268,1.79770835 C2.2078478,2.2769116 1.70242732,2.83818978 1.28599675,3.4636678 L1.51158374,3.4636678 L1.09473821,3.7657382 C1.02974049,3.8739296 0.967421138,3.98373917 0.907704715,4.09516691 L1.10680976,4.70623195 L0.735458862,4.43708938 C0.643073821,4.63213496 0.558648455,4.83177161 0.482748618,5.03535961 L0.702148943,5.70878054 L1.51158374,5.70878054 L0.856740163,6.18343033 L1.10680976,6.95134469 L0.451928455,6.47669489 L0.0596786992,6.76100308 C0.0204839024,7.07586829 0,7.39660406 0,7.72208143 L7.72582634,7.72208143 L7.72582634,0.015052717 C6.19964358,0.015052717 4.77689886,0.456624169 3.5787226,1.21851744 Z M3.87802146,6.95134469 L3.22314016,6.47669489 L2.56829659,6.95134469 L2.81851707,6.18343033 L2.16363577,5.70878054 L2.97307057,5.70878054 L3.22314016,4.94086618 L3.47336065,5.70878054 L4.28279545,5.70878054 L3.62795187,6.18343033 L3.87802146,6.95134469 Z M3.62795187,3.9383176 L3.87802146,4.70623195 L3.22314016,4.23158216 L2.56829659,4.70623195 L2.81851707,3.9383176 L2.16363577,3.4636678 L2.97307057,3.4636678 L3.22314016,2.69571582 L3.47336065,3.4636678 L4.28279545,3.4636678 L3.62795187,3.9383176 Z M6.64923317,6.95134469 L5.99435187,6.47669489 L5.33950829,6.95134469 L5.58972878,6.18343033 L4.93484748,5.70878054 L5.74428228,5.70878054 L5.99435187,4.94086618 L6.24457236,5.70878054 L7.05400715,5.70878054 L6.39916358,6.18343033 L6.64923317,6.95134469 Z M6.39916358,3.9383176 L6.64923317,4.70623195 L5.99435187,4.23158216 L5.33950829,4.70623195 L5.58972878,3.9383176 L4.93484748,3.4636678 L5.74428228,3.4636678 L5.99435187,2.69571582 L6.24457236,3.4636678 L7.05400715,3.4636678 L6.39916358,3.9383176 Z M6.39916358,1.69320487 L6.64923317,2.46111922 L5.99435187,1.98661995 L5.33950829,2.46111922 L5.58972878,1.69320487 L4.93484748,1.21851744 L5.74428228,1.21851744 L5.99435187,0.450603082 L6.24457236,1.21851744 L7.05400715,1.21851744 L6.39916358,1.69320487 Z" id="Fill-9" fill="#0052B4" mask="url(#mask-12)"></path>
                            </g>
                        </g>
                        <g id="netherlands" transform="translate(73.066667, 42.666667)">
                            <g id="Group-3">
                                <mask id="mask-14" fill="white">
                                    <use xlink:href="#path-13"></use>
                                </mask>
                                <g id="Clip-2"></g>
                                <path d="M15.4516527,7.72208143 C15.4516527,11.9784253 11.9925515,15.4291101 7.72582634,15.4291101 C3.45891252,15.4291101 0,11.9784253 0,7.72208143 C0,3.46554939 3.45891252,0.015052717 7.72582634,0.015052717 C11.9925515,0.015052717 15.4516527,3.46554939 15.4516527,7.72208143 Z" id="Fill-1" fill="#F3F3F3" mask="url(#mask-14)"></path>
                            </g>
                            <path d="M7.72582634,0.015052717 C4.40392585,0.015052717 1.5721678,2.10655247 0.480522927,5.0413807 L14.971092,5.0413807 C13.8794849,2.10655247 11.0475382,0.015052717 7.72582634,0.015052717 Z" id="Fill-4" fill="#A2001D"></path>
                            <path d="M7.72582634,15.4291101 C11.0475382,15.4291101 13.8794849,13.3375727 14.971092,10.4027445 L0.480522927,10.4027445 C1.5721678,13.3375727 4.40392585,15.4291101 7.72582634,15.4291101 Z" id="Fill-5" fill="#0052B4"></path>
                        </g>
                        <g id="spain" transform="translate(10.133333, 77.333333)">
                            <g id="Group-3" transform="translate(0.000000, 4.365288)">
                                <mask id="mask-16" fill="white">
                                    <use xlink:href="#path-15"></use>
                                </mask>
                                <g id="Clip-2"></g>
                                <path d="M0,3.35679351 C0,4.29950754 0.170057886,5.20252003 0.480522927,6.03745661 L7.72582634,6.7076412 L14.971092,6.03745661 C15.2815948,5.20252003 15.4516527,4.29950754 15.4516527,3.35679351 C15.4516527,2.41407948 15.2815948,1.51106699 14.971092,0.676092782 L7.72582634,0.0059458232 L0.480522927,0.676092782 C0.170057886,1.51106699 0,2.41407948 0,3.35679351 Z" id="Fill-1" fill="#FFDA44" mask="url(#mask-16)"></path>
                            </g>
                            <path d="M14.971092,5.0413807 C13.8794849,2.10655247 11.0475382,0.015052717 7.72582634,0.015052717 C4.40392585,0.015052717 1.5721678,2.10655247 0.480522927,5.0413807 L14.971092,5.0413807 Z" id="Fill-4" fill="#D80027"></path>
                            <path d="M0.480522927,10.4027445 C1.5721678,13.3375727 4.40392585,15.4291101 7.72582634,15.4291101 C11.0475382,15.4291101 13.8794849,13.3375727 14.971092,10.4027445 L0.480522927,10.4027445 Z" id="Fill-5" fill="#D80027"></path>
                        </g>
                    </g>
                </g>
            </g>
        </g>
    </g>
</svg>