<svg width="125" height="125" viewBox="0 0 125 125" fill="none" xmlns="http://www.w3.org/2000/svg">
<path fill-rule="evenodd" clip-rule="evenodd" d="M62.5 125C97.0178 125 125 97.0178 125 62.5C125 27.9822 97.0178 0 62.5 0C27.9822 0 0 27.9822 0 62.5C0 97.0178 27.9822 125 62.5 125Z" fill="#EBF5FB"/>
<rect x="90.9722" y="13.1944" width="4.16667" height="4.16667" stroke="#C2E0F4" stroke-width="2" stroke-linecap="round" stroke-linejoin="round"/>
<g filter="url(#filter0_i)">
<path fill-rule="evenodd" clip-rule="evenodd" d="M62.5 105.556C86.2789 105.556 105.556 86.2789 105.556 62.5C105.556 38.7211 86.2789 19.4444 62.5 19.4444C38.7211 19.4444 19.4445 38.7211 19.4445 62.5C19.4445 86.2789 38.7211 105.556 62.5 105.556Z" fill="white"/>
</g>
<path fill-rule="evenodd" clip-rule="evenodd" d="M62.5 105.556C86.2789 105.556 105.556 86.2789 105.556 62.5C105.556 38.7211 86.2789 19.4444 62.5 19.4444C38.7211 19.4444 19.4445 38.7211 19.4445 62.5C19.4445 86.2789 38.7211 105.556 62.5 105.556Z" stroke="#1C315F" stroke-width="2"/>
<path fill-rule="evenodd" clip-rule="evenodd" d="M62.5 95.8333C80.9095 95.8333 95.8333 80.9095 95.8333 62.5C95.8333 44.0905 80.9095 29.1667 62.5 29.1667C44.0905 29.1667 29.1666 44.0905 29.1666 62.5C29.1666 80.9095 44.0905 95.8333 62.5 95.8333Z" fill="white"/>
<mask id="mask0" mask-type="alpha" maskUnits="userSpaceOnUse" x="29" y="29" width="67" height="67">
<path fill-rule="evenodd" clip-rule="evenodd" d="M62.5 95.8333C80.9095 95.8333 95.8333 80.9095 95.8333 62.5C95.8333 44.0905 80.9095 29.1667 62.5 29.1667C44.0905 29.1667 29.1666 44.0905 29.1666 62.5C29.1666 80.9095 44.0905 95.8333 62.5 95.8333Z" fill="white"/>
</mask>
<g mask="url(#mask0)">
<path fill-rule="evenodd" clip-rule="evenodd" d="M33.5 13L62.5 25.6944V62.5L84.5 136.5L1.5 40L11.1111 102.083L33.5 13Z" fill="#D32D27"/>
</g>
<path d="M62.5 24.3056V32.3593" stroke="#1C315F" stroke-width="2" stroke-linecap="round"/>
<path d="M62.5 90.9722V99.026" stroke="#1C315F" stroke-width="2" stroke-linecap="round"/>
<path d="M100.347 61.4583H92.2935" stroke="#1C315F" stroke-width="2" stroke-linecap="round"/>
<path d="M33.6807 61.4583H25.6269" stroke="#1C315F" stroke-width="2" stroke-linecap="round"/>
<path d="M95.4968 80.2548L88.522 76.228" stroke="#1C315F" stroke-width="2" stroke-linecap="round"/>
<path d="M37.7618 46.9215L30.787 42.8946" stroke="#1C315F" stroke-width="2" stroke-linecap="round"/>
<path d="M81.898 94.1079L77.8711 87.1331" stroke="#1C315F" stroke-width="2" stroke-linecap="round"/>
<path d="M48.5646 36.3729L44.5377 29.3981" stroke="#1C315F" stroke-width="2" stroke-linecap="round"/>
<path d="M44.398 94.4551L48.4249 87.4804" stroke="#1C315F" stroke-width="2" stroke-linecap="round"/>
<path d="M77.7314 36.7201L81.7582 29.7453" stroke="#1C315F" stroke-width="2" stroke-linecap="round"/>
<path d="M30.5449 80.8563L37.5196 76.8294" stroke="#1C315F" stroke-width="2" stroke-linecap="round"/>
<path d="M88.2799 47.5229L95.2546 43.496" stroke="#1C315F" stroke-width="2" stroke-linecap="round"/>
<path fill-rule="evenodd" clip-rule="evenodd" d="M62.5 66.6667C64.8012 66.6667 66.6667 64.8012 66.6667 62.5C66.6667 60.1988 64.8012 58.3333 62.5 58.3333C60.1989 58.3333 58.3334 60.1988 58.3334 62.5C58.3334 64.8012 60.1989 66.6667 62.5 66.6667Z" fill="white" stroke="#1C315F" stroke-width="2"/>
<path fill-rule="evenodd" clip-rule="evenodd" d="M62.5 111.111C89.3472 111.111 111.111 89.3472 111.111 62.5C111.111 35.6528 89.3472 13.8889 62.5 13.8889C35.6529 13.8889 13.8889 35.6528 13.8889 62.5C13.8889 89.3472 35.6529 111.111 62.5 111.111Z" stroke="#C2E0F4" stroke-width="2" stroke-linecap="round" stroke-dasharray="100 140"/>
<path fill-rule="evenodd" clip-rule="evenodd" d="M117.361 62.5C117.361 32.201 92.799 7.63889 62.5 7.63889C32.2011 7.63889 7.63892 32.201 7.63892 62.5C7.63892 92.799 32.2011 117.361 62.5 117.361C92.799 117.361 117.361 92.799 117.361 62.5Z" stroke="#C2E0F4" stroke-width="2" stroke-linecap="round" stroke-dasharray="40 210"/>
<path fill-rule="evenodd" clip-rule="evenodd" d="M15.9722 19.6129L18.9184 16.6667L21.8647 19.6129L18.9184 22.5592L15.9722 19.6129Z" stroke="#C2E0F4" stroke-width="2" stroke-linecap="round" stroke-linejoin="round"/>
<path d="M71.0041 9.19854L74.8982 13.0926" stroke="#C2E0F4" stroke-width="2" stroke-linecap="round"/>
<path d="M74.761 9.19854L70.867 13.0926" stroke="#C2E0F4" stroke-width="2" stroke-linecap="round"/>
<defs>
<filter id="filter0_i" x="18.4445" y="18.4444" width="88.1111" height="88.1111" filterUnits="userSpaceOnUse" color-interpolation-filters="sRGB">
<feFlood flood-opacity="0" result="BackgroundImageFix"/>
<feBlend mode="normal" in="SourceGraphic" in2="BackgroundImageFix" result="shape"/>
<feColorMatrix in="SourceAlpha" type="matrix" values="0 0 0 0 0 0 0 0 0 0 0 0 0 0 0 0 0 0 127 0" result="hardAlpha"/>
<feOffset dx="5" dy="-6"/>
<feComposite in2="hardAlpha" operator="arithmetic" k2="-1" k3="1"/>
<feColorMatrix type="matrix" values="0 0 0 0 0.819608 0 0 0 0 0.898039 0 0 0 0 0.960784 0 0 0 1 0"/>
<feBlend mode="normal" in2="shape" result="effect1_innerShadow"/>
</filter>
</defs>
</svg>
