<?xml version="1.0" encoding="UTF-8"?>
<svg width="88px" height="18px" viewBox="0 0 88 18" version="1.1" xmlns="http://www.w3.org/2000/svg" xmlns:xlink="http://www.w3.org/1999/xlink">
    <!-- Generator: Sketch 50.2 (55047) - http://www.bohemiancoding.com/sketch -->
    <title>Partner_Verizon</title>
    <desc>Created with Sketch.</desc>
    <defs></defs>
    <g id="Full-flow" stroke="none" stroke-width="1" fill="none" fill-rule="evenodd">
        <g id="Artboard-Copy" transform="translate(-178.000000, -202.000000)">
            <g id="lp_vz" transform="translate(36.000000, 195.000000)">
                <g id="Partner_Verizon" transform="translate(136.000000, 0.000000)">
                    <polyline id="Fill-1" fill="#BA242A" points="91.9638567 7.15625 87.2087829 17.2421341 85.4111514 13.4151969 83.4683555 13.4151969 86.4197806 19.6741437 87.9895115 19.6741437 93.8916096 7.15773792 93.8916096 7.15625 91.9638567 7.15625"></polyline>
                    <path d="M41.4255904,10.5412742 L45.2908743,10.5412742 L45.2908743,7.15625 L41.4255904,7.15625 L41.4255904,10.5412742 Z M11.0147799,24.0590519 L15.0530576,24.0590519 L19.4365707,11.5887717 L15.5705348,11.5887717 L13.1080052,19.6019795 L13.0583635,19.6019795 L10.595834,11.5887717 L6.63201892,11.5887717 L11.0147799,24.0590519 Z M25.1980173,13.952337 C26.5526342,13.952337 27.4890573,14.9507331 27.6364781,16.4118732 L22.4895357,16.4118732 C22.7851295,14.9254384 23.5982005,13.952337 25.1980173,13.952337 Z M25.3950798,21.6724239 C23.6967317,21.6724239 22.6625295,20.5765688 22.465467,18.8959601 L31.5514037,18.8959601 C31.5762245,16.2169553 30.8624369,14.0736027 29.3596471,12.7344722 C28.3013761,11.7598829 26.8971176,11.2242307 25.125059,11.2242307 C21.3327335,11.2242307 18.6972101,14.0736027 18.6972101,17.8001051 C18.6972101,21.5511582 21.2093814,24.4250809 25.3710111,24.4250809 C26.9467593,24.4250809 28.2028449,24.0106944 29.236295,23.3039312 C30.3449597,22.5495543 31.1324577,21.4536993 31.3543411,20.3571002 L27.6605468,20.3571002 C27.2912426,21.1858732 26.5278133,21.6724239 25.3950798,21.6724239 Z M32.4622538,24.0590519 L36.3034689,24.0590519 L36.3034689,18.3357572 C36.3034689,15.7304046 37.8799691,14.5847041 40.2921048,14.9016316 L40.3665674,14.9016316 L40.3665674,11.6140664 C40.1695048,11.5404143 39.9476214,11.5166075 39.5783172,11.5166075 C38.0770317,11.5166075 37.0668981,12.1980761 36.2049376,13.6599601 L36.1312272,13.6599601 L36.1312272,11.5887717 L32.4622538,11.5887717 L32.4622538,24.0590519 Z M41.4255904,24.0590519 L45.2908743,24.0590519 L45.2908743,11.5887717 L41.4255904,11.5887717 L41.4255904,24.0590519 Z M46.3506495,24.0590519 L57.1364385,24.0590519 L57.1364385,21.0631196 L51.0290043,21.0631196 L51.0290043,20.9909553 L56.8656656,14.5125399 L56.8656656,11.5887717 L46.3506495,11.5887717 L46.3506495,14.5847041 L52.2602691,14.5847041 L52.2602691,14.6583563 L46.3506495,21.1858732 L46.3506495,24.0590519 Z M63.9561561,21.6486171 C62.1344559,21.6486171 61.1747162,20.1383756 61.1747162,17.8492065 C61.1747162,15.5347428 62.1344559,14.0490519 63.9561561,14.0490519 C65.7793606,14.0490519 66.7887419,15.5347428 66.7887419,17.8492065 C66.7887419,20.1383756 65.7793606,21.6486171 63.9561561,21.6486171 Z M63.9817291,11.2480374 C59.9675201,11.2480374 57.2838594,14.0981534 57.2838594,17.8492065 C57.2838594,21.574965 59.9675201,24.4496316 63.9817291,24.4496316 C67.9944337,24.4496316 70.6788466,21.574965 70.6788466,17.8492065 C70.6788466,14.0981534 67.9944337,11.2480374 63.9817291,11.2480374 Z M71.5167385,24.0590519 L75.3579536,24.0590519 L75.3579536,17.1178925 C75.3579536,15.5347428 76.2928724,14.4150809 77.671558,14.4150809 C79.001354,14.4150809 79.6910729,15.3398249 79.6910729,16.6551486 L79.6910729,24.0590519 L83.5330401,24.0590519 L83.5330401,15.9245785 C83.5330401,13.1726655 81.8587607,11.2242307 79.1502791,11.2242307 C77.4256059,11.2242307 76.2199141,11.9548007 75.309064,13.2946751 L75.2346014,13.2946751 L75.2346014,11.5887717 L71.5167385,11.5887717 L71.5167385,24.0590519 Z" id="Fill-2" fill="#0A0B09"></path>
                </g>
            </g>
        </g>
    </g>
</svg>