<?xml version="1.0" encoding="UTF-8"?>
<svg width="122px" height="24px" viewBox="0 0 122 24" version="1.1" xmlns="http://www.w3.org/2000/svg" xmlns:xlink="http://www.w3.org/1999/xlink">
    <!-- Generator: Sketch 50.2 (55047) - http://www.bohemiancoding.com/sketch -->
    <title>Partner_Webroot_White</title>
    <desc>Created with Sketch.</desc>
    <defs></defs>
    <g id="Full-flow" stroke="none" stroke-width="1" fill="none" fill-rule="evenodd">
        <g id="Artboard-Copy" transform="translate(-174.000000, -27.000000)" fill="#FFFFFF" fill-rule="nonzero">
            <g id="lp_wr_white" transform="translate(38.000000, 15.200000)">
                <g id="Partner_Webroot_White" transform="translate(132.682927, 0.000000)">
                    <path d="M123.69192,13.414192 C123.636366,13.4357293 123.548556,13.446498 123.43924,13.446498 L123.202689,13.446498 L123.202689,12.9008845 L123.428488,12.9008845 C123.575436,12.9008845 123.681167,12.9188323 123.749265,12.9583175 C123.813779,12.9924183 123.847828,13.0677991 123.847828,13.1772808 C123.847828,13.2921468 123.799443,13.372912 123.69192,13.414192 M124.086171,14.1267202 C124.080795,14.087235 124.080795,14.0513394 124.080795,14.0154437 L124.080795,13.9059621 C124.080795,13.8305812 124.053914,13.7534056 123.998361,13.6726405 C123.946391,13.5936701 123.858581,13.545211 123.738513,13.5254684 C123.833492,13.5093154 123.905174,13.487778 123.958936,13.4518824 C124.053914,13.389065 124.104092,13.290352 124.104092,13.1557434 C124.104092,12.9654966 124.028826,12.8380671 123.874709,12.773455 C123.786899,12.7393541 123.64891,12.7196115 123.464329,12.7196115 L122.939258,12.7196115 L122.939258,14.2236384 L123.202689,14.2236384 L123.202689,13.6349501 L123.410567,13.6349501 C123.550348,13.6349501 123.647118,13.6511031 123.706256,13.6816144 C123.801235,13.7390474 123.846036,13.8521186 123.846036,14.0262124 L123.846036,14.1464628 L123.851412,14.1931271 C123.856789,14.2003062 123.856789,14.2056906 123.856789,14.2092801 C123.862165,14.2164592 123.862165,14.2200488 123.862165,14.2254332 L124.11126,14.2254332 L124.100508,14.2056906 C124.091547,14.1931271 124.087963,14.1662054 124.086171,14.1267202" id="Shape"></path>
                    <path d="M124.392612,14.3079931 C124.161437,14.5395199 123.887253,14.6561807 123.559308,14.6561807 C123.231362,14.6561807 122.955386,14.5395199 122.727795,14.3079931 C122.501997,14.0764663 122.385513,13.7982752 122.385513,13.4680354 C122.385513,13.14318 122.500205,12.8649888 122.729588,12.6352568 C122.957178,12.40373 123.236738,12.2870692 123.559308,12.2870692 C123.887253,12.2870692 124.161437,12.4019352 124.392612,12.6352568 C124.620203,12.8649888 124.734894,13.14318 124.734894,13.4680354 C124.736686,13.80007 124.620203,14.0782611 124.392612,14.3079931 M123.559308,12.1022067 C123.184769,12.1022067 122.862199,12.2368153 122.596976,12.5006482 C122.32996,12.7698654 122.193764,13.0893365 122.193764,13.4680354 C122.193764,13.8485291 122.326376,14.1715897 122.591599,14.4390121 C122.856823,14.7082294 123.181185,14.842838 123.559308,14.842838 C123.939223,14.842838 124.26,14.7082294 124.528808,14.4390121 C124.795824,14.1715897 124.93202,13.8467343 124.93202,13.4680354 C124.93202,13.0893365 124.797616,12.7662759 124.528808,12.5006482 C124.26,12.2368153 123.939223,12.1022067 123.559308,12.1022067" id="Shape"></path>
                    <path d="M101.149691,21.0186808 C101.11385,21.469171 100.898803,21.7491569 100.466919,21.8012055 C99.7823547,21.8855602 98.2859908,21.9501724 97.2573527,21.9501724 C96.2269224,21.9501724 94.712638,21.8855602 94.028074,21.8012055 C93.5979814,21.7527464 93.3775589,21.469171 93.347094,21.0186808 C93.3309655,20.7189523 93.2969165,19.2221046 93.2969165,18.3695834 C93.2969165,17.5206518 93.3309655,16.0202146 93.347094,15.7186913 C93.379351,15.2717907 93.5979814,14.9882153 94.028074,14.9379614 C94.712638,14.8554014 96.2269224,14.7889945 97.2573527,14.7889945 C98.2859908,14.7889945 99.7823547,14.8554014 100.466919,14.9379614 C100.898803,14.9882153 101.11385,15.2717907 101.149691,15.7186913 C101.164027,16.0202146 101.198076,17.5206518 101.198076,18.3695834 C101.198076,19.2221046 101.164027,20.7189523 101.149691,21.0186808 M102.258971,12.3570657 C100.73035,12.1919458 98.802102,12.1075911 97.2555606,12.1075911 C95.7072272,12.1075911 93.7592661,12.1919458 92.2306453,12.3570657 C91.1321171,12.4755213 90.3830391,13.4554719 90.3006047,14.4749078 C90.2522193,15.1246186 90.2145862,17.7234621 90.2145862,18.3713782 C90.2145862,19.0210891 90.2522193,21.6217274 90.3006047,22.2714383 C90.3830391,23.2890793 91.1321171,24.2869778 92.2306453,24.4054334 C93.7592661,24.572348 95.7090193,24.6369602 97.2555606,24.6369602 C98.8003099,24.6369602 100.73035,24.572348 102.258971,24.4054334 C103.359292,24.2869778 104.10837,23.2908741 104.189012,22.2714383 C104.242773,21.6235222 104.271446,19.0210891 104.271446,18.3713782 C104.271446,17.7234621 104.240981,15.1264134 104.189012,14.4749078 C104.10837,13.4572667 103.359292,12.4755213 102.258971,12.3570657" id="Shape"></path>
                    <path d="M84.8223001,21.0186808 C84.7918352,21.469171 84.5749968,21.7527464 84.137736,21.8012055 C83.4603401,21.8855602 81.9621842,21.9501724 80.931754,21.9501724 C79.8995317,21.9501724 78.3852473,21.8855602 77.7024753,21.8012055 C77.2723827,21.7527464 77.0537523,21.469171 77.0197033,21.0186808 C77.0017828,20.7189523 76.9713179,19.2221046 76.9713179,18.3713782 C76.9713179,17.5224466 77.0017828,16.0220094 77.0197033,15.7204861 C77.0537523,15.2735855 77.2705907,14.99001 77.7024753,14.9397562 C78.3834553,14.8571962 79.8995317,14.7907893 80.931754,14.7907893 C81.9621842,14.7907893 83.4585481,14.8571962 84.137736,14.9397562 C84.5749968,14.99001 84.7918352,15.2735855 84.8223001,15.7204861 C84.8420126,16.0220094 84.8742696,17.5224466 84.8742696,18.3713782 C84.8742696,19.2221046 84.8420126,20.7189523 84.8223001,21.0186808 M85.9387488,12.3570657 C84.4083359,12.1919458 82.4765033,12.1075911 80.931754,12.1075911 C79.3798365,12.1075911 77.4354595,12.1919458 75.9068387,12.3570657 C74.8083105,12.4755213 74.0610245,13.4572667 73.9785901,14.4749078 C73.9302047,15.1246186 73.8943637,17.7234621 73.8943637,18.3713782 C73.8943637,19.0210891 73.9302047,21.6217274 73.9785901,22.2696435 C74.0610245,23.2872845 74.8083105,24.285183 75.9068387,24.4036386 C77.4372515,24.5705532 79.3816285,24.6351654 80.931754,24.6351654 C82.4765033,24.6351654 84.4065439,24.5705532 85.9387488,24.4036386 C87.0390691,24.285183 87.786355,23.2890793 87.8687894,22.2696435 C87.9171748,21.6217274 87.9512238,19.0192943 87.9512238,18.3695834 C87.9512238,17.7216674 87.9171748,15.1246186 87.8687894,14.473113 C87.786355,13.4572667 87.0390691,12.4755213 85.9387488,12.3570657" id="Shape"></path>
                    <path d="M68.1884684,16.7291532 C68.1580035,17.1778486 67.9411651,17.4632188 67.5092805,17.5134727 C66.8265084,17.5960327 65.3301446,17.6624396 64.2979223,17.6624396 C63.2692841,17.6624396 61.6223879,17.5780848 61.0202582,17.5314205 C60.9378238,17.5152675 60.5059391,17.4632188 60.3392782,17.4470658 L60.3392782,15.0061631 C60.4844345,14.99001 60.9718728,14.9397562 61.2890661,14.9074501 C61.9324129,14.8374536 63.2459875,14.7907893 64.2961302,14.7907893 C65.3283525,14.7907893 66.8247164,14.8571962 67.5074884,14.9397562 C67.9393731,14.99001 68.1544194,15.2735855 68.1866763,15.7204861 C68.2045968,15.9556024 68.2010127,15.9250912 68.2010127,16.1637971 C68.2045968,16.5981342 68.2081809,16.4958316 68.1884684,16.7291532 M68.3963465,20.1410327 L68.3963465,20.1392379 C68.7135398,20.1123162 69.0253569,20.0853945 69.3174615,20.0548832 C70.0324904,19.9777076 70.5916108,19.530807 70.9195564,18.9510926 C71.0987617,18.586752 71.2044928,18.1811314 71.2331656,17.7970482 C71.2672146,17.346558 71.3012636,17.4057858 71.3012636,16.756075 C71.3012636,15.8874007 71.2672146,14.9218083 71.2331656,14.4749078 C71.1489392,13.4572667 70.4034453,12.4755213 69.303125,12.3570657 C67.7780883,12.1919458 65.8444636,12.1075911 64.2979223,12.1075911 C62.7495889,12.1075911 60.8858543,12.1722032 59.4557963,12.3086066 C58.4576231,12.4091144 57.260532,12.5401334 57.260532,12.5401334 L57.260532,24.5364524 L60.3392782,24.5364524 L60.3392782,20.1787231 L60.3554067,20.1787231 L60.3554067,20.1769283 C61.5399534,20.2487196 63.163553,20.3043578 64.3032985,20.3043578 C64.5721063,20.3043578 64.8516665,20.302563 65.140187,20.2935891 L67.8999479,24.5472211 L71.3872822,24.5472211 L68.9823476,21.0150913 C68.9859317,21.0132965 68.3927624,20.1428275 68.3963465,20.1410327" id="Shape"></path>
                    <path d="M50.848568,17.0558035 C50.2141814,17.1222104 48.9507843,17.1904121 47.9203541,17.1904121 L43.6086757,17.1904121 L43.6086757,14.9720622 C43.7610002,14.9559092 44.2448543,14.9218083 44.5602556,14.8877075 C45.2053945,14.8230954 46.7035504,14.7566885 47.7519012,14.7566885 C48.7823314,14.7566885 50.2500224,14.8374536 50.8808249,14.9074501 C51.4130645,14.9720622 51.5438844,15.4046045 51.5438844,15.9879085 C51.5456764,16.5730072 51.3825996,16.9911913 50.848568,17.0558035 M50.882617,21.855049 C50.2518145,21.9214559 48.7841234,21.9896576 47.7536932,21.9896576 C46.7053425,21.9896576 45.2089786,21.9376089 44.5620476,21.8729968 C44.2448543,21.8371011 43.7627922,21.788642 43.6104677,21.7706942 L43.6104677,19.5541392 L47.9221462,19.5541392 C48.9525764,19.5541392 50.2159734,19.6043931 50.85036,19.6725948 C51.3843917,19.7372069 51.5456764,20.1912866 51.5456764,20.7727958 C51.5456764,21.3543049 51.4148566,21.7868473 50.882617,21.855049 M54.6065021,15.3920411 C54.6065021,14.0908245 54.2445075,12.5239804 52.6424126,12.3588605 C51.1335043,12.1919458 49.2679776,12.1075911 47.7536932,12.1075911 C46.2071519,12.1075911 44.1624199,12.1722032 42.7287779,12.3086066 C41.7359808,12.4091144 40.5353056,12.5401334 40.5353056,12.5401334 L40.5353056,24.2008283 C40.7037585,24.2187761 41.8148311,24.3515899 42.7305699,24.4341499 C44.164212,24.5705532 46.2089439,24.6333706 47.7554853,24.6333706 C49.2697697,24.6333706 51.1352964,24.5687585 52.6459967,24.4018438 C54.2480916,24.2331343 54.6100863,22.6537267 54.6100863,21.3525102 C54.6100863,20.3510221 54.4093764,19.071343 53.5635276,18.5364981 C53.4810932,18.488039 53.2965117,18.4216321 53.2302058,18.3695834 C53.2965117,18.3193296 53.4810932,18.2188218 53.5635276,18.1703627 C54.4075843,17.6373126 54.6065021,16.3881448 54.6065021,15.3920411" id="Shape"></path>
                    <path d="M28.0518676,14.9074501 C28.7310555,14.8230954 30.2453399,14.7566885 31.2775621,14.7566885 C32.773926,14.7566885 35.0372884,14.7746363 36.5515728,14.8554014 C36.764827,14.8679649 37.515697,14.957704 37.8131778,15.0043683 L38.0138877,12.3732187 C37.6966944,12.3247596 36.832925,12.2224571 36.5981661,12.2098936 C35.1035943,12.1129754 32.7900545,12.1075911 31.2775621,12.1075911 C29.7310208,12.1075911 27.7830597,12.1919458 26.2544389,12.3570657 C25.1559107,12.4755213 24.4068327,13.4572667 24.3243983,14.473113 C24.2742208,15.1210291 24.2419639,17.7216674 24.2419639,18.3695834 C24.2419639,19.0192943 24.2760129,21.6199326 24.3243983,22.2678487 C24.4068327,23.2854898 25.1559107,24.2833882 26.2544389,24.4018438 C27.7830597,24.5705532 29.7310208,24.6333706 31.2775621,24.6333706 C32.7900545,24.6333706 35.1161387,24.6315758 36.5981661,24.5436315 C36.832925,24.5310681 37.6966944,24.4126125 38.0138877,24.3605638 L37.8131778,21.7276195 C37.515697,21.7778734 36.763035,21.8783811 36.5515728,21.8927394 C35.0444566,22.0201689 32.773926,21.9842732 31.2775621,21.9842732 C30.2453399,21.9842732 28.7328475,21.9178663 28.0518676,21.8317168 C27.6163988,21.7832577 27.3995604,21.4978875 27.3673035,21.0491921 C27.351175,20.8499714 27.3350466,20.1661596 27.3350466,19.5990087 L34.41007,19.5990087 L34.41007,17.1222104 L27.3350466,17.1222104 C27.3350466,16.5550594 27.351175,15.8874007 27.3673035,15.68818 C27.3995604,15.2376899 27.6163988,14.9559092 28.0518676,14.9074501" id="Shape"></path>
                    <polygon id="Shape" points="105.853829 14.8877075 112.007737 14.8877075 112.007737 24.5364524 115.086483 24.5364524 115.086483 14.8877075 121.227847 14.8877075 121.227847 12.2063041 105.853829 12.2063041"></polygon>
                    <path d="M22.4427431,12.1937406 L22.4427431,12.1991249 L19.3675809,12.1991249 C19.2851465,12.5975664 18.3048938,16.0489311 18.1955786,16.4258352 C18.0898475,16.8063288 17.4823417,18.6836702 17.3461457,19.05519 C17.3282252,19.0964699 17.1257232,19.6187513 17.1042186,19.6582365 L14.3731305,13.6259762 L12.106184,13.6259762 L9.37509597,19.6546469 C9.35538339,19.6151618 9.14929735,19.0928804 9.13316888,19.0516004 C8.99697289,18.6800806 8.38588297,16.8027393 8.28015187,16.4222456 C8.17442077,16.0453415 7.19058392,12.5957716 7.10994156,12.1955354 L4.03119529,12.1955354 L4.03119529,12.1937406 L4.01148271,12.1937406 L4.01327476,12.1973302 L4.01148271,12.1973302 L4.05628403,12.3427074 L4.05628403,12.3445022 C4.18351976,12.9852392 5.89492993,18.6890545 6.06875903,19.3154333 C6.24796429,19.9400172 7.30706734,23.1060116 7.53107391,23.7144425 C7.55437059,23.7772599 7.58125138,23.8364876 7.60992422,23.8957154 L7.61171627,23.9010998 C7.80525794,24.4915829 8.25685519,24.5795272 8.84464842,24.613628 L8.91812257,24.6154228 C9.51308402,24.6154228 9.89837531,24.4951724 10.125966,24.096731 L13.2405533,17.2101547 L16.3551406,24.096731 C16.5809392,24.4951724 16.9698146,24.6154228 17.561192,24.6154228 L17.6364582,24.613628 C18.2260435,24.5795272 18.6758487,24.4915829 18.8675983,23.9010998 L18.8711824,23.8957154 C18.8980632,23.8364876 18.926736,23.7772599 18.9464486,23.7144425 C19.1704552,23.1060116 20.2331423,19.941812 20.4105555,19.3154333 C20.5879687,18.6890545 22.2957948,12.9834444 22.4266146,12.346297 L22.4266146,12.3445022 L22.471416,12.1991249 L22.4660398,12.1991249 L22.471416,12.1937406 C22.471416,12.1937406 22.4427431,12.1937406 22.4427431,12.1937406 Z" id="Shape"></path>
                    <path d="M42.4760985,33.3972883 C41.8614245,33.3972883 41.4044511,33.3362657 41.0191598,33.2752431 C40.8704194,33.2483214 40.8524989,33.2124258 40.8524989,33.1173024 L40.8524989,32.7655252 C40.8524989,32.668607 40.9223889,32.6255323 41.0012392,32.6255323 L41.02812,32.6255323 C41.4313319,32.6596331 42.0728867,32.6775809 42.4760985,32.6775809 C43.5280333,32.6775809 43.8093856,32.2558073 43.8093856,31.6401973 C43.8093856,31.2004758 43.5549141,30.9545908 42.7556587,30.4628206 L41.9044337,29.9441288 C41.0980101,29.4523587 40.6930062,29.0036634 40.6930062,28.300109 C40.6930062,27.2375984 41.4564206,26.7440335 42.7897077,26.7440335 C43.3076109,26.7440335 43.9832147,26.797877 44.3165364,26.8499256 C44.404347,26.8678735 44.4652768,26.9109482 44.4652768,27.0006873 L44.4652768,27.3775914 C44.4652768,27.4655357 44.404347,27.5175843 44.3165364,27.5175843 L44.2986159,27.5175843 C43.9115326,27.4906626 43.2986506,27.4655357 42.7879156,27.4655357 C41.8847211,27.4655357 41.4976378,27.6593721 41.4976378,28.300109 C41.4976378,28.7129088 41.7879503,28.9587938 42.4545939,29.3626196 L43.2610175,29.8454158 C44.2789033,30.452052 44.6391059,30.9366429 44.6391059,31.6384025 C44.64269,32.4819497 44.2036371,33.3972883 42.4760985,33.3972883" id="Shape"></path>
                    <path d="M51.0922871,33.3344709 L50.6711548,33.3344709 C50.5743839,33.3344709 50.4955336,33.2555005 50.4955336,33.1585823 L50.4955336,30.0482261 C50.4955336,29.310571 50.1532516,29.1077607 49.6962782,29.1077607 C49.3808769,29.1077607 49.0117141,29.2136528 48.6694321,29.3446718 C48.7231936,29.5385082 48.7482824,29.7664455 48.7482824,30.0302783 L48.7482824,33.1603771 C48.7482824,33.2483214 48.6873526,33.3362657 48.5905818,33.3362657 L48.1264402,33.3362657 C48.0386296,33.3362657 47.9759077,33.2572953 47.9759077,33.1603771 L47.9759077,30.0302783 C47.9759077,29.2657014 47.7572773,29.1077607 47.3003039,29.1077607 C46.9849027,29.1077607 46.5978193,29.2657014 46.2286565,29.4505639 L46.2286565,33.1603771 C46.2286565,33.2483214 46.1677267,33.3362657 46.0709559,33.3362657 L45.6068143,33.3362657 C45.5190037,33.3362657 45.4580739,33.2572953 45.4580739,33.1603771 L45.4580739,28.6770131 C45.4580739,28.5800949 45.527964,28.5011246 45.6247348,28.5011246 L46.0637877,28.5011246 C46.1605585,28.5011246 46.2304486,28.5800949 46.2304486,28.6770131 L46.2304486,28.8439278 C46.5816909,28.6231697 47.029704,28.4311281 47.5117661,28.4311281 C47.8898892,28.4311281 48.1694494,28.5370202 48.3898719,28.7900844 C48.871934,28.5621471 49.3898372,28.4311281 49.8468106,28.4311281 C50.6371058,28.4311281 51.2679083,28.82598 51.2679083,30.0482261 L51.2679083,33.1603771 C51.2679083,33.2555005 51.1872659,33.3344709 51.0922871,33.3344709" id="Shape"></path>
                    <path d="M54.8287167,30.9976655 L54.1782016,30.9976655 C53.1173065,30.9976655 52.8359542,31.2345767 52.8359542,31.8591606 L52.8359542,31.9650527 C52.8359542,32.5968157 53.135227,32.7655252 53.6441699,32.7655252 C54.0473818,32.7655252 54.4075843,32.6416853 54.8287167,32.413748 L54.8287167,30.9976655 Z M55.4254702,33.3344709 L55.0204663,33.3344709 C54.9236954,33.3344709 54.8448451,33.2555005 54.8448451,33.1585823 L54.8448451,32.9647459 C54.4237128,33.210631 53.9846599,33.3954935 53.4936375,33.3954935 C52.7481437,33.3954935 52.0635796,33.070638 52.0635796,31.9722318 L52.0635796,31.8663397 C52.0635796,30.9169003 52.6155318,30.443078 54.1782016,30.443078 L54.8287167,30.443078 L54.8287167,30.0913009 C54.8287167,29.3536457 54.5742452,29.096992 53.8896811,29.096992 C53.3198084,29.096992 52.8986761,29.1328876 52.5474338,29.1687832 L52.5044245,29.1687832 C52.4255742,29.1687832 52.3467239,29.1418615 52.3467239,29.0287903 L52.3467239,28.7200879 C52.3467239,28.6231697 52.4094457,28.571121 52.5313053,28.5531732 C52.8915079,28.4921506 53.2947197,28.4383072 53.8914732,28.4383072 C55.111861,28.4383072 55.6028834,29.0539172 55.6028834,30.0913009 L55.6028834,33.1585823 C55.6010913,33.2555005 55.5204489,33.3344709 55.4254702,33.3344709 Z" id="Shape"></path>
                    <path d="M58.557978,29.1077607 C58.1547662,29.1077607 57.7856034,29.2136528 57.3465505,29.4774856 L57.3465505,33.1603771 C57.3465505,33.2483214 57.2677002,33.3362657 57.1709293,33.3362657 L56.7408367,33.3362657 C56.6530262,33.3362657 56.5741758,33.2572953 56.5741758,33.1603771 L56.5741758,28.6770131 C56.5741758,28.5800949 56.6440659,28.5011246 56.7408367,28.5011246 L57.1530088,28.5011246 C57.2497796,28.5011246 57.3196697,28.5800949 57.3196697,28.6770131 L57.3196697,28.8618756 C57.7587226,28.554968 58.1619344,28.440102 58.557978,28.440102 C58.6798376,28.440102 58.7425594,28.4939454 58.7425594,28.5980427 L58.7425594,28.9587938 C58.7407674,29.0539172 58.6798376,29.1077607 58.557978,29.1077607" id="Shape"></path>
                    <path d="M61.7603759,33.3524187 C61.5847547,33.3793404 61.3571641,33.3954935 61.1887111,33.3954935 C60.3822875,33.3954935 59.9952041,33.1855041 59.9952041,32.2181169 L59.9952041,29.1508354 L59.1439792,29.0539172 C59.0472083,29.0449433 58.9773183,28.9928947 58.9773183,28.8959765 L58.9773183,28.6590653 C58.9773183,28.5621471 59.0472083,28.5011246 59.1439792,28.5011246 L59.9952041,28.5011246 L59.9952041,27.6396295 C59.9952041,27.5516852 60.057926,27.4816887 60.1529048,27.4637409 L60.6080861,27.3937444 L60.6349669,27.3937444 C60.7048569,27.3937444 60.7657867,27.454767 60.7657867,27.5427113 L60.7657867,28.5011246 L61.7137825,28.5011246 C61.8105534,28.5011246 61.8894037,28.5800949 61.8894037,28.6770131 L61.8894037,28.9767416 C61.8894037,29.0736598 61.8105534,29.1526302 61.7137825,29.1526302 L60.7675788,29.1526302 L60.7675788,32.2199117 C60.7675788,32.7045026 60.8912304,32.7727043 61.2424727,32.7727043 L61.7334951,32.7727043 C61.8553547,32.7727043 61.9180765,32.8086 61.9180765,32.8947495 L61.9180765,33.2016571 C61.9180765,33.2824223 61.8732752,33.3344709 61.7603759,33.3524187" id="Shape"></path>
                    <path d="M65.4520041,30.4951267 C65.4520041,29.5008178 65.073881,29.1149398 64.3032985,29.1149398 C63.5488443,29.1149398 63.127712,29.5456873 63.127712,30.4951267 L63.127712,30.5740971 L65.4537962,30.5740971 L65.4520041,30.4951267 Z M66.0666782,31.1645802 L63.1259199,31.1645802 L63.1259199,31.2866253 C63.1259199,32.3329829 63.538092,32.7188609 64.3463077,32.7188609 C64.8552506,32.7188609 65.5039737,32.68476 65.9089775,32.6219427 L65.9519868,32.6219427 C66.0218768,32.6219427 66.0917669,32.6560435 66.0917669,32.7439878 L66.0917669,33.0437163 C66.0917669,33.1567876 66.0577179,33.2196049 65.9161457,33.2465266 C65.4161631,33.3434448 64.9341009,33.3954935 64.3445157,33.3954935 C63.3355901,33.3954935 62.3517532,32.9198764 62.3517532,31.2848305 L62.3517532,30.4933319 C62.3517532,29.2369849 63.0452776,28.4365124 64.2997143,28.4365124 C65.5810319,28.4365124 66.2297549,29.2459588 66.2297549,30.4933319 L66.2297549,30.9671542 C66.233339,31.083815 66.1724093,31.1645802 66.0666782,31.1645802 Z" id="Shape"></path>
                    <path d="M69.0504456,29.1077607 C68.6472338,29.1077607 68.278071,29.2136528 67.8390181,29.4774856 L67.8390181,33.1603771 C67.8390181,33.2483214 67.7601678,33.3362657 67.663397,33.3362657 L67.2333044,33.3362657 C67.1454938,33.3362657 67.0666435,33.2572953 67.0666435,33.1603771 L67.0666435,28.6770131 C67.0666435,28.5800949 67.1365335,28.5011246 67.2333044,28.5011246 L67.6454764,28.5011246 C67.7422473,28.5011246 67.8121373,28.5800949 67.8121373,28.6770131 L67.8121373,28.8618756 C68.2511902,28.554968 68.654402,28.440102 69.0504456,28.440102 C69.1723052,28.440102 69.2350271,28.4939454 69.2350271,28.5980427 L69.2350271,28.9587938 C69.2350271,29.0539172 69.1723052,29.1077607 69.0504456,29.1077607" id="Shape"></path>
                    <path d="M75.4982507,33.2824223 C75.1290879,33.3524187 74.7868058,33.3972883 74.041312,33.3972883 C72.9624963,33.3972883 71.724188,32.8175739 71.724188,30.681784 L71.724188,29.4595378 C71.724188,27.3058001 72.9624963,26.7440335 74.041312,26.7440335 C74.5932642,26.7440335 75.1290879,26.8230039 75.5161712,26.8840265 C75.5950215,26.8930004 75.6559513,26.9199221 75.6559513,26.9988925 L75.6559513,27.4475879 C75.6559513,27.4996365 75.6380308,27.5445061 75.5502202,27.5445061 L75.5233394,27.5445061 C75.2079382,27.5175843 74.5574231,27.4655357 74.0484802,27.4655357 C73.188295,27.4655357 72.5216514,27.9662797 72.5216514,29.4613326 L72.5216514,30.6835788 C72.5216514,32.1606839 73.188295,32.6793757 74.0484802,32.6793757 C74.5484628,32.6793757 75.1810574,32.6363009 75.4964586,32.6093792 L75.5322997,32.6093792 C75.6290705,32.6093792 75.6720798,32.652454 75.6720798,32.7493722 L75.6720798,33.1101232 C75.6738718,33.2124258 75.5950215,33.2644744 75.4982507,33.2824223" id="Shape"></path>
                    <path d="M79.9120761,28.711114 L78.4640976,33.7741924 C78.1917057,34.7236317 77.8673441,35.0754089 76.8584186,35.0754089 C76.6129074,35.0754089 76.3046743,35.0395133 76.121885,34.9964385 C76.0161539,34.9695168 75.9373036,34.9425951 75.9373036,34.8564456 L75.9373036,34.5315901 C75.9373036,34.4346719 76.0071936,34.3915972 76.1039644,34.3915972 L76.1308452,34.3915972 C76.3243869,34.409545 76.7186385,34.4436458 76.9121801,34.4436458 C77.4121628,34.4436458 77.6325853,34.3126268 77.7813256,33.6970168 L77.8691362,33.3362657 L77.7472766,33.3362657 C77.4838449,33.3362657 77.2562542,33.2752431 77.0985536,32.7296296 L75.9283433,28.711114 C75.919383,28.6931662 75.919383,28.6680392 75.919383,28.6500914 C75.919383,28.5621471 75.9731446,28.4993298 76.0770837,28.4993298 L76.5591458,28.4993298 C76.6290358,28.4993298 76.6899656,28.5693262 76.7078862,28.6393227 L77.7436925,32.4532332 C77.7867018,32.6291218 77.8494236,32.6470696 77.9103534,32.6470696 L78.0501335,32.6470696 L79.1217809,28.6303488 C79.1397015,28.5603523 79.2095915,28.4993298 79.2884418,28.4993298 L79.7794642,28.4993298 C79.8672748,28.4993298 79.9192443,28.5603523 79.9192443,28.6500914 C79.9210364,28.6680392 79.9210364,28.6949609 79.9120761,28.711114" id="Shape"></path>
                    <path d="M83.5786156,30.5920449 C83.5786156,29.6515794 83.2972634,29.1149398 82.4370781,29.1149398 C82.1646861,29.1149398 81.7005445,29.1239137 81.410232,29.1777571 L81.410232,32.6668122 C81.7095048,32.6937339 82.1395974,32.7188609 82.4370781,32.7188609 C83.3062236,32.7188609 83.5786156,32.184016 83.5786156,31.2256027 L83.5786156,30.5920449 Z M82.4370781,33.3972883 C81.9102147,33.3972883 81.3672228,33.3542135 80.8224388,33.2483214 C80.6647382,33.2213997 80.6378574,33.169351 80.6378574,33.0455111 L80.6378574,26.8912056 C80.6378574,26.8032613 80.6987872,26.7242909 80.795558,26.7242909 L81.2417791,26.7242909 C81.3295897,26.7242909 81.40844,26.7942874 81.40844,26.8912056 L81.40844,28.5262515 C81.7417617,28.4652289 82.1539338,28.4383072 82.4352861,28.4383072 C83.7076434,28.4383072 84.3491982,29.211858 84.3491982,30.5920449 L84.3491982,31.2256027 C84.3509902,32.5447671 83.7542368,33.3972883 82.4370781,33.3972883 Z" id="Shape"></path>
                    <path d="M88.1053403,30.4951267 C88.1053403,29.5008178 87.7290093,29.1149398 86.9566346,29.1149398 C86.2021805,29.1149398 85.7810482,29.5456873 85.7810482,30.4951267 L85.7810482,30.5740971 L88.1071324,30.5740971 L88.1053403,30.4951267 Z M88.7200143,31.1645802 L85.7792561,31.1645802 L85.7792561,31.2866253 C85.7792561,32.3329829 86.1914282,32.7188609 86.9996439,32.7188609 C87.5085868,32.7188609 88.1573098,32.68476 88.5623137,32.6219427 L88.605323,32.6219427 C88.675213,32.6219427 88.7451031,32.6560435 88.7451031,32.7439878 L88.7451031,33.0437163 C88.7451031,33.1567876 88.709262,33.2196049 88.5694819,33.2465266 C88.0694993,33.3434448 87.5856451,33.3954935 86.9978519,33.3954935 C85.9889263,33.3954935 85.0050894,32.9198764 85.0050894,31.2848305 L85.0050894,30.4933319 C85.0050894,29.2369849 85.6986138,28.4365124 86.9530505,28.4365124 C88.2343681,28.4365124 88.8830911,29.2459588 88.8830911,30.4933319 L88.8830911,30.9671542 C88.8866752,31.083815 88.8257454,31.1645802 88.7200143,31.1645802 Z" id="Shape"></path>
                    <path d="M91.7019898,29.1077607 C91.298778,29.1077607 90.9296151,29.2136528 90.4905623,29.4774856 L90.4905623,33.1603771 C90.4905623,33.2483214 90.4117119,33.3362657 90.3149411,33.3362657 L89.8848485,33.3362657 C89.7970379,33.3362657 89.7181876,33.2572953 89.7181876,33.1603771 L89.7181876,28.6770131 C89.7181876,28.5800949 89.7880777,28.5011246 89.8848485,28.5011246 L90.2970206,28.5011246 C90.3937914,28.5011246 90.4636815,28.5800949 90.4636815,28.6770131 L90.4636815,28.8618756 C90.9027343,28.554968 91.3059462,28.440102 91.7001977,28.440102 C91.8220573,28.440102 91.8847791,28.4939454 91.8847791,28.5980427 L91.8847791,28.9587938 C91.8865712,29.0539172 91.8256414,29.1077607 91.7019898,29.1077607" id="Shape"></path>
                    <path d="M93.9133826,33.3972883 C93.5890211,33.3972883 92.9564266,33.3703665 92.5263339,33.2662692 C92.4116426,33.2393475 92.3417525,33.1872988 92.3417525,33.0903806 L92.3417525,32.7816782 C92.3417525,32.7027079 92.4116426,32.6506592 92.4994532,32.6506592 L92.5352942,32.6506592 C92.9564266,32.7045026 93.5961893,32.7475774 93.9133826,32.7475774 C94.4850474,32.7475774 94.7825281,32.5986105 94.7825281,32.1247882 C94.7825281,31.8609554 94.6248275,31.6940407 94.1248448,31.3943122 L93.2377788,30.8666465 C92.7037471,30.541791 92.3435446,30.1630921 92.3435446,29.6102995 C92.3435446,28.6949609 93.0281087,28.440102 93.9313031,28.440102 C94.4241176,28.440102 94.8882592,28.4831767 95.3004313,28.554968 C95.4151226,28.5729158 95.4670922,28.6339384 95.4670922,28.7308566 L95.4670922,29.0216112 C95.4670922,29.1275033 95.4061624,29.170578 95.3183518,29.170578 L95.291471,29.170578 C94.98503,29.1436563 94.4223255,29.1005815 93.9313031,29.1005815 C93.4402807,29.1005815 93.1159192,29.1616041 93.1159192,29.6102995 C93.1159192,29.8741323 93.3184212,30.041047 93.721633,30.2779582 L94.5907785,30.79665 C95.3183518,31.2273975 95.5566948,31.6060964 95.5566948,32.1247882 C95.5549027,33.0185894 94.8972195,33.3972883 93.9133826,33.3972883" id="Shape"></path>
                    <path d="M99.3092528,30.4951267 C99.3092528,29.5008178 98.9329218,29.1149398 98.1605471,29.1149398 C97.406093,29.1149398 96.9849607,29.5456873 96.9849607,30.4951267 L96.9849607,30.5740971 L99.3110449,30.5740971 L99.3092528,30.4951267 Z M99.9239268,31.1645802 L96.9831686,31.1645802 L96.9831686,31.2866253 C96.9831686,32.3329829 97.3953407,32.7188609 98.2035564,32.7188609 C98.7124993,32.7188609 99.3612223,32.68476 99.7662262,32.6219427 L99.8092355,32.6219427 C99.8791255,32.6219427 99.9490156,32.6560435 99.9490156,32.7439878 L99.9490156,33.0437163 C99.9490156,33.1567876 99.9131745,33.2196049 99.7733944,33.2465266 C99.2734118,33.3434448 98.7895576,33.3954935 98.2017644,33.3954935 C97.1928388,33.3954935 96.2090019,32.9198764 96.2090019,31.2848305 L96.2090019,30.4933319 C96.2090019,29.2369849 96.9025263,28.4365124 98.156963,28.4365124 C99.4382806,28.4365124 100.087004,29.2459588 100.087004,30.4933319 L100.087004,30.9671542 C100.090588,31.083815 100.029658,31.1645802 99.9239268,31.1645802 Z" id="Shape"></path>
                    <path d="M103.732038,33.3003701 C103.441726,33.3542135 103.047474,33.3972883 102.635302,33.3972883 C101.441795,33.3972883 100.766192,32.553741 100.766192,31.2614984 L100.766192,30.5758919 C100.766192,29.2836493 101.432835,28.440102 102.635302,28.440102 C103.038514,28.440102 103.443518,28.4849715 103.732038,28.5370202 C103.871819,28.5639419 103.90766,28.6070167 103.90766,28.7308566 L103.90766,29.0467381 C103.90766,29.1346824 103.83777,29.1777571 103.758919,29.1777571 L103.723078,29.1777571 C103.337787,29.1346824 103.063603,29.1149398 102.635302,29.1149398 C101.932818,29.1149398 101.538566,29.581583 101.538566,30.5740971 L101.538566,31.2597036 C101.538566,32.2450386 101.92565,32.7188609 102.635302,32.7188609 C103.065395,32.7188609 103.337787,32.7009131 103.723078,32.6578383 L103.758919,32.6578383 C103.83777,32.6578383 103.90766,32.7009131 103.90766,32.7888574 L103.90766,33.1047389 C103.905868,33.2213997 103.871819,33.2734483 103.732038,33.3003701" id="Shape"></path>
                    <path d="M108.197833,33.3344709 L107.758781,33.3344709 C107.66201,33.3344709 107.59212,33.2555005 107.59212,33.1585823 L107.59212,32.9916677 C107.108265,33.2644744 106.714014,33.3954935 106.196111,33.3954935 C105.142384,33.3954935 104.669282,32.7368087 104.669282,31.5666112 L104.669282,28.6770131 C104.669282,28.5800949 104.748132,28.5011246 104.844903,28.5011246 L105.266035,28.5011246 C105.362806,28.5011246 105.441657,28.5800949 105.441657,28.6770131 L105.441657,31.568406 C105.441657,32.4568228 105.739137,32.7278348 106.407573,32.7278348 C106.776736,32.7278348 107.188908,32.5878418 107.59212,32.3850315 L107.59212,28.6770131 C107.59212,28.5890688 107.67097,28.5011246 107.767741,28.5011246 L108.197833,28.5011246 C108.285644,28.5011246 108.364494,28.5800949 108.364494,28.6770131 L108.364494,33.1603771 C108.362702,33.2555005 108.292812,33.3344709 108.197833,33.3344709" id="Shape"></path>
                    <path d="M111.319589,29.1077607 C110.916377,29.1077607 110.547214,29.2136528 110.108161,29.4774856 L110.108161,33.1603771 C110.108161,33.2483214 110.029311,33.3362657 109.93254,33.3362657 L109.502448,33.3362657 C109.414637,33.3362657 109.335787,33.2572953 109.335787,33.1603771 L109.335787,28.6770131 C109.335787,28.5800949 109.405677,28.5011246 109.502448,28.5011246 L109.91462,28.5011246 C110.011391,28.5011246 110.081281,28.5800949 110.081281,28.6770131 L110.081281,28.8618756 C110.520334,28.554968 110.923545,28.440102 111.319589,28.440102 C111.441449,28.440102 111.50417,28.4939454 111.50417,28.5980427 L111.50417,28.9587938 C111.50417,29.0539172 111.441449,29.1077607 111.319589,29.1077607" id="Shape"></path>
                    <path d="M112.810577,33.3344709 L112.389444,33.3344709 C112.292673,33.3344709 112.213823,33.2555005 112.213823,33.1585823 L112.213823,28.6770131 C112.213823,28.5800949 112.292673,28.5011246 112.389444,28.5011246 L112.810577,28.5011246 C112.907348,28.5011246 112.986198,28.5800949 112.986198,28.6770131 L112.986198,33.1585823 C112.986198,33.2555005 112.907348,33.3344709 112.810577,33.3344709 M112.828497,27.7275738 L112.380484,27.7275738 C112.283713,27.7275738 112.204863,27.6486034 112.204863,27.5516852 L112.204863,26.8481309 C112.204863,26.7512127 112.283713,26.6722423 112.380484,26.6722423 L112.828497,26.6722423 C112.925268,26.6722423 113.004118,26.7512127 113.004118,26.8481309 L113.004118,27.5516852 C113.004118,27.6486034 112.925268,27.7275738 112.828497,27.7275738" id="Shape"></path>
                    <path d="M116.469948,33.3524187 C116.294327,33.3793404 116.064944,33.3954935 115.898283,33.3954935 C115.09186,33.3954935 114.704776,33.1855041 114.704776,32.2181169 L114.704776,29.1508354 L113.853551,29.0539172 C113.75678,29.0449433 113.68689,28.9928947 113.68689,28.8959765 L113.68689,28.6590653 C113.68689,28.5621471 113.75678,28.5011246 113.853551,28.5011246 L114.704776,28.5011246 L114.704776,27.6396295 C114.704776,27.5516852 114.767498,27.4816887 114.862477,27.4637409 L115.31945,27.3937444 L115.346331,27.3937444 C115.416221,27.3937444 115.477151,27.454767 115.477151,27.5427113 L115.477151,28.5011246 L116.425147,28.5011246 C116.521917,28.5011246 116.600768,28.5800949 116.600768,28.6770131 L116.600768,28.9767416 C116.600768,29.0736598 116.521917,29.1526302 116.425147,29.1526302 L115.477151,29.1526302 L115.477151,32.2199117 C115.477151,32.7045026 115.600802,32.7727043 115.952045,32.7727043 L116.443067,32.7727043 C116.564927,32.7727043 116.627649,32.8086 116.627649,32.8947495 L116.627649,33.2016571 C116.627649,33.2824223 116.582847,33.3344709 116.469948,33.3524187" id="Shape"></path>
                    <path d="M120.962624,28.711114 L119.514645,33.7741924 C119.242253,34.7236317 118.917892,35.0754089 117.908966,35.0754089 C117.663455,35.0754089 117.355222,35.0395133 117.172433,34.9964385 C117.066701,34.9695168 116.987851,34.9425951 116.987851,34.8564456 L116.987851,34.5315901 C116.987851,34.4346719 117.057741,34.3915972 117.154512,34.3915972 L117.181393,34.3915972 C117.373142,34.409545 117.769186,34.4436458 117.962728,34.4436458 C118.46271,34.4436458 118.681341,34.3126268 118.831873,33.6970168 L118.919684,33.3362657 L118.797824,33.3362657 C118.534392,33.3362657 118.306802,33.2752431 118.149101,32.7296296 L116.982475,28.7129088 C116.973515,28.6949609 116.973515,28.669834 116.973515,28.6518862 C116.973515,28.5639419 117.027276,28.5011246 117.131215,28.5011246 L117.613277,28.5011246 C117.683168,28.5011246 117.744097,28.571121 117.762018,28.6411175 L118.79424,32.455028 C118.837249,32.6309166 118.899971,32.6488644 118.960901,32.6488644 L119.100681,32.6488644 L120.172329,28.6321436 C120.190249,28.5621471 120.260139,28.5011246 120.338989,28.5011246 L120.830012,28.5011246 C120.917822,28.5011246 120.969792,28.5621471 120.969792,28.6518862 C120.971584,28.6680392 120.971584,28.6949609 120.962624,28.711114" id="Shape"></path>
                    <polygon id="Shape" points="122.654321 28.3521577 122.209892 28.3521577 122.209892 29.827468 122.079072 29.827468 122.079072 28.3521577 121.636435 28.3521577 121.636435 28.2372917 122.654321 28.2372917"></polygon>
                    <polygon id="Shape" points="123.041405 28.2372917 123.484042 29.6300421 123.49121 29.6300421 123.933847 28.2372917 124.1023 28.2372917 124.1023 29.827468 123.97148 29.827468 123.97148 29.129298 123.985816 28.4795872 123.978648 28.4777924 123.530635 29.827468 123.442824 29.827468 122.996603 28.4795872 122.989435 28.481382 123.001979 29.129298 123.001979 29.827468 122.874744 29.827468 122.874744 28.2372917"></polygon>
                </g>
            </g>
        </g>
    </g>
</svg>