<?xml version="1.0" encoding="utf-8"?>
<!-- Generator: Adobe Illustrator 23.1.0, SVG Export Plug-In . SVG Version: 6.00 Build 0)  -->
<svg version="1.1" id="Layer_1" xmlns="http://www.w3.org/2000/svg" xmlns:xlink="http://www.w3.org/1999/xlink" x="0px" y="0px"
	 viewBox="0 0 980 150" style="enable-background:new 0 0 980 150;" xml:space="preserve">
<style type="text/css">
	.st0{fill:#DC3232;}
	.st1{fill:#9D0006;}
	.st2{fill:#FB4934;}
	.st3{fill:#CC241D;}
	.st4{font-family:'Montserrat-Regular';}
	.st5{font-size:86.1588px;}
	.st6{font-family:'Montserrat-Light';}
	.st7{font-size:16px;}
	.st8{font-family:'Montserrat-Black';}
</style>
<polygon class="st0" points="1,0 1,38.7 113,116.5 113,78.8 "/>
<polygon class="st1" points="37.7,72.1 37.7,94.6 55.9,83.3 "/>
<polygon class="st2" points="1,47.1 32.4,68.9 32.4,150 1,150 "/>
<polygon class="st3" points="114,4 114,42.5 93.2,57.2 65.8,38 "/>
<polygon class="st1" points="119.6,0 119.6,149.2 151,149.3 151,0 "/>
<text transform="matrix(1 0 0 1 161.9143 96.562)"><tspan x="0" y="0" class="st4 st5">Mackenzie </tspan><tspan x="485.6" y="0" class="st6 st5">Criswell</tspan></text>
<text transform="matrix(1 0 0 1 352.6335 120.5248)"><tspan x="0" y="0" class="st4 st7">github.com/makccr </tspan><tspan x="163.6" y="0" class="st0 st8 st7">|</tspan><tspan x="168.8" y="0" class="st4 st7"> makc.co </tspan><tspan x="244.6" y="0" class="st0 st8 st7">|</tspan><tspan x="249.7" y="0" class="st4 st7"> youtube.com/c/makccr</tspan></text>
</svg>
