<?xml version="1.0" encoding="UTF-8" standalone="no"?>
<svg width="84px" height="71px" viewBox="0 0 84 71" version="1.1" xmlns="http://www.w3.org/2000/svg" xmlns:xlink="http://www.w3.org/1999/xlink">
    <!-- Generator: Sketch 44.1 (41455) - http://www.bohemiancoding.com/sketch -->
    <title>Arrow</title>
    <desc>Created with Sketch.</desc>
    <defs>
        <filter x="-6.2%" y="-8.0%" width="112.4%" height="115.9%" filterUnits="objectBoundingBox" id="filter-1">
            <feOffset dx="0" dy="0" in="SourceAlpha" result="shadowOffsetOuter1"></feOffset>
            <feGaussianBlur stdDeviation="7" in="shadowOffsetOuter1" result="shadowBlurOuter1"></feGaussianBlur>
            <feColorMatrix values="0 0 0 0 0   0 0 0 0 0   0 0 0 0 0  0 0 0 0.0 0" type="matrix" in="shadowBlurOuter1" result="shadowMatrixOuter1"></feColorMatrix>
            <feMerge>
                <feMergeNode in="shadowMatrixOuter1"></feMergeNode>
                <feMergeNode in="SourceGraphic"></feMergeNode>
            </feMerge>
        </filter>
        <path d="M24.1368166,14.4823967 L52.8932102,14.4823967 C54.6090428,14.4823967 56,15.8497071 56,17.5444937 L56,37.8885087 C56,39.5796582 54.6072393,40.9506057 52.8932102,40.9506057 L24.0755123,40.9506057 L24.0615476,46.9798821 C24.0537342,50.3533442 22.0783839,51.1542203 19.6459579,48.7652305 L0.470775055,29.9324616 C-0.742863079,28.7404956 -0.743344627,26.8084098 0.469626425,25.6170989 L19.7654345,6.66585888 C22.1952081,4.27947405 24.1585892,5.08208834 24.1507814,8.45312032 L24.1368166,14.4823967 Z" id="path-2"></path>
    </defs>
    <g id="Desktop" stroke="none" stroke-width="1" fill="none" fill-rule="evenodd">
        <g id="Complex-Finish" transform="translate(-481.000000, -249.000000)">
            <g id="Rectangle-32" filter="url(#filter-1)" transform="translate(471.000000, 232.000000)">
                <g id="Arrow" transform="translate(24.000000, 25.000000)">
                    <g id="Combined-Shape">
                        <use fill="#EC988F" fill-rule="evenodd" xlink:href="#path-2"></use>
                        <path stroke="#DA321F" stroke-width="2" d="M52.8932102,15.4823967 L23.1344978,15.4823967 L23.150784,8.45080418 C23.1565216,5.97360552 22.2669066,5.61069941 20.4661425,7.37930705 L1.17033444,26.3305471 C0.35649199,27.1298566 0.356828348,28.4189061 1.17148307,29.2190135 L20.346666,48.0517824 C22.1519336,49.8248131 23.0558028,49.4590439 23.0615503,46.977566 L23.0778258,39.9506057 L52.8932102,39.9506057 C54.0588832,39.9506057 55,39.0233991 55,37.8885087 L55,17.5444937 C55,16.4067042 54.0614317,15.4823967 52.8932102,15.4823967 Z"></path>
                    </g>
                </g>
            </g>
        </g>
    </g>
</svg>