<?xml version="1.0" encoding="UTF-8"?>
<svg width="271px" height="142px" viewBox="0 0 271 142" version="1.1" xmlns="http://www.w3.org/2000/svg" xmlns:xlink="http://www.w3.org/1999/xlink">
    <!-- Generator: Sketch 46.2 (44496) - http://www.bohemiancoding.com/sketch -->
    <title>Empty Emergency Access Copy</title>
    <desc>Created with Sketch.</desc>
    <defs>
        <rect id="path-1" x="0" y="0" width="1017" height="728"></rect>
        <path d="M95.1132419,461.036889 C96.2855424,458.476689 97.2432019,455.793289 98.0745349,452.838377 C98.9192045,449.836061 99.4003723,447.633661 100.510502,442.057536 C101.883258,435.162255 102.667786,431.954698 104.06944,428.271417 C105.876584,423.522584 108.355158,419.542696 111.927218,415.96721 C114.585551,413.306327 118.278303,411.153996 124.642482,408.286468 C126.018245,407.666586 130.962494,405.502166 131.551072,405.241047 C134.422164,403.967304 136.685188,402.910965 138.884507,401.79573 C146.876184,397.743294 153.037445,393.329491 158.104877,387.492647 C164.248605,380.416087 168.405118,371.537682 170.420034,360.300957 C172.122746,350.805318 170.855393,341.974173 166.974149,332.928556 C164.065034,326.14858 160.877029,321.083808 153.096624,310.002867 C144.337692,297.528265 140.881952,291.836722 138.208696,284.255472 C134.719583,274.36048 134.670386,264.55524 138.688396,253.638754 C144.787846,237.067226 156.107511,225.986886 174.30594,215.681677 C178.835083,213.116963 193.667392,205.520045 194.679518,204.975396 C208.428599,197.576684 214.790189,191.605285 215.937958,182.644102 C216.053751,181.740052 215.415444,180.913215 214.512259,180.797311 C213.609074,180.681407 212.78303,181.320326 212.667237,182.224377 C211.698966,189.784135 205.993463,195.139687 193.118099,202.068231 C192.161286,202.583115 177.283899,210.203121 172.682278,212.808877 C153.866641,223.463592 142.008376,235.071145 135.594218,252.4977 C131.30555,264.149535 131.358717,274.746146 135.099205,285.354026 C137.907298,293.317672 141.464954,299.177067 150.350154,311.831502 C158.046715,322.793032 161.156016,327.732767 163.944281,334.23109 C167.582312,342.709876 168.756744,350.893527 167.174408,359.71785 C165.262947,370.377633 161.363116,378.707758 155.615891,385.327613 C150.863272,390.801845 145.035984,394.976396 137.394322,398.851346 C135.253635,399.93685 133.038427,400.970869 130.21492,402.223501 C129.640829,402.478193 124.684036,404.648104 123.288955,405.27669 C116.582217,408.298566 112.615166,410.610774 109.59554,413.633296 C105.679971,417.55262 102.954294,421.929284 100.987931,427.096514 C99.499882,431.006825 98.6846304,434.339996 97.2765973,441.412475 C96.1835795,446.902648 95.7138546,449.052671 94.9004993,451.943682 C94.1131041,454.742421 93.212186,457.266829 92.1156088,459.661656 C91.7362126,460.490223 92.0996943,461.469766 92.9274678,461.849527 C93.7552413,462.229287 94.7338457,461.865456 95.1132419,461.036889 Z" id="path-3"></path>
        <path d="M63.1479624,280.253156 C64.3202629,277.692957 65.2779224,275.009556 66.1092553,272.054645 C66.953925,269.052329 67.4350928,266.849929 68.5452225,261.273804 C69.917978,254.378523 70.7025062,251.170965 72.1041601,247.487684 C73.9113042,242.738851 76.3898784,238.758963 79.9619384,235.183477 C82.6202718,232.522595 86.3130233,230.370263 92.6772029,227.502735 C94.052965,226.882853 98.9972148,224.718433 99.5857928,224.457314 C102.456885,223.183571 104.719909,222.127233 106.919227,221.011998 C114.910905,216.959561 121.072166,212.545759 126.139597,206.708914 C132.283325,199.632354 136.439839,190.753949 138.454754,179.517224 C140.157467,170.021585 138.890114,161.19044 135.008869,152.144823 C132.099755,145.364847 128.911749,140.300075 121.131345,129.219134 C112.372413,116.744532 108.916672,111.052989 106.243417,103.471739 C102.754303,93.576747 102.705107,83.7715077 106.723117,72.8550209 C112.822566,56.2834934 124.142232,45.203153 142.34066,34.8979438 C146.869803,32.33323 161.702112,24.7363126 162.714238,24.191663 C176.463319,16.7929513 182.82491,10.8215525 183.972678,1.86036978 C184.088471,0.956318921 183.450164,0.129482171 182.546979,0.0135782144 C181.643795,-0.102325742 180.81775,0.536593564 180.701957,1.44064443 C179.733686,9.00040185 174.028183,14.3559547 161.15282,21.2844984 C160.196006,21.7993827 145.318619,29.4193885 140.716999,32.0251443 C121.901361,42.6798598 110.043097,54.2874118 103.628939,71.7139672 C99.3402702,83.3658027 99.3934376,93.9624134 103.133925,104.570293 C105.942019,112.533939 109.499674,118.393335 118.384875,131.04777 C126.081435,142.009299 129.190736,146.949035 131.979001,153.447357 C135.617032,161.926143 136.791464,170.109794 135.209129,178.934117 C133.297668,189.5939 129.397837,197.924025 123.650611,204.54388 C118.897992,210.018112 113.070705,214.192663 105.429042,218.067613 C103.288355,219.153117 101.073147,220.187136 98.2496402,221.439768 C97.67555,221.69446 92.7187567,223.864371 91.3236754,224.492957 C84.6169374,227.514833 80.649886,229.827041 77.6302601,232.849563 C73.714691,236.768887 70.9890145,241.145551 69.0226515,246.312781 C67.5346025,250.223092 66.7193509,253.556263 65.3113177,260.628742 C64.2183,266.118915 63.7485751,268.268939 62.9352198,271.15995 C62.1478246,273.958688 61.2469065,276.483097 60.1503293,278.877923 C59.7709331,279.706491 60.1344147,280.686034 60.9621883,281.065794 C61.7899618,281.445554 62.7685662,281.081724 63.1479624,280.253156 Z" id="path-4"></path>
        <rect id="path-5" x="0" y="0" width="60.6738351" height="60.7320261"></rect>
        <rect id="path-7" x="0.975407218" y="0.618179881" width="55.0245928" height="55.0773657"></rect>
        <rect id="path-9" x="0" y="0" width="550" height="392" rx="2"></rect>
        <filter x="-0.6%" y="-0.6%" width="101.3%" height="101.8%" filterUnits="objectBoundingBox" id="filter-10">
            <feOffset dx="0" dy="1" in="SourceAlpha" result="shadowOffsetOuter1"></feOffset>
            <feGaussianBlur stdDeviation="1" in="shadowOffsetOuter1" result="shadowBlurOuter1"></feGaussianBlur>
            <feColorMatrix values="0 0 0 0 0   0 0 0 0 0   0 0 0 0 0  0 0 0 0.2 0" type="matrix" in="shadowBlurOuter1"></feColorMatrix>
        </filter>
        <path d="M0,1.99630737 C0,0.893777255 0.892210007,0 1.99154019,0 L548.00846,0 C549.108357,0 550,0.894730389 550,1.99630737 L550,60 L0,60 L0,1.99630737 Z" id="path-11"></path>
        <filter x="-0.1%" y="-0.8%" width="100.2%" height="103.3%" filterUnits="objectBoundingBox" id="filter-12">
            <feOffset dx="0" dy="1" in="SourceAlpha" result="shadowOffsetOuter1"></feOffset>
            <feColorMatrix values="0 0 0 0 0.905882353   0 0 0 0 0.909803922   0 0 0 0 0.917647059  0 0 0 1 0" type="matrix" in="shadowOffsetOuter1"></feColorMatrix>
        </filter>
        <path d="M207.322488,92.4134407 C208.07385,90.7710475 208.687641,89.0496197 209.220467,87.1540148 C209.76184,85.2279995 210.070234,83.8151381 210.781748,80.2379991 C211.661587,75.8146083 212.164414,73.7569286 213.062774,71.3940673 C214.221025,68.3476442 215.809614,65.7945071 218.099051,63.5007977 C219.802853,61.7938151 222.169644,60.4130734 226.248631,58.5735256 C227.130396,58.1758656 230.299309,56.7873689 230.676545,56.6198583 C232.516711,55.8027395 233.967148,55.1250881 235.376755,54.4096538 C240.498852,51.8099759 244.447781,48.978478 247.695644,45.234085 C251.633337,40.6944019 254.297366,34.9988177 255.588784,27.7903476 C256.680102,21.6988016 255.867818,16.0335353 253.380217,10.2306826 C251.515681,5.88126156 251.322153,4.86153475 250.743276,4.78718122 C250.164399,4.71282769 249.651208,6.89753326 251.438287,11.0662711 C253.770006,16.505496 254.522733,21.7553885 253.508569,27.4162788 C252.283458,34.2546346 249.783944,39.5984918 246.100382,43.8451939 C243.054291,47.3569678 239.319414,50.0349834 234.421652,52.520802 C233.049624,53.2171636 231.629833,53.8804968 229.820166,54.6840728 C229.452215,54.8474601 226.275264,56.2394794 225.381116,56.6427236 C221.082574,58.5812868 218.539976,60.0645909 216.604611,62.0035685 C214.09501,64.5178538 212.348045,67.3255267 211.087746,70.6403556 C210.134013,73.1488588 209.611494,75.287121 208.709045,79.8241858 C208.008499,83.3461856 207.707438,84.7254471 207.186136,86.5800592 C206.681471,88.3754773 206.104047,89.9949103 205.401219,91.5312153 C205.158053,92.0627494 205.391019,92.6911359 205.921563,92.9347557 C206.452107,93.1783756 207.079322,92.9449749 207.322488,92.4134407 Z" id="path-13"></path>
        <path d="M42.1674081,175.495541 C42.9187693,173.853148 43.5325609,172.13172 44.0653862,170.236115 C44.6067593,168.3101 44.9151537,166.897239 45.6266678,163.3201 C46.5065064,158.896709 47.0093331,156.839029 47.9076936,154.476168 C49.0659444,151.429745 50.6545341,148.876608 52.9439704,146.582898 C54.647773,144.875916 57.0145639,143.495174 61.0935503,141.655626 C61.9753159,141.257966 65.1442282,139.869469 65.5214648,139.701959 C67.3616306,138.88484 68.8120679,138.207189 70.2216746,137.491754 C75.3437713,134.892076 79.2927011,132.060579 82.5405641,128.316186 C86.4782566,123.776502 89.1422861,118.080918 90.4337037,110.872448 C91.5250212,104.780902 90.712738,99.1156358 88.2251366,93.3127832 C86.360601,88.9633621 84.3173164,85.7142608 79.3306306,78.6057277 C73.7167784,70.6031478 71.5018946,66.9519668 69.7885281,62.0885202 C67.5522547,55.7407854 68.5798106,55.9224875 68.0009335,55.8481339 C67.4220564,55.7737804 65.3981788,55.9881942 67.7955654,62.7932538 C69.5953535,67.9020109 71.8755576,71.6608708 77.5703388,79.7788157 C82.5032865,86.8107449 84.4961273,89.9796338 86.2832067,94.1483717 C88.6149259,99.5875966 89.367653,104.837489 88.3534887,110.498379 C87.1283781,117.336735 84.628864,122.680592 80.9453013,126.927294 C77.8992107,130.439068 74.164334,133.117084 69.2665721,135.602903 C67.894544,136.299264 66.4747531,136.962597 64.6650861,137.766173 C64.2971351,137.929561 61.1201833,139.32158 60.2260354,139.724824 C55.9274936,141.663387 53.3848959,143.146691 51.4495305,145.085669 C48.9399293,147.599954 47.1929646,150.407627 45.9326659,153.722456 C44.9789323,156.230959 44.456414,158.369222 43.553965,162.906286 C42.8534183,166.428286 42.5523581,167.807548 42.0310552,169.66216 C41.5263909,171.457578 40.9489665,173.077011 40.2461386,174.613316 C40.0029726,175.14485 40.2359385,175.773236 40.7664824,176.016856 C41.2970263,176.260476 41.9242421,176.027075 42.1674081,175.495541 Z" id="path-14"></path>
        <rect id="path-15" x="0" y="0" width="38.8876114" height="38.9601932"></rect>
        <rect id="path-17" x="0.625166627" y="0.396568484" width="35.266849" height="35.3326728"></rect>
    </defs>
    <g id="Version-2" stroke="none" stroke-width="1" fill="none" fill-rule="evenodd">
        <g id="Empty-Emergency-Access-Copy" transform="translate(-548.000000, -264.000000)">
            <g id="Group-6" transform="translate(263.000000, 0.000000)">
                <g id="Group-265">
                    <g id="Group-279">
                        <mask id="mask-2" fill="white">
                            <use xlink:href="#path-1"></use>
                        </mask>
                        <use id="Mask" fill="#F9FBFD" xlink:href="#path-1"></use>
                    </g>
                </g>
            </g>
            <g id="illustration" transform="translate(433.000000, 92.000000)">
                <g id="Group-12-Copy-2" transform="translate(171.324729, 244.783452)" stroke="#BBD8FF" stroke-width="2" stroke-linecap="round">
                    <path d="M29,7.57912251e-14 C25.4574351,4.15210359 20.2743472,6.77087802 14.5,6.77087802 C8.72565279,6.77087802 3.54256486,4.15210359 0,0" id="Combined-Shape-Copy-11"></path>
                    <path d="M58,7.57912251e-14 C54.4574351,4.15210359 49.2743472,6.77087802 43.5,6.77087802 C37.7256528,6.77087802 32.5425649,4.15210359 29,0" id="Combined-Shape-Copy-12"></path>
                </g>
                <path d="M294.568457,327.28672 C290.015572,327.28672 286.324729,323.592338 286.324729,319.035086 C286.324729,314.477835 290.015572,310.783452 294.568457,310.783452 C299.121342,310.783452 302.812185,314.477835 302.812185,319.035086 C302.812185,323.592338 299.121342,327.28672 294.568457,327.28672 Z M294.568457,323.325936 C296.935957,323.325936 298.855195,321.404857 298.855195,319.035086 C298.855195,316.665315 296.935957,314.744237 294.568457,314.744237 C292.200957,314.744237 290.281719,316.665315 290.281719,319.035086 C290.281719,321.404857 292.200957,323.325936 294.568457,323.325936 Z" id="Combined-Shape-Copy" stroke="#3C4862" stroke-width="1.98" fill="#FFFFFF"></path>
                <g id="Path-2" fill-rule="nonzero" transform="translate(153.958401, 321.391866) rotate(-115.000000) translate(-153.958401, -321.391866) ">
                    <use fill="#FFFFFF" fill-rule="evenodd" xlink:href="#path-3"></use>
                    <path stroke="#3D4961" stroke-width="1.98" d="M96.0133658,461.44905 C95.4062799,462.774872 93.839767,463.357277 92.5146528,462.749351 C91.1900492,462.141659 90.6086328,460.574806 91.215485,459.249495 C92.2722449,456.941625 93.1599952,454.474683 93.9474971,451.675565 C94.7206912,448.927304 95.1670903,446.938111 96.3056521,441.219173 C97.7923116,433.751759 98.6114671,430.557875 100.062663,426.744408 C102.118573,421.341863 104.954061,416.878482 108.895168,412.933596 C111.911505,409.914366 115.800908,407.56475 122.882264,404.374081 C123.43723,404.124028 124.560082,403.62773 126.176877,402.916626 L126.198555,402.907092 C126.945482,402.578586 129.644198,401.393645 129.813447,401.318559 C132.719806,400.02917 134.887641,399.012432 136.946585,397.968378 C144.730058,394.021518 150.343532,389.890392 154.868319,384.678585 C160.605311,378.070518 164.353276,369.841597 166.199951,359.543115 C167.717035,351.082679 166.672952,343.101239 163.034493,334.621457 C160.38747,328.452312 157.551606,323.810714 149.53993,312.400394 C140.17107,299.057123 136.895754,293.426005 134.165549,285.683246 C130.269795,274.635039 130.37999,263.798051 134.665152,252.15574 C140.922546,235.155095 152.338097,223.191451 172.194455,211.947408 C173.912847,210.974336 177.11582,209.269239 181.49895,206.980348 C181.646216,206.903453 181.646216,206.903453 181.79351,206.826576 C185.077146,205.112932 192.544338,201.252746 192.648968,201.196442 C205.636345,194.207621 210.79339,189.061856 211.685259,182.098603 C211.870501,180.652332 213.192474,179.629827 214.63827,179.815363 C216.083881,180.000876 217.105154,181.323791 216.919936,182.769876 C215.761825,191.811804 209.713774,198.00934 195.148649,205.847185 C194.991365,205.931823 187.507521,209.800985 184.326063,211.460836 C184.183057,211.535453 184.183057,211.535453 184.040083,211.610083 C179.658176,213.897623 176.468036,215.595056 174.793763,216.543145 C156.005263,227.182494 145.40473,238.257348 139.617462,253.980713 C135.757735,264.467163 135.655798,274.038516 139.142352,283.926251 C141.675118,291.109077 144.796895,296.459444 153.906847,309.433974 C162.103486,321.107722 165.060279,325.95738 167.883937,332.538189 C171.924008,341.953968 173.098296,350.973964 171.394491,360.475692 C169.382094,371.698376 165.225136,380.801391 158.852449,388.141674 C153.850805,393.902742 147.712594,398.429173 139.332244,402.678698 C137.184977,403.767538 134.940988,404.820184 131.952545,406.145989 C131.770718,406.226655 129.046909,407.422643 128.347031,407.730439 L128.325947,407.739712 C126.709663,408.450551 125.590962,408.944961 125.049174,409.189076 C118.58136,412.103299 115.106231,414.185891 112.627589,416.66691 C109.221667,420.076099 106.788897,423.908732 104.994708,428.623523 C103.670872,432.102313 102.906478,435.092981 101.481447,442.250838 C100.313504,448.117357 99.8468261,450.194392 99.0275371,453.106494 C98.1672575,456.164295 97.187467,458.884918 96.0133658,461.44905 Z"></path>
                </g>
                <g id="Group-12-Copy-3" transform="translate(152.324729, 221.783452)" stroke="#BBD8FF" stroke-width="2" stroke-linecap="round">
                    <path d="M29,7.57912251e-14 C25.4574351,4.15210359 20.2743472,6.77087802 14.5,6.77087802 C8.72565279,6.77087802 3.54256486,4.15210359 0,0" id="Combined-Shape-Copy-11"></path>
                    <path d="M58,7.57912251e-14 C54.4574351,4.15210359 49.2743472,6.77087802 43.5,6.77087802 C37.7256528,6.77087802 32.5425649,4.15210359 29,0" id="Combined-Shape-Copy-12"></path>
                </g>
                <g id="Group-16-Copy" transform="translate(465.000000, 204.317159) rotate(48.000000) translate(-465.000000, -204.317159) translate(373.000000, 2.317159)">
                    <path d="M63.2437276,285.503268 C58.6908426,285.503268 55,281.808886 55,277.251634 C55,272.694382 58.6908426,269 63.2437276,269 C67.7966126,269 71.4874552,272.694382 71.4874552,277.251634 C71.4874552,281.808886 67.7966126,285.503268 63.2437276,285.503268 Z M63.2437276,281.542484 C65.6112278,281.542484 67.5304659,279.621405 67.5304659,277.251634 C67.5304659,274.881863 65.6112278,272.960784 63.2437276,272.960784 C60.8762274,272.960784 58.9569892,274.881863 58.9569892,277.251634 C58.9569892,279.621405 60.8762274,281.542484 63.2437276,281.542484 Z" id="Combined-Shape" stroke="#3C4862" stroke-width="1.98" fill="#FFFFFF"></path>
                    <g id="Path-2" fill-rule="nonzero">
                        <use fill="#FFFFFF" fill-rule="evenodd" xlink:href="#path-4"></use>
                        <path stroke="#3D4961" stroke-width="1.98" d="M64.0480863,280.665318 C63.4410004,281.991139 61.8744874,282.573545 60.5493733,281.965618 C59.2247697,281.357926 58.6433533,279.791073 59.2502055,278.465762 C60.3069654,276.157892 61.1947157,273.69095 61.9822176,270.891833 C62.7554117,268.143571 63.2018108,266.154379 64.3403726,260.43544 C65.827032,252.968026 66.6461876,249.774143 68.0973833,245.960675 C70.153294,240.558131 72.9887819,236.09475 76.929889,232.149863 C79.9462257,229.130633 83.8356285,226.781017 90.9169842,223.590349 C91.4719504,223.340296 92.5948021,222.843997 94.211598,222.132894 L94.2332759,222.123359 C94.9802029,221.794854 97.6789189,220.609913 97.848168,220.534826 C100.754526,219.245437 102.922362,218.228699 104.981305,217.184646 C112.764779,213.237786 118.378253,209.106659 122.903039,203.894853 C128.640031,197.286785 132.387997,189.057864 134.234671,178.759382 C135.751756,170.298947 134.707672,162.317506 131.069213,153.837724 C128.422191,147.66858 125.586327,143.026982 117.574651,131.616661 C108.205791,118.27339 104.930475,112.642272 102.200269,104.899514 C98.3045156,93.851306 98.4147102,83.0143179 102.699873,71.3720077 C108.957267,54.3713622 120.372818,42.4077187 140.229175,31.1636755 C141.947567,30.190603 145.15054,28.4855061 149.533671,26.1966151 C149.680936,26.1197206 149.680936,26.1197206 149.82823,26.0428437 C153.111867,24.3291996 160.579058,20.4690134 160.683689,20.4127092 C173.671066,13.4238887 178.82811,8.27812324 179.719979,1.31487043 C179.905221,-0.131400801 181.227195,-1.15390565 182.672991,-0.968369397 C184.118601,-0.782856962 185.139874,0.540057885 184.954656,1.98614378 C183.796546,11.0280711 177.748494,17.2256075 163.183369,25.0634522 C163.026085,25.1480906 155.542241,29.0172525 152.360783,30.677103 C152.217777,30.7517203 152.217777,30.7517203 152.074804,30.8263507 C147.692896,33.1138899 144.502757,34.8113234 142.828484,35.7594126 C124.039984,46.3987609 113.439451,57.4736152 107.652183,73.1969804 C103.792456,83.68343 103.690518,93.2547836 107.177073,103.142519 C109.709838,110.325345 112.831615,115.675711 121.941568,128.650241 C130.138207,140.323989 133.095,145.173647 135.918657,151.754456 C139.958728,161.170235 141.133016,170.190231 139.429212,179.691959 C137.416814,190.914643 133.259856,200.017658 126.887169,207.357942 C121.885526,213.119009 115.747314,217.64544 107.366964,221.894965 C105.219698,222.983806 102.975708,224.036451 99.987265,225.362256 C99.8054387,225.442923 97.0816297,226.63891 96.3817511,226.946707 L96.3606678,226.955979 C94.744383,227.666818 93.6256821,228.161228 93.0838941,228.405343 C86.6160805,231.319567 83.1409516,233.402158 80.6623096,235.883178 C77.2563873,239.292366 74.8236177,243.125 73.0294283,247.83979 C71.7055923,251.31858 70.9411984,254.309248 69.5161676,261.467106 C68.3482245,267.333624 67.8815466,269.410659 67.0622576,272.322762 C66.201978,275.380562 65.2221875,278.101185 64.0480863,280.665318 Z"></path>
                    </g>
                    <g id="Group-8" transform="translate(-0.000000, 277.915033)">
                        <path d="M63.311828,123.444444 C29.8025941,123.444444 2.63799283,96.2537902 2.63799283,62.7124183 C2.63799283,29.1710464 29.8025941,1.98039216 63.311828,1.98039216 C96.8210618,1.98039216 123.985663,29.1710464 123.985663,62.7124183 C123.985663,96.2537902 96.8210618,123.444444 63.311828,123.444444 Z M63.311828,89.1176471 C77.8810601,89.1176471 89.6917563,77.2956235 89.6917563,62.7124183 C89.6917563,48.1292131 77.8810601,36.3071895 63.311828,36.3071895 C48.7425958,36.3071895 36.9318996,48.1292131 36.9318996,62.7124183 C36.9318996,77.2956235 48.7425958,89.1176471 63.311828,89.1176471 Z" id="Combined-Shape" stroke="#3C4862" stroke-width="1.98" fill="#FF885B"></path>
                        <path d="M62.9890357,0 C68.7468883,0 74.582129,0.759997335 80.494758,2.279992 L80.4947569,2.27999607 C81.9068709,2.6430166 82.7573292,4.08204745 82.3943086,5.49416143 C82.3853391,5.52905202 82.3756564,5.56375536 82.3652664,5.59824965 L72.6852623,37.73567 L72.6852548,37.7356677 C72.2853928,39.0632017 70.9267487,39.8552391 69.5745215,39.5491062 C67.4395049,39.0657563 65.244343,38.8240814 62.9890357,38.8240814 C60.8427065,38.8240814 58.8601953,39.0100116 57.0415023,39.3818721 L57.0415034,39.3818775 C55.7039768,39.6553559 54.3785623,38.8639705 53.9848285,37.5567821 L44.2988862,5.39964693 L44.2988959,5.39964402 C43.8783899,4.00357273 44.6692419,2.53094594 46.0653132,2.11044001 C46.104245,2.0987135 46.1434425,2.08788796 46.1828743,2.07797205 C51.6917501,0.692657349 57.2938039,7.21494629e-16 62.9890357,0 Z" id="Combined-Shape-Copy-4" stroke="#3C4862" stroke-width="1.98" fill="#FFFFFF"></path>
                        <path d="M62.9890357,85.8169935 C68.7468883,85.8169935 74.582129,86.5769908 80.494758,88.0969855 L80.4947569,88.0969895 C81.9068709,88.4600101 82.7573292,89.8990409 82.3943086,91.3111549 C82.3853391,91.3460455 82.3756564,91.3807488 82.3652664,91.4152431 L72.6852623,123.552663 L72.6852548,123.552661 C72.2853928,124.880195 70.9267487,125.672233 69.5745215,125.3661 C67.4395049,124.88275 65.244343,124.641075 62.9890357,124.641075 C60.8427065,124.641075 58.8601953,124.827005 57.0415023,125.198866 L57.0415034,125.198871 C55.7039768,125.472349 54.3785623,124.680964 53.9848285,123.373776 L44.2988862,91.2166404 L44.2988959,91.2166375 C43.8783899,89.8205662 44.6692419,88.3479394 46.0653132,87.9274335 C46.104245,87.915707 46.1434425,87.9048814 46.1828743,87.8949655 C51.6917501,86.5096508 57.2938039,85.8169935 62.9890357,85.8169935 Z" id="Combined-Shape-Copy-5" stroke="#3C4862" stroke-width="1.98" fill="#FFFFFF" transform="translate(63.332046, 105.624623) scale(1, -1) translate(-63.332046, -105.624623) "></path>
                        <path d="M105.832497,42.9250256 C111.59035,42.9250256 117.42559,43.6850229 123.338219,45.2050176 L123.338218,45.2050216 C124.750332,45.5680421 125.600791,47.007073 125.23777,48.419187 C125.2288,48.4540776 125.219118,48.4887809 125.208728,48.5232752 L115.528724,80.6606956 L115.528716,80.6606933 C115.128854,81.9882272 113.77021,82.7802647 112.417983,82.4741318 C110.282966,81.9907819 108.087804,81.749107 105.832497,81.749107 C103.686168,81.749107 101.703657,81.9350372 99.8849637,82.3068977 L99.8849647,82.306903 C98.5474381,82.5803814 97.2220237,81.7889961 96.8282898,80.4818076 L87.1423475,48.3246725 L87.1423572,48.3246696 C86.7218513,46.9285983 87.5127032,45.4559715 88.9087745,45.0354656 C88.9477063,45.0237391 88.9869038,45.0129135 89.0263356,45.0029976 C94.5352115,43.6176829 100.137265,42.9250256 105.832497,42.9250256 Z" id="Combined-Shape-Copy-4" stroke="#3C4862" stroke-width="1.98" fill="#FFFFFF" transform="translate(106.175507, 62.732655) rotate(-270.000000) translate(-106.175507, -62.732655) "></path>
                        <g id="Oval-5" opacity="0.300000012" style="mix-blend-mode: multiply;" transform="translate(63.311828, 63.372549)">
                            <mask id="mask-6" fill="white">
                                <use xlink:href="#path-5"></use>
                            </mask>
                            <g id="Mask"></g>
                            <path d="M-53.7522966,12.741822 C-61.1610895,-16.9732234 -43.10138,-47.0622859 -13.4148063,-54.46398 L-13.4148063,-54.46398 M53.631254,13.3084128 C52.8732639,16.2176548 51.8818978,19.0510866 50.6732277,21.7819309 C50.1879459,22.8783664 49.6676342,23.9582645 49.1133327,25.0198921 M46.3496369,29.7345283 C38.9779981,41.0051109 27.5062596,49.6303247 13.4148063,53.1437186" stroke="#9B9B9B" stroke-width="1.98" style="mix-blend-mode: multiply;" stroke-linecap="round" stroke-dasharray="198,6.600000000000001,0.66,4.62" mask="url(#mask-6)"></path>
                        </g>
                        <g id="Oval-5-Copy-2" opacity="0.300000012" style="mix-blend-mode: multiply;" transform="translate(13.125448, 6.202614)">
                            <mask id="mask-8" fill="white">
                                <use xlink:href="#path-7"></use>
                            </mask>
                            <g id="Mask"></g>
                            <path d="M20.9679606,45.8547233 C20.5882873,46.9189629 20.2656438,48.0103261 20.003714,49.1251255 M19.1899642,56.1797386 C19.1899642,73.1327146 32.9198985,86.875817 49.8566308,86.875817 C66.7933632,86.875817 80.5232975,73.1327146 80.5232975,56.1797386 C80.5232975,39.2267626 66.7933632,25.4836601 49.8566308,25.4836601 M41.8445199,26.5418841 C33.894815,28.6898513 27.2242916,33.9569945 23.2241629,40.9507661" id="Oval-5" stroke="#9B9B9B" stroke-width="1.98" style="mix-blend-mode: multiply;" stroke-linecap="round" stroke-dasharray="198,6.600000000000001,0.66,4.62" mask="url(#mask-8)" transform="translate(49.856631, 56.179739) rotate(-348.000000) translate(-49.856631, -56.179739) "></path>
                        </g>
                        <path d="M20.09773,42.9250256 C25.8555825,42.9250256 31.6908233,43.6850229 37.6034523,45.2050176 L37.6034512,45.2050216 C39.0155652,45.5680421 39.8660235,47.007073 39.5030029,48.419187 C39.4940334,48.4540776 39.4843507,48.4887809 39.4739607,48.5232752 L29.7939566,80.6606956 L29.7939491,80.6606933 C29.3940871,81.9882272 28.035443,82.7802647 26.6832158,82.4741318 C24.5481992,81.9907819 22.3530373,81.749107 20.09773,81.749107 C17.9514008,81.749107 15.9688896,81.9350372 14.1501966,82.3068977 L14.1501977,82.306903 C12.8126711,82.5803814 11.4872566,81.7889961 11.0935228,80.4818076 L1.40758047,48.3246725 L1.40759015,48.3246696 C0.987084227,46.9285983 1.7779362,45.4559715 3.17400749,45.0354656 C3.21293928,45.0237391 3.25213678,45.0129135 3.29156862,45.0029976 C8.80044443,43.6176829 14.4024982,42.9250256 20.09773,42.9250256 Z" id="Combined-Shape-Copy-5" stroke="#3C4862" stroke-width="1.98" fill="#FFFFFF" transform="translate(20.440740, 62.732655) scale(1, -1) rotate(270.000000) translate(-20.440740, -62.732655) "></path>
                        <path d="M5.69635274,43.6214575 C11.7050127,25.4431719 26.0604926,11.069307 44.2184735,5.04854008 C44.0148597,3.76468722 44.7859613,2.49578929 46.0653132,2.11044001 C46.104245,2.0987135 46.1434425,2.08788796 46.1828743,2.07797205 C51.6917501,0.692657349 57.2938039,1.17739001e-13 62.9890357,1.17017507e-13 C68.7468883,1.17017507e-13 74.582129,0.759997335 80.494758,2.279992 L80.4947569,2.27999607 C81.7651414,2.60658136 82.5809556,3.80402456 82.4676014,5.06927465 C100.595677,11.1021335 114.924927,25.4634022 120.926924,43.6203116 C122.213391,43.4123995 123.48658,44.1840227 123.872697,45.4659229 C123.884423,45.5048547 123.895249,45.5440522 123.905165,45.5834841 C125.290479,51.0923599 125.983137,56.6944137 125.983137,62.3896455 C125.983137,68.147498 125.223139,73.9827387 123.703145,79.8953677 L123.703141,79.8953667 C123.375885,81.1683593 122.174192,81.9849132 120.906068,81.8675012 C114.891708,99.9948573 100.574368,114.330025 82.4669465,120.35578 C82.584048,121.623684 81.7675504,122.825052 80.4947569,123.152257 L80.494758,123.152261 C74.582129,124.672256 68.7468883,125.432253 62.9890357,125.432253 C57.2938039,125.432253 51.6917501,124.739596 46.1828743,123.354281 C46.1434425,123.344365 46.104245,123.333539 46.0653132,123.321813 C44.783622,122.935759 44.0120414,121.662922 44.2196002,120.37667 C26.0822171,114.36313 11.7385536,100.015483 5.71736354,81.8668261 C4.44659696,81.9879957 3.24097998,81.1707633 2.91310618,79.8953667 L2.91310212,79.8953677 C1.39310745,73.9827387 0.633110117,68.147498 0.633110117,62.3896455 C0.633110117,56.6944137 1.32576747,51.0923599 2.71108216,45.5834841 C2.72099807,45.5440522 2.73182362,45.5048547 2.74355013,45.4659229 C3.13037033,44.1816876 4.40749734,43.40959 5.69635274,43.6214575 Z M38.569814,53.5323974 C39.6461519,54.0471731 40.2608299,55.2397491 40.0149876,56.4421132 L40.0149822,56.4421121 C39.6431218,58.2608051 39.4571915,60.2433162 39.4571915,62.3896455 C39.4571915,64.6449527 39.6988665,66.8401146 40.1822163,68.9751312 C40.4693136,70.2432757 39.790565,71.5170638 38.610073,72.0003839 C41.2937031,79.1479108 46.9848506,84.8220424 54.1402464,87.4780294 C54.659535,86.4125509 55.8456783,85.8058701 57.0415034,86.0503755 L57.0415023,86.0503808 C58.8601953,86.4222413 60.8427065,86.6081715 62.9890357,86.6081715 C65.244343,86.6081715 67.4395049,86.3664966 69.5745215,85.8831467 C70.8362174,85.5975093 72.1034996,86.26792 72.5923398,87.4373204 C79.6956747,84.7646859 85.3421976,79.1129917 88.0125988,72.0030047 C86.8281458,71.5216822 86.1464126,70.2455747 86.4340304,68.9751312 C86.9173802,66.8401146 87.1590552,64.6449527 87.1590552,62.3896455 C87.1590552,60.2433162 86.9731249,58.2608051 86.6012645,56.4421121 L86.6012591,56.4421132 C86.3549378,55.2374063 86.9724935,54.0425255 88.0527298,53.529396 C85.3993821,46.369756 79.7328721,40.6750347 72.5950101,37.9885211 C72.1081281,39.1618812 70.8385214,39.8352652 69.5745215,39.5491062 C67.4395049,39.0657563 65.244343,38.8240814 62.9890357,38.8240814 C60.8427065,38.8240814 58.8601953,39.0100116 57.0415023,39.3818721 L57.0415034,39.3818775 C55.8433297,39.626863 54.6548758,39.0173157 54.1371944,37.9479403 C46.9472505,40.6177688 41.2361221,46.33509 38.569814,53.5323974 Z" id="Combined-Shape"></path>
                    </g>
                </g>
                <rect id="Rectangle-22-Copy-4" stroke="#FFFFFF" stroke-width="2" stroke-linecap="round" stroke-linejoin="round" x="379.324729" y="204.783452" width="6" height="6"></rect>
                <rect id="Rectangle-22-Copy-5" stroke="#FFFFFF" stroke-width="2" stroke-linecap="round" stroke-linejoin="round" transform="translate(253.567370, 275.026093) rotate(-45.000000) translate(-253.567370, -275.026093) " x="250.56737" y="272.026093" width="6" height="6"></rect>
                <g id="Group-16-Copy-2" transform="translate(135.622955, 362.749711) rotate(17.000000) translate(-135.622955, -362.749711) translate(93.622955, 321.249711)" stroke-width="2" stroke="#3C4862" fill="#FF885B">
                    <g id="Group-8">
                        <path d="M42.0305743,81.0280143 C19.784931,81.0280143 1.75127393,63.1802713 1.75127393,41.1639645 C1.75127393,19.1476577 19.784931,1.29991467 42.0305743,1.29991467 C64.2762176,1.29991467 82.3098746,19.1476577 82.3098746,41.1639645 C82.3098746,63.1802713 64.2762176,81.0280143 42.0305743,81.0280143 Z M42.0305743,58.4961601 C51.7025931,58.4961601 59.5433135,50.7362718 59.5433135,41.1639645 C59.5433135,31.5916572 51.7025931,23.8317689 42.0305743,23.8317689 C32.3585554,23.8317689 24.517835,31.5916572 24.517835,41.1639645 C24.517835,50.7362718 32.3585554,58.4961601 42.0305743,58.4961601 Z" id="Combined-Shape"></path>
                    </g>
                </g>
            </g>
            <g id="Modal">
                <rect id="Rectangle-3" fill-opacity="0.266898777" fill="#000000" x="0" y="0" width="1370" height="757"></rect>
                <g transform="translate(415.000000, 180.000000)">
                    <g>
                        <g id="Card_White">
                            <g>
                                <use fill="black" fill-opacity="1" filter="url(#filter-10)" xlink:href="#path-9"></use>
                                <use fill="#FFFFFF" fill-rule="evenodd" xlink:href="#path-9"></use>
                            </g>
                        </g>
                        <g id="Header">
                            <g id="Rectangle-9">
                                <use fill="black" fill-opacity="1" filter="url(#filter-12)" xlink:href="#path-11"></use>
                                <use fill="#F7F9FA" fill-rule="evenodd" xlink:href="#path-11"></use>
                            </g>
                            <g id="Close" transform="translate(515.000000, 25.000000)" fill="#646D73">
                                <path d="M5.48755404,3.89656378 L1.7348879,0.143897647 C1.54016596,-0.0508242967 1.22824977,-0.0465708736 1.03324227,0.148436621 L0.148436621,1.03324227 C-0.0462888996,1.22796779 -0.0486030416,1.54238722 0.143897647,1.7348879 L3.89656378,5.48755404 L0.143897647,9.24022018 C-0.0508242967,9.43494212 -0.0465708736,9.74685832 0.148436621,9.94186581 L1.03324227,10.8266715 C1.22796779,11.021397 1.54238722,11.0237111 1.7348879,10.8312104 L5.48755404,7.0785443 L9.24022018,10.8312104 C9.43494212,11.0259324 9.74685832,11.021679 9.94186581,10.8266715 L10.8266715,9.94186581 C11.021397,9.74714029 11.0237111,9.43272086 10.8312104,9.24022018 L7.0785443,5.48755404 L10.8312104,1.7348879 C11.0259324,1.54016596 11.021679,1.22824977 10.8266715,1.03324227 L9.94186581,0.148436621 C9.74714029,-0.0462888996 9.43272086,-0.0486030416 9.24022018,0.143897647 L5.48755404,3.89656378 Z" id="Close_white"></path>
                            </g>
                            <text font-family="OpenSans-Semibold, Open Sans" font-size="20" font-weight="500" line-spacing="27" fill="#646D73">
                                <tspan x="24" y="38">It's time to upgrade!</tspan>
                            </text>
                        </g>
                    </g>
                </g>
            </g>
            <g id="Pale-Circle" transform="translate(619.000000, 264.000000)" fill="#E9F2F2" fill-opacity="0.5">
                <circle id="Oval-2" cx="71.1666878" cy="71.2516791" r="71"></circle>
            </g>
            <g id="Loop" transform="translate(647.000000, 389.000000)" stroke-width="2" stroke="#C6D8E1">
                <circle id="Oval-2" cx="5" cy="5" r="4.09090909"></circle>
            </g>
            <g id="Ground-Plane" transform="translate(615.000000, 377.000000)" stroke="#4A4A4A" stroke-width="2" stroke-linecap="round">
                <path d="M4,2 L6.42747524,2" id="Path"></path>
                <path d="M1,2 L1.48549505,2" id="Path-Copy"></path>
                <path d="M12,2 L16,2" id="Path"></path>
                <path d="M19,2 L104,2" id="Path"></path>
                <path d="M107,2 L139,2" id="Path"></path>
                <path d="M148,2 L148.5,2" id="Path"></path>
                <path d="M142,2 L145,2" id="Path-Copy-2"></path>
            </g>
            <g id="illustration" transform="translate(540.000000, 252.000000)">
                <g id="Group-12-Copy" transform="translate(229.671296, 103.226267)" stroke="#C4D8E3" stroke-width="1.28" stroke-linecap="round">
                    <path d="M18.5869367,4.86208177e-14 C16.3164046,2.66361536 12.9944141,4.34358497 9.29346833,4.34358497 C5.59252261,4.34358497 2.27053203,2.66361536 0,0" id="Combined-Shape-Copy-11"></path>
                    <path d="M37.1738733,4.86208177e-14 C34.9033413,2.66361536 31.5813507,4.34358497 27.880405,4.34358497 C24.1794593,4.34358497 20.8574687,2.66361536 18.5869367,0" id="Combined-Shape-Copy-12"></path>
                </g>
                <g id="Group-12-Copy-2" transform="translate(66.576193, 66.521288)" stroke="#C5D8E2" stroke-width="1.28" stroke-linecap="round">
                    <path d="M18.5869367,4.86208177e-14 C16.3164046,2.66361536 12.9944141,4.34358497 9.29346833,4.34358497 C5.59252261,4.34358497 2.27053203,2.66361536 0,0" id="Combined-Shape-Copy-11"></path>
                    <path d="M37.1738733,4.86208177e-14 C34.9033413,2.66361536 31.5813507,4.34358497 27.880405,4.34358497 C24.1794593,4.34358497 20.8574687,2.66361536 18.5869367,0" id="Combined-Shape-Copy-12"></path>
                </g>
                <path d="M122.350129,119.447947 C119.432054,119.447947 117.066486,117.077964 117.066486,114.154443 C117.066486,111.230921 119.432054,108.860938 122.350129,108.860938 C125.268205,108.860938 127.633772,111.230921 127.633772,114.154443 C127.633772,117.077964 125.268205,119.447947 122.350129,119.447947 Z M122.350129,116.907065 C123.867528,116.907065 125.097623,115.674674 125.097623,114.154443 C125.097623,112.634211 123.867528,111.40182 122.350129,111.40182 C120.83273,111.40182 119.602635,112.634211 119.602635,114.154443 C119.602635,115.674674 120.83273,116.907065 122.350129,116.907065 Z" id="Combined-Shape-Copy" stroke="#3C4862" stroke-width="1.2672" fill="#FFFFFF"></path>
                <g id="Group-12-Copy-3" transform="translate(54.398545, 51.766561)" stroke="#C5D8E2" stroke-width="1.28" stroke-linecap="round">
                    <path d="M18.5869367,4.86208177e-14 C16.3164046,2.66361536 12.9944141,4.34358497 9.29346833,4.34358497 C5.59252261,4.34358497 2.27053203,2.66361536 0,0" id="Combined-Shape-Copy-11"></path>
                    <path d="M37.1738733,4.86208177e-14 C34.9033413,2.66361536 31.5813507,4.34358497 27.880405,4.34358497 C24.1794593,4.34358497 20.8574687,2.66361536 18.5869367,0" id="Combined-Shape-Copy-12"></path>
                </g>
                <g id="Path-2-+-Path-2-Mask" fill-rule="nonzero">
                    <g id="Path-2" transform="translate(230.684202, 48.908315) rotate(48.000000) translate(-230.684202, -48.908315) ">
                        <use fill="#FFFFFF" fill-rule="evenodd" xlink:href="#path-13"></use>
                        <path stroke="#3D4961" stroke-width="1.2672" d="M207.898658,92.6770265 C207.509844,93.5269311 206.506186,93.9004142 205.657163,93.5105525 C204.808777,93.1209828 204.436526,92.116899 204.825049,91.2676295 C205.502398,89.7870192 206.071415,88.2043608 206.576174,86.4086083 C207.071753,84.645511 207.357873,83.3693823 208.087619,79.7005804 C209.040442,74.9102584 209.565439,72.8614429 210.495507,70.415186 C211.813115,66.9496208 213.630342,64.0865069 216.156171,61.5559636 C218.089318,59.6192081 220.582076,58.1119501 225.120637,56.0651425 C225.476329,55.9047322 226.195996,55.5863523 227.232245,55.130173 L227.246139,55.1240567 C227.724865,54.9133177 229.454552,54.1531655 229.56303,54.1049963 C231.425808,53.2778363 232.815246,52.6255841 234.134894,51.9558076 C239.12364,49.4238107 242.721576,46.7735804 245.621749,43.4300312 C249.298941,39.1906744 251.701254,33.9114459 252.884899,27.3045465 C253.857314,21.8766902 253.188078,16.7561149 250.855941,11.3159147 C249.179426,7.40509167 249.104944,3.93794151 250.823995,4.15874398 C251.080026,4.19162971 251.302904,4.30735225 251.492181,4.4987703 C251.766286,4.77597557 251.966719,5.17459915 252.382292,6.17520737 C252.490176,6.43496775 252.953179,7.56962579 253.019654,7.73156534 C253.335836,8.50180853 253.630506,9.2064468 253.962563,9.98103901 C256.551817,16.0210173 257.3044,21.8070309 256.212455,27.9020799 C254.922708,35.10122 252.258528,40.9405998 248.174277,45.6492476 C244.968686,49.3449057 241.034628,52.2485834 235.663513,54.9746482 C234.28728,55.6731443 232.849052,56.3484218 230.933682,57.1989349 C230.817146,57.2506825 229.07138,58.0179196 228.622806,58.2153745 L228.609293,58.2213228 C227.573368,58.6773339 226.856359,58.9945034 226.509109,59.1511067 C222.363616,61.0206478 220.136235,62.356693 218.547491,63.9484026 C216.364397,66.1355715 214.805045,68.5944326 213.655013,71.6192369 C212.806483,73.8510363 212.316537,75.7696702 211.403174,80.3616044 C210.654615,84.1249876 210.355518,85.4573836 209.830428,87.3254656 C209.279076,89.2869834 208.651133,91.0321994 207.898658,92.6770265 Z"></path>
                    </g>
                    <g id="Path-2" transform="translate(65.529122, 115.976152) rotate(-115.000000) translate(-65.529122, -115.976152) ">
                        <use fill="#FFFFFF" fill-rule="evenodd" xlink:href="#path-14"></use>
                        <path stroke="#3D4961" stroke-width="1.2672" d="M42.7435778,175.759127 C42.3547639,176.609032 41.3511057,176.982515 40.502083,176.592653 C39.6536962,176.203083 39.2814455,175.199 39.6699689,174.34973 C40.3473177,172.86912 40.916335,171.286461 41.4210933,169.490709 C41.9166727,167.727612 42.2027922,166.451483 42.9325386,162.782681 C43.885362,157.992359 44.4103589,155.943543 45.3404264,153.497287 C46.6580351,150.031721 48.4752612,147.168607 51.0010902,144.638064 C52.9342375,142.701309 55.4269957,141.194051 59.965557,139.147243 C60.3212484,138.986833 61.0409157,138.668453 62.0771648,138.212274 L62.0910588,138.206157 C62.5697846,137.995418 64.2994714,137.235266 64.4079493,137.187097 C66.2707278,136.359937 67.6601658,135.707685 68.9798139,135.037908 C73.96856,132.505911 77.5664954,129.855681 80.4666689,126.512132 C84.1438604,122.272775 86.5461737,116.993546 87.7298182,110.386647 C88.7022338,104.958791 88.0329979,99.8382155 85.7008605,94.3980153 C84.0042486,90.4403116 82.1866142,87.4626031 77.0516405,80.1426852 C71.0469474,71.582959 68.9477655,67.9706491 67.1979655,63.003785 C66.0877093,59.8522865 65.7942683,57.7823812 66.1771973,56.5525512 C66.5041235,55.5025821 67.2812734,55.1168924 68.0816528,55.2196967 C68.2818376,55.2454093 68.3022712,55.2489523 68.4166597,55.3014871 C68.648643,55.4080294 68.7802913,55.6013637 68.8292859,55.8280732 C68.8479488,55.9144304 68.8788989,56.3537506 68.9018798,56.5369445 C69.0362162,57.6078129 69.4657183,59.2653763 70.3861279,61.8779889 C72.0095183,66.4860353 74.0104171,69.9184543 79.8493284,78.2418576 C85.1027318,85.7305973 86.9977776,88.8416221 88.8074828,93.0631396 C91.3967366,99.1031179 92.1493192,104.889131 91.0573741,110.98418 C89.767628,118.183321 87.103448,124.0227 83.0191964,128.731348 C79.8136059,132.427006 75.8795473,135.330684 70.5084329,138.056749 C69.1321993,138.755245 67.6939717,139.430522 65.7786017,140.281035 C65.6620652,140.332783 63.9162994,141.10002 63.4677256,141.297475 L63.4542127,141.303423 C62.4182872,141.759434 61.7012787,142.076604 61.3540287,142.233207 C57.2085356,144.102748 54.9811551,145.438794 53.3924108,147.030503 C51.2093165,149.217672 49.6499644,151.676533 48.4999331,154.701337 C47.6514024,156.933137 47.161457,158.851771 46.2480941,163.443705 C45.4995349,167.207088 45.2004371,168.539484 44.6753481,170.407566 C44.1239957,172.369084 43.4960524,174.1143 42.7435778,175.759127 Z"></path>
                    </g>
                </g>
                <g id="Group-10-Copy" transform="translate(201.678555, 90.257152)" stroke="#C5D8E2" stroke-width="1.28" stroke-linecap="round">
                    <path d="M18.5869367,4.86208177e-14 C16.3164046,2.66361536 12.9944141,4.34358497 9.29346833,4.34358497 C5.59252261,4.34358497 2.27053203,2.66361536 0,0" id="Combined-Shape"></path>
                    <path d="M37.1738733,4.86208177e-14 C34.9033413,2.66361536 31.5813507,4.34358497 27.880405,4.34358497 C24.1794593,4.34358497 20.8574687,2.66361536 18.5869367,0" id="Combined-Shape-Copy-9"></path>
                    <path d="M55.76081,4.86208177e-14 C53.490278,2.66361536 50.1682874,4.34358497 46.4673417,4.34358497 C42.766396,4.34358497 39.4444054,2.66361536 37.1738733,0" id="Combined-Shape-Copy-10"></path>
                </g>
                <g id="Group-16-Copy" transform="translate(155.097214, 84.509777) rotate(48.000000) translate(-155.097214, -84.509777) translate(114.668439, 40.856864)">
                    <path d="M40.5347296,10.9444216 C37.6166543,10.9444216 35.2510868,8.57443895 35.2510868,5.65091714 C35.2510868,2.72739533 37.6166543,0.357412632 40.5347296,0.357412632 C43.452805,0.357412632 45.8183725,2.72739533 45.8183725,5.65091714 C45.8183725,8.57443895 43.452805,10.9444216 40.5347296,10.9444216 Z M40.5347296,8.40353948 C42.0521288,8.40353948 43.2822239,7.17114848 43.2822239,5.65091714 C43.2822239,4.1306858 42.0521288,2.8982948 40.5347296,2.8982948 C39.0173304,2.8982948 37.7872354,4.1306858 37.7872354,5.65091714 C37.7872354,7.17114848 39.0173304,8.40353948 40.5347296,8.40353948 Z" id="Combined-Shape" stroke="#3C4862" stroke-width="1.2672" fill="#FFFFFF"></path>
                    <g id="Group-8" transform="translate(-0.000000, 6.076494)">
                        <path d="M40.5783771,79.1908274 C19.1013424,79.1908274 1.69076571,61.7477548 1.69076571,40.2306343 C1.69076571,18.7135137 19.1013424,1.27044108 40.5783771,1.27044108 C62.0554119,1.27044108 79.4659885,18.7135137 79.4659885,40.2306343 C79.4659885,61.7477548 62.0554119,79.1908274 40.5783771,79.1908274 Z M40.5783771,57.1698487 C49.9162183,57.1698487 57.4860343,49.5859041 57.4860343,40.2306343 C57.4860343,30.8753645 49.9162183,23.2914198 40.5783771,23.2914198 C31.2405359,23.2914198 23.67072,30.8753645 23.67072,40.2306343 C23.67072,49.5859041 31.2405359,57.1698487 40.5783771,57.1698487 Z" id="Combined-Shape" stroke="#3C4862" stroke-width="1.2672" fill="#FF885B"></path>
                        <path d="M40.3714903,0 C44.0629964,0 47.8041334,0.487845025 51.5949011,1.46353508 L51.5949002,1.46353863 C52.4985851,1.69613434 53.0426103,2.61727173 52.8100146,3.52095657 C52.8043435,3.54298986 52.798228,3.56490636 52.7916718,3.58669266 L46.5852492,24.2105703 L46.5852498,24.2105704 C46.3294509,25.0605874 45.4595039,25.5677175 44.5937953,25.3714761 C43.2249369,25.0611792 41.8175019,24.9060308 40.3714903,24.9060308 C38.9952762,24.9060308 37.7241448,25.0254057 36.5580962,25.2641555 L36.5580952,25.2641504 C35.7017978,25.4394783 34.8531349,24.932768 34.601258,24.0957835 L28.3910322,3.45926795 L28.39104,3.45926561 C28.12214,2.56571358 28.6285205,1.62335998 29.5220725,1.35445994 C29.5466964,1.34704979 29.5714862,1.34020274 29.5964226,1.33392416 C33.1283517,0.444641385 36.7200409,4.62999461e-16 40.3714903,0 Z" id="Combined-Shape-Copy-4" stroke="#3C4862" stroke-width="1.2672" fill="#FFFFFF"></path>
                        <path d="M40.3714903,55.0524469 C44.0629964,55.0524469 47.8041334,55.5402919 51.5949011,56.5159819 L51.5949002,56.5159855 C52.4985851,56.7485812 53.0426103,57.6697186 52.8100146,58.5734034 C52.8043435,58.5954367 52.798228,58.6173532 52.7916718,58.6391395 L46.5852492,79.2630171 L46.5852498,79.2630173 C46.3294509,80.1130343 45.4595039,80.6201644 44.5937953,80.423923 C43.2249369,80.1136261 41.8175019,79.9584776 40.3714903,79.9584776 C38.9952762,79.9584776 37.7241448,80.0778525 36.5580962,80.3166023 L36.5580952,80.3165973 C35.7017978,80.4919252 34.8531349,79.9852148 34.601258,79.1482303 L28.3910322,58.5117148 L28.39104,58.5117125 C28.12214,57.6181605 28.6285205,56.6758069 29.5220725,56.4069068 C29.5466964,56.3994967 29.5714862,56.3926496 29.5964226,56.386371 C33.1283517,55.4970883 36.7200409,55.0524469 40.3714903,55.0524469 Z" id="Combined-Shape-Copy-5" stroke="#3C4862" stroke-width="1.2672" fill="#FFFFFF" transform="translate(40.591335, 67.759237) scale(1, -1) translate(-40.591335, -67.759237) "></path>
                        <path d="M67.8311007,27.5368268 C71.5226069,27.5368268 75.2637438,28.0246719 79.0545116,29.0003619 L79.0545107,29.0003655 C79.9581955,29.2329612 80.5022207,30.1540986 80.269625,31.0577834 C80.263954,31.0798167 80.2578384,31.1017332 80.2512822,31.1235195 L74.0448596,51.7473971 L74.0448602,51.7473973 C73.7890613,52.5974143 72.9191143,53.1045444 72.0534057,52.908303 C70.6845474,52.5980061 69.2771124,52.4428576 67.8311007,52.4428576 C66.4548866,52.4428576 65.1837552,52.5622325 64.0177066,52.8009823 L64.0177056,52.8009773 C63.1614082,52.9763052 62.3127453,52.4695948 62.0608684,51.6326103 L55.8506426,30.9960948 L55.8506504,30.9960924 C55.5817504,30.1025404 56.0881309,29.1601868 56.9816829,28.8912868 C57.0063068,28.8838766 57.0310966,28.8770296 57.056033,28.870751 C60.5879621,27.9814682 64.1796514,27.5368268 67.8311007,27.5368268 Z" id="Combined-Shape-Copy-4" stroke="#3C4862" stroke-width="1.2672" fill="#FFFFFF" transform="translate(68.050946, 40.243616) rotate(-270.000000) translate(-68.050946, -40.243616) "></path>
                        <g id="Oval-5" opacity="0.300000012" style="mix-blend-mode: multiply;" transform="translate(40.578377, 40.654115)">
                            <mask id="mask-16" fill="white">
                                <use xlink:href="#path-15"></use>
                            </mask>
                            <g id="Mask"></g>
                            <path d="M-34.4513977,8.17400438 C-39.1999068,-10.8884901 -27.6249179,-30.1909201 -8.59793638,-34.9391798 L-8.59793638,-34.9391798 M34.373818,8.53747797 C33.8880003,10.4037854 33.2526051,12.2214598 32.4779336,13.9733233 C32.1669025,14.6766975 31.8334197,15.3694628 31.4781519,16.0505073 M29.7068195,19.0749929 C24.9821235,26.3051826 17.6295554,31.8383423 8.59793638,34.0922191" stroke="#9B9B9B" stroke-width="1.2672" style="mix-blend-mode: multiply;" stroke-linecap="round" stroke-dasharray="126.7199951171875,4.223999786376953,0.4223999977111816,2.95679988861084" mask="url(#mask-16)"></path>
                        </g>
                        <g id="Oval-5-Copy-2" opacity="0.300000012" style="mix-blend-mode: multiply;" transform="translate(8.412478, 3.979038)">
                            <mask id="mask-18" fill="white">
                                <use xlink:href="#path-17"></use>
                            </mask>
                            <g id="Mask"></g>
                            <path d="M13.4389709,29.4162568 C13.1956273,30.098977 12.9888358,30.7990972 12.8209574,31.5142521 M12.2994017,36.0398558 C12.2994017,46.915357 21.0993127,55.7316926 31.9545531,55.7316926 C42.8097935,55.7316926 51.6097045,46.915357 51.6097045,36.0398558 C51.6097045,25.1643547 42.8097935,16.3480191 31.9545531,16.3480191 M26.8193601,17.0268802 C21.7241648,18.4048223 17.4488339,21.7837466 14.8850361,26.2703199" id="Oval-5" stroke="#9B9B9B" stroke-width="1.2672" style="mix-blend-mode: multiply;" stroke-linecap="round" stroke-dasharray="126.7199951171875,4.223999786376953,0.4223999977111816,2.95679988861084" mask="url(#mask-18)" transform="translate(31.954553, 36.039856) rotate(-348.000000) translate(-31.954553, -36.039856) "></path>
                        </g>
                        <path d="M12.881215,27.5368268 C16.5727212,27.5368268 20.3138581,28.0246719 24.1046259,29.0003619 L24.104625,29.0003655 C25.0083098,29.2329612 25.552335,30.1540986 25.3197393,31.0577834 C25.3140683,31.0798167 25.3079528,31.1017332 25.3013965,31.1235195 L19.0949739,51.7473971 L19.0949745,51.7473973 C18.8391756,52.5974143 17.9692286,53.1045444 17.1035201,52.908303 C15.7346617,52.5980061 14.3272267,52.4428576 12.881215,52.4428576 C11.5050009,52.4428576 10.2338695,52.5622325 9.06782094,52.8009823 L9.06781991,52.8009773 C8.21152253,52.9763052 7.36285965,52.4695948 7.1109827,51.6326103 L0.900756952,30.9960948 L0.900764734,30.9960924 C0.631864694,30.1025404 1.13824519,29.1601868 2.03179722,28.8912868 C2.05642108,28.8838766 2.08121091,28.8770296 2.10614731,28.870751 C5.63807645,27.9814682 9.22976568,27.5368268 12.881215,27.5368268 Z" id="Combined-Shape-Copy-5" stroke="#3C4862" stroke-width="1.2672" fill="#FFFFFF" transform="translate(13.101060, 40.243616) scale(1, -1) rotate(270.000000) translate(-13.101060, -40.243616) "></path>
                        <path d="M3.64721056,27.9949447 C7.4960474,16.3282216 16.6988418,7.10262757 28.3403179,3.23887988 C28.207784,2.4157053 28.701787,1.6013116 29.5220725,1.35445994 C29.5466964,1.34704979 29.5714862,1.34020274 29.5964226,1.33392416 C33.1283517,0.444641385 36.7200409,1.17480506e-13 40.3714903,1.17017507e-13 C44.0629964,1.17017507e-13 47.8041334,0.487845025 51.5949011,1.46353508 L51.5949002,1.46353863 C52.4089651,1.67306743 52.9311692,2.44134205 52.8567078,3.25227036 C64.4788823,7.1238282 73.6647483,16.3412786 77.509294,27.9941878 C78.3356935,27.8563026 79.1554098,28.3509457 79.4032107,29.1743856 C79.4106209,29.1990095 79.4174679,29.2237993 79.4237465,29.2487357 C80.3130293,32.7806648 80.7576707,36.3723541 80.7576707,40.0238034 C80.7576707,43.7153096 80.2698256,47.4564465 79.2941356,51.2472143 L79.294132,51.2472134 C79.0837709,52.0645122 78.3102156,52.5876268 77.4957337,52.5081052 C73.6431326,64.1417651 64.4650135,73.342212 52.8562777,77.2091414 C52.933149,78.0217679 52.410509,78.7925613 51.5949002,79.0024875 L51.5949011,79.0024911 C47.8041334,79.9781811 44.0629964,80.4660261 40.3714903,80.4660261 C36.7200409,80.4660261 33.1283517,80.0213848 29.5964226,79.132102 C29.5714862,79.1258234 29.5466964,79.1189764 29.5220725,79.1115662 C28.7002875,78.8642633 28.205979,78.0473416 28.3410509,77.2226319 C16.7129772,73.3635912 7.51786942,64.1550757 3.66086975,52.5076499 C2.84470286,52.5895944 2.06863043,52.0660501 1.85787344,51.2472134 L1.85786988,51.2472143 C0.88217983,47.4564465 0.394334805,43.7153096 0.394334805,40.0238034 C0.394334805,36.3723541 0.83897619,32.7806648 1.72825896,29.2487357 C1.73453755,29.2237993 1.74138459,29.1990095 1.74879474,29.1743856 C1.99704535,28.3494514 2.8192889,27.8545084 3.64721056,27.9949447 Z M24.7205197,34.341525 C25.4176443,34.6675743 25.8170732,35.4358682 25.6584852,36.2104083 L25.6584903,36.2104093 C25.4197405,37.3764579 25.3003656,38.6475893 25.3003656,40.0238034 C25.3003656,41.4698151 25.455514,42.8772501 25.7658109,44.2461084 C25.950931,45.0627557 25.5101432,45.8831747 24.7460519,46.1882683 C26.465915,50.7736778 30.1135214,54.4138955 34.6996767,56.1178806 C35.0314701,55.4343522 35.7917251,55.0449605 36.5580952,55.2018757 L36.5580962,55.2018707 C37.7241448,55.4406205 38.9952762,55.5599954 40.3714903,55.5599954 C41.8175019,55.5599954 43.2249369,55.4048469 44.5937953,55.09455 C45.4023918,54.911255 46.214686,55.3415877 46.5267823,56.0918056 C51.0796348,54.3771538 54.6986924,50.7512935 56.4100858,46.189912 C55.6434523,45.8861303 55.2007411,45.0642268 55.3861946,44.2461084 C55.6964915,42.8772501 55.8516399,41.4698151 55.8516399,40.0238034 C55.8516399,38.6475893 55.732265,37.3764579 55.4935152,36.2104093 L55.4935202,36.2104083 C55.3346254,35.4343695 55.735909,34.6646011 56.4355358,34.3396374 C54.7349603,29.7467408 51.103232,26.0935697 46.5284879,24.3701053 C46.2176542,25.1228639 45.4038691,25.5551061 44.5937953,25.3714761 C43.2249369,25.0611792 41.8175019,24.9060308 40.3714903,24.9060308 C38.9952762,24.9060308 37.7241448,25.0254057 36.5580962,25.2641555 L36.5580952,25.2641504 C35.7902192,25.4213739 35.0284825,25.0301416 34.6977258,24.3441128 C30.0896664,26.0568876 26.4293941,29.7245196 24.7205197,34.341525 Z" id="Combined-Shape"></path>
                    </g>
                </g>
            </g>
        </g>
    </g>
</svg>