<svg width="186" height="180" viewBox="0 0 186 180" fill="none" xmlns="http://www.w3.org/2000/svg">
<path fill-rule="evenodd" clip-rule="evenodd" d="M91 180C140.706 180 181 139.706 181 90C181 40.2944 140.706 0 91 0C41.2944 0 1 40.2944 1 90C1 139.706 41.2944 180 91 180Z" fill="#ECF5FB"/>
<rect x="139" y="28" width="6" height="6" stroke="#B5D9F1" stroke-width="2" stroke-linecap="round" stroke-linejoin="round"/>
<rect x="98" y="16.4497" width="6" height="6" transform="rotate(-45 98 16.4497)" stroke="#B5D9F1" stroke-width="2" stroke-linecap="round" stroke-linejoin="round"/>
<path d="M111.043 34.25L116.744 39.9509" stroke="#B5D9F1" stroke-width="2" stroke-linecap="round" stroke-linejoin="round"/>
<path d="M116.543 34.25L110.842 39.9509" stroke="#B5D9F1" stroke-width="2" stroke-linecap="round" stroke-linejoin="round"/>
<path d="M2 143H185" stroke="#264887" stroke-width="2" stroke-linecap="round" stroke-dasharray="1 6 164 5"/>
<g filter="url(#filter0_i)">
<path fill-rule="evenodd" clip-rule="evenodd" d="M14 52C14 49.7909 15.7909 48 18 48H100C102.209 48 104 49.7909 104 52V134.363C104 136.572 102.209 138.363 100 138.363H95.9431C95.0806 140.495 92.9902 142 90.5483 142C88.1064 142 86.0159 140.495 85.1535 138.363H34.7318C33.8693 140.495 31.7789 142 29.337 142C26.8951 142 24.8046 140.495 23.9422 138.363H18C15.7909 138.363 14 136.572 14 134.363V52Z" fill="white"/>
</g>
<path d="M95.9431 138.363V137.363H95.2688L95.016 137.988L95.9431 138.363ZM85.1535 138.363L86.0806 137.988L85.8278 137.363H85.1535V138.363ZM34.7318 138.363V137.363H34.0575L33.8047 137.988L34.7318 138.363ZM23.9422 138.363L24.8692 137.988L24.6164 137.363H23.9422V138.363ZM14.6582 48.2808C14.2475 48.65 14.2138 49.2823 14.5831 49.693C14.9523 50.1037 15.5846 50.1373 15.9953 49.7681L14.6582 48.2808ZM15.87 49.8874C16.2589 49.4953 16.2563 48.8622 15.8642 48.4732C15.4721 48.0843 14.8389 48.0869 14.45 48.479L15.87 49.8874ZM14.4212 48.5083C14.0355 48.9036 14.0432 49.5367 14.4385 49.9224C14.8338 50.3081 15.4669 50.3003 15.8526 49.9051L14.4212 48.5083ZM15.7681 49.9953C16.1373 49.5846 16.1037 48.9523 15.693 48.5831C15.2823 48.2138 14.65 48.2475 14.2808 48.6582L15.7681 49.9953ZM13 90.3784C13 90.9307 13.4477 91.3784 14 91.3784C14.5523 91.3784 15 90.9307 15 90.3784H13ZM15 93.3969C15 92.8446 14.5523 92.3969 14 92.3969C13.4477 92.3969 13 92.8446 13 93.3969H15ZM13 93.8281C13 94.3804 13.4477 94.8281 14 94.8281C14.5523 94.8281 15 94.3804 15 93.8281H13ZM15 95.9842C15 95.4319 14.5523 94.9842 14 94.9842C13.4477 94.9842 13 95.4319 13 95.9842H15ZM14.2808 137.704C14.65 138.115 15.2823 138.149 15.693 137.78C16.1037 137.41 16.1373 136.778 15.7681 136.367L14.2808 137.704ZM15.8874 136.493C15.4953 136.104 14.8622 136.106 14.4732 136.498C14.0843 136.891 14.0869 137.524 14.479 137.913L15.8874 136.493ZM14.5083 137.941C14.9036 138.327 15.5367 138.319 15.9224 137.924C16.3081 137.529 16.3003 136.896 15.9051 136.51L14.5083 137.941ZM15.9953 136.594C15.5846 136.225 14.9523 136.259 14.5831 136.67C14.2138 137.08 14.2475 137.713 14.6582 138.082L15.9953 136.594ZM20.7689 139.363C21.3211 139.363 21.7689 138.915 21.7689 138.363C21.7689 137.81 21.3211 137.363 20.7689 137.363V139.363ZM20.9866 137.363C20.4344 137.363 19.9866 137.81 19.9866 138.363C19.9866 138.915 20.4344 139.363 20.9866 139.363V137.363ZM21.0177 139.363C21.57 139.363 22.0177 138.915 22.0177 138.363C22.0177 137.81 21.57 137.363 21.0177 137.363V139.363ZM21.1733 137.363C20.621 137.363 20.1733 137.81 20.1733 138.363C20.1733 138.915 20.621 139.363 21.1733 139.363V137.363ZM25.2991 141.676C25.7438 142.003 26.3698 141.908 26.6973 141.463C27.0247 141.019 26.9296 140.393 26.4848 140.065L25.2991 141.676ZM26.6563 140.186C26.1977 139.878 25.5765 140 25.2686 140.459C24.9608 140.917 25.083 141.539 25.5415 141.846L26.6563 140.186ZM25.5768 141.87C26.0372 142.175 26.6577 142.049 26.9627 141.588C27.2676 141.128 27.1416 140.507 26.6812 140.202L25.5768 141.87ZM26.8072 140.283C26.3376 139.993 25.7213 140.138 25.4307 140.608C25.1402 141.077 25.2854 141.694 25.7551 141.984L26.8072 140.283ZM32.9188 141.984C33.3885 141.694 33.5337 141.077 33.2432 140.608C32.9527 140.138 32.3364 139.993 31.8667 140.283L32.9188 141.984ZM32.0425 140.169C31.5858 140.48 31.4675 141.102 31.7782 141.558C32.0888 142.015 32.7109 142.133 33.1675 141.823L32.0425 140.169ZM33.2024 141.799C33.6571 141.485 33.7716 140.863 33.4581 140.408C33.1446 139.953 32.5219 139.839 32.0672 140.152L33.2024 141.799ZM32.1891 140.065C31.7444 140.393 31.6493 141.019 31.9767 141.463C32.3041 141.908 32.9301 142.003 33.3748 141.676L32.1891 140.065ZM58.2267 139.363C58.779 139.363 59.2267 138.915 59.2267 138.363C59.2267 137.81 58.779 137.363 58.2267 137.363V139.363ZM60.0746 137.363C59.5223 137.363 59.0746 137.81 59.0746 138.363C59.0746 138.915 59.5223 139.363 60.0746 139.363V137.363ZM60.3386 139.363C60.8909 139.363 61.3386 138.915 61.3386 138.363C61.3386 137.81 60.8909 137.363 60.3386 137.363V139.363ZM61.6585 137.363C61.1063 137.363 60.6585 137.81 60.6585 138.363C60.6585 138.915 61.1063 139.363 61.6585 139.363V137.363ZM86.5104 141.676C86.9552 142.003 87.5811 141.908 87.9086 141.463C88.236 141.019 88.1409 140.393 87.6961 140.065L86.5104 141.676ZM87.8676 140.186C87.409 139.878 86.7878 140 86.48 140.459C86.1721 140.917 86.2943 141.539 86.7528 141.846L87.8676 140.186ZM86.7881 141.87C87.2485 142.175 87.869 142.049 88.174 141.588C88.479 141.128 88.3529 140.507 87.8925 140.202L86.7881 141.87ZM88.0186 140.283C87.5489 139.993 86.9326 140.138 86.6421 140.608C86.3515 141.077 86.4968 141.694 86.9664 141.984L88.0186 140.283ZM94.1301 141.984C94.5998 141.694 94.7451 141.077 94.4545 140.608C94.164 140.138 93.5477 139.993 93.078 140.283L94.1301 141.984ZM93.2538 140.169C92.7972 140.48 92.6788 141.102 92.9895 141.558C93.3002 142.015 93.9222 142.133 94.3788 141.823L93.2538 140.169ZM94.4137 141.799C94.8684 141.485 94.9829 140.863 94.6694 140.408C94.3559 139.953 93.7332 139.839 93.2785 140.152L94.4137 141.799ZM93.4005 140.065C92.9557 140.393 92.8606 141.019 93.188 141.463C93.5154 141.908 94.1414 142.003 94.5862 141.676L93.4005 140.065ZM97.8335 139.363C98.3858 139.363 98.8335 138.915 98.8335 138.363C98.8335 137.81 98.3858 137.363 97.8335 137.363V139.363ZM97.9822 137.363C97.4299 137.363 96.9822 137.81 96.9822 138.363C96.9822 138.915 97.4299 139.363 97.9822 139.363V137.363ZM98.0034 139.363C98.5557 139.363 99.0034 138.915 99.0034 138.363C99.0034 137.81 98.5557 137.363 98.0034 137.363V139.363ZM98.1096 137.363C97.5573 137.363 97.1096 137.81 97.1096 138.363C97.1096 138.915 97.5573 139.363 98.1096 139.363V137.363ZM103.342 138.082C103.753 137.713 103.786 137.08 103.417 136.67C103.048 136.259 102.415 136.225 102.005 136.594L103.342 138.082ZM102.13 136.475C101.741 136.867 101.744 137.5 102.136 137.889C102.528 138.278 103.161 138.276 103.55 137.884L102.13 136.475ZM103.579 137.854C103.965 137.459 103.957 136.826 103.561 136.44C103.166 136.054 102.533 136.062 102.147 136.458L103.579 137.854ZM102.232 136.367C101.863 136.778 101.896 137.41 102.307 137.78C102.718 138.149 103.35 138.115 103.719 137.704L102.232 136.367ZM105 95.9842C105 95.4319 104.552 94.9842 104 94.9842C103.448 94.9842 103 95.4319 103 95.9842H105ZM103 92.9657C103 93.518 103.448 93.9657 104 93.9657C104.552 93.9657 105 93.518 105 92.9657H103ZM105 92.5345C105 91.9822 104.552 91.5345 104 91.5345C103.448 91.5345 103 91.9822 103 92.5345H105ZM103 90.3784C103 90.9307 103.448 91.3784 104 91.3784C104.552 91.3784 105 90.9307 105 90.3784H103ZM103.719 48.6582C103.35 48.2475 102.718 48.2138 102.307 48.5831C101.896 48.9523 101.863 49.5846 102.232 49.9953L103.719 48.6582ZM102.113 49.87C102.505 50.2589 103.138 50.2563 103.527 49.8642C103.916 49.4721 103.913 48.8389 103.521 48.45L102.113 49.87ZM103.492 48.4212C103.096 48.0355 102.463 48.0432 102.078 48.4385C101.692 48.8338 101.7 49.4669 102.095 49.8526L103.492 48.4212ZM102.005 49.7681C102.415 50.1373 103.048 50.1037 103.417 49.693C103.786 49.2823 103.753 48.65 103.342 48.2808L102.005 49.7681ZM61.7906 47C61.2383 47 60.7906 47.4477 60.7906 48C60.7906 48.5523 61.2383 49 61.7906 49V47ZM58.7853 49C59.3376 49 59.7853 48.5523 59.7853 48C59.7853 47.4477 59.3376 47 58.7853 47V49ZM58.356 47C57.8037 47 57.356 47.4477 57.356 48C57.356 48.5523 57.8037 49 58.356 49V47ZM56.2094 49C56.7617 49 57.2094 48.5523 57.2094 48C57.2094 47.4477 56.7617 47 56.2094 47V49ZM18 47C16.716 47 15.5431 47.4853 14.6582 48.2808L15.9953 49.7681C16.5273 49.2898 17.2286 49 18 49V47ZM14.45 48.479C14.4403 48.4887 14.4307 48.4985 14.4212 48.5083L15.8526 49.9051C15.8584 49.8992 15.8642 49.8933 15.87 49.8874L14.45 48.479ZM14.2808 48.6582C13.4853 49.5431 13 50.716 13 52H15C15 51.2286 15.2898 50.5273 15.7681 49.9953L14.2808 48.6582ZM13 52V90.3784H15V52H13ZM13 93.3969V93.8281H15V93.3969H13ZM13 95.9842V134.363H15V95.9842H13ZM13 134.363C13 135.647 13.4853 136.82 14.2808 137.704L15.7681 136.367C15.2898 135.835 15 135.134 15 134.363H13ZM14.479 137.913C14.4887 137.922 14.4985 137.932 14.5083 137.941L15.9051 136.51C15.8992 136.504 15.8933 136.498 15.8874 136.493L14.479 137.913ZM14.6582 138.082C15.5431 138.877 16.716 139.363 18 139.363V137.363C17.2286 137.363 16.5273 137.073 15.9953 136.594L14.6582 138.082ZM18 139.363H20.7689V137.363H18V139.363ZM20.9866 139.363H21.0177V137.363H20.9866V139.363ZM21.1733 139.363H23.9422V137.363H21.1733V139.363ZM23.0151 138.737C23.4925 139.918 24.29 140.933 25.2991 141.676L26.4848 140.065C25.7698 139.539 25.2059 138.82 24.8692 137.988L23.0151 138.737ZM25.5415 141.846C25.5532 141.854 25.565 141.862 25.5768 141.87L26.6812 140.202C26.6729 140.197 26.6646 140.191 26.6563 140.186L25.5415 141.846ZM25.7551 141.984C26.7966 142.628 28.0249 143 29.337 143V141C28.4072 141 27.5418 140.738 26.8072 140.283L25.7551 141.984ZM29.337 143C30.649 143 31.8773 142.628 32.9188 141.984L31.8667 140.283C31.1322 140.738 30.2667 141 29.337 141V143ZM33.1675 141.823C33.1792 141.815 33.1908 141.807 33.2024 141.799L32.0672 140.152C32.059 140.158 32.0507 140.163 32.0425 140.169L33.1675 141.823ZM33.3748 141.676C34.3839 140.933 35.1814 139.918 35.6588 138.737L33.8047 137.988C33.468 138.82 32.9042 139.539 32.1891 140.065L33.3748 141.676ZM34.7318 139.363H58.2267V137.363H34.7318V139.363ZM60.0746 139.363H60.3386V137.363H60.0746V139.363ZM61.6585 139.363H85.1535V137.363H61.6585V139.363ZM84.2264 138.737C84.7039 139.918 85.5013 140.933 86.5104 141.676L87.6961 140.065C86.9811 139.539 86.4173 138.82 86.0806 137.988L84.2264 138.737ZM86.7528 141.846C86.7646 141.854 86.7763 141.862 86.7881 141.87L87.8925 140.202C87.8842 140.197 87.8759 140.191 87.8676 140.186L86.7528 141.846ZM86.9664 141.984C88.0079 142.628 89.2362 143 90.5483 143V141C89.6185 141 88.7531 140.738 88.0186 140.283L86.9664 141.984ZM90.5483 143C91.8603 143 93.0886 142.628 94.1301 141.984L93.078 140.283C92.3435 140.738 91.4781 141 90.5483 141V143ZM94.3788 141.823C94.3905 141.815 94.4021 141.807 94.4137 141.799L93.2785 140.152C93.2703 140.158 93.262 140.163 93.2538 140.169L94.3788 141.823ZM94.5862 141.676C95.5953 140.933 96.3927 139.918 96.8702 138.737L95.016 137.988C94.6793 138.82 94.1155 139.539 93.4005 140.065L94.5862 141.676ZM95.9431 139.363H97.8335V137.363H95.9431V139.363ZM97.9822 139.363H98.0034V137.363H97.9822V139.363ZM98.1096 139.363H100V137.363H98.1096V139.363ZM100 139.363C101.284 139.363 102.457 138.877 103.342 138.082L102.005 136.594C101.473 137.073 100.771 137.363 100 137.363V139.363ZM103.55 137.884C103.56 137.874 103.569 137.864 103.579 137.854L102.147 136.458C102.142 136.463 102.136 136.469 102.13 136.475L103.55 137.884ZM103.719 137.704C104.515 136.82 105 135.647 105 134.363H103C103 135.134 102.71 135.835 102.232 136.367L103.719 137.704ZM105 134.363V95.9842H103V134.363H105ZM105 92.9657V92.5345H103V92.9657H105ZM105 90.3784V52H103V90.3784H105ZM105 52C105 50.716 104.515 49.5431 103.719 48.6582L102.232 49.9953C102.71 50.5273 103 51.2286 103 52H105ZM103.521 48.45C103.511 48.4403 103.502 48.4307 103.492 48.4212L102.095 49.8526C102.101 49.8584 102.107 49.8642 102.113 49.87L103.521 48.45ZM103.342 48.2808C102.457 47.4853 101.284 47 100 47V49C100.771 49 101.473 49.2898 102.005 49.7681L103.342 48.2808ZM100 47H61.7906V49H100V47ZM58.7853 47H58.356V49H58.7853V47ZM56.2094 47H18V49H56.2094V47Z" fill="#264887"/>
<g filter="url(#filter1_i)">
<rect x="89.3151" y="65.0814" width="84.6849" height="56.9994" rx="4" fill="#B5D9F1"/>
</g>
<rect x="89.3151" y="65.0814" width="84.6849" height="56.9994" rx="4" stroke="#264887" stroke-width="2"/>
<rect x="89.3151" y="78.9241" width="84.6849" height="10.5856" fill="#264887"/>
<g filter="url(#filter2_d)">
<g filter="url(#filter3_i)">
<path d="M162.013 98.9463C162.622 101.07 161.394 103.285 159.27 103.894L122.413 114.462L85.5562 125.031C83.4327 125.64 81.2175 124.412 80.6086 122.289L67.1026 75.1873C66.4936 73.0638 67.7215 70.8486 69.845 70.2397L143.559 49.1025C145.683 48.4936 147.898 49.7214 148.507 51.845L162.013 98.9463Z" fill="white"/>
</g>
<path d="M162.013 98.9463C162.622 101.07 161.394 103.285 159.27 103.894L122.413 114.462L85.5562 125.031C83.4327 125.64 81.2175 124.412 80.6086 122.289L67.1026 75.1873C66.4936 73.0638 67.7215 70.8486 69.845 70.2397L143.559 49.1025C145.683 48.4936 147.898 49.7214 148.507 51.845L162.013 98.9463Z" stroke="#264887" stroke-width="2" stroke-linecap="round" stroke-dasharray="181 12 2 12"/>
<rect x="122.222" y="64.2727" width="20.3569" height="10.5856" rx="5.2928" transform="rotate(-16 122.222 64.2727)" fill="#B5D9F1"/>
<rect x="107.942" y="103.098" width="43.1567" height="1.62856" rx="0.814278" transform="rotate(-16 107.942 103.098)" fill="#B5D9F1" stroke="#B5D9F1" stroke-width="2"/>
<rect x="85.3463" y="101.106" width="10.5856" height="1.62856" rx="0.814278" transform="rotate(-16 85.3463 101.106)" stroke="#D22D27" stroke-width="2"/>
<rect x="102.566" y="96.1686" width="10.5856" height="1.62856" rx="0.814278" transform="rotate(-16 102.566 96.1686)" stroke="#D22D27" stroke-width="2"/>
<rect x="119.787" y="91.2308" width="10.5856" height="1.62856" rx="0.814278" transform="rotate(-16 119.787 91.2308)" stroke="#D22D27" stroke-width="2"/>
<rect x="137.007" y="86.293" width="10.5856" height="1.62856" rx="0.814278" transform="rotate(-16 137.007 86.293)" stroke="#D22D27" stroke-width="2"/>
<rect x="87.5907" y="108.934" width="13.0284" height="1.62856" rx="0.814278" transform="rotate(-16 87.5907 108.934)" fill="#B5D9F1" stroke="#B5D9F1" stroke-width="2"/>
</g>
<g filter="url(#filter4_i)">
<path fill-rule="evenodd" clip-rule="evenodd" d="M23.8413 59C23.8413 57.8954 24.7368 57 25.8413 57H93.3744C94.4789 57 95.3744 57.8954 95.3744 59V126.481C95.3744 127.586 94.479 128.481 93.3744 128.481H25.8414C24.7368 128.481 23.8413 127.586 23.8413 126.481V59Z" fill="white"/>
</g>
<path fill-rule="evenodd" clip-rule="evenodd" d="M23.8413 59C23.8413 57.8954 24.7368 57 25.8413 57H93.3744C94.4789 57 95.3744 57.8954 95.3744 59V126.481C95.3744 127.586 94.479 128.481 93.3744 128.481H25.8414C24.7368 128.481 23.8413 127.586 23.8413 126.481V59Z" stroke="#264887" stroke-width="2" stroke-linecap="round" stroke-linejoin="round"/>
<g filter="url(#filter5_i)">
<path fill-rule="evenodd" clip-rule="evenodd" d="M20 69.6109C20 67.4161 21.7792 65.6368 23.9741 65.6368V65.6368C26.1689 65.6368 27.9481 67.4161 27.9481 69.6109V78.43C27.9481 80.6248 26.1689 82.4041 23.9741 82.4041V82.4041C21.7792 82.4041 20 80.6248 20 78.43V69.6109Z" fill="white"/>
</g>
<path fill-rule="evenodd" clip-rule="evenodd" d="M20 69.6109C20 67.4161 21.7792 65.6368 23.9741 65.6368V65.6368C26.1689 65.6368 27.9481 67.4161 27.9481 69.6109V78.43C27.9481 80.6248 26.1689 82.4041 23.9741 82.4041V82.4041C21.7792 82.4041 20 80.6248 20 78.43V69.6109Z" stroke="#264887" stroke-width="2" stroke-linecap="round" stroke-linejoin="round"/>
<g filter="url(#filter6_i)">
<path fill-rule="evenodd" clip-rule="evenodd" d="M20 110.876C20 108.681 21.7792 106.902 23.9741 106.902V106.902C26.1689 106.902 27.9481 108.681 27.9481 110.876V119.695C27.9481 121.89 26.1689 123.669 23.9741 123.669V123.669C21.7792 123.669 20 121.89 20 119.695V110.876Z" fill="white"/>
</g>
<path fill-rule="evenodd" clip-rule="evenodd" d="M20 110.876C20 108.681 21.7792 106.902 23.9741 106.902V106.902C26.1689 106.902 27.9481 108.681 27.9481 110.876V119.695C27.9481 121.89 26.1689 123.669 23.9741 123.669V123.669C21.7792 123.669 20 121.89 20 119.695V110.876Z" stroke="#264887" stroke-width="2" stroke-linecap="round" stroke-linejoin="round"/>
<path d="M58.8936 107.902C66.6054 107.902 72.8582 101.654 72.8582 93.9463C72.8582 86.2384 66.6054 79.9911 58.8936 79.9911C51.1819 79.9911 44.9291 86.2384 44.9291 93.9463C44.9291 101.654 51.1819 107.902 58.8936 107.902Z" stroke="#264887" stroke-width="2"/>
<path fill-rule="evenodd" clip-rule="evenodd" d="M60.9794 78.9642C60.9794 77.9574 60.1736 77.1525 59.1795 77.1525C58.1786 77.1525 57.3797 77.9637 57.3797 78.9642V87.9085C55.0803 88.6664 53.42 90.8371 53.42 93.3966C53.42 93.8889 53.4815 94.3669 53.5971 94.8232L45.7395 100.341C44.9228 100.914 44.7237 102.04 45.2939 102.857C45.868 103.679 46.988 103.871 47.8042 103.298L55.5351 97.8691C56.5279 98.6836 57.7968 99.1722 59.1795 99.1722C60.715 99.1722 62.1102 98.5697 63.1427 97.5874L71.2748 103.298C72.0915 103.871 73.215 103.673 73.7851 102.857C74.3592 102.035 74.1557 100.914 73.3395 100.341L64.8553 94.3832C64.9104 94.0626 64.939 93.733 64.939 93.3966C64.939 90.8371 63.2788 88.6664 60.9794 87.9085V78.9642Z" fill="#D22D27"/>
<defs>
<filter id="filter0_i" x="13" y="47" width="92" height="96" filterUnits="userSpaceOnUse" color-interpolation-filters="sRGB">
<feFlood flood-opacity="0" result="BackgroundImageFix"/>
<feBlend mode="normal" in="SourceGraphic" in2="BackgroundImageFix" result="shape"/>
<feColorMatrix in="SourceAlpha" type="matrix" values="0 0 0 0 0 0 0 0 0 0 0 0 0 0 0 0 0 0 127 0" result="hardAlpha"/>
<feOffset dy="-4"/>
<feComposite in2="hardAlpha" operator="arithmetic" k2="-1" k3="1"/>
<feColorMatrix type="matrix" values="0 0 0 0 0.760784 0 0 0 0 0.878431 0 0 0 0 0.956863 0 0 0 1 0"/>
<feBlend mode="normal" in2="shape" result="effect1_innerShadow"/>
</filter>
<filter id="filter1_i" x="88.3151" y="64.0814" width="86.6849" height="58.9994" filterUnits="userSpaceOnUse" color-interpolation-filters="sRGB">
<feFlood flood-opacity="0" result="BackgroundImageFix"/>
<feBlend mode="normal" in="SourceGraphic" in2="BackgroundImageFix" result="shape"/>
<feColorMatrix in="SourceAlpha" type="matrix" values="0 0 0 0 0 0 0 0 0 0 0 0 0 0 0 0 0 0 127 0" result="hardAlpha"/>
<feOffset dx="6" dy="-7"/>
<feComposite in2="hardAlpha" operator="arithmetic" k2="-1" k3="1"/>
<feColorMatrix type="matrix" values="0 0 0 0 0.423529 0 0 0 0 0.705882 0 0 0 0 0.894118 0 0 0 1 0"/>
<feBlend mode="normal" in2="shape" result="effect1_innerShadow"/>
</filter>
<filter id="filter2_d" x="64.7631" y="46.7631" width="103.589" height="84.6075" filterUnits="userSpaceOnUse" color-interpolation-filters="sRGB">
<feFlood flood-opacity="0" result="BackgroundImageFix"/>
<feColorMatrix in="SourceAlpha" type="matrix" values="0 0 0 0 0 0 0 0 0 0 0 0 0 0 0 0 0 0 127 0"/>
<feOffset dx="4" dy="4"/>
<feColorMatrix type="matrix" values="0 0 0 0 0 0 0 0 0 0 0 0 0 0 0 0 0 0 0.1 0"/>
<feBlend mode="normal" in2="BackgroundImageFix" result="effect1_dropShadow"/>
<feBlend mode="normal" in="SourceGraphic" in2="effect1_dropShadow" result="shape"/>
</filter>
<filter id="filter3_i" x="64.7631" y="46.7631" width="99.5893" height="80.6075" filterUnits="userSpaceOnUse" color-interpolation-filters="sRGB">
<feFlood flood-opacity="0" result="BackgroundImageFix"/>
<feBlend mode="normal" in="SourceGraphic" in2="BackgroundImageFix" result="shape"/>
<feColorMatrix in="SourceAlpha" type="matrix" values="0 0 0 0 0 0 0 0 0 0 0 0 0 0 0 0 0 0 127 0" result="hardAlpha"/>
<feOffset dx="-7" dy="7"/>
<feComposite in2="hardAlpha" operator="arithmetic" k2="-1" k3="1"/>
<feColorMatrix type="matrix" values="0 0 0 0 0.709804 0 0 0 0 0.85098 0 0 0 0 0.945098 0 0 0 1 0"/>
<feBlend mode="normal" in2="shape" result="effect1_innerShadow"/>
</filter>
<filter id="filter4_i" x="22.8413" y="56" width="73.533" height="73.4815" filterUnits="userSpaceOnUse" color-interpolation-filters="sRGB">
<feFlood flood-opacity="0" result="BackgroundImageFix"/>
<feBlend mode="normal" in="SourceGraphic" in2="BackgroundImageFix" result="shape"/>
<feColorMatrix in="SourceAlpha" type="matrix" values="0 0 0 0 0 0 0 0 0 0 0 0 0 0 0 0 0 0 127 0" result="hardAlpha"/>
<feOffset dx="6" dy="-6"/>
<feComposite in2="hardAlpha" operator="arithmetic" k2="-1" k3="1"/>
<feColorMatrix type="matrix" values="0 0 0 0 0.709804 0 0 0 0 0.85098 0 0 0 0 0.945098 0 0 0 1 0"/>
<feBlend mode="normal" in2="shape" result="effect1_innerShadow"/>
</filter>
<filter id="filter5_i" x="19" y="64.6368" width="9.94812" height="18.7673" filterUnits="userSpaceOnUse" color-interpolation-filters="sRGB">
<feFlood flood-opacity="0" result="BackgroundImageFix"/>
<feBlend mode="normal" in="SourceGraphic" in2="BackgroundImageFix" result="shape"/>
<feColorMatrix in="SourceAlpha" type="matrix" values="0 0 0 0 0 0 0 0 0 0 0 0 0 0 0 0 0 0 127 0" result="hardAlpha"/>
<feOffset dx="3" dy="-4"/>
<feComposite in2="hardAlpha" operator="arithmetic" k2="-1" k3="1"/>
<feColorMatrix type="matrix" values="0 0 0 0 0.709804 0 0 0 0 0.85098 0 0 0 0 0.945098 0 0 0 1 0"/>
<feBlend mode="normal" in2="shape" result="effect1_innerShadow"/>
</filter>
<filter id="filter6_i" x="19" y="105.902" width="9.94812" height="18.7673" filterUnits="userSpaceOnUse" color-interpolation-filters="sRGB">
<feFlood flood-opacity="0" result="BackgroundImageFix"/>
<feBlend mode="normal" in="SourceGraphic" in2="BackgroundImageFix" result="shape"/>
<feColorMatrix in="SourceAlpha" type="matrix" values="0 0 0 0 0 0 0 0 0 0 0 0 0 0 0 0 0 0 127 0" result="hardAlpha"/>
<feOffset dx="3" dy="-4"/>
<feComposite in2="hardAlpha" operator="arithmetic" k2="-1" k3="1"/>
<feColorMatrix type="matrix" values="0 0 0 0 0.709804 0 0 0 0 0.85098 0 0 0 0 0.945098 0 0 0 1 0"/>
<feBlend mode="normal" in2="shape" result="effect1_innerShadow"/>
</filter>
</defs>
</svg>
