<?xml version="1.0" encoding="UTF-8"?>
<svg version="1.1" viewBox="0 0 96 96" xmlns="http://www.w3.org/2000/svg" xmlns:xlink="http://www.w3.org/1999/xlink">
<title>illustration</title>
<desc>Created with Sketch.</desc>
<defs>
<polygon id="l" points="0.0022634 0.015053 15.452 0.015053 15.452 10.403 0.0022634 10.403"/>
<polygon id="h" points="0.0022634 0.015053 15.452 0.015053 15.452 15.429 0.0022634 15.429"/>
<polygon id="g" points="0.0022634 0.015053 15.452 0.015053 15.452 15.429 0.0022634 15.429"/>
<polygon id="f" points="0.0022634 0.015053 15.452 0.015053 15.452 15.429 0.0022634 15.429"/>
<polygon id="e" points="0.0022634 0.015053 15.452 0.015053 15.452 15.429 0.0022634 15.429"/>
<polygon id="k" points="0.0022634 0.015053 15.185 0.015053 15.185 11.743 0.0022634 11.743"/>
<polygon id="j" points="0.0022634 0.015053 15.452 0.015053 15.452 15.429 0.0022634 15.429"/>
<polygon id="i" points="0.0022634 0.0059458 15.452 0.0059458 15.452 6.7076 0.0022634 6.7076"/>
</defs>
<g fill="none" fill-rule="evenodd">
<g transform="translate(-126 -67)">
<g transform="translate(31 40)">
<g transform="translate(0 11)">
<g transform="translate(95 16)">
<circle cx="48" cy="48" r="48" fill="#EFF9FF"/>
<g transform="translate(28.8 28.267)">
<rect width="38.285" height="38.973" rx="6.0015" fill="#EF574C"/>
<ellipse cx="8.2038" cy="19.441" rx="2.7346" ry="2.7838" fill="#fff"/>
<ellipse cx="16.408" cy="19.441" rx="2.7346" ry="2.7838" fill="#fff"/>
<ellipse cx="24.612" cy="19.441" rx="2.7346" ry="2.7838" fill="#fff"/>
<path d="m30.412 12.493v13.919c0 0.58925 0.47768 1.0669 1.0669 1.0669 0.58925 0 1.0669-0.47768 1.0669-1.0669v-13.919c0-0.58925-0.47768-1.0669-1.0669-1.0669-0.58925 0-1.0669 0.47768-1.0669 1.0669z" fill="#FEFDFD" fill-rule="nonzero"/>
</g>
<g transform="translate(11.873 12.188)" stroke="#B1D9F2" stroke-width="2">
<circle cx="16.892" cy="2.177" r="2.0984"/>
<rect x="72.393" y="56.612" width="3.6721" height="3.6721" stroke-linecap="round" stroke-linejoin="round"/>
<polygon transform="translate(2.99 53.875) rotate(-45) translate(-2.99 -53.875)" points="1.154 52.039 4.8261 52.039 4.8261 55.711 1.154 55.711" stroke-linecap="round" stroke-linejoin="round"/>
<g transform="translate(56.393 3.2787)" stroke-linecap="round">
<path d="m0.13115 0.13115l2.9906 2.9906"/>
<path transform="translate(1.5738 1.5738) scale(-1 1) translate(-1.5738 -1.5738)" d="m0.13115 0.13115l2.9906 2.9906"/>
</g>
</g>
<g transform="translate(65.6 77.333)">
<path d="m0.48052 10.403c1.0916 2.9348 3.9234 5.0264 7.2453 5.0264 3.3217 0 6.1537-2.0915 7.2453-5.0264l-7.2453-0.67015-7.2453 0.67015z" fill="#FFDA44"/>
<mask id="c" fill="white">
<use xlink:href="#l"/>
</mask>
<path d="m7.7258 0.015053c-3.3219 0-6.1537 2.0915-7.2453 5.0263l7.2453 0.67018 7.2453-0.67018c-1.0916-2.9348-3.9236-5.0263-7.2453-5.0263z" fill="#000" mask="url(#c)"/>
<path d="m0.48052 5.0414c-0.31047 0.83497-0.48052 1.738-0.48052 2.6807s0.17006 1.8457 0.48052 2.6807h14.491c0.3105-0.83494 0.48056-1.7379 0.48056-2.6807s-0.17006-1.8457-0.48056-2.6807h-14.491z" fill="#D80027" mask="url(#c)"/>
</g>
<g transform="translate(74.667 5.8667)">
<mask id="b" fill="white">
<use xlink:href="#h"/>
</mask>
<path d="m15.452 7.7221c0 4.2563-3.4591 7.707-7.7258 7.707-4.2669 0-7.7258-3.4507-7.7258-7.707 0-4.2565 3.4589-7.707 7.7258-7.707 4.2667 0 7.7258 3.4505 7.7258 7.707z" fill="#F3F3F3" mask="url(#b)"/>
<path d="m15.452 7.7221c0-3.3138-2.0966-6.1387-5.0386-7.2277v14.455c2.942-1.089 5.0386-3.914 5.0386-7.2276z" fill="#D80027" mask="url(#b)"/>
<path d="m0 7.7221c0 3.3136 2.0966 6.1387 5.0386 7.2276v-14.455c-2.942 1.089-5.0386 3.9139-5.0386 7.2277z" fill="#6DA544" mask="url(#b)"/>
</g>
<g transform="translate(2.1333 40.533)">
<mask id="a" fill="white">
<use xlink:href="#g"/>
</mask>
<path d="m15.452 7.7221c0 4.2563-3.4591 7.707-7.7258 7.707-4.2669 0-7.7258-3.4507-7.7258-7.707 0-4.2565 3.4589-7.707 7.7258-7.707 4.2667 0 7.7258 3.4505 7.7258 7.707z" fill="#F3F3F3" mask="url(#a)"/>
<path d="m15.452 7.7221c0-3.3138-2.0966-6.1387-5.0386-7.2277v14.455c2.942-1.089 5.0386-3.914 5.0386-7.2276z" fill="#D80027" mask="url(#a)"/>
<path d="m0 7.7221c0 3.3136 2.0966 6.1387 5.0386 7.2276v-14.455c-2.942 1.089-5.0386 3.9139-5.0386 7.2277z" fill="#0052B4" mask="url(#a)"/>
</g>
<g transform="translate(6.4 5.8667)">
<mask id="m" fill="white">
<use xlink:href="#f"/>
</mask>
<path d="m15.452 7.7221c0 4.2563-3.4591 7.707-7.7258 7.707-4.2669 0-7.7258-3.4507-7.7258-7.707 0-4.2565 3.4589-7.707 7.7258-7.707 4.2667 0 7.7258 3.4505 7.7258 7.707z" fill="#6DA544" mask="url(#m)"/>
<polygon points="7.7258 3.0309 14.108 7.7221 7.7258 12.413 1.3436 7.7221" fill="#FFDA44"/>
<path d="m10.413 7.7221c0 1.4804-1.2032 2.6807-2.6872 2.6807-1.4842 0-2.6872-1.2002-2.6872-2.6807 0-1.4806 1.203-2.6807 2.6872-2.6807 1.484 0 2.6872 1.2001 2.6872 2.6807z" fill="#F3F3F3"/>
<path d="m6.3822 7.5545c-0.46728 0-0.91834 0.070823-1.3427 0.20242 0.018711 1.4644 1.2139 2.6458 2.6863 2.6458 0.91038 0 1.7145-0.45203 2.2006-1.1431-0.83169-1.0386-2.1114-1.7052-3.5442-1.7052z" fill="#0052B4"/>
<path d="m10.363 8.2357c0.032254-0.16641 0.049795-0.33793 0.049795-0.5136 0-1.4806-1.2032-2.6807-2.6872-2.6807-1.1074 0-2.058 0.66842-2.4694 1.6226 0.36366-0.075151 0.74017-0.11466 1.1258-0.11466 1.5608-1.5053e-4 2.9728 0.64708 3.981 1.6864z" fill="#0052B4"/>
</g>
<g transform="translate(40.533 9.0667)">
<mask id="p" fill="white">
<use xlink:href="#e"/>
</mask>
<path d="m15.452 7.7221c0 4.2563-3.4591 7.707-7.7258 7.707-4.2669 0-7.7258-3.4507-7.7258-7.707 0-4.2565 3.4589-7.707 7.7258-7.707 4.2667 0 7.7258 3.4505 7.7258 7.707z" fill="#F3F3F3" mask="url(#p)"/>
<path d="m7.3899 7.7221h8.0618c0-0.69562-0.092989-1.3696-0.26629-2.0105h-7.7955v2.0105z" fill="#D80027"/>
<path d="m7.3899 3.701h6.9277c-0.47287-0.76983-1.0776-1.4504-1.7826-2.0105h-5.1451v2.0105z" fill="#D80027"/>
<path d="m7.7258 15.429c1.8182 0 3.4894-0.62698 4.8092-1.6755h-9.6183c1.3198 1.0485 2.991 1.6755 4.8092 1.6755z" fill="#D80027"/>
<mask id="d" fill="white">
<use xlink:href="#k"/>
</mask>
<path d="m1.1339 11.743h13.184c0.37973-0.61799 0.67416-1.2936 0.86779-2.0105h-14.919c0.19364 0.71689 0.48818 1.3925 0.86779 2.0105z" fill="#D80027" mask="url(#d)"/>
<path d="m3.5787 1.2185h0.70407l-0.65484 0.47469 0.25007 0.76791-0.65488-0.4745-0.65484 0.4745 0.21616-0.66341c-0.5766 0.4792-1.082 1.0405-1.4985 1.666h0.22559l-0.41685 0.30207c-0.064998 0.10819-0.12732 0.218-0.18703 0.32943l0.19911 0.61107-0.37135-0.26914c-0.092385 0.19505-0.17681 0.39468-0.25271 0.59827l0.2194 0.67342h0.80943l-0.65484 0.47465 0.25007 0.76791-0.65488-0.47465-0.39225 0.28431c-0.039195 0.31487-0.059679 0.6356-0.059679 0.96108h7.7258v-7.707c-1.5262 0-2.9489 0.44157-4.1471 1.2035zm0.2993 5.7328l-0.65488-0.47465-0.65484 0.47465 0.25022-0.76791-0.65488-0.47465h0.80943l0.25007-0.76791 0.25022 0.76791h0.80943l-0.65484 0.47465 0.25007 0.76791zm-0.25007-3.013l0.25007 0.76791-0.65488-0.47465-0.65484 0.47465 0.25022-0.76791-0.65488-0.47465h0.80943l0.25007-0.76795 0.25022 0.76795h0.80943l-0.65484 0.47465zm3.0213 3.013l-0.65488-0.47465-0.65484 0.47465 0.25022-0.76791-0.65488-0.47465h0.80943l0.25007-0.76791 0.25022 0.76791h0.80943l-0.65484 0.47465 0.25007 0.76791zm-0.25007-3.013l0.25007 0.76791-0.65488-0.47465-0.65484 0.47465 0.25022-0.76791-0.65488-0.47465h0.80943l0.25007-0.76795 0.25022 0.76795h0.80943l-0.65484 0.47465zm0-2.2451l0.25007 0.76791-0.65488-0.4745-0.65484 0.4745 0.25022-0.76791-0.65488-0.47469h0.80943l0.25007-0.76791 0.25022 0.76791h0.80943l-0.65484 0.47469z" fill="#0052B4" mask="url(#d)"/>
</g>
<g transform="translate(73.067 42.667)">
<mask id="o" fill="white">
<use xlink:href="#j"/>
</mask>
<path d="m15.452 7.7221c0 4.2563-3.4591 7.707-7.7258 7.707-4.2669 0-7.7258-3.4507-7.7258-7.707 0-4.2565 3.4589-7.707 7.7258-7.707 4.2667 0 7.7258 3.4505 7.7258 7.707z" fill="#F3F3F3" mask="url(#o)"/>
<path d="m7.7258 0.015053c-3.3219 0-6.1537 2.0915-7.2453 5.0263h14.491c-1.0916-2.9348-3.9236-5.0263-7.2453-5.0263z" fill="#A2001D"/>
<path d="m7.7258 15.429c3.3217 0 6.1537-2.0915 7.2453-5.0264h-14.491c1.0916 2.9348 3.9234 5.0264 7.2453 5.0264z" fill="#0052B4"/>
</g>
<g transform="translate(10.133 77.333)">
<g transform="translate(0 4.3653)">
<mask id="n" fill="white">
<use xlink:href="#i"/>
</mask>
<path d="m0 3.3568c0 0.94271 0.17006 1.8457 0.48052 2.6807l7.2453 0.67018 7.2453-0.67018c0.3105-0.83494 0.48056-1.7379 0.48056-2.6807s-0.17006-1.8457-0.48056-2.6807l-7.2453-0.67015-7.2453 0.67015c-0.31047 0.83497-0.48052 1.738-0.48052 2.6807z" fill="#FFDA44" mask="url(#n)"/>
</g>
<path d="m14.971 5.0414c-1.0916-2.9348-3.9236-5.0263-7.2453-5.0263-3.3219 0-6.1537 2.0915-7.2453 5.0263h14.491z" fill="#D80027"/>
<path d="m0.48052 10.403c1.0916 2.9348 3.9234 5.0264 7.2453 5.0264 3.3217 0 6.1537-2.0915 7.2453-5.0264h-14.491z" fill="#D80027"/>
</g>
</g>
</g>
</g>
</g>
</g>
</svg>
