<?xml version="1.0" encoding="UTF-8"?>
<svg width="118px" height="18px" viewBox="0 0 118 18" version="1.1" xmlns="http://www.w3.org/2000/svg" xmlns:xlink="http://www.w3.org/1999/xlink">
    <!-- Generator: Sketch 50.2 (55047) - http://www.bohemiancoding.com/sketch -->
    <title>LastPass_Logo</title>
    <desc>Created with Sketch.</desc>
    <defs></defs>
    <g id="Full-flow" stroke="none" stroke-width="1" fill="none" fill-rule="evenodd">
        <g id="Artboard-Copy" transform="translate(-38.000000, -79.000000)" fill-rule="nonzero">
            <g id="lp_wr" transform="translate(38.000000, 72.000000)">
                <g id="LastPass_Logo" transform="translate(0.000000, 0.975610)">
                    <g transform="translate(0.000000, 6.829268)">
                        <g id="Group">
                            <path d="M0.138935673,0.100821677 C0.231238958,0.0338472775 0.378587691,1.78541883e-17 0.580501125,1.78541883e-17 L2.47343958,1.78541883e-17 C2.70900525,1.78541883e-17 2.86861301,0.0295263484 2.95298398,0.0883389935 C3.03687421,0.14739169 3.07917988,0.294063225 3.07917988,0.529313805 L3.07917988,12.1970224 C3.07917988,12.8521233 3.24335473,13.3147027 3.57146408,13.5833205 C3.89957341,13.8521783 4.34931154,13.9866072 4.92163999,13.9866072 L9.346004,13.9866071 C9.53085094,13.9866071 9.74328025,14.0025654 9.86998358,14.1086429 C9.99668692,14.2147204 9.96784606,14.2803009 10.0516893,14.5520585 C10.1355325,14.8238162 10.3036408,16.1245612 10.3036408,16.1245612 C10.3036408,16.2577149 10.3036408,16.3561241 10.2168706,16.4453669 C10.1301005,16.5346097 9.94957582,16.6063586 9.80478561,16.6464014 C9.65999543,16.6864441 9.38139094,16.7087933 8.96983413,16.7087933 C8.55827728,16.7087933 4.44209557,16.7087925 4.44209557,16.7087925 C3.56713736,16.7087925 2.84337383,16.5825253 2.27152614,16.3307112 C1.69943808,16.078657 1.24513285,15.7425848 0.908610458,15.3222544 C0.571847691,14.9026442 0.336522392,14.4237412 0.201913435,13.8857855 C0.0670641051,13.34831 -1.02486234e-13,12.7853889 -1.02486234e-13,12.1970224 L-1.02486234e-13,0.529313805 C-1.02486234e-13,0.31110689 0.0461516422,0.168276181 0.138935673,0.100821677 Z" id="Fill-1" fill="#000000"></path>
                            <path d="M63.5835134,15.3104051 C63.5835134,15.6839958 63.4353086,15.9408356 63.138894,16.080932 C62.7956775,16.2365948 62.4251648,16.3689062 62.0273453,16.4778701 C61.6295259,16.5868341 61.2200122,16.6724473 60.7987915,16.7347124 C60.377571,16.7969775 59.9602568,16.8397842 59.5468367,16.8631336 C59.1334165,16.886483 58.7395032,16.8981575 58.3650851,16.8981575 C57.3354348,16.8981575 56.4813058,16.7930867 55.8026727,16.582942 C55.1240396,16.3727972 54.5858213,16.0926084 54.1880018,15.7423672 C53.7901824,15.3921259 53.5132732,14.9796258 53.3572655,14.5048543 C53.201258,14.0300828 53.1232551,13.5280779 53.1232551,12.9988245 C53.1232551,12.4540047 53.2129581,11.9286508 53.3923669,11.4227467 C53.5717757,10.9168427 53.8642858,10.4732104 54.2699056,10.0918366 C54.6755254,9.71046283 55.2020431,9.40303346 55.8494746,9.16953928 C56.4969064,8.93604513 57.2886332,8.81929977 58.2246786,8.81929977 L60.8455937,8.81929977 L60.8455937,8.42236169 C60.8455937,8.1266024 60.8143925,7.85419664 60.7519895,7.6051362 C60.6895863,7.35607576 60.5686823,7.13815114 60.3892735,6.9513558 C60.2098648,6.76456046 59.9641566,6.62057453 59.6521413,6.51939375 C59.3401261,6.41821294 58.9345123,6.3676233 58.435288,6.3676233 C57.904862,6.3676233 57.2004618,6.50704169 56.810443,6.63157189 C56.6388345,6.67827073 56.5140304,6.68605376 56.4360265,6.65492121 C56.3580226,6.62378863 56.3034207,6.53817539 56.2722194,6.3980789 L55.9446048,5.06716881 C55.8822019,4.81810837 55.9524041,4.6546649 56.1552142,4.57683351 C56.810446,4.32777307 58.193474,4.10274122 58.8799074,4.10274122 C60.5023865,4.10274122 61.6919268,4.46076022 62.4485638,5.17680899 C63.2052008,5.89285779 63.5835134,6.93578274 63.5835134,8.30561517 L63.5835134,15.3104051 Z M60.8221924,10.8973875 L58.5756941,10.8973875 C58.3104811,10.8973875 58.0257717,10.9129535 57.7215568,10.9440861 C57.4173418,10.9752186 57.1287322,11.0608319 56.8557189,11.2009284 C56.5827053,11.3410249 56.3564979,11.5433835 56.1770892,11.8080102 C55.9976804,12.0726369 55.9079774,12.4384389 55.9079774,12.9054272 C55.9079774,13.5747772 56.1341847,14.0417585 56.5866071,14.3063853 C57.0390292,14.571012 57.6396494,14.7033234 58.388486,14.7033234 C58.4976912,14.7033234 58.6497965,14.6994318 58.8448059,14.6916487 C59.0398153,14.6838656 59.2465226,14.664408 59.4649333,14.6332754 C59.6833436,14.6021429 59.9134515,14.5632278 60.1552635,14.5165289 C60.3970752,14.4698301 60.6193827,14.4075659 60.8221924,14.3297346 L60.8221924,10.8973875 Z" id="Path" fill="#D32D27"></path>
                            <path d="M31.9477753,12.9788384 C31.9585665,13.5911369 31.8505701,14.1289283 31.6240091,14.5922088 C31.3974441,15.0552706 31.0798854,15.4398449 30.6704339,15.7455099 C30.2612052,16.0511709 29.7766473,16.2817924 29.2160801,16.4367297 C28.6555168,16.5918857 28.0468768,16.6752496 27.3901562,16.6866028 C27.0146644,16.6930942 26.6154311,16.6805277 26.1924715,16.6497781 C25.7695081,16.6188098 25.3462056,16.5685979 24.9225716,16.4995796 C24.4991604,16.4305575 24.0906476,16.3341535 23.6974827,16.2105786 C23.3041064,16.0876636 22.9418884,15.9366481 22.6110706,15.7586216 C22.3749264,15.640207 22.3168734,15.4576839 22.4375645,15.2101659 L22.9764732,13.9148496 C23.0518176,13.7757379 23.1282636,13.686481 23.2058073,13.6468601 C23.283132,13.6074618 23.408037,13.6243333 23.5811946,13.6976816 C24.147351,13.948419 24.7746596,14.1401319 25.463808,14.2739021 C26.1525107,14.40768 26.7621499,14.4695452 27.2927409,14.4603726 C27.9479016,14.4490463 28.4370445,14.3141558 28.7601735,14.0559196 C29.0833025,13.7976834 29.2413656,13.4698963 29.2343475,13.0716836 C29.2265277,12.6279859 29.0097354,12.2795548 28.5839705,12.0263904 C28.1582095,11.7734446 27.5214603,11.501397 26.6737114,11.2095913 C26.0298803,10.9910397 25.4682784,10.7710666 24.9884603,10.5496796 C24.5086421,10.3282927 24.1103603,10.0788093 23.7933842,9.800796 C23.476193,9.52322389 23.2330455,9.20981012 23.0628237,8.86035519 C22.8930553,8.51132995 22.8038958,8.10688122 22.7958023,7.64765737 C22.7868996,7.14251112 22.8730036,6.67794013 23.0543333,6.25372192 C23.235663,5.82950367 23.5084809,5.46123367 23.8730021,5.14847071 C24.2375272,4.83592641 24.6925611,4.5870033 25.2385418,4.4012564 C25.7843074,4.21595069 26.4158534,4.11687864 27.1336332,4.10446991 C27.7887939,4.09314374 28.4449643,4.1391112 29.1021484,4.24259098 C29.7593363,4.34628942 30.3942702,4.51533977 31.0069463,4.74952329 C31.1325951,4.80859962 31.208151,4.88385408 31.2331683,4.97529434 C31.2581855,5.06673459 31.2560628,5.1739562 31.2272458,5.29695138 L30.7121443,6.61504305 C30.6675092,6.73853043 30.6101153,6.80842719 30.5404083,6.82472565 C30.4704823,6.84124663 30.3726069,6.82762655 30.247005,6.78386152 C29.6348646,6.58007422 29.0979262,6.4441102 28.6366239,6.37530565 C28.1748798,6.30672747 27.6788236,6.2770228 27.1486783,6.28618777 C26.5712901,6.29616945 26.1524309,6.42218892 25.8914245,6.66382031 C25.6302069,6.90611158 25.5024895,7.17234431 25.5076115,7.46296743 C25.5113923,7.67749056 25.5574156,7.86044044 25.6461273,8.01180933 C25.7343971,8.16340463 25.8734977,8.30274644 26.0629796,8.42962382 C26.2524615,8.55650119 26.5006168,8.68608289 26.8072266,8.81859148 C27.1136135,8.95110389 27.4867695,9.09033683 27.9262373,9.235642 C28.4284218,9.4107059 28.9192228,9.59756008 29.3990781,9.79575949 C29.8782687,9.99418909 30.3038332,10.2359822 30.6755331,10.5202681 C31.047018,10.8049951 31.3496892,11.1440667 31.5831128,11.5381467 C31.8158717,11.9324568 31.9377972,12.412681 31.9477753,12.9788384" id="Fill-3" fill="#000000"></path>
                            <path d="M40.659034,16.3730907 C40.1283623,16.5442544 39.5976903,16.6455282 39.0676871,16.6769119 C38.5370154,16.7078504 38.1235769,16.7236536 37.8273727,16.7236536 C36.5478317,16.7236536 35.6427252,16.4512162 35.112722,15.9056736 C34.58205,15.3603536 34.3170484,14.526793 34.3170484,13.4049918 L34.378033,6.77111308 L32.655495,6.77111308 C32.4968861,6.77111308 32.415288,6.73052771 32.3497711,6.66100916 C32.2842542,6.59149061 32.2505613,6.52325145 32.2810601,6.40928904 C32.3115588,6.2953266 32.7380378,5.17246341 32.7380378,5.17246341 C32.7636786,5.1313578 32.8785194,4.86963487 32.9068829,4.83186741 C32.9536872,4.76976771 33.021913,4.72658738 33.2068101,4.72658738 L34.3587432,4.72658738 L34.3587432,2.464567 C34.3587432,2.15574868 34.5015239,2.10015921 34.5717305,2.03783692 C34.6419367,1.97573721 34.7625136,1.91341493 34.9345752,1.85087006 L36.6104597,1.38455465 C36.7350485,1.35339351 36.8362349,1.36519023 36.9146879,1.41949965 C36.9924721,1.47447681 37.0316988,1.58710209 37.0316988,1.75848837 L37.0316988,4.72658728 L39.3835141,4.72658728 C39.5549072,4.72658728 39.6603282,4.76175486 39.6993319,4.83186745 C39.7381128,4.90175744 39.7579486,4.99167957 39.7579486,5.10052101 L39.757949,6.3738085 C39.757949,6.51403364 39.7381131,6.61552994 39.6993322,6.67762964 C39.6603286,6.73995193 39.5549075,6.77111308 39.3835145,6.77111308 L37.0316991,6.77111308 L37.0316991,13.0544289 C37.0316991,13.5532298 37.14871,13.8957798 37.3827316,14.0827467 C37.616753,14.2697135 37.9753635,14.363197 38.4592309,14.363197 C38.5528394,14.363197 38.6774282,14.3594131 38.8336654,14.3514003 C38.9894571,14.3438326 39.1494831,14.3320358 39.3132982,14.3164553 C39.4771133,14.3010973 39.6409285,14.2812877 39.8047436,14.2579168 C39.9685587,14.2347686 40.10496,14.2154041 40.2143929,14.199601 C40.3701846,14.1686624 40.4718169,14.1724463 40.5186211,14.2111751 C40.5654254,14.2503491 40.5964053,14.3244681 40.6122297,14.4333095 L40.8696533,15.9290444 C40.8848092,16.0225278 40.8888211,16.1042146 40.8812431,16.1743272 C40.8732194,16.2446623 40.7994471,16.310991 40.659034,16.3730907 Z" id="Fill-4" fill="#000000"></path>
                            <path d="M46.0649074,16.3704332 C46.0649074,16.6008302 46.0277499,16.7445641 45.9536701,16.8021046 C45.8795904,16.8598799 45.5749821,16.8882979 45.3447469,16.8882979 L43.7971839,16.8882979 C43.6158651,16.8882979 43.4759367,16.8554176 43.3771634,16.789657 C43.2786258,16.7241313 43.2292393,16.5841552 43.2292393,16.3704332 L43.2292393,1.72368034 C43.2292393,1.53666488 43.2716143,1.21693565 43.3042376,1.0664895 C43.351873,0.846812938 43.3490181,0.769374378 43.4661266,0.627749549 C43.5916933,0.476704681 43.783329,0.373370524 44.0413951,0.318047575 C44.1898116,0.286230732 44.2671811,0.318047575 44.4596106,0.318047575 L49.1609708,0.318047575 C49.9838442,0.318047575 50.7368707,0.445576162 51.4202862,0.700163616 C52.1032309,0.955220789 52.687873,1.31666921 53.1735071,1.78521347 C53.6589058,2.25399258 54.0377709,2.81295766 54.3093969,3.46234356 C54.5810226,4.11172947 54.7169531,4.82288336 54.7169531,5.5953355 C54.7169531,6.03921952 54.6466362,6.56953179 54.5069429,7.18603737 C54.3670145,7.80254298 54.0871574,8.39838094 53.6673723,8.9737862 C53.2475868,9.54942626 52.6589468,10.0384033 51.9019221,10.4409521 C51.1444273,10.8439706 50.1484658,11.045245 48.9138033,11.045245 L46.0649074,11.045245 L46.0649074,16.3704332 Z M51.7588317,4.88018899 C51.6680548,4.55138602 51.5118993,4.25123585 51.2896601,3.97997339 C51.0674206,3.70871093 50.7588727,3.48301117 50.3635455,3.30193467 C49.9686886,3.12109303 49.4663573,3.03067221 48.857492,3.03067221 L45.9084122,3.03067221 L45.9084122,8.50524194 L48.9068785,8.50524194 C49.9439954,8.50524194 50.7010198,8.25041963 51.1786579,7.74077497 C51.6558255,7.23136523 51.8947623,6.58174447 51.8947623,5.7926173 C51.8947623,5.51313475 51.8491386,5.20922687 51.7588317,4.88018899 Z" id="Fill-5" fill="#D32D27"></path>
                            <path d="M73.9401774,14.7441583 C73.7133896,15.207224 73.3958308,15.5917983 72.9863792,15.8974632 C72.5769276,16.2031281 72.0925928,16.4337457 71.5320254,16.5886831 C70.9716851,16.7438352 70.3628222,16.827203 69.7061017,16.8385561 C69.33061,16.8450475 68.9313766,16.8324811 68.5084171,16.8017315 C68.0854536,16.7707632 67.6621511,16.7205512 67.2385171,16.651533 C66.8151059,16.5825109 66.4065932,16.4861069 66.013428,16.362532 C65.6200478,16.2393983 65.2578339,16.0886015 64.927016,15.910575 C64.6908719,15.7921604 64.6328189,15.6096372 64.7535098,15.3621192 L65.2924186,14.0668029 C65.367986,13.9276874 65.4442092,13.8384344 65.5217526,13.7988135 C65.5990774,13.7594151 65.7239826,13.7762866 65.89714,13.849635 C66.4632965,14.1003724 67.0906051,14.2920853 67.7797534,14.4258554 C68.4684563,14.5596333 69.0780954,14.6214986 69.6086864,14.6123259 C70.2638472,14.6009997 70.75299,14.4661092 71.076119,14.2078729 C71.3992479,13.9496367 71.5573111,13.6218496 71.550293,13.2236369 C71.542473,12.7799392 71.3256846,12.4317268 70.8999159,12.1783437 C70.4741548,11.925398 69.8374059,11.6533503 68.9896569,11.3615446 C68.3458256,11.1429931 67.784224,10.92302 67.3044058,10.701633 C66.8245876,10.480246 66.4263057,10.2307626 66.1093297,9.95274935 C65.7921384,9.67517727 65.5489911,9.36176347 65.378992,9.01230471 C65.2090009,8.6632833 65.1198413,8.25883457 65.1117479,7.79961072 C65.102845,7.29446447 65.188949,6.82989348 65.3702788,6.40567526 C65.5516083,5.98145705 65.8244262,5.61318705 66.1889476,5.30042406 C66.5534727,4.98787976 67.0085066,4.73895668 67.5544872,4.55320975 C68.1002528,4.36790404 68.7317989,4.26883202 69.4495786,4.25642329 C70.1047394,4.24509708 70.7609097,4.29106455 71.4180939,4.39454433 C72.0752818,4.49824277 72.7102156,4.66729312 73.3228917,4.90147667 C73.4485407,4.960553 73.5243191,5.0358036 73.5491137,5.12724772 C73.574131,5.21868797 73.5720082,5.32590955 73.5434142,5.44890089 L73.0280897,6.76699639 C72.9836773,6.89047994 72.9260607,6.96038057 72.8563536,6.976679 C72.7864278,6.99319998 72.6885523,6.97957989 72.5629506,6.9358149 C71.95081,6.73202761 71.4138717,6.59606354 70.9525694,6.527259 C70.4908253,6.45868085 69.994769,6.42897618 69.4646238,6.43814115 C68.8872355,6.44812283 68.4683763,6.57414226 68.2073698,6.81577366 C67.9461524,7.05806493 67.8184349,7.32429769 67.823557,7.61492077 C67.8273378,7.82944394 67.8733609,8.01239379 67.9620728,8.16376271 C68.0503425,8.31535798 68.189443,8.45469979 68.3789249,8.58157716 C68.5684068,8.70845454 68.8165622,8.83803624 69.123172,8.97054483 C69.429559,9.10305724 69.8027149,9.24229021 70.2421826,9.38759535 C70.7443672,9.56265928 71.2351681,9.74951346 71.7150236,9.94771284 C72.194214,10.1461425 72.6200014,10.3879318 72.9914786,10.6722214 C73.3631862,10.9569446 73.6656348,11.2960201 73.8988353,11.6901039 C74.1318171,12.0844102 74.2539654,12.5646305 74.2639435,13.1307879 C74.2747348,13.7430864 74.1665155,14.2808817 73.9401774,14.7441583 Z" id="Fill-7" fill="#D32D27"></path>
                            <path d="M84.7665991,13.1307918 C84.7773904,13.7430903 84.6693942,14.2808817 84.4430558,14.7441583 C84.2162679,15.207224 83.8987095,15.5917983 83.4894806,15.8974594 C83.080029,16.2031243 82.5954711,16.4337457 82.0349041,16.5886831 C81.4745635,16.7438353 80.8657009,16.827203 80.2089801,16.8385562 C79.8334884,16.8450475 79.4342549,16.8324811 79.0112955,16.8017315 C78.588332,16.7707632 78.1650294,16.7205513 77.7416185,16.6515292 C77.3177615,16.5825148 76.9094715,16.4861069 76.5163067,16.362532 C76.1229265,16.2393983 75.7607123,16.0886015 75.4298947,15.910575 C75.1937506,15.7921604 75.1356972,15.6096372 75.2563885,15.3621193 L75.795297,14.0668029 C75.8708643,13.9276874 75.9470875,13.8384344 76.0246313,13.7988135 C76.1019561,13.7594152 76.2268609,13.7762866 76.4000187,13.849635 C76.9661749,14.1003724 77.5934834,14.2920853 78.2826321,14.4258555 C78.9713346,14.5596334 79.5811968,14.6214947 80.1115647,14.6123259 C80.7667255,14.6009997 81.2558684,14.4661092 81.5789973,14.207873 C81.9021266,13.9496368 82.0601895,13.6218496 82.0531713,13.223637 C82.0453517,12.7799392 81.8285633,12.4317268 81.4027946,12.1783438 C80.9770335,11.925398 80.340507,11.6533465 79.4925353,11.3615446 C78.8487043,11.1429931 78.2871024,10.92302 77.8072842,10.701633 C77.3274659,10.480246 76.9291844,10.2307627 76.6122081,9.95274938 C76.2950171,9.67517727 76.0518694,9.3617635 75.8816476,9.01230857 C75.7116565,8.66328716 75.6227196,8.25883461 75.6146263,7.79961075 C75.6057237,7.2944645 75.6920504,6.82988965 75.8729344,6.40567913 C76.0542643,5.98146091 76.3273049,5.61318705 76.691826,5.30042409 C77.056351,4.98787979 77.511385,4.73895668 78.0575886,4.55320592 C78.6031315,4.36790407 79.2346772,4.26883202 79.9524573,4.25642329 C80.6076177,4.24509712 81.2637884,4.29106459 81.9211953,4.3945405 C82.5781601,4.4982428 83.2130943,4.66729315 83.8257704,4.90147667 C83.9516421,4.96054917 84.0271978,5.0358036 84.0519924,5.12724772 C84.0772324,5.21868414 84.0748869,5.32590958 84.0460698,5.44890476 L83.5309681,6.76699643 C83.4863333,6.89048381 83.4291622,6.96037674 83.3592323,6.97667903 C83.2890834,6.99320388 83.191431,6.97957993 83.065829,6.9358149 C82.4539114,6.73202377 81.9165273,6.59606741 81.4554478,6.52725903 C80.9937037,6.45868085 80.4976477,6.42897621 79.9675022,6.43814115 C79.3903369,6.448119 78.9710319,6.57414613 78.7102485,6.81577369 C78.4490307,7.05806496 78.3213136,7.32429769 78.3264354,7.61492081 C78.3302162,7.82944394 78.3762396,8.01239383 78.4649511,8.16376271 C78.5532212,8.31535801 78.6923217,8.45469982 78.8818036,8.5815772 C79.0715082,8.70845071 79.3194409,8.83803627 79.6258276,8.97054869 C79.9326604,9.10305341 80.3055936,9.24229021 80.745284,9.38759152 C81.2474686,9.56265545 81.7380468,9.74951346 82.217902,9.94771287 C82.6970927,10.1461425 83.1226571,10.3879356 83.49458,10.6722176 C83.8660649,10.9569447 84.1685131,11.2960201 84.401714,11.6901039 C84.6349185,12.0844064 84.7566213,12.5646344 84.7665991,13.1307918" id="Fill-8" fill="#D32D27"></path>
                            <path d="M21.2680755,15.1685769 C21.2680755,15.5427332 21.1196389,15.79959 20.8234345,15.9400378 C20.4802028,16.0960661 20.10978,16.2285009 19.7119433,16.3371198 C19.3141065,16.4466289 18.9044573,16.5318769 18.4832184,16.5944218 C18.0619795,16.6565215 17.6445296,16.6994793 17.2310914,16.7228502 C16.8176532,16.7462211 16.4238283,16.7580178 16.0493937,16.7580178 C15.0196987,16.7580178 14.1656313,16.6527376 13.4869686,16.4423999 C12.808306,16.2322848 12.2700563,15.9516119 11.8722195,15.601049 C11.4741599,15.2507087 11.1971229,14.8378236 11.0413314,14.3623936 C10.8850941,13.8874087 10.8073098,13.3850466 10.8073098,12.8550845 C10.8073098,12.3097646 10.8969067,11.7840316 11.0765461,11.2776629 C11.2555169,10.771517 11.5481553,10.3274707 11.9540156,9.94530151 C12.3596531,9.56380008 12.8860903,9.25597248 13.5337729,9.02226393 C14.1807869,8.78855534 14.9728944,8.67170105 15.9089808,8.67170105 L18.5300227,8.67170105 L18.5300227,8.27439647 C18.5300227,7.97858819 18.498597,7.7057056 18.4364141,7.45641646 C18.3737855,7.20734988 18.2527629,6.98899929 18.073792,6.80203245 C17.8941526,6.6150656 17.6485414,6.47105659 17.3365126,6.36956029 C17.0242609,6.26850915 16.6186234,6.21776102 16.1196002,6.21776102 C15.5891512,6.21776102 15.0116751,6.26450272 14.3878403,6.35798616 C13.7635599,6.45146957 13.256513,6.5605336 12.8666999,6.68517816 C12.6948612,6.73191989 12.5700497,6.73993275 12.4922654,6.70854901 C12.4140353,6.67761045 12.3596531,6.59169472 12.3284502,6.45146957 L12.00082,5.11933069 C11.9381914,4.87026414 12.0083978,4.70666815 12.2114394,4.6285427 C12.8666999,4.37947612 13.5841433,4.2040834 14.3644382,4.10258711 C15.1445102,4.00153597 15.877555,3.95078784 16.5642412,3.95078784 C18.1867911,3.95078784 19.3762894,4.30936357 20.1331822,5.02584728 C20.8896291,5.74255356 21.2680755,6.78667445 21.2680755,8.15754218 L21.2680755,15.1685769 Z M18.5066206,10.7517074 L16.2600132,10.7517074 C15.9945658,10.7517074 15.7101738,10.7675105 15.4059457,10.7984491 C15.1017177,10.8298328 14.8126453,10.9153034 14.5400658,11.0555285 C14.2668177,11.1957537 14.0405968,11.3985237 13.8614032,11.6631708 C13.6817637,11.9282631 13.5921669,12.294184 13.5921669,12.7616011 C13.5921669,13.4317883 13.8181649,13.8989829 14.2708295,14.1638526 C14.7232713,14.4289449 15.3239268,14.5611572 16.0727959,14.5611572 C16.1817831,14.5611572 16.3340086,14.5573733 16.5292495,14.5493604 C16.7240446,14.5417927 16.9306522,14.5224283 17.1492953,14.4910446 C17.3677154,14.4598835 17.5977252,14.420932 17.8395476,14.3741903 C18.0813699,14.3274486 18.3038018,14.2653489 18.5066206,14.1872234 L18.5066206,10.7517074 Z" id="Fill-2" fill="#000000"></path>
                        </g>
                        <path d="M115.836095,4.24967837 C115.836095,3.83284109 116.173911,3.49492769 116.597173,3.49492769 C117.017505,3.49492769 117.358252,3.83298314 117.358252,4.24967837 L117.358252,16.415981 C117.358252,16.8328183 117.020436,17.1707317 116.597173,17.1707317 C116.176841,17.1707317 115.836095,16.8326763 115.836095,16.415981 L115.836095,4.24967837 Z" id="Line" fill="#D32D27"></path>
                        <g id="Dots" transform="translate(88.893928, 8.053529)" fill="#D32D27">
                            <ellipse id="Oval-74" cx="2.58766573" cy="2.58320743" rx="2.58766573" ry="2.58320743"></ellipse>
                            <ellipse id="Oval-74" cx="11.2639567" cy="2.58320743" rx="2.58766573" ry="2.58320743"></ellipse>
                            <ellipse id="Oval-74" cx="19.9402477" cy="2.58320743" rx="2.58766573" ry="2.58320743"></ellipse>
                        </g>
                    </g>
                </g>
            </g>
        </g>
    </g>
</svg>