<svg width="19" height="19" viewBox="0 0 19 19" fill="none" xmlns="http://www.w3.org/2000/svg">
<path d="M19 1.5454C18.9975 1.13614 18.8333 0.744468 18.5433 0.455741C18.2532 0.167015 17.8608 0.00464739 17.4515 0.00402832H1.55088C1.14128 0.0065386 0.749326 0.171067 0.460658 0.461663C0.171989 0.752259 0.0100748 1.1453 0.0102917 1.5549L0 7.36653C0.0210591 10.079 0.961155 12.7042 2.66677 14.8134C4.37238 16.9227 6.74274 18.3913 9.39075 18.9795C9.44131 18.9896 9.49276 18.9947 9.54433 18.9945C9.59754 18.9943 9.65058 18.9887 9.70267 18.9779C12.3455 18.3666 14.7029 16.8772 16.3899 14.753C18.0769 12.6287 18.9936 9.99522 18.9905 7.28261L19 1.5454ZM13.6855 7.53595L11.9122 8.97599C11.8787 9.00332 11.8551 9.04087 11.8449 9.0829C11.8348 9.12493 11.8387 9.16913 11.856 9.20874L12.8432 11.4784C12.8886 11.5886 12.8985 11.7101 12.8714 11.8261C12.8443 11.9421 12.7815 12.0467 12.692 12.1253C12.6024 12.2038 12.4905 12.2524 12.372 12.2642C12.2535 12.2759 12.1342 12.2503 12.031 12.1909L9.59737 10.8222C9.56779 10.8054 9.53438 10.7966 9.5004 10.7966C9.46641 10.7966 9.433 10.8054 9.40342 10.8222L6.96667 12.1909C6.86346 12.2506 6.74416 12.2764 6.62554 12.2647C6.50692 12.253 6.39495 12.2044 6.30538 12.1257C6.21581 12.0471 6.15315 11.9424 6.12621 11.8262C6.09928 11.7101 6.10942 11.5885 6.15521 11.4784L7.14162 9.2119C7.15897 9.17229 7.16286 9.1281 7.15271 9.08606C7.14256 9.04403 7.11892 9.00648 7.08542 8.97915L5.31525 7.53595C5.23304 7.46304 5.17538 7.36649 5.15017 7.25954C5.12497 7.15259 5.13345 7.04045 5.17445 6.93851C5.21546 6.83656 5.28698 6.74979 5.37922 6.69007C5.47146 6.63036 5.57991 6.60062 5.68971 6.60494H7.73379C7.77302 6.60501 7.81139 6.59337 7.84396 6.57151C7.87654 6.54965 7.90186 6.51857 7.91667 6.48224L8.987 3.86974C9.03565 3.77518 9.10942 3.69586 9.20019 3.64048C9.29097 3.5851 9.39525 3.55581 9.50158 3.55581C9.60792 3.55581 9.7122 3.5851 9.80298 3.64048C9.89375 3.69586 9.96751 3.77518 10.0162 3.86974L11.0833 6.48224C11.0984 6.51857 11.1239 6.54962 11.1565 6.57146C11.1892 6.59331 11.2277 6.60496 11.267 6.60494H13.3111C13.4207 6.60109 13.5288 6.63109 13.6208 6.69088C13.7127 6.75067 13.784 6.83734 13.8249 6.93909C13.8658 7.04084 13.8744 7.15272 13.8495 7.25952C13.8245 7.36632 13.7673 7.46284 13.6855 7.53595Z" fill="white"/>
</svg>
