<?xml version="1.0" encoding="UTF-8"?>
<svg width="192px" height="132px" viewBox="0 0 192 132" version="1.1" xmlns="http://www.w3.org/2000/svg" xmlns:xlink="http://www.w3.org/1999/xlink">
    <!-- Generator: Sketch 45.2 (43514) - http://www.bohemiancoding.com/sketch -->
    <title>Slice</title>
    <desc>Created with Sketch.</desc>
    <defs>
        <rect id="path-1" x="0" y="0" width="112.441072" height="70.5549044" rx="3"></rect>
        <filter x="-2.7%" y="-4.3%" width="105.3%" height="108.5%" filterUnits="objectBoundingBox" id="filter-2">
            <feOffset dx="-3" dy="-4" in="SourceAlpha" result="shadowOffsetInner1"></feOffset>
            <feComposite in="shadowOffsetInner1" in2="SourceAlpha" operator="arithmetic" k2="-1" k3="1" result="shadowInnerInner1"></feComposite>
            <feColorMatrix values="0 0 0 0 0.679368622   0 0 0 0 0.572370614   0 0 0 0 0.476836677  0 0 0 1 0" type="matrix" in="shadowInnerInner1"></feColorMatrix>
        </filter>
        <filter x="-4.1%" y="-4.5%" width="106.6%" height="112.5%" filterUnits="objectBoundingBox" id="filter-3">
            <feOffset dx="-1" dy="3" in="SourceAlpha" result="shadowOffsetOuter1"></feOffset>
            <feColorMatrix values="0 0 0 0 0   0 0 0 0 0   0 0 0 0 0  0 0 0 0.14 0" type="matrix" in="shadowOffsetOuter1" result="shadowMatrixOuter1"></feColorMatrix>
            <feMerge>
                <feMergeNode in="shadowMatrixOuter1"></feMergeNode>
                <feMergeNode in="SourceGraphic"></feMergeNode>
            </feMerge>
        </filter>
        <path d="M4.37619996,16.8542383 C4.37619996,8.92552832 8.93208885,2.49803889 14.5520626,2.49803889 C20.1720364,2.49803889 24.7279253,8.92552832 24.7279253,16.8542383 C24.7279253,21.0110634 23.2387746,32.1300148 23.2387746,35.0026414 C23.2387746,41.8841633 19.4607204,47.462739 14.8002544,47.462739 C10.1397883,47.462739 6.36173414,41.8841633 6.36173414,35.0026414 C6.36173414,32.3010696 4.37619996,21.217468 4.37619996,16.8542383 Z" id="path-4"></path>
        <filter x="-9.8%" y="-4.4%" width="119.7%" height="108.9%" filterUnits="objectBoundingBox" id="filter-5">
            <feOffset dx="-3" dy="0" in="SourceAlpha" result="shadowOffsetInner1"></feOffset>
            <feComposite in="shadowOffsetInner1" in2="SourceAlpha" operator="arithmetic" k2="-1" k3="1" result="shadowInnerInner1"></feComposite>
            <feColorMatrix values="0 0 0 0 0   0 0 0 0 0   0 0 0 0 0  0 0 0 0.1 0" type="matrix" in="shadowInnerInner1"></feColorMatrix>
        </filter>
        <ellipse id="path-6" cx="14.8002544" cy="35.2223484" rx="6.45298607" ry="9.24274391"></ellipse>
        <filter x="-27.1%" y="-18.9%" width="154.2%" height="137.9%" filterUnits="objectBoundingBox" id="filter-7">
            <feOffset dx="0" dy="7" in="SourceAlpha" result="shadowOffsetInner1"></feOffset>
            <feComposite in="shadowOffsetInner1" in2="SourceAlpha" operator="arithmetic" k2="-1" k3="1" result="shadowInnerInner1"></feComposite>
            <feColorMatrix values="0 0 0 0 0   0 0 0 0 0   0 0 0 0 0  0 0 0 0.1 0" type="matrix" in="shadowInnerInner1" result="shadowMatrixInner1"></feColorMatrix>
            <feOffset dx="0" dy="-2" in="SourceAlpha" result="shadowOffsetInner2"></feOffset>
            <feComposite in="shadowOffsetInner2" in2="SourceAlpha" operator="arithmetic" k2="-1" k3="1" result="shadowInnerInner2"></feComposite>
            <feColorMatrix values="0 0 0 0 0   0 0 0 0 0   0 0 0 0 0  0 0 0 0.1 0" type="matrix" in="shadowInnerInner2" result="shadowMatrixInner2"></feColorMatrix>
            <feMerge>
                <feMergeNode in="shadowMatrixInner1"></feMergeNode>
                <feMergeNode in="shadowMatrixInner2"></feMergeNode>
            </feMerge>
        </filter>
        <ellipse id="path-8" cx="14.8002544" cy="23.9811734" rx="1.98553418" ry="1.99843112"></ellipse>
        <path d="M3.97106835,16.8542383 C3.97106835,8.92552832 8.52695725,2.49803889 14.146931,2.49803889 C19.7669048,2.49803889 24.3227937,8.92552832 24.3227937,16.8542383 C24.3227937,21.0110634 22.833643,32.1300148 22.833643,35.0026414 C22.833643,41.8841633 19.0555888,47.462739 14.3951228,47.462739 C9.73465673,47.462739 5.95660253,41.8841633 5.95660253,35.0026414 C5.95660253,32.3010696 3.97106835,21.217468 3.97106835,16.8542383 Z" id="path-9"></path>
        <filter x="-9.8%" y="-4.4%" width="119.7%" height="108.9%" filterUnits="objectBoundingBox" id="filter-10">
            <feOffset dx="-3" dy="0" in="SourceAlpha" result="shadowOffsetInner1"></feOffset>
            <feComposite in="shadowOffsetInner1" in2="SourceAlpha" operator="arithmetic" k2="-1" k3="1" result="shadowInnerInner1"></feComposite>
            <feColorMatrix values="0 0 0 0 0   0 0 0 0 0   0 0 0 0 0  0 0 0 0.1 0" type="matrix" in="shadowInnerInner1"></feColorMatrix>
        </filter>
        <ellipse id="path-11" cx="14.3951228" cy="35.2223484" rx="6.45298607" ry="9.24274391"></ellipse>
        <filter x="-27.1%" y="-18.9%" width="154.2%" height="137.9%" filterUnits="objectBoundingBox" id="filter-12">
            <feOffset dx="0" dy="7" in="SourceAlpha" result="shadowOffsetInner1"></feOffset>
            <feComposite in="shadowOffsetInner1" in2="SourceAlpha" operator="arithmetic" k2="-1" k3="1" result="shadowInnerInner1"></feComposite>
            <feColorMatrix values="0 0 0 0 0   0 0 0 0 0   0 0 0 0 0  0 0 0 0.1 0" type="matrix" in="shadowInnerInner1" result="shadowMatrixInner1"></feColorMatrix>
            <feOffset dx="0" dy="-2" in="SourceAlpha" result="shadowOffsetInner2"></feOffset>
            <feComposite in="shadowOffsetInner2" in2="SourceAlpha" operator="arithmetic" k2="-1" k3="1" result="shadowInnerInner2"></feComposite>
            <feColorMatrix values="0 0 0 0 0   0 0 0 0 0   0 0 0 0 0  0 0 0 0.1 0" type="matrix" in="shadowInnerInner2" result="shadowMatrixInner2"></feColorMatrix>
            <feMerge>
                <feMergeNode in="shadowMatrixInner1"></feMergeNode>
                <feMergeNode in="shadowMatrixInner2"></feMergeNode>
            </feMerge>
        </filter>
        <ellipse id="path-13" cx="14.3951228" cy="23.9811734" rx="1.98553418" ry="1.99843112"></ellipse>
    </defs>
    <g id="Page-1" stroke="none" stroke-width="1" fill="none" fill-rule="evenodd">
        <g id="welcome-mat">
            <g id="Group-46">
                <circle id="Oval-3-Copy" fill="#F4F8F8" cx="87" cy="65" r="65"></circle>
                <g id="Group-45" transform="translate(30.000000, 30.000000)">
                    <g id="Rectangle-8-Copy-4" stroke-linecap="round" stroke-dasharray="340,5,1,5">
                        <use fill="#CEA989" fill-rule="evenodd" xlink:href="#path-1"></use>
                        <use fill="black" fill-opacity="1" filter="url(#filter-2)" xlink:href="#path-1"></use>
                        <use stroke="#4A4A4A" stroke-width="2" xlink:href="#path-1"></use>
                    </g>
                    <path d="M4.95023589,59.1520916 L4.95023589,10.7014064 L4.95023589,10.7014064 C4.95023589,10.6838335 4.95032655,10.6662818 4.95050741,10.6487517 C7.61838992,10.334315 9.70932295,8.26482076 9.88807281,5.70178492 C9.90876383,5.70153283 9.9294851,5.70140642 9.95023589,5.70140642 L9.95023589,5.70140642 L101.13862,5.70140642 C101.332702,8.48726747 103.785894,10.690137 106.78366,10.690137 C106.783656,10.6938945 106.78366,10.69765 106.78366,10.7014064 L106.78366,59.1520916 C103.659157,59.1520916 101.126248,61.5451603 101.126248,64.4971601 C101.126248,64.6168998 101.130415,64.7357199 101.13862,64.853498 L10.5952757,64.853498 C10.603481,64.7357199 10.6076483,64.6168998 10.6076483,64.4971601 C10.6076483,61.5451603 8.07473851,59.1520916 4.95023589,59.1520916 Z" id="Combined-Shape-Copy-10" stroke="#9B7F66" stroke-width="2" fill="#CEA989" stroke-linecap="round" stroke-dasharray="1"></path>
                    <path d="M28.3635501,38.9741053 L26.7705376,33.0198991 L25.1573604,38.9741053 C25.0318904,39.4256969 24.9321881,39.7497091 24.8582504,39.9461514 C24.7843128,40.1425938 24.655484,40.3187119 24.4717601,40.474511 C24.2880362,40.6303101 24.0438215,40.7082085 23.7391088,40.7082085 C23.4926499,40.7082085 23.2898845,40.6619211 23.1308065,40.5693448 C22.9717285,40.4767685 22.8428997,40.3458089 22.7443162,40.176462 C22.6457326,40.0071152 22.5650746,39.8061599 22.5023396,39.5735902 C22.4396046,39.3410205 22.3835921,39.1253887 22.3343003,38.9266884 L20.6942368,32.2409074 C20.5956532,31.8525386 20.5463622,31.5567505 20.5463622,31.3535342 C20.5463622,31.096127 20.6359823,30.8793663 20.8152251,30.7032455 C20.9944679,30.5271248 21.2162775,30.4390657 21.4806607,30.4390657 C21.8436274,30.4390657 22.087842,30.5564778 22.213312,30.7913054 C22.338782,31.0261331 22.4485665,31.3670797 22.542669,31.8141554 L23.8332108,37.6125632 L25.2783487,32.1867167 C25.3858944,31.7712523 25.4822359,31.4551429 25.5673763,31.2383789 C25.6525166,31.0216149 25.7914277,30.8342072 25.9841137,30.6761501 C26.1767997,30.5180931 26.4389384,30.4390657 26.7705376,30.4390657 C27.1066179,30.4390657 27.3676363,30.52148 27.5536007,30.6863109 C27.7395651,30.8511419 27.8683939,31.0306468 27.9400911,31.2248313 C28.0117882,31.4190157 28.1081297,31.7396409 28.2291186,32.1867167 L29.6876997,37.6125632 L30.9782415,31.8141554 C31.0409764,31.511589 31.1003497,31.2745069 31.1563631,31.1029021 C31.2123765,30.9312973 31.308718,30.7777584 31.4453907,30.6422809 C31.5820633,30.5068034 31.7803477,30.4390657 32.0402498,30.4390657 C32.3001519,30.4390657 32.5208412,30.5259958 32.7023246,30.6998586 C32.8838079,30.8737214 32.9745482,31.0916111 32.9745482,31.3535342 C32.9745482,31.5386868 32.9252572,31.8344749 32.8266737,32.2409074 L31.1866102,38.9266884 C31.0745834,39.37828 30.9816026,39.7090659 30.907665,39.9190561 C30.8337273,40.1290462 30.7082592,40.313067 30.5312569,40.4711241 C30.3542547,40.6291812 30.1044388,40.7082085 29.7818017,40.7082085 C29.4770889,40.7082085 29.2328743,40.6314391 29.0491504,40.4778979 C28.8654265,40.3243568 28.7377179,40.1516256 28.6660208,39.9596991 C28.5943237,39.7677727 28.4935011,39.4392447 28.3635501,38.9741053 Z M40.7917361,32.1596213 L36.2950047,32.1596213 L36.2950047,34.598204 L40.4354928,34.598204 C40.7402056,34.598204 40.9676165,34.6670707 41.1177323,34.8048062 C41.2678482,34.9425416 41.342905,35.1243045 41.342905,35.3501004 C41.342905,35.5758962 41.2689684,35.759917 41.1210931,35.9021684 C40.9732178,36.0444198 40.7446866,36.1155444 40.4354928,36.1155444 L36.2950047,36.1155444 L36.2950047,38.9402361 L40.9463323,38.9402361 C41.2600072,38.9402361 41.4963801,39.0136186 41.6554581,39.1603859 C41.8145361,39.3071532 41.8940739,39.5024636 41.8940739,39.7463231 C41.8940739,39.9811508 41.8145361,40.1719454 41.6554581,40.3187127 C41.4963801,40.46548 41.2600072,40.5388625 40.9463323,40.5388625 L35.5220239,40.5388625 C35.0873601,40.5388625 34.7748101,40.4417718 34.5843647,40.2475874 C34.3939192,40.0534029 34.2986979,39.7395515 34.2986979,39.3060235 L34.2986979,31.8412508 C34.2986979,31.5522321 34.3412674,31.316279 34.4264077,31.1333844 C34.5115481,30.9504898 34.6448579,30.8172722 34.8263412,30.7337278 C35.0078246,30.6501833 35.2397165,30.6084117 35.5220239,30.6084117 L40.7917361,30.6084117 C41.1098921,30.6084117 41.346265,30.6795364 41.5008619,30.8217877 C41.6554588,30.9640391 41.7327561,31.1503179 41.7327561,31.3806296 C41.7327561,31.6154573 41.6554588,31.8039939 41.5008619,31.9462453 C41.346265,32.0884967 41.1098921,32.1596213 40.7917361,32.1596213 Z M45.4363421,31.6583571 L45.4363421,38.8860453 L49.4827283,38.8860453 C49.8053653,38.8860453 50.0529407,38.9650727 50.2254619,39.1231298 C50.3979832,39.2811868 50.4842425,39.4798842 50.4842425,39.7192278 C50.4842425,39.9630873 50.3991034,40.1606556 50.2288227,40.3119388 C50.0585421,40.463222 49.8098464,40.5388625 49.4827283,40.5388625 L44.6633614,40.5388625 C44.2286976,40.5388625 43.9161476,40.4417718 43.7257021,40.2475874 C43.5352567,40.0534029 43.4400353,39.7395515 43.4400353,39.3060235 L43.4400353,31.6583571 C43.4400353,31.2519246 43.5307757,30.9471048 43.712259,30.7438886 C43.8937423,30.5406723 44.1323557,30.4390657 44.4281064,30.4390657 C44.7283381,30.4390657 44.9714325,30.5395433 45.1573969,30.7405016 C45.3433613,30.9414599 45.4363421,31.2474087 45.4363421,31.6583571 Z M59.5045916,37.4025742 C59.5045916,37.7186883 59.4272943,38.0607639 59.2726974,38.4288111 C59.1181005,38.7968583 58.8750061,39.1581262 58.5434069,39.5126256 C58.2118077,39.8671251 57.7883529,40.1550104 57.2730298,40.3762903 C56.7577068,40.5975702 56.1572524,40.7082085 55.4716486,40.7082085 C54.9518445,40.7082085 54.4790987,40.6585342 54.053397,40.559184 C53.6276953,40.4598339 53.2412088,40.305166 52.8939259,40.0951759 C52.546643,39.8851858 52.2273715,39.6085901 51.9361019,39.2653804 C51.6761999,38.9537822 51.4543902,38.6049329 51.2706663,38.218822 C51.0869425,37.8327111 50.9491516,37.4206399 50.8572897,36.982596 C50.7654277,36.5445521 50.7194975,36.0794197 50.7194975,35.5871848 C50.7194975,34.7878676 50.8348833,34.0721055 51.0656584,33.4398772 C51.2964335,32.8076489 51.6269075,32.266876 52.0570902,31.8175423 C52.487273,31.3682086 52.9913858,31.0261331 53.5694439,30.7913054 C54.1475019,30.5564778 54.7636398,30.4390657 55.4178761,30.4390657 C56.2155066,30.4390657 56.9257455,30.5993783 57.5486143,30.9200084 C58.171483,31.2406385 58.6487099,31.6369042 58.9803091,32.1088175 C59.3119082,32.5807308 59.4777054,33.0266708 59.4777054,33.4466511 C59.4777054,33.6769628 59.3970473,33.880176 59.2357288,34.0562968 C59.0744103,34.2324175 58.8794866,34.3204766 58.650952,34.3204766 C58.395531,34.3204766 58.2039682,34.2595126 58.0762577,34.1375828 C57.9485472,34.0156531 57.8062753,33.8056661 57.6494379,33.5076156 C57.3895358,33.0153807 57.0837073,32.6473391 56.7319433,32.4034796 C56.3801793,32.1596201 55.9466423,32.0376922 55.4313192,32.0376922 C54.6112834,32.0376922 53.9581772,32.3515437 53.4719811,32.9792561 C52.985785,33.6069684 52.7426905,34.4988486 52.7426905,35.6549232 C52.7426905,36.4271449 52.8502346,37.0695244 53.065326,37.582081 C53.2804174,38.0946375 53.5851256,38.4773557 53.9794597,38.730247 C54.3737939,38.9831383 54.8353372,39.1095821 55.3641035,39.1095821 C55.9376805,39.1095821 56.4227491,38.9662039 56.8193238,38.6794432 C57.2158985,38.3926825 57.5150054,37.9715796 57.7166536,37.4161218 C57.8017939,37.1541987 57.9070975,36.9408248 58.0325674,36.7759939 C58.1580374,36.6111629 58.3596825,36.5287487 58.6375089,36.5287487 C58.8750056,36.5287487 59.0788913,36.6122919 59.2491719,36.7793808 C59.4194526,36.9464697 59.5045916,37.1541988 59.5045916,37.4025742 Z M65.634665,30.4390657 C66.656349,30.4390657 67.5335053,30.6479237 68.2661603,31.065646 C68.9988153,31.4833683 69.5533394,32.0772024 69.9297493,32.8471662 C70.3061592,33.6171299 70.4943613,34.5214286 70.4943613,35.5600894 C70.4943613,36.3277952 70.3912983,37.0254939 70.185169,37.6532063 C69.9790398,38.2809187 69.6698506,38.8250785 69.2575921,39.2857019 C68.8453337,39.7463254 68.3389804,40.0985616 67.7385169,40.3424211 C67.1380535,40.5862806 66.4502196,40.7082085 65.6749944,40.7082085 C64.9042504,40.7082085 64.2141759,40.5828937 63.6047504,40.3322604 C62.9953248,40.081627 62.486731,39.7282618 62.0789536,39.2721543 C61.6711762,38.8160467 61.3631073,38.2673711 61.1547375,37.6261109 C60.9463677,36.9848508 60.8421844,36.291668 60.8421844,35.5465418 C60.8421844,34.7833519 60.9508487,34.0833953 61.1681806,33.4466511 C61.3855125,32.8099068 61.700303,32.268005 62.1125615,31.8209293 C62.5248199,31.3738535 63.0266922,31.031778 63.6181935,30.7946924 C64.2096948,30.5576067 64.8818452,30.4390657 65.634665,30.4390657 Z M68.4711683,35.5465418 C68.4711683,34.8194792 68.3546622,34.1895183 68.1216465,33.6566401 C67.8886309,33.123762 67.5559164,32.7207225 67.1234931,32.4475095 C66.6910699,32.1742966 66.1947988,32.0376922 65.634665,32.0376922 C65.2358498,32.0376922 64.8672873,32.1133326 64.5289665,32.2646158 C64.1906457,32.415899 63.8993805,32.6360467 63.6551622,32.9250653 C63.4109438,33.214084 63.2182607,33.5832546 63.077107,34.0325883 C62.9359533,34.481922 62.8653775,34.9865681 62.8653775,35.5465418 C62.8653775,36.1110313 62.9359533,36.6213222 63.077107,37.0774298 C63.2182607,37.5335374 63.4176653,37.9117397 63.6753269,38.2120482 C63.9329884,38.5123566 64.2287346,38.7370201 64.5625743,38.8860453 C64.8964141,39.0350706 65.2627361,39.1095821 65.6615513,39.1095821 C66.1723933,39.1095821 66.6417784,38.9808804 67.0697206,38.7234731 C67.4976628,38.4660659 67.838219,38.0686712 68.0913995,37.5312771 C68.3445799,36.9938831 68.4711683,36.3323112 68.4711683,35.5465418 Z M75.5288185,39.0418437 L73.9492492,32.7150763 L73.9492492,39.5702033 C73.9492492,39.9495402 73.8652304,40.2340387 73.6971902,40.4237072 C73.5291501,40.6133757 73.3062202,40.7082085 73.0283939,40.7082085 C72.7595296,40.7082085 72.5399605,40.6145047 72.3696798,40.4270941 C72.1993992,40.2396836 72.1142601,39.9540562 72.1142601,39.5702033 L72.1142601,31.7125478 C72.1142601,31.2790198 72.2262852,30.9866186 72.4503387,30.8353354 C72.6743922,30.6840522 72.9768599,30.6084117 73.3577509,30.6084117 L73.9761355,30.6084117 C74.3480643,30.6084117 74.6180447,30.6422806 74.7860849,30.7100193 C74.954125,30.7777581 75.0784728,30.899686 75.1591321,31.0758068 C75.2397913,31.2519275 75.3316519,31.5386839 75.4347165,31.9360846 L76.8664113,37.3754788 L78.2981061,31.9360846 C78.4011707,31.5386839 78.4930312,31.2519275 78.5736905,31.0758068 C78.6543498,30.899686 78.7786976,30.7777581 78.9467377,30.7100193 C79.1147778,30.6422806 79.3847583,30.6084117 79.7566871,30.6084117 L80.3750717,30.6084117 C80.7559627,30.6084117 81.0584304,30.6840522 81.2824839,30.8353354 C81.5065374,30.9866186 81.6185625,31.2790198 81.6185625,31.7125478 L81.6185625,39.5702033 C81.6185625,39.9495402 81.5345437,40.2340387 81.3665035,40.4237072 C81.1984634,40.6133757 80.973293,40.7082085 80.6909856,40.7082085 C80.4266024,40.7082085 80.2092738,40.6133757 80.0389931,40.4237072 C79.8687124,40.2340387 79.7835734,39.9495402 79.7835734,39.5702033 L79.7835734,32.7150763 L78.204004,39.0418437 C78.1009394,39.4527921 78.0169206,39.754225 77.9519451,39.9461514 C77.8869696,40.1380779 77.7671028,40.313067 77.592341,40.4711241 C77.4175793,40.6291812 77.1756051,40.7082085 76.8664113,40.7082085 C76.6333956,40.7082085 76.4362315,40.6574052 76.274913,40.5557971 C76.1135944,40.454189 75.9881264,40.3243583 75.898505,40.1663013 C75.8088836,40.0082442 75.7383078,39.833255 75.6867755,39.6413286 C75.6352431,39.4494021 75.5825914,39.2495758 75.5288185,39.0418437 Z M90.1616801,32.1596213 L85.6649486,32.1596213 L85.6649486,34.598204 L89.8054368,34.598204 C90.1101495,34.598204 90.3375604,34.6670707 90.4876763,34.8048062 C90.6377921,34.9425416 90.7128489,35.1243045 90.7128489,35.3501004 C90.7128489,35.5758962 90.6389124,35.759917 90.4910371,35.9021684 C90.3431618,36.0444198 90.1146306,36.1155444 89.8054368,36.1155444 L85.6649486,36.1155444 L85.6649486,38.9402361 L90.3162762,38.9402361 C90.6299511,38.9402361 90.866324,39.0136186 91.025402,39.1603859 C91.18448,39.3071532 91.2640178,39.5024636 91.2640178,39.7463231 C91.2640178,39.9811508 91.18448,40.1719454 91.025402,40.3187127 C90.866324,40.46548 90.6299511,40.5388625 90.3162762,40.5388625 L84.8919679,40.5388625 C84.4573041,40.5388625 84.1447541,40.4417718 83.9543086,40.2475874 C83.7638631,40.0534029 83.6686418,39.7395515 83.6686418,39.3060235 L83.6686418,31.8412508 C83.6686418,31.5522321 83.7112113,31.316279 83.7963517,31.1333844 C83.881492,30.9504898 84.0148019,30.8172722 84.1962852,30.7337278 C84.3777685,30.6501833 84.6096604,30.6084117 84.8919679,30.6084117 L90.1616801,30.6084117 C90.479836,30.6084117 90.7162089,30.6795364 90.8708059,30.8217877 C91.0254028,30.9640391 91.1027001,31.1503179 91.1027001,31.3806296 C91.1027001,31.6154573 91.0254028,31.8039939 90.8708059,31.9462453 C90.7162089,32.0884967 90.479836,32.1596213 90.1616801,32.1596213 Z" id="WELCOME-Copy-4" fill="#4A4A4A"></path>
                    <g id="Group-44-Copy" filter="url(#filter-3)" transform="translate(91.224561, 65.311370) rotate(17.000000) translate(-91.224561, -65.311370) translate(60.724561, 37.311370)">
                        <g id="Group-43-Copy-2" transform="translate(21.464506, 27.953658) rotate(-16.000000) translate(-21.464506, -27.953658) translate(6.964506, 3.453658)">
                            <path d="M3.38343287,15.4727927 C3.38343287,6.92740526 8.46491573,0 14.7332425,0 C21.0015693,0 26.0830521,6.92740526 26.0830521,15.4727927 C26.0830521,19.9529264 24.4221044,31.9366851 24.4221044,35.0327382 C24.4221044,42.4494896 20.2081918,48.4619546 15.0100671,48.4619546 C9.81194248,48.4619546 5.59802987,42.4494896 5.59802987,35.0327382 C5.59802987,32.1210442 3.38343287,20.1753847 3.38343287,15.4727927 Z" id="Combined-Shape-Copy-5" stroke="#4A4A4A" fill="#FFFFFF"></path>
                            <g id="Combined-Shape-Copy-4">
                                <use fill="#E3F3F4" fill-rule="evenodd" xlink:href="#path-4"></use>
                                <use fill="black" fill-opacity="1" filter="url(#filter-5)" xlink:href="#path-4"></use>
                                <use stroke="#6D989A" stroke-width="1" xlink:href="#path-4"></use>
                            </g>
                            <g id="Oval-7-Copy">
                                <use fill="#6D989A" fill-rule="evenodd" xlink:href="#path-6"></use>
                                <use fill="black" fill-opacity="1" filter="url(#filter-7)" xlink:href="#path-6"></use>
                            </g>
                            <path d="M9.05354717,16.5279905 C10.6322163,14.4129841 18.7904477,14.4082125 20.5851685,16.5764215 C21.0164415,17.0974441 21.785704,17.1679296 22.3033642,16.7338552 C22.8210244,16.2997809 22.891055,15.5255217 22.4597819,15.0044991 C19.6757854,11.6411421 9.64499934,11.647009 7.10277414,15.0529301 C6.69807615,15.5951202 6.80669902,16.3648557 7.34539012,16.7721824 C7.88408122,17.1795091 8.64884918,17.0701806 9.05354717,16.5279905 Z" id="Line-Copy-18" stroke="#4A4A4A" fill="#FFFFFF" fill-rule="nonzero"></path>
                            <path d="M9.05354717,19.0260294 C10.6322163,16.911023 18.7904477,16.9062514 20.5851685,19.0744604 C21.0164415,19.595483 21.785704,19.6659685 22.3033642,19.2318941 C22.8210244,18.7978197 22.891055,18.0235606 22.4597819,17.502538 C19.6757854,14.139181 9.64499934,14.1450479 7.10277414,17.550969 C6.69807615,18.0931591 6.80669902,18.8628946 7.34539012,19.2702213 C7.88408122,19.6775479 8.64884918,19.5682195 9.05354717,19.0260294 Z" id="Line-Copy-19" stroke="#4A4A4A" fill="#FFFFFF" fill-rule="nonzero"></path>
                            <path d="M9.05354717,21.5240683 C10.6322163,19.4090619 18.7904477,19.4042903 20.5851685,21.5724993 C21.0164415,22.0935219 21.785704,22.1640074 22.3033642,21.729933 C22.8210244,21.2958586 22.891055,20.5215995 22.4597819,20.0005769 C19.6757854,16.6372199 9.64499934,16.6430867 7.10277414,20.0490079 C6.69807615,20.591198 6.80669902,21.3609335 7.34539012,21.7682602 C7.88408122,22.1755868 8.64884918,22.0662584 9.05354717,21.5240683 Z" id="Line-Copy-20" stroke="#4A4A4A" fill="#FFFFFF" fill-rule="nonzero"></path>
                            <path d="M9.05354717,24.0221072 C10.6322163,21.9071008 18.7904477,21.9023292 20.5851685,24.0705382 C21.0164415,24.5915608 21.785704,24.6620463 22.3033642,24.2279719 C22.8210244,23.7938975 22.891055,23.0196384 22.4597819,22.4986158 C19.6757854,19.1352588 9.64499934,19.1411256 7.10277414,22.5470468 C6.69807615,23.0892369 6.80669902,23.8589724 7.34539012,24.2662991 C7.88408122,24.6736257 8.64884918,24.5642973 9.05354717,24.0221072 Z" id="Line-Copy-21" stroke="#4A4A4A" fill="#FFFFFF" fill-rule="nonzero"></path>
                            <path d="M8.08795473,25.5035 C9.93830273,22.6924509 10.1294016,22.3471315 10.1294016,21.8377389 C10.1294016,20.6332614 9.22190652,19.6894255 8.1438674,19.6894255 C7.06582828,19.6894255 6.15833322,20.6332614 6.15833322,21.8377389 C6.15833322,22.9404144 6.76317168,24.6031599 7.66887494,26.1528127 C7.80159974,25.9425252 7.94113105,25.7265546 8.08795473,25.5035 Z M8.1438674,30.7709602 C5.66699107,28.4735451 3.6764155,24.4038485 3.6764155,21.8377389 C3.6764155,19.2716294 5.67656185,17.1913866 8.1438674,17.1913866 C10.611173,17.1913866 12.6113193,19.2716294 12.6113193,21.8377389 C12.6113193,24.4038485 9.34973039,27.0578596 8.1438674,30.7709602 Z" id="Oval-9-Copy-4" stroke="#4A4A4A" fill="#FFFFFF" fill-rule="nonzero" transform="translate(8.143867, 23.981173) rotate(-83.000000) translate(-8.143867, -23.981173) "></path>
                            <path d="M20.9939269,27.0023233 C22.8442749,24.1912743 23.0353737,23.8459548 23.0353737,23.3365623 C23.0353737,22.1320848 22.1278787,21.1882488 21.0498395,21.1882488 C19.9718004,21.1882488 19.0643054,22.1320848 19.0643054,23.3365623 C19.0643054,24.4392377 19.6691438,26.1019833 20.5748471,27.651636 C20.7075719,27.4413485 20.8471032,27.2253779 20.9939269,27.0023233 Z M21.0498395,32.2697835 C18.5729632,29.9723684 16.5823876,25.9026718 16.5823876,23.3365623 C16.5823876,20.7704527 18.582534,18.6902099 21.0498395,18.6902099 C23.5171451,18.6902099 25.5172914,20.7704527 25.5172914,23.3365623 C25.5172914,25.9026718 22.2557025,28.5566829 21.0498395,32.2697835 Z" id="Oval-9-Copy-5" stroke="#4A4A4A" fill="#FFFFFF" fill-rule="nonzero" transform="translate(21.049840, 25.479997) scale(-1, -1) rotate(-79.000000) translate(-21.049840, -25.479997) "></path>
                            <g id="Oval-10-Copy">
                                <use fill="#FFFFFF" fill-rule="evenodd" xlink:href="#path-8"></use>
                                <ellipse stroke="#4A4A4A" stroke-width="1" cx="14.8002544" cy="23.9811734" rx="1.48553418" ry="1.49843112"></ellipse>
                            </g>
                        </g>
                        <g id="Group-43-Copy-3" transform="translate(32.727925, 0.000000)">
                            <path d="M2.97830126,15.4727927 C2.97830126,6.92740526 8.05978412,0 14.3281109,0 C20.5964377,0 25.6779205,6.92740526 25.6779205,15.4727927 C25.6779205,19.9529264 24.0169728,31.9366851 24.0169728,35.0327382 C24.0169728,42.4494896 19.8030601,48.4619546 14.6049355,48.4619546 C9.40681088,48.4619546 5.19289826,42.4494896 5.19289826,35.0327382 C5.19289826,32.1210442 2.97830126,20.1753847 2.97830126,15.4727927 Z" id="Combined-Shape-Copy-5" stroke="#4A4A4A" fill="#FFFFFF"></path>
                            <g id="Combined-Shape-Copy-4">
                                <use fill="#E3F3F4" fill-rule="evenodd" xlink:href="#path-9"></use>
                                <use fill="black" fill-opacity="1" filter="url(#filter-10)" xlink:href="#path-9"></use>
                                <use stroke="#6D989A" stroke-width="1" xlink:href="#path-9"></use>
                            </g>
                            <g id="Oval-7-Copy">
                                <use fill="#6D989A" fill-rule="evenodd" xlink:href="#path-11"></use>
                                <use fill="black" fill-opacity="1" filter="url(#filter-12)" xlink:href="#path-11"></use>
                            </g>
                            <path d="M8.64841556,16.5279905 C10.2270847,14.4129841 18.3853161,14.4082125 20.1800369,16.5764215 C20.6113099,17.0974441 21.3805724,17.1679296 21.8982326,16.7338552 C22.4158928,16.2997809 22.4859234,15.5255217 22.0546503,15.0044991 C19.2706537,11.6411421 9.23986773,11.647009 6.69764253,15.0529301 C6.29294454,15.5951202 6.40156741,16.3648557 6.94025851,16.7721824 C7.47894961,17.1795091 8.24371757,17.0701806 8.64841556,16.5279905 Z" id="Line-Copy-18" stroke="#4A4A4A" fill="#FFFFFF" fill-rule="nonzero"></path>
                            <path d="M8.64841556,19.0260294 C10.2270847,16.911023 18.3853161,16.9062514 20.1800369,19.0744604 C20.6113099,19.595483 21.3805724,19.6659685 21.8982326,19.2318941 C22.4158928,18.7978197 22.4859234,18.0235606 22.0546503,17.502538 C19.2706537,14.139181 9.23986773,14.1450479 6.69764253,17.550969 C6.29294454,18.0931591 6.40156741,18.8628946 6.94025851,19.2702213 C7.47894961,19.6775479 8.24371757,19.5682195 8.64841556,19.0260294 Z" id="Line-Copy-19" stroke="#4A4A4A" fill="#FFFFFF" fill-rule="nonzero"></path>
                            <path d="M8.64841556,21.5240683 C10.2270847,19.4090619 18.3853161,19.4042903 20.1800369,21.5724993 C20.6113099,22.0935219 21.3805724,22.1640074 21.8982326,21.729933 C22.4158928,21.2958586 22.4859234,20.5215995 22.0546503,20.0005769 C19.2706537,16.6372199 9.23986773,16.6430867 6.69764253,20.0490079 C6.29294454,20.591198 6.40156741,21.3609335 6.94025851,21.7682602 C7.47894961,22.1755868 8.24371757,22.0662584 8.64841556,21.5240683 Z" id="Line-Copy-20" stroke="#4A4A4A" fill="#FFFFFF" fill-rule="nonzero"></path>
                            <path d="M8.64841556,24.0221072 C10.2270847,21.9071008 18.3853161,21.9023292 20.1800369,24.0705382 C20.6113099,24.5915608 21.3805724,24.6620463 21.8982326,24.2279719 C22.4158928,23.7938975 22.4859234,23.0196384 22.0546503,22.4986158 C19.2706537,19.1352588 9.23986773,19.1411256 6.69764253,22.5470468 C6.29294454,23.0892369 6.40156741,23.8589724 6.94025851,24.2662991 C7.47894961,24.6736257 8.24371757,24.5642973 8.64841556,24.0221072 Z" id="Line-Copy-21" stroke="#4A4A4A" fill="#FFFFFF" fill-rule="nonzero"></path>
                            <path d="M8.17920667,23.0054611 C10.0295547,20.194412 10.2206535,19.8490926 10.2206535,19.3397 C10.2206535,18.1352226 9.31315845,17.1913866 8.23511934,17.1913866 C7.15708022,17.1913866 6.24958516,18.1352226 6.24958516,19.3397 C6.24958516,20.4423755 6.85442362,22.105121 7.76012688,23.6547738 C7.89285168,23.4444863 8.03238299,23.2285157 8.17920667,23.0054611 Z M8.23511934,28.2729213 C5.75824301,25.9755062 3.76766744,21.9058096 3.76766744,19.3397 C3.76766744,16.7735905 5.76781378,14.6933477 8.23511934,14.6933477 C10.7024249,14.6933477 12.7025712,16.7735905 12.7025712,19.3397 C12.7025712,21.9058096 9.44098233,24.5598207 8.23511934,28.2729213 Z" id="Oval-9-Copy-4" stroke="#4A4A4A" fill="#FFFFFF" fill-rule="nonzero" transform="translate(8.235119, 21.483134) rotate(-64.000000) translate(-8.235119, -21.483134) "></path>
                            <path d="M20.5887953,25.5035 C22.4391433,22.6924509 22.6302421,22.3471315 22.6302421,21.8377389 C22.6302421,20.6332614 21.7227471,19.6894255 20.6447079,19.6894255 C19.5666688,19.6894255 18.6591738,20.6332614 18.6591738,21.8377389 C18.6591738,22.9404144 19.2640122,24.6031599 20.1697155,26.1528127 C20.3024403,25.9425252 20.4419716,25.7265546 20.5887953,25.5035 Z M20.6447079,30.7709602 C18.1678316,28.4735451 16.177256,24.4038485 16.177256,21.8377389 C16.177256,19.2716294 18.1774024,17.1913866 20.6447079,17.1913866 C23.1120135,17.1913866 25.1121598,19.2716294 25.1121598,21.8377389 C25.1121598,24.4038485 21.8505709,27.0578596 20.6447079,30.7709602 Z" id="Oval-9-Copy-5" stroke="#4A4A4A" fill="#FFFFFF" fill-rule="nonzero" transform="translate(20.644708, 23.981173) scale(-1, 1) rotate(-90.000000) translate(-20.644708, -23.981173) "></path>
                            <g id="Oval-10-Copy">
                                <use fill="#FFFFFF" fill-rule="evenodd" xlink:href="#path-13"></use>
                                <ellipse stroke="#4A4A4A" stroke-width="1" cx="14.3951228" cy="23.9811734" rx="1.48553418" ry="1.49843112"></ellipse>
                            </g>
                        </g>
                    </g>
                </g>
                <g id="Breeze" transform="translate(0.000000, 17.000000)" stroke-linecap="round" stroke="#C6D8E1" stroke-width="2">
                    <g transform="translate(166.000000, 71.000000)" id="Line">
                        <path d="M1.5,5 L14.5,5"></path>
                        <path d="M11.5,1 L24.5,1"></path>
                        <path d="M17.5,5 L21,5"></path>
                    </g>
                    <path d="M7.5,5 L15.5,5" id="Line"></path>
                    <path d="M13.5,1 L26.5,1" id="Line"></path>
                    <g id="Ex" transform="translate(0.000000, 51.000000)">
                        <path d="M10,1 L1,10" id="Line"></path>
                        <path d="M10,10 L1,1" id="Line-Copy"></path>
                    </g>
                </g>
            </g>
        </g>
    </g>
</svg>