<svg width="125" height="120" viewBox="0 0 125 120" fill="none" xmlns="http://www.w3.org/2000/svg">
<path fill-rule="evenodd" clip-rule="evenodd" d="M60.6667 120C93.8038 120 120.667 93.1371 120.667 60C120.667 26.8629 93.8038 0 60.6667 0C27.5296 0 0.666672 26.8629 0.666672 60C0.666672 93.1371 27.5296 120 60.6667 120Z" fill="#ECF5FB"/>
<rect x="92.6667" y="18.6667" width="4.00001" height="4" stroke="#B5D9F1" stroke-width="2" stroke-linecap="round" stroke-linejoin="round"/>
<rect x="65.3333" y="10.9665" width="4" height="4" transform="rotate(-45 65.3333 10.9665)" stroke="#B5D9F1" stroke-width="2" stroke-linecap="round" stroke-linejoin="round"/>
<path d="M74.0286 22.8333L77.8292 26.6339" stroke="#B5D9F1" stroke-width="2" stroke-linecap="round" stroke-linejoin="round"/>
<path d="M77.6953 22.8333L73.8947 26.6339" stroke="#B5D9F1" stroke-width="2" stroke-linecap="round" stroke-linejoin="round"/>
<path d="M1.33334 95.3333H123.333" stroke="#264887" stroke-width="2" stroke-linecap="round" stroke-dasharray="1 6 164 5"/>
<g filter="url(#filter0_i)">
<path fill-rule="evenodd" clip-rule="evenodd" d="M9.33334 36C9.33334 33.7909 11.1242 32 13.3333 32H65.3333C67.5425 32 69.3333 33.7909 69.3333 36V88.2417C69.3333 90.4509 67.5425 92.2417 65.3333 92.2417H63.9621C63.3871 93.6636 61.9935 94.6667 60.3655 94.6667C58.7376 94.6667 57.344 93.6636 56.769 92.2417H23.1545C22.5796 93.6636 21.1859 94.6667 19.558 94.6667C17.9301 94.6667 16.5364 93.6636 15.9615 92.2417H13.3333C11.1242 92.2417 9.33334 90.4509 9.33334 88.2417V36Z" fill="white"/>
</g>
<path d="M63.9621 92.2417V91.2417H63.2878L63.035 91.8668L63.9621 92.2417ZM56.769 92.2417L57.6961 91.8668L57.4433 91.2417H56.769V92.2417ZM23.1545 92.2417V91.2417H22.4802L22.2275 91.8668L23.1545 92.2417ZM15.9615 92.2417L16.8885 91.8668L16.6357 91.2417H15.9615V92.2417ZM9.99152 32.2808C9.58081 32.65 9.54718 33.2823 9.91641 33.693C10.2856 34.1037 10.9179 34.1373 11.3286 33.7681L9.99152 32.2808ZM11.2033 33.8874C11.5922 33.4953 11.5896 32.8622 11.1975 32.4732C10.8054 32.0843 10.1722 32.0869 9.78332 32.479L11.2033 33.8874ZM9.75451 32.5083C9.36881 32.9036 9.37657 33.5367 9.77185 33.9224C10.1671 34.3081 10.8003 34.3003 11.186 33.9051L9.75451 32.5083ZM11.1015 33.9953C11.4707 33.5846 11.4371 32.9523 11.0263 32.5831C10.6156 32.2138 9.98336 32.2475 9.61413 32.6582L11.1015 33.9953ZM8.33334 60.343C8.33334 60.8953 8.78106 61.343 9.33334 61.343C9.88563 61.343 10.3333 60.8953 10.3333 60.343H8.33334ZM10.3333 62.2576C10.3333 61.7053 9.88563 61.2576 9.33334 61.2576C8.78106 61.2576 8.33334 61.7053 8.33334 62.2576H10.3333ZM8.33334 62.5311C8.33334 63.0834 8.78106 63.5311 9.33334 63.5311C9.88563 63.5311 10.3333 63.0834 10.3333 62.5311H8.33334ZM10.3333 63.8987C10.3333 63.3464 9.88563 62.8987 9.33334 62.8987C8.78106 62.8987 8.33334 63.3464 8.33334 63.8987H10.3333ZM9.61413 91.5836C9.98336 91.9943 10.6156 92.0279 11.0263 91.6587C11.4371 91.2894 11.4707 90.6572 11.1015 90.2464L9.61413 91.5836ZM11.2208 90.3718C10.8287 89.9829 10.1955 89.9854 9.80658 90.3776C9.41766 90.7697 9.42024 91.4028 9.81236 91.7918L11.2208 90.3718ZM9.84164 91.8206C10.2369 92.2063 10.87 92.1985 11.2557 91.8032C11.6415 91.4079 11.6337 90.7748 11.2384 90.3891L9.84164 91.8206ZM11.3286 90.4736C10.9179 90.1044 10.2856 90.138 9.91641 90.5487C9.54718 90.9594 9.58081 91.5917 9.99152 91.961L11.3286 90.4736ZM14.558 93.2417C15.1102 93.2417 15.558 92.794 15.558 92.2417C15.558 91.6894 15.1102 91.2417 14.558 91.2417V93.2417ZM14.6543 91.2417C14.102 91.2417 13.6543 91.6894 13.6543 92.2417C13.6543 92.794 14.102 93.2417 14.6543 93.2417V91.2417ZM14.668 93.2417C15.2203 93.2417 15.668 92.794 15.668 92.2417C15.668 91.6894 15.2203 91.2417 14.668 91.2417V93.2417ZM14.7368 91.2417C14.1846 91.2417 13.7368 91.6894 13.7368 92.2417C13.7368 92.794 14.1846 93.2417 14.7368 93.2417V91.2417ZM16.6685 94.719C17.1132 95.0465 17.7392 94.9513 18.0666 94.5066C18.394 94.0618 18.2989 93.4358 17.8542 93.1084L16.6685 94.719ZM17.9566 93.1805C17.4981 92.8727 16.8768 92.9948 16.569 93.4534C16.2612 93.9119 16.3834 94.5332 16.8419 94.841L17.9566 93.1805ZM16.8671 94.8578C17.3276 95.1628 17.9481 95.0368 18.253 94.5763C18.558 94.1159 18.432 93.4954 17.9715 93.1904L16.8671 94.8578ZM18.0469 93.2387C17.5772 92.9481 16.9609 93.0933 16.6704 93.563C16.3798 94.0327 16.525 94.649 16.9947 94.9395L18.0469 93.2387ZM22.1212 94.9395C22.5909 94.649 22.7362 94.0327 22.4456 93.563C22.1551 93.0933 21.5388 92.9481 21.0691 93.2387L22.1212 94.9395ZM21.1742 93.1705C20.7175 93.4811 20.5992 94.1031 20.9099 94.5598C21.2205 95.0164 21.8425 95.1347 22.2992 94.8241L21.1742 93.1705ZM22.3242 94.8069C22.7788 94.4935 22.8933 93.8707 22.5798 93.416C22.2663 92.9613 21.6436 92.8469 21.1889 93.1604L22.3242 94.8069ZM21.2618 93.1084C20.8171 93.4358 20.7219 94.0618 21.0494 94.5066C21.3768 94.9513 22.0028 95.0465 22.4475 94.719L21.2618 93.1084ZM38.8178 93.2417C39.3701 93.2417 39.8178 92.794 39.8178 92.2417C39.8178 91.6894 39.3701 91.2417 38.8178 91.2417V93.2417ZM40.0498 91.2417C39.4975 91.2417 39.0498 91.6894 39.0498 92.2417C39.0498 92.794 39.4975 93.2417 40.0498 93.2417V91.2417ZM40.2258 93.2417C40.778 93.2417 41.2258 92.794 41.2258 92.2417C41.2258 91.6894 40.778 91.2417 40.2258 91.2417V93.2417ZM41.1057 91.2417C40.5534 91.2417 40.1057 91.6894 40.1057 92.2417C40.1057 92.794 40.5534 93.2417 41.1057 93.2417V91.2417ZM57.476 94.719C57.9208 95.0465 58.5467 94.9513 58.8742 94.5066C59.2016 94.0618 59.1065 93.4358 58.6617 93.1084L57.476 94.719ZM58.7642 93.1805C58.3057 92.8727 57.6844 92.9948 57.3766 93.4534C57.0687 93.9119 57.1909 94.5332 57.6495 94.841L58.7642 93.1805ZM57.6747 94.8578C58.1351 95.1628 58.7556 95.0368 59.0606 94.5763C59.3656 94.1159 59.2395 93.4954 58.7791 93.1904L57.6747 94.8578ZM58.8544 93.2387C58.3847 92.9481 57.7684 93.0933 57.4779 93.563C57.1874 94.0327 57.3326 94.649 57.8023 94.9395L58.8544 93.2387ZM62.9288 94.9395C63.3985 94.649 63.5437 94.0327 63.2532 93.563C62.9626 93.0933 62.3463 92.9481 61.8767 93.2387L62.9288 94.9395ZM61.9817 93.1705C61.5251 93.4811 61.4068 94.1031 61.7174 94.5598C62.0281 95.0164 62.6501 95.1347 63.1067 94.8241L61.9817 93.1705ZM63.1317 94.8069C63.5864 94.4935 63.7009 93.8707 63.3874 93.416C63.0739 92.9613 62.4512 92.8469 61.9965 93.1604L63.1317 94.8069ZM62.0694 93.1084C61.6246 93.4358 61.5295 94.0618 61.8569 94.5066C62.1843 94.9513 62.8103 95.0465 63.2551 94.719L62.0694 93.1084ZM64.601 93.2417C65.1533 93.2417 65.601 92.794 65.601 92.2417C65.601 91.6894 65.1533 91.2417 64.601 91.2417V93.2417ZM64.6513 91.2417C64.099 91.2417 63.6513 91.6894 63.6513 92.2417C63.6513 92.794 64.099 93.2417 64.6513 93.2417V91.2417ZM64.6585 93.2417C65.2108 93.2417 65.6585 92.794 65.6585 92.2417C65.6585 91.6894 65.2108 91.2417 64.6585 91.2417V93.2417ZM64.6944 91.2417C64.1421 91.2417 63.6944 91.6894 63.6944 92.2417C63.6944 92.794 64.1421 93.2417 64.6944 93.2417V91.2417ZM68.6752 91.9609C69.0859 91.5917 69.1195 90.9594 68.7503 90.5487C68.381 90.138 67.7488 90.1044 67.3381 90.4736L68.6752 91.9609ZM67.4634 90.3543C67.0745 90.7464 67.077 91.3796 67.4692 91.7685C67.8613 92.1574 68.4944 92.1548 68.8834 91.7627L67.4634 90.3543ZM68.9122 91.7334C69.2979 91.3382 69.2901 90.705 68.8948 90.3193C68.4995 89.9336 67.8664 89.9414 67.4807 90.3367L68.9122 91.7334ZM67.5652 90.2464C67.196 90.6572 67.2296 91.2894 67.6403 91.6587C68.0511 92.0279 68.6833 91.9943 69.0526 91.5836L67.5652 90.2464ZM70.3333 63.8987C70.3333 63.3464 69.8856 62.8987 69.3333 62.8987C68.7811 62.8987 68.3333 63.3464 68.3333 63.8987H70.3333ZM68.3333 61.9841C68.3333 62.5364 68.7811 62.9841 69.3333 62.9841C69.8856 62.9841 70.3333 62.5364 70.3333 61.9841H68.3333ZM70.3333 61.7106C70.3333 61.1583 69.8856 60.7106 69.3333 60.7106C68.7811 60.7106 68.3333 61.1583 68.3333 61.7106H70.3333ZM68.3333 60.343C68.3333 60.8953 68.7811 61.343 69.3333 61.343C69.8856 61.343 70.3333 60.8953 70.3333 60.343H68.3333ZM69.0526 32.6582C68.6833 32.2475 68.0511 32.2138 67.6403 32.5831C67.2296 32.9523 67.196 33.5846 67.5652 33.9953L69.0526 32.6582ZM67.4459 33.87C67.838 34.2589 68.4712 34.2563 68.8601 33.8642C69.249 33.4721 69.2464 32.8389 68.8543 32.45L67.4459 33.87ZM68.825 32.4212C68.4298 32.0355 67.7966 32.0432 67.4109 32.4385C67.0252 32.8338 67.033 33.4669 67.4283 33.8526L68.825 32.4212ZM67.3381 33.7681C67.7488 34.1373 68.381 34.1037 68.7503 33.693C69.1195 33.2823 69.0859 32.65 68.6752 32.2808L67.3381 33.7681ZM41.103 31C40.5507 31 40.103 31.4477 40.103 32C40.103 32.5523 40.5507 33 41.103 33V31ZM39.1972 33C39.7495 33 40.1972 32.5523 40.1972 32C40.1972 31.4477 39.7495 31 39.1972 31V33ZM38.925 31C38.3727 31 37.925 31.4477 37.925 32C37.925 32.5523 38.3727 33 38.925 33V31ZM37.5637 33C38.116 33 38.5637 32.5523 38.5637 32C38.5637 31.4477 38.116 31 37.5637 31V33ZM13.3333 31C12.0494 31 10.8764 31.4853 9.99152 32.2808L11.3286 33.7681C11.8607 33.2898 12.562 33 13.3333 33V31ZM9.78332 32.479C9.77368 32.4887 9.76408 32.4985 9.75451 32.5083L11.186 33.9051C11.1917 33.8992 11.1975 33.8933 11.2033 33.8874L9.78332 32.479ZM9.61413 32.6582C8.81861 33.5431 8.33334 34.7161 8.33334 36H10.3333C10.3333 35.2286 10.6232 34.5273 11.1015 33.9953L9.61413 32.6582ZM8.33334 36V60.343H10.3333V36H8.33334ZM8.33334 62.2576V62.5311H10.3333V62.2576H8.33334ZM8.33334 63.8987V88.2417H10.3333V63.8987H8.33334ZM8.33334 88.2417C8.33334 89.5257 8.81861 90.6987 9.61413 91.5836L11.1015 90.2464C10.6232 89.7144 10.3333 89.0131 10.3333 88.2417H8.33334ZM9.81236 91.7918C9.82208 91.8014 9.83184 91.811 9.84164 91.8206L11.2384 90.3891C11.2325 90.3834 11.2266 90.3776 11.2208 90.3718L9.81236 91.7918ZM9.99152 91.961C10.8764 92.7565 12.0494 93.2417 13.3333 93.2417V91.2417C12.562 91.2417 11.8607 90.9519 11.3286 90.4736L9.99152 91.961ZM13.3333 93.2417H14.558V91.2417H13.3333V93.2417ZM14.6543 93.2417H14.668V91.2417H14.6543V93.2417ZM14.7368 93.2417H15.9615V91.2417H14.7368V93.2417ZM15.0344 92.6166C15.3761 93.4617 15.9467 94.1877 16.6685 94.719L17.8542 93.1084C17.4265 92.7936 17.0895 92.3639 16.8885 91.8668L15.0344 92.6166ZM16.8419 94.841C16.8503 94.8466 16.8587 94.8523 16.8671 94.8578L17.9715 93.1904C17.9666 93.1871 17.9616 93.1838 17.9566 93.1805L16.8419 94.841ZM16.9947 94.9395C17.7402 95.4007 18.6196 95.6667 19.558 95.6667V93.6667C19.0019 93.6667 18.4854 93.5099 18.0469 93.2387L16.9947 94.9395ZM19.558 95.6667C20.4964 95.6667 21.3757 95.4007 22.1212 94.9395L21.0691 93.2387C20.6306 93.5099 20.1141 93.6667 19.558 93.6667V95.6667ZM22.2992 94.8241C22.3075 94.8184 22.3158 94.8127 22.3242 94.8069L21.1889 93.1604C21.184 93.1637 21.1791 93.1671 21.1742 93.1705L22.2992 94.8241ZM22.4475 94.719C23.1693 94.1877 23.7398 93.4617 24.0816 92.6166L22.2275 91.8668C22.0264 92.3639 21.6895 92.7936 21.2618 93.1084L22.4475 94.719ZM23.1545 93.2417H38.8178V91.2417H23.1545V93.2417ZM40.0498 93.2417H40.2258V91.2417H40.0498V93.2417ZM41.1057 93.2417H56.769V91.2417H41.1057V93.2417ZM55.8419 92.6166C56.1837 93.4617 56.7543 94.1877 57.476 94.719L58.6617 93.1084C58.234 92.7936 57.8971 92.3639 57.6961 91.8668L55.8419 92.6166ZM57.6495 94.841C57.6578 94.8466 57.6662 94.8523 57.6747 94.8578L58.7791 93.1904C58.7741 93.1871 58.7691 93.1838 58.7642 93.1805L57.6495 94.841ZM57.8023 94.9395C58.5478 95.4007 59.4271 95.6667 60.3655 95.6667V93.6667C59.8094 93.6667 59.2929 93.5099 58.8544 93.2387L57.8023 94.9395ZM60.3655 95.6667C61.3039 95.6667 62.1833 95.4007 62.9288 94.9395L61.8767 93.2387C61.4381 93.5099 60.9217 93.6667 60.3655 93.6667V95.6667ZM63.1067 94.8241C63.1151 94.8184 63.1234 94.8127 63.1317 94.8069L61.9965 93.1604C61.9916 93.1637 61.9866 93.1671 61.9817 93.1705L63.1067 94.8241ZM63.2551 94.719C63.9768 94.1877 64.5474 93.4617 64.8891 92.6166L63.035 91.8668C62.834 92.3639 62.497 92.7936 62.0694 93.1084L63.2551 94.719ZM63.9621 93.2417H64.601V91.2417H63.9621V93.2417ZM64.6513 93.2417H64.6585V91.2417H64.6513V93.2417ZM64.6944 93.2417H65.3333V91.2417H64.6944V93.2417ZM65.3333 93.2417C66.6173 93.2417 67.7903 92.7565 68.6752 91.9609L67.3381 90.4736C66.806 90.9519 66.1047 91.2417 65.3333 91.2417V93.2417ZM68.8834 91.7627C68.893 91.753 68.9026 91.7432 68.9122 91.7334L67.4807 90.3367C67.475 90.3426 67.4692 90.3484 67.4634 90.3543L68.8834 91.7627ZM69.0526 91.5836C69.8481 90.6987 70.3333 89.5257 70.3333 88.2417H68.3333C68.3333 89.0131 68.0435 89.7144 67.5652 90.2464L69.0526 91.5836ZM70.3333 88.2417V63.8987H68.3333V88.2417H70.3333ZM70.3333 61.9841V61.7106H68.3333V61.9841H70.3333ZM70.3333 60.343V36H68.3333V60.343H70.3333ZM70.3333 36C70.3333 34.716 69.8481 33.5431 69.0526 32.6582L67.5652 33.9953C68.0435 34.5273 68.3333 35.2286 68.3333 36H70.3333ZM68.8543 32.45C68.8446 32.4403 68.8348 32.4307 68.825 32.4212L67.4283 33.8526C67.4342 33.8584 67.44 33.8642 67.4459 33.87L68.8543 32.45ZM68.6752 32.2808C67.7903 31.4853 66.6173 31 65.3333 31V33C66.1047 33 66.806 33.2898 67.3381 33.7681L68.6752 32.2808ZM65.3333 31H41.103V33H65.3333V31ZM39.1972 31H38.925V33H39.1972V31ZM37.5637 31H13.3333V33H37.5637V31Z" fill="#264887"/>
<g filter="url(#filter1_i)">
<rect x="59.5434" y="43.3876" width="56.4566" height="37.9996" rx="4" fill="#B5D9F1"/>
</g>
<rect x="59.5434" y="43.3876" width="56.4566" height="37.9996" rx="4" stroke="#264887" stroke-width="2"/>
<rect x="59.5434" y="52.6161" width="56.4566" height="7.05708" fill="#264887"/>
<g filter="url(#filter2_d)">
<g filter="url(#filter3_i)">
<path d="M107.641 64.6825C108.25 66.8061 107.022 69.0212 104.899 69.6301L81.6089 76.3083L58.3192 82.9865C56.1956 83.5955 53.9805 82.3676 53.3716 80.2441L45.1025 51.4066C44.4936 49.283 45.7215 47.0679 47.845 46.459L94.4245 33.1025C96.5481 32.4936 98.7632 33.7215 99.3721 35.845L107.641 64.6825Z" fill="white"/>
</g>
<path d="M107.641 64.6825C108.25 66.8061 107.022 69.0212 104.899 69.6301L81.6089 76.3083L58.3192 82.9865C56.1956 83.5955 53.9805 82.3676 53.3716 80.2441L45.1025 51.4066C44.4936 49.283 45.7215 47.0679 47.845 46.459L94.4245 33.1025C96.5481 32.4936 98.7632 33.7215 99.3721 35.845L107.641 64.6825Z" stroke="#264887" stroke-width="2" stroke-linecap="round" stroke-dasharray="181 12 2 12"/>
<rect x="81.481" y="42.8485" width="13.5713" height="7.05707" rx="3.52854" transform="rotate(-16 81.481 42.8485)" fill="#B5D9F1"/>
<rect x="71.9612" y="68.7321" width="28.7711" height="1.0857" rx="0.542852" transform="rotate(-16 71.9612 68.7321)" fill="#B5D9F1" stroke="#B5D9F1" stroke-width="2"/>
<rect x="56.8975" y="67.4043" width="7.05707" height="1.0857" rx="0.542852" transform="rotate(-16 56.8975 67.4043)" stroke="#D22D27" stroke-width="2"/>
<rect x="68.3776" y="64.1124" width="7.05707" height="1.0857" rx="0.542851" transform="rotate(-16 68.3776 64.1124)" stroke="#D22D27" stroke-width="2"/>
<rect x="79.8577" y="60.8206" width="7.05707" height="1.0857" rx="0.542852" transform="rotate(-16 79.8577 60.8206)" stroke="#D22D27" stroke-width="2"/>
<rect x="91.3378" y="57.5287" width="7.05707" height="1.0857" rx="0.542852" transform="rotate(-16 91.3378 57.5287)" stroke="#D22D27" stroke-width="2"/>
<rect x="58.3938" y="72.6225" width="8.68563" height="1.0857" rx="0.542851" transform="rotate(-16 58.3938 72.6225)" fill="#B5D9F1" stroke="#B5D9F1" stroke-width="2"/>
</g>
<g filter="url(#filter4_i)">
<path fill-rule="evenodd" clip-rule="evenodd" d="M15.8942 40C15.8942 38.8954 16.7897 38 17.8942 38H61.5829C62.6875 38 63.5829 38.8954 63.5829 40V83.6543C63.5829 84.7589 62.6875 85.6543 61.5829 85.6543H17.8942C16.7897 85.6543 15.8942 84.7589 15.8942 83.6543V40Z" fill="white"/>
</g>
<path fill-rule="evenodd" clip-rule="evenodd" d="M15.8942 40C15.8942 38.8954 16.7897 38 17.8942 38H61.5829C62.6875 38 63.5829 38.8954 63.5829 40V83.6543C63.5829 84.7589 62.6875 85.6543 61.5829 85.6543H17.8942C16.7897 85.6543 15.8942 84.7589 15.8942 83.6543V40Z" stroke="#264887" stroke-width="2" stroke-linecap="round" stroke-linejoin="round"/>
<g filter="url(#filter5_i)">
<path fill-rule="evenodd" clip-rule="evenodd" d="M13.3333 46.4072C13.3333 44.944 14.5195 43.7579 15.9827 43.7579V43.7579C17.4459 43.7579 18.6321 44.944 18.6321 46.4072V52.2867C18.6321 53.7499 17.4459 54.936 15.9827 54.936V54.936C14.5195 54.936 13.3333 53.7499 13.3333 52.2867V46.4072Z" fill="white"/>
</g>
<path fill-rule="evenodd" clip-rule="evenodd" d="M13.3333 46.4072C13.3333 44.944 14.5195 43.7579 15.9827 43.7579V43.7579C17.4459 43.7579 18.6321 44.944 18.6321 46.4072V52.2867C18.6321 53.7499 17.4459 54.936 15.9827 54.936V54.936C14.5195 54.936 13.3333 53.7499 13.3333 52.2867V46.4072Z" stroke="#264887" stroke-width="2" stroke-linecap="round" stroke-linejoin="round"/>
<g filter="url(#filter6_i)">
<path fill-rule="evenodd" clip-rule="evenodd" d="M13.3333 73.9171C13.3333 72.4539 14.5195 71.2677 15.9827 71.2677V71.2677C17.4459 71.2677 18.6321 72.4539 18.6321 73.9171V79.7965C18.6321 81.2597 17.4459 82.4459 15.9827 82.4459V82.4459C14.5195 82.4459 13.3333 81.2597 13.3333 79.7965V73.9171Z" fill="white"/>
</g>
<path fill-rule="evenodd" clip-rule="evenodd" d="M13.3333 73.9171C13.3333 72.4539 14.5195 71.2677 15.9827 71.2677V71.2677C17.4459 71.2677 18.6321 72.4539 18.6321 73.9171V79.7965C18.6321 81.2597 17.4459 82.4459 15.9827 82.4459V82.4459C14.5195 82.4459 13.3333 81.2597 13.3333 79.7965V73.9171Z" stroke="#264887" stroke-width="2" stroke-linecap="round" stroke-linejoin="round"/>
<path d="M39.2625 72.2677C44.5875 72.2677 48.9055 67.9538 48.9055 62.6309C48.9055 57.3079 44.5875 52.9941 39.2625 52.9941C33.9374 52.9941 29.6194 57.3079 29.6194 62.6309C29.6194 67.9538 33.9374 72.2677 39.2625 72.2677Z" stroke="#264887" stroke-width="2"/>
<path fill-rule="evenodd" clip-rule="evenodd" d="M40.6529 52.6428C40.6529 51.9716 40.1157 51.435 39.453 51.435C38.7857 51.435 38.2531 51.9758 38.2531 52.6428V58.6057C36.7202 59.111 35.6134 60.5581 35.6134 62.2644C35.6134 62.5926 35.6543 62.9113 35.7314 63.2155L30.493 66.8937C29.9485 67.2761 29.8158 68.0269 30.1959 68.5713C30.5787 69.1194 31.3253 69.2471 31.8695 68.865L37.0234 65.2461C37.6853 65.7891 38.5312 66.1148 39.453 66.1148C40.4767 66.1148 41.4068 65.7131 42.0952 65.0583L47.5165 68.865C48.061 69.2474 48.81 69.1156 49.1901 68.5712C49.5728 68.0231 49.4372 67.2758 48.893 66.8937L43.2369 62.9222C43.2736 62.7084 43.2927 62.4887 43.2927 62.2644C43.2927 60.5581 42.1859 59.111 40.6529 58.6057V52.6428Z" fill="#D22D27"/>
<defs>
<filter id="filter0_i" x="8.33334" y="31" width="62" height="64.6667" filterUnits="userSpaceOnUse" color-interpolation-filters="sRGB">
<feFlood flood-opacity="0" result="BackgroundImageFix"/>
<feBlend mode="normal" in="SourceGraphic" in2="BackgroundImageFix" result="shape"/>
<feColorMatrix in="SourceAlpha" type="matrix" values="0 0 0 0 0 0 0 0 0 0 0 0 0 0 0 0 0 0 127 0" result="hardAlpha"/>
<feOffset dy="-4"/>
<feComposite in2="hardAlpha" operator="arithmetic" k2="-1" k3="1"/>
<feColorMatrix type="matrix" values="0 0 0 0 0.760784 0 0 0 0 0.878431 0 0 0 0 0.956863 0 0 0 1 0"/>
<feBlend mode="normal" in2="shape" result="effect1_innerShadow"/>
</filter>
<filter id="filter1_i" x="58.5434" y="42.3876" width="58.4566" height="39.9996" filterUnits="userSpaceOnUse" color-interpolation-filters="sRGB">
<feFlood flood-opacity="0" result="BackgroundImageFix"/>
<feBlend mode="normal" in="SourceGraphic" in2="BackgroundImageFix" result="shape"/>
<feColorMatrix in="SourceAlpha" type="matrix" values="0 0 0 0 0 0 0 0 0 0 0 0 0 0 0 0 0 0 127 0" result="hardAlpha"/>
<feOffset dx="6" dy="-7"/>
<feComposite in2="hardAlpha" operator="arithmetic" k2="-1" k3="1"/>
<feColorMatrix type="matrix" values="0 0 0 0 0.423529 0 0 0 0 0.705882 0 0 0 0 0.894118 0 0 0 1 0"/>
<feBlend mode="normal" in2="shape" result="effect1_innerShadow"/>
</filter>
<filter id="filter2_d" x="43.9465" y="31.9465" width="68.8506" height="56.196" filterUnits="userSpaceOnUse" color-interpolation-filters="sRGB">
<feFlood flood-opacity="0" result="BackgroundImageFix"/>
<feColorMatrix in="SourceAlpha" type="matrix" values="0 0 0 0 0 0 0 0 0 0 0 0 0 0 0 0 0 0 127 0"/>
<feOffset dx="4" dy="4"/>
<feColorMatrix type="matrix" values="0 0 0 0 0 0 0 0 0 0 0 0 0 0 0 0 0 0 0.1 0"/>
<feBlend mode="normal" in2="BackgroundImageFix" result="effect1_dropShadow"/>
<feBlend mode="normal" in="SourceGraphic" in2="effect1_dropShadow" result="shape"/>
</filter>
<filter id="filter3_i" x="43.9465" y="31.9465" width="64.8506" height="52.196" filterUnits="userSpaceOnUse" color-interpolation-filters="sRGB">
<feFlood flood-opacity="0" result="BackgroundImageFix"/>
<feBlend mode="normal" in="SourceGraphic" in2="BackgroundImageFix" result="shape"/>
<feColorMatrix in="SourceAlpha" type="matrix" values="0 0 0 0 0 0 0 0 0 0 0 0 0 0 0 0 0 0 127 0" result="hardAlpha"/>
<feOffset dx="-7" dy="7"/>
<feComposite in2="hardAlpha" operator="arithmetic" k2="-1" k3="1"/>
<feColorMatrix type="matrix" values="0 0 0 0 0.709804 0 0 0 0 0.85098 0 0 0 0 0.945098 0 0 0 1 0"/>
<feBlend mode="normal" in2="shape" result="effect1_innerShadow"/>
</filter>
<filter id="filter4_i" x="14.8942" y="37" width="49.6887" height="49.6543" filterUnits="userSpaceOnUse" color-interpolation-filters="sRGB">
<feFlood flood-opacity="0" result="BackgroundImageFix"/>
<feBlend mode="normal" in="SourceGraphic" in2="BackgroundImageFix" result="shape"/>
<feColorMatrix in="SourceAlpha" type="matrix" values="0 0 0 0 0 0 0 0 0 0 0 0 0 0 0 0 0 0 127 0" result="hardAlpha"/>
<feOffset dx="6" dy="-6"/>
<feComposite in2="hardAlpha" operator="arithmetic" k2="-1" k3="1"/>
<feColorMatrix type="matrix" values="0 0 0 0 0.709804 0 0 0 0 0.85098 0 0 0 0 0.945098 0 0 0 1 0"/>
<feBlend mode="normal" in2="shape" result="effect1_innerShadow"/>
</filter>
<filter id="filter5_i" x="12.3333" y="42.7579" width="7.29874" height="13.1782" filterUnits="userSpaceOnUse" color-interpolation-filters="sRGB">
<feFlood flood-opacity="0" result="BackgroundImageFix"/>
<feBlend mode="normal" in="SourceGraphic" in2="BackgroundImageFix" result="shape"/>
<feColorMatrix in="SourceAlpha" type="matrix" values="0 0 0 0 0 0 0 0 0 0 0 0 0 0 0 0 0 0 127 0" result="hardAlpha"/>
<feOffset dx="3" dy="-4"/>
<feComposite in2="hardAlpha" operator="arithmetic" k2="-1" k3="1"/>
<feColorMatrix type="matrix" values="0 0 0 0 0.709804 0 0 0 0 0.85098 0 0 0 0 0.945098 0 0 0 1 0"/>
<feBlend mode="normal" in2="shape" result="effect1_innerShadow"/>
</filter>
<filter id="filter6_i" x="12.3333" y="70.2677" width="7.29874" height="13.1782" filterUnits="userSpaceOnUse" color-interpolation-filters="sRGB">
<feFlood flood-opacity="0" result="BackgroundImageFix"/>
<feBlend mode="normal" in="SourceGraphic" in2="BackgroundImageFix" result="shape"/>
<feColorMatrix in="SourceAlpha" type="matrix" values="0 0 0 0 0 0 0 0 0 0 0 0 0 0 0 0 0 0 127 0" result="hardAlpha"/>
<feOffset dx="3" dy="-4"/>
<feComposite in2="hardAlpha" operator="arithmetic" k2="-1" k3="1"/>
<feColorMatrix type="matrix" values="0 0 0 0 0.709804 0 0 0 0 0.85098 0 0 0 0 0.945098 0 0 0 1 0"/>
<feBlend mode="normal" in2="shape" result="effect1_innerShadow"/>
</filter>
</defs>
</svg>
