<?xml version="1.0" encoding="UTF-8" standalone="no"?>
<!-- Created with Inkscape (http://www.inkscape.org/) -->

<svg
   xmlns:osb="http://www.openswatchbook.org/uri/2009/osb"
   xmlns:dc="http://purl.org/dc/elements/1.1/"
   xmlns:cc="http://creativecommons.org/ns#"
   xmlns:rdf="http://www.w3.org/1999/02/22-rdf-syntax-ns#"
   xmlns:svg="http://www.w3.org/2000/svg"
   xmlns="http://www.w3.org/2000/svg"
   xmlns:sodipodi="http://sodipodi.sourceforge.net/DTD/sodipodi-0.dtd"
   xmlns:inkscape="http://www.inkscape.org/namespaces/inkscape"
   version="1.1"
   id="svg2"
   width="2419"
   height="2424"
   viewBox="0 0 2419 2424"
   sodipodi:docname="arcolinux.svg"
   inkscape:version="0.92.2 5c3e80d, 2017-08-06"
   inkscape:export-filename="/home/erik/Insync/Arcolinux/arcolinux.google-plus-beta.png"
   inkscape:export-xdpi="96"
   inkscape:export-ydpi="96">
  <metadata
     id="metadata8">
    <rdf:RDF>
      <cc:Work
         rdf:about="">
        <dc:format>image/svg+xml</dc:format>
        <dc:type
           rdf:resource="http://purl.org/dc/dcmitype/StillImage" />
        <dc:title />
      </cc:Work>
    </rdf:RDF>
  </metadata>
  <defs
     id="defs6">
    <linearGradient
       id="linearGradient2351"
       osb:paint="solid">
      <stop
         style="stop-color:#376ee5;stop-opacity:1;"
         offset="0"
         id="stop2349" />
    </linearGradient>
  </defs>
  <sodipodi:namedview
     pagecolor="#ffffff"
     bordercolor="#666666"
     borderopacity="1"
     objecttolerance="10"
     gridtolerance="10"
     guidetolerance="10"
     inkscape:pageopacity="0"
     inkscape:pageshadow="2"
     inkscape:window-width="1920"
     inkscape:window-height="1021"
     id="namedview4"
     showgrid="false"
     inkscape:zoom="0.097359735"
     inkscape:cx="-1702.1365"
     inkscape:cy="615.21622"
     inkscape:window-x="0"
     inkscape:window-y="0"
     inkscape:window-maximized="1"
     inkscape:current-layer="svg2"
     showguides="true"
     inkscape:guide-bbox="true">
    <sodipodi:guide
       position="6465.7119,4606.6272"
       orientation="1,0"
       id="guide940"
       inkscape:locked="false" />
  </sodipodi:namedview>
  <path
     style="fill:#6790eb;fill-opacity:1;stroke-width:9.51147747"
     d="m 216.57115,2116.6549 c 0,-6.4403 934.21895,-1783.54555 965.53705,-1836.67967 l 21.6358,-36.70785 23.6306,41.46351 c 12.997,22.80438 108.2443,204.10948 211.6603,402.89899 103.4161,198.79015 311.9533,598.46862 463.4157,888.17442 212.5359,406.5223 272.4558,528.5952 262.5462,534.8747 -7.0623,4.4752 -92.1697,8.2025 -189.1275,8.2831 l -176.2874,0.1427 -51.9881,-52.7157 c -130.4295,-132.2539 -358.398,-252.1576 -613.1656,-322.5042 l -114.1373,-31.5157 142.672,-7.1562 c 134.0283,-6.7224 285.2243,-2.1905 367.8887,11.0283 27.6297,4.4184 36.349,2.6082 36.349,-7.5466 0,-25.0877 -349.7382,-664.3869 -363.4634,-664.3869 -10.0027,0 -80.6061,123.0686 -354.6845,618.2457 -134.64074,243.2559 -245.5443,443.1853 -246.45279,444.2876 -4.0573,4.9234 -386.02876,14.6319 -386.02876,9.8107 z"
     id="path4559-6-7-5"
     inkscape:connector-curvature="0" />
</svg>
