<svg width="16" height="11" viewBox="0 0 16 11" fill="none" xmlns="http://www.w3.org/2000/svg">
    <path d="M11.9747 6.43169L8.59429 7.55725C8.3088 7.64988 8.00133 7.64988 7.71584 7.55725L4.33421 6.43169C4.24164 6.39979 4.14272 6.39076 4.0459 6.40539C3.94908 6.42002 3.85724 6.45787 3.77823 6.51571C3.69868 6.57294 3.63388 6.64828 3.58919 6.7355C3.54451 6.82273 3.52122 6.91933 3.52124 7.01733V8.36528C3.52188 8.6593 3.61341 8.94592 3.78327 9.1859C3.95314 9.42588 4.19304 9.60748 4.47012 9.70582L7.41313 10.7449C7.89301 10.9132 8.41588 10.9132 8.89576 10.7449L11.8412 9.70459C12.1181 9.60642 12.3578 9.425 12.5275 9.18522C12.6971 8.94543 12.7884 8.65902 12.7889 8.36528V7.01733C12.7889 6.91933 12.7656 6.82273 12.7209 6.7355C12.6762 6.64828 12.6114 6.57294 12.5319 6.51571C12.4527 6.45777 12.3606 6.41986 12.2636 6.40523C12.1666 6.3906 12.0674 6.39968 11.9747 6.43169Z" fill="#41536B"/>
    <path d="M16 3.02656C15.9999 2.89696 15.959 2.77067 15.8832 2.66557C15.8074 2.56046 15.7004 2.48187 15.5775 2.44092L8.34965 0.0316546C8.22293 -0.0105515 8.08595 -0.0105515 7.95923 0.0316546L0.731429 2.44092C0.518532 2.51193 0.333353 2.64808 0.202092 2.83012C0.0708303 3.01216 0.000132389 3.23086 0 3.45528V7.0383C0 7.28406 0.0976278 7.51975 0.271407 7.69353C0.445186 7.86731 0.68088 7.96494 0.926641 7.96494C1.1724 7.96494 1.4081 7.86731 1.58188 7.69353C1.75565 7.51975 1.85328 7.28406 1.85328 7.0383V4.41528C1.85339 4.36636 1.86508 4.31815 1.88739 4.2746C1.90969 4.23106 1.94199 4.19341 1.98163 4.16473C2.02127 4.13605 2.06714 4.11716 2.11548 4.1096C2.16382 4.10204 2.21326 4.10603 2.25977 4.12123L7.95923 6.02146C8.08584 6.0643 8.22304 6.0643 8.34965 6.02146L15.5775 3.61219C15.7004 3.57124 15.8074 3.49265 15.8832 3.38755C15.959 3.28245 15.9999 3.15616 16 3.02656Z" fill="#41536B"/>
</svg>
