<svg width="16" height="24" viewBox="0 0 16 24" fill="none" xmlns="http://www.w3.org/2000/svg">
    <path d="M0.499995 12C0.499591 11.6729 0.568955 11.3495 0.70346 11.0514C0.837964 10.7532 1.03452 10.4872 1.28 10.271L12.432 0.460012C12.8015 0.149921 13.2777 -0.00327872 13.7588 0.033171C14.2398 0.0696207 14.6875 0.292827 15.0061 0.655061C15.3247 1.0173 15.4889 1.48981 15.4637 1.97156C15.4384 2.45331 15.2257 2.90607 14.871 3.23301L5.119 11.812C5.09223 11.8355 5.07078 11.8644 5.05608 11.8968C5.04139 11.9292 5.03379 11.9644 5.03379 12C5.03379 12.0356 5.04139 12.0708 5.05608 12.1032C5.07078 12.1356 5.09223 12.1645 5.119 12.188L14.871 20.767C15.0596 20.9252 15.2146 21.1196 15.327 21.3386C15.4394 21.5576 15.5069 21.7969 15.5255 22.0423C15.5441 22.2878 15.5134 22.5345 15.4353 22.768C15.3572 23.0014 15.2332 23.2169 15.0706 23.4017C14.9081 23.5866 14.7102 23.737 14.4886 23.8443C14.267 23.9516 14.0263 24.0135 13.7804 24.0264C13.5346 24.0392 13.2887 24.0029 13.0571 23.9193C12.8255 23.8358 12.613 23.7068 12.432 23.54L1.284 13.732C1.03791 13.5155 0.840727 13.249 0.705552 12.9504C0.570377 12.6518 0.500306 12.3278 0.499995 12Z" fill="currentColor"/>
</svg>
