<svg width="12" height="12" viewBox="0 0 24 24" fill="none" xmlns="http://www.w3.org/2000/svg">
    <path d="M20.8042 4.33656C20.6244 4.20205 20.4203 4.10482 20.2035 4.05042C19.9867 3.99602 19.7615 3.98552 19.5407 4.01951C19.3199 4.05351 19.1078 4.13134 18.9167 4.24856C18.7255 4.36578 18.559 4.52008 18.4266 4.70265L10.3645 15.8097L5.23785 11.646C4.88437 11.3711 4.43888 11.2477 3.99687 11.3023C3.55485 11.3569 3.1515 11.5852 2.87328 11.9381C2.59506 12.291 2.4641 12.7404 2.50848 13.1902C2.55287 13.6399 2.76906 14.0541 3.11072 14.344L9.62004 19.6295C9.79992 19.7723 10.006 19.8773 10.2263 19.9384C10.4466 19.9995 10.6767 20.0153 10.9031 19.9851C11.1295 19.9549 11.3478 19.8792 11.545 19.7624C11.7423 19.6456 11.9146 19.4901 12.052 19.3049L21.1702 6.75139C21.3025 6.56846 21.398 6.36088 21.4511 6.14049C21.5043 5.9201 21.5142 5.69123 21.4802 5.46696C21.4462 5.24269 21.369 5.02743 21.253 4.83347C21.137 4.63951 20.9845 4.47065 20.8042 4.33656Z" fill="currentColor"/>
</svg>
