<svg width="57" height="55" viewBox="0 0 57 55" fill="none" xmlns="http://www.w3.org/2000/svg">
<path d="M55.8342 47.1668L32.8562 3.28553C32.4397 2.49086 31.8138 1.82527 31.0461 1.36088C30.2785 0.896492 29.3984 0.651001 28.5012 0.651001C27.6041 0.651001 26.724 0.896492 25.9563 1.36088C25.1887 1.82527 24.5627 2.49086 24.1463 3.28553L1.1658 47.1668C0.773258 47.9162 0.580729 48.7542 0.606834 49.5998C0.632938 50.4454 0.876793 51.27 1.31482 51.9938C1.75284 52.7175 2.37021 53.316 3.10723 53.7314C3.84424 54.1468 4.67597 54.3649 5.52197 54.3648H51.478C52.324 54.3649 53.1558 54.1468 53.8928 53.7314C54.6298 53.316 55.2472 52.7175 55.6852 51.9938C56.1232 51.27 56.3671 50.4454 56.3932 49.5998C56.4193 48.7542 56.2268 47.9162 55.8342 47.1668ZM26.0417 18.7067C26.0417 18.0547 26.3007 17.4294 26.7617 16.9684C27.2227 16.5073 27.848 16.2483 28.5 16.2483C29.152 16.2483 29.7773 16.5073 30.2383 16.9684C30.6993 17.4294 30.9583 18.0547 30.9583 18.7067V33.4567C30.9583 34.1087 30.6993 34.7339 30.2383 35.195C29.7773 35.656 29.152 35.915 28.5 35.915C27.848 35.915 27.2227 35.656 26.7617 35.195C26.3007 34.7339 26.0417 34.1087 26.0417 33.4567V18.7067ZM28.6229 47.0021H28.5541C27.5846 46.999 26.6539 46.6212 25.9566 45.9476C25.2592 45.2741 24.8493 44.3571 24.8125 43.3883C24.7948 42.9065 24.8733 42.426 25.0434 41.9749C25.2135 41.5237 25.4718 41.111 25.8032 40.7608C26.1346 40.4106 26.5325 40.13 26.9736 39.9354C27.4146 39.7407 27.8901 39.6359 28.3722 39.6271H28.441C29.4103 39.6282 30.3415 40.0043 31.0399 40.6765C31.7382 41.3487 32.1494 42.2649 32.1875 43.2334C32.2066 43.7164 32.1289 44.1982 31.9591 44.6507C31.7893 45.1031 31.5307 45.5171 31.1986 45.8682C30.8665 46.2193 30.4676 46.5005 30.0253 46.6952C29.5829 46.8899 29.1061 46.9943 28.6229 47.0021Z" fill="#D32D27"/>
</svg>
