<svg width="160" height="160" viewBox="0 0 160 160" fill="none" xmlns="http://www.w3.org/2000/svg">
<path fill-rule="evenodd" clip-rule="evenodd" d="M80 160C124.183 160 160 124.183 160 80C160 35.8172 124.183 0 80 0C35.8172 0 0 35.8172 0 80C0 124.183 35.8172 160 80 160Z" fill="#ECF5FB"/>
<rect width="5.33333" height="5.33333" transform="matrix(0.707106 -0.707107 0.707106 0.707107 126.007 95.1111)" stroke="#B5D9F1" stroke-width="2" stroke-linecap="round" stroke-linejoin="round"/>
<rect x="29.3333" y="40" width="5.33333" height="5.33333" stroke="#B5D9F1" stroke-width="2" stroke-linecap="round" stroke-linejoin="round"/>
<path d="M110.404 30.4044L114.558 34.558" stroke="#B5D9F1" stroke-width="2" stroke-linecap="round" stroke-linejoin="round"/>
<path d="M114.412 30.4044L110.258 34.558" stroke="#B5D9F1" stroke-width="2" stroke-linecap="round" stroke-linejoin="round"/>
<path d="M109.567 81.6724C109.167 82.1701 109.583 84.6915 109.567 84.5406H118.582C118.554 83.4815 118.739 82.9445 119.401 82.0822C121.831 78.5364 123.18 76.2203 125.547 71.4288C126.998 67.9669 127.139 66.5916 125.547 65.6924C125.387 65.6065 125.298 65.5065 125.138 65.6924C123.481 69.4848 122.338 71.5701 119.401 75.1165C119.199 74.5324 117.762 73.8873 117.352 74.297C116.943 74.7068 109.968 81.1747 109.567 81.6724Z" fill="#B5D9F1" stroke="#264887" stroke-width="1.79"/>
<path d="M52.658 80.7582C53.0944 81.2529 52.6407 83.7595 52.658 83.6095H42.8347C42.8644 82.5566 42.6632 82.0227 41.9417 81.1655C39.2934 77.6406 37.824 75.3381 35.2439 70.5749C33.6634 67.1334 33.509 65.7661 35.2439 64.8723C35.4183 64.7869 35.516 64.6875 35.6905 64.8723C37.4961 68.6423 38.7408 70.7153 41.9417 74.2409C42.1615 73.6602 43.7277 73.0189 44.1742 73.4262C44.6208 73.8336 52.2216 80.2634 52.658 80.7582Z" fill="#B5D9F1" stroke="#264887" stroke-width="1.79"/>
<g filter="url(#filter0_i)">
<path d="M55.3067 99.1862C64.7308 90.1718 96.281 90.9913 105.705 99.1862C106.38 99.7876 106.707 100.151 107.232 100.825L107.344 100.006L109.393 84.0257H119.227V117.625C116.358 126.229 108.164 126.229 104.476 117.625C103.253 116.324 102.782 116.659 102.017 117.625V125H59.4041V117.625C58.6978 116.976 58.346 117.046 57.7651 117.625C53.258 126.229 46.7021 125.41 42.1949 117.625V116.805V83.6159H52.4385L55.3067 108.61L54.4872 100.006L55.3067 99.1862Z" fill="white"/>
</g>
<path d="M106.115 109.02L107.232 100.825M107.232 100.825L107.344 100.006L109.393 84.0257H119.227V117.625C116.358 126.229 108.164 126.229 104.476 117.625C103.253 116.324 102.782 116.659 102.017 117.625V125H59.4041V117.625C58.6978 116.976 58.346 117.046 57.7651 117.625C53.258 126.229 46.7021 125.41 42.1949 117.625V116.805V83.6159H52.4385L55.3067 108.61L54.4872 100.006L55.3067 99.1862C64.7308 90.1718 96.281 90.9913 105.705 99.1862C106.38 99.7876 106.707 100.151 107.232 100.825Z" stroke="#264887" stroke-width="1.79259" stroke-linecap="round" stroke-dasharray="215.11 6.27 0.9 3.59"/>
<path d="M87.1911 99.1862C87.1911 102.262 84.5251 104.847 81.1205 104.847C77.7159 104.847 75.0498 102.262 75.0498 99.1862C75.0498 96.1101 77.7159 93.5253 81.1205 93.5253C84.5251 93.5253 87.1911 96.1101 87.1911 99.1862Z" fill="#B5D9F1" stroke="#264887" stroke-width="1.79"/>
<g filter="url(#filter1_i)">
<ellipse cx="79.4097" cy="70.86" rx="24.135" ry="29.0374" transform="rotate(-8.58805 79.4097 70.86)" fill="#B5D9F1"/>
</g>
<path d="M102.388 67.3898C104.733 82.918 96.1561 96.7912 83.612 98.6856C71.0679 100.58 58.7767 89.8584 56.4316 74.3303C54.0865 58.8021 62.6633 44.9289 75.2074 43.0345C87.7515 41.14 100.043 51.8617 102.388 67.3898Z" stroke="#264887" stroke-width="1.79259"/>
<path d="M71.2866 68.4554C67.7344 67.2743 66.1874 67.6053 63.9113 69.2749C62.6944 69.9355 61.7722 70.0175 61.8626 68.4554C62.5422 66.446 63.9113 65.5872 67.1892 65.1775C69.6305 65.1695 71.1556 65.5575 72.5159 67.2262C72.6038 67.6713 72.6088 67.9763 72.5159 68.1751C72.3693 68.4886 71.9792 68.5378 71.2866 68.4554Z" fill="#264887"/>
<path d="M94.2384 65.5873C90.6862 64.4062 89.1391 64.7372 86.863 66.4068C85.6461 67.0675 84.7239 67.1494 84.8143 65.5873C85.4939 63.5779 86.863 62.7192 90.1409 62.3094C92.5822 62.3015 94.1074 62.6894 95.4676 64.3581C95.5555 64.8032 95.5605 65.1083 95.4676 65.307C95.321 65.6205 94.9309 65.6698 94.2384 65.5873Z" fill="#264887"/>
<circle cx="68.1405" cy="74.3236" r="3" fill="#264887"/>
<circle cx="91.0861" cy="71.0457" r="3" fill="#264887"/>
<path d="M82.8518 78.7052L78.3585 79.0591C77.95 79.0913 78.8701 80.6994 80.5618 80.9406C82.1561 80.659 83.2602 78.673 82.8518 78.7052Z" fill="#264887"/>
<path d="M76.68 88.6075C78.495 92.1771 84.2084 91.5659 85.2582 87.8566C85.1662 86.5708 84.1389 86.1935 80.8517 86.0911C77.1779 86.478 76.1872 87.0066 76.68 88.6075Z" fill="#264887"/>
<path d="M106.115 72.307C106.115 69.8486 104.148 68.8652 104.148 68.8652L102.837 76.2406C102.837 76.2406 106.115 74.7655 106.115 72.307Z" fill="#B5D9F1" stroke="#264887" stroke-width="1.79"/>
<path d="M54.04 78.0632C55.315 80.1652 57.5066 79.986 57.5066 79.986L54.8026 73C54.8026 73 52.765 75.9612 54.04 78.0632Z" fill="#B5D9F1" stroke="#264887" stroke-width="1.79"/>
<g filter="url(#filter2_i)">
<path d="M53.6677 72.9626L56.9456 76.6503C55.9358 66.576 59.4041 58.6216 61.4528 58.6216C63.5015 58.6216 84.8082 57.8021 93.8225 54.5242C98.2327 58.6263 101.165 62.1879 102.837 73.7821L104.476 68.4554C104.252 57.6388 103.003 52.6976 99.1492 45.5098C92.0499 36.8487 87.0295 34.0625 74.9743 35.2662C58.1749 37.3149 51.3007 45.7881 53.6677 72.9626Z" fill="#264887"/>
</g>
<path d="M53.6677 72.9626L56.9456 76.6503C55.9358 66.576 59.4041 58.6216 61.4528 58.6216C63.5015 58.6216 84.8082 57.8021 93.8225 54.5242C98.2327 58.6263 101.165 62.1879 102.837 73.7821L104.476 68.4554C104.252 57.6388 103.003 52.6976 99.1492 45.5098C92.0499 36.8487 87.0295 34.0625 74.9743 35.2662C58.1749 37.3149 51.3007 45.7881 53.6677 72.9626Z" stroke="#264887"/>
<path d="M49 135.556H112.111" stroke="#B5D9F1" stroke-width="1.79259" stroke-linecap="round" stroke-linejoin="round"/>
<defs>
<filter id="filter0_i" x="41.2986" y="82.7196" width="78.8243" height="43.1767" filterUnits="userSpaceOnUse" color-interpolation-filters="sRGB">
<feFlood flood-opacity="0" result="BackgroundImageFix"/>
<feBlend mode="normal" in="SourceGraphic" in2="BackgroundImageFix" result="shape"/>
<feColorMatrix in="SourceAlpha" type="matrix" values="0 0 0 0 0 0 0 0 0 0 0 0 0 0 0 0 0 0 127 0" result="hardAlpha"/>
<feOffset dx="-5.37778" dy="-6.27407"/>
<feComposite in2="hardAlpha" operator="arithmetic" k2="-1" k3="1"/>
<feColorMatrix type="matrix" values="0 0 0 0 0.858824 0 0 0 0 0.92549 0 0 0 0 0.964706 0 0 0 1 0"/>
<feBlend mode="normal" in2="shape" result="effect1_innerShadow"/>
</filter>
<filter id="filter1_i" x="51.2092" y="38.5442" width="56.401" height="64.6318" filterUnits="userSpaceOnUse" color-interpolation-filters="sRGB">
<feFlood flood-opacity="0" result="BackgroundImageFix"/>
<feBlend mode="normal" in="SourceGraphic" in2="BackgroundImageFix" result="shape"/>
<feColorMatrix in="SourceAlpha" type="matrix" values="0 0 0 0 0 0 0 0 0 0 0 0 0 0 0 0 0 0 127 0" result="hardAlpha"/>
<feOffset dx="5.37778" dy="-4.48148"/>
<feComposite in2="hardAlpha" operator="arithmetic" k2="-1" k3="1"/>
<feColorMatrix type="matrix" values="0 0 0 0 0.564706 0 0 0 0 0.776471 0 0 0 0 0.921569 0 0 0 1 0"/>
<feBlend mode="normal" in2="shape" result="effect1_innerShadow"/>
</filter>
<filter id="filter2_i" x="52.7143" y="34.5" width="52.2631" height="43.6357" filterUnits="userSpaceOnUse" color-interpolation-filters="sRGB">
<feFlood flood-opacity="0" result="BackgroundImageFix"/>
<feBlend mode="normal" in="SourceGraphic" in2="BackgroundImageFix" result="shape"/>
<feColorMatrix in="SourceAlpha" type="matrix" values="0 0 0 0 0 0 0 0 0 0 0 0 0 0 0 0 0 0 127 0" result="hardAlpha"/>
<feOffset dx="4" dy="-1"/>
<feComposite in2="hardAlpha" operator="arithmetic" k2="-1" k3="1"/>
<feColorMatrix type="matrix" values="0 0 0 0 0.0729167 0 0 0 0 0.200709 0 0 0 0 0.4375 0 0 0 1 0"/>
<feBlend mode="normal" in2="shape" result="effect1_innerShadow"/>
</filter>
</defs>
</svg>
