<svg width="10" height="8" viewBox="0 0 10 8" fill="none" xmlns="http://www.w3.org/2000/svg">
<path d="M5.0001 7.125C4.86382 7.12517 4.72906 7.09627 4.60483 7.04022C4.4806 6.98418 4.36975 6.90228 4.27969 6.8L0.191771 2.15333C0.0625661 1.99936 -0.00126715 1.80094 0.0139202 1.60051C0.0291076 1.40008 0.12211 1.21354 0.273041 1.08079C0.423972 0.948038 0.620852 0.879606 0.821582 0.890126C1.02231 0.900646 1.21096 0.989284 1.34719 1.13709L4.92177 5.20042C4.93155 5.21157 4.94359 5.22051 4.9571 5.22663C4.97061 5.23275 4.98527 5.23592 5.0001 5.23592C5.01494 5.23592 5.0296 5.23275 5.04311 5.22663C5.05661 5.22051 5.06866 5.21157 5.07844 5.20042L8.65302 1.13709C8.71895 1.05851 8.79992 0.993912 8.89118 0.947081C8.98243 0.900249 9.08213 0.872132 9.18441 0.864383C9.28668 0.856633 9.38948 0.869406 9.48675 0.901952C9.58402 0.934498 9.6738 0.98616 9.75082 1.0539C9.82784 1.12164 9.89053 1.2041 9.93523 1.29642C9.97992 1.38874 10.0057 1.48906 10.0111 1.59149C10.0165 1.69392 10.0013 1.79639 9.96649 1.89287C9.93169 1.98936 9.87795 2.07791 9.80844 2.15333L5.72177 6.79833C5.63154 6.90087 5.52053 6.98303 5.3961 7.03935C5.27167 7.09567 5.13668 7.12487 5.0001 7.125Z" fill="#3B70D4"/>
</svg>
