<svg width="13" height="13" viewBox="0 0 13 13" fill="none" xmlns="http://www.w3.org/2000/svg">
    <path fill-rule="evenodd" clip-rule="evenodd" d="M1.5 0C0.671573 0 0 0.671573 0 1.5V7V9.5V12C0 13 0.5 13 1.5 12L2.5 11H11.5C12.3284 11 13 10.3284 13 9.5V1.5C13 0.671573 12.3284 0 11.5 0H1.5ZM7.25 8.5C7.25 8.91421 6.91421 9.25 6.5 9.25C6.08579 9.25 5.75 8.91421 5.75 8.5C5.75 8.08579 6.08579 7.75 6.5 7.75C6.91421 7.75 7.25 8.08579 7.25 8.5ZM6.5 1.5C6.22386 1.5 6 1.72386 6 2V6.5C6 6.77614 6.22386 7 6.5 7C6.77614 7 7 6.77614 7 6.5V2C7 1.72386 6.77614 1.5 6.5 1.5Z" fill="#41536B"/>
</svg>
