<svg width="89" height="81" viewBox="0 0 89 81" fill="none" xmlns="http://www.w3.org/2000/svg">
<path fill-rule="evenodd" clip-rule="evenodd" d="M67.414 68.0993C69.2444 72.3819 67.3501 77.3806 63.1755 79.2578C59.0063 81.138 54.1429 79.1893 52.3155 74.9039C51.8239 73.7626 51.6239 72.5643 51.6378 71.3888L65.3533 65.2118C66.2032 65.9878 66.9226 66.9522 67.4142 68.0991L67.414 68.0993Z" stroke="#1D3049" stroke-width="1.78" stroke-linecap="round" stroke-linejoin="round" stroke-dasharray="316.21 7.91 2.37 3.16"/>
<path fill-rule="evenodd" clip-rule="evenodd" d="M23.2166 44.9865C19.2925 35.2088 21.2897 25.8882 27.1547 19.7928C26.9124 19.4274 26.6673 19.0842 26.487 18.663C24.6307 14.4784 26.5547 9.59951 30.7829 7.76339C35.0112 5.92498 39.9436 7.83592 41.7998 12.0205C41.9745 12.4166 42.0703 12.8267 42.1745 13.234C50.9638 13.0582 59.6399 18.3587 64.1752 27.3723C64.1752 27.3723 70.8908 42.6434 78.2656 43.8567C78.4938 43.8679 82.4488 43.9655 83.6573 46.8222C84.7954 49.5226 82.4516 53.1381 78.3783 54.8758L34.245 73.712C30.1745 75.45 25.6785 74.7525 24.7151 71.9879C23.7658 69.2624 25.8503 66.7265 26.0475 66.5033C30.2138 60.1651 23.2166 44.9865 23.2166 44.9865Z" stroke="#1D3049" stroke-width="1.78" stroke-linecap="round" stroke-linejoin="round"/>
<path fill-rule="evenodd" clip-rule="evenodd" d="M32.5537 22.6038C25.6006 26.1465 22.8371 34.7104 26.3946 41.6923C26.704 42.2996 27.4458 42.5423 28.0507 42.2342C28.6556 41.926 28.8952 41.1832 28.5858 40.5758C25.6459 34.806 27.9282 27.732 33.6748 24.8039C34.2796 24.4958 34.5193 23.753 34.2098 23.1456C33.9004 22.5383 33.1586 22.2956 32.5537 22.6038Z" fill="#1D3049"/>
<path fill-rule="evenodd" clip-rule="evenodd" d="M12.8562 36.9515C12.5432 36.8179 12.2077 36.8251 11.9138 36.9439C11.6228 37.0614 11.3734 37.2905 11.2411 37.6041C9.01779 42.8718 11.4883 48.9864 16.7466 51.2305C17.3726 51.4978 18.0941 51.2063 18.3587 50.5792C18.6234 49.9521 18.3307 49.2276 17.7047 48.9604C13.694 47.2483 11.8114 42.5887 13.5072 38.5713C13.7749 37.943 13.4822 37.2186 12.8562 36.9514L12.8562 36.9515Z" fill="#1D3049"/>
<path fill-rule="evenodd" clip-rule="evenodd" d="M15.7216 58.8401C16.3476 59.1073 17.0691 58.8158 17.3337 58.1887C17.5984 57.5616 17.3057 56.8372 16.6797 56.57C8.22009 52.9586 4.24648 43.1236 7.82319 34.6493C8.08787 34.0222 7.79517 33.2977 7.16916 33.0305C6.85615 32.8969 6.52063 32.9042 6.2267 33.0229C5.93574 33.1405 5.68637 33.3695 5.55403 33.6831C1.44976 43.4073 6.00987 54.694 15.7215 58.8399L15.7216 58.8401Z" fill="#1D3049"/>
<path fill-rule="evenodd" clip-rule="evenodd" d="M75.7606 24.9924C76.0875 25.0869 76.4197 25.0388 76.6969 24.8851C76.9714 24.733 77.191 24.4752 77.2841 24.1479C78.8489 18.6485 75.6517 12.8805 70.1591 11.2939C69.5052 11.1049 68.8246 11.4822 68.6383 12.1369C68.452 12.7916 68.8308 13.475 69.4847 13.6639C73.6742 14.8745 76.1106 19.2699 74.917 23.464C74.7279 24.1202 75.1068 24.8036 75.7607 24.9925L75.7606 24.9924Z" fill="#1D3049"/>
<path fill-rule="evenodd" clip-rule="evenodd" d="M70.2489 3.61618C69.5949 3.42722 68.9143 3.80448 68.7281 4.45915C68.5418 5.11384 68.9206 5.79722 69.5745 5.98615C78.4112 8.53959 83.5538 17.817 81.0365 26.6641C80.8502 27.3188 81.229 28.0022 81.8829 28.1911C82.2099 28.2856 82.542 28.2375 82.8193 28.0838C83.0937 27.9316 83.3133 27.6739 83.4065 27.3466C86.2951 17.1946 80.3934 6.54779 70.2489 3.61632L70.2489 3.61618Z" fill="#1D3049"/>
</svg>
