<svg width="24" height="24" viewBox="0 0 24 24" fill="none" xmlns="http://www.w3.org/2000/svg">
        <path d="M19.452 7.5H4.547C4.47737 7.49972 4.40845 7.51398 4.34466 7.54188C4.28087 7.56977 4.2236 7.61068 4.17653 7.66198C4.12946 7.71329 4.09363 7.77386 4.07132 7.83982C4.04902 7.90577 4.04073 7.97566 4.047 8.045L5.334 22.181C5.37917 22.6781 5.60858 23.1403 5.97716 23.4769C6.34575 23.8135 6.82686 24.0001 7.326 24H16.673C17.1721 24.0001 17.6532 23.8135 18.0218 23.4769C18.3904 23.1403 18.6198 22.6781 18.665 22.181L19.95 8.045C19.9562 7.97586 19.9479 7.90619 19.9257 7.84042C19.9035 7.77466 19.8678 7.71423 19.821 7.663C19.7742 7.6117 19.7172 7.5707 19.6537 7.54264C19.5901 7.51458 19.5215 7.50005 19.452 7.5ZM10.252 20.5C10.252 20.6989 10.173 20.8897 10.0323 21.0303C9.89168 21.171 9.70091 21.25 9.502 21.25C9.30308 21.25 9.11232 21.171 8.97167 21.0303C8.83102 20.8897 8.752 20.6989 8.752 20.5V11.5C8.752 11.3011 8.83102 11.1103 8.97167 10.9697C9.11232 10.829 9.30308 10.75 9.502 10.75C9.70091 10.75 9.89168 10.829 10.0323 10.9697C10.173 11.1103 10.252 11.3011 10.252 11.5V20.5ZM15.252 20.5C15.252 20.6989 15.173 20.8897 15.0323 21.0303C14.8917 21.171 14.7009 21.25 14.502 21.25C14.3031 21.25 14.1123 21.171 13.9717 21.0303C13.831 20.8897 13.752 20.6989 13.752 20.5V11.5C13.752 11.3011 13.831 11.1103 13.9717 10.9697C14.1123 10.829 14.3031 10.75 14.502 10.75C14.7009 10.75 14.8917 10.829 15.0323 10.9697C15.173 11.1103 15.252 11.3011 15.252 11.5V20.5Z" fill="currentColor"/>
        <path d="M22 4H17.25C17.1837 4 17.1201 3.97366 17.0732 3.92678C17.0263 3.87989 17 3.8163 17 3.75V2.5C17 1.83696 16.7366 1.20107 16.2678 0.732233C15.7989 0.263392 15.163 0 14.5 0L9.5 0C8.83696 0 8.20107 0.263392 7.73223 0.732233C7.26339 1.20107 7 1.83696 7 2.5V3.75C7 3.8163 6.97366 3.87989 6.92678 3.92678C6.87989 3.97366 6.8163 4 6.75 4H2C1.73478 4 1.48043 4.10536 1.29289 4.29289C1.10536 4.48043 1 4.73478 1 5C1 5.26522 1.10536 5.51957 1.29289 5.70711C1.48043 5.89464 1.73478 6 2 6H22C22.2652 6 22.5196 5.89464 22.7071 5.70711C22.8946 5.51957 23 5.26522 23 5C23 4.73478 22.8946 4.48043 22.7071 4.29289C22.5196 4.10536 22.2652 4 22 4ZM9 3.75V2.5C9 2.36739 9.05268 2.24021 9.14645 2.14645C9.24021 2.05268 9.36739 2 9.5 2H14.5C14.6326 2 14.7598 2.05268 14.8536 2.14645C14.9473 2.24021 15 2.36739 15 2.5V3.75C15 3.8163 14.9737 3.87989 14.9268 3.92678C14.8799 3.97366 14.8163 4 14.75 4H9.25C9.1837 4 9.12011 3.97366 9.07322 3.92678C9.02634 3.87989 9 3.8163 9 3.75Z" fill="currentColor"/>

</svg>
