<svg height="16" width="26" viewBox="0 0 26 16" fill="none" xmlns="http://www.w3.org/2000/svg">
    <path transform="rotate(90 12.52522659301758,8.215335845947266)" fill="currentColor" d="m5.009838,8.186945c-0.00041,-0.3271 0.06896,-0.6505 0.20346,-0.9486c0.1345,-0.2982 0.33106,-0.5642 0.57654,-0.7804l11.152,-9.81099c0.3695,-0.31009 0.8457,-0.46329 1.3268,-0.42684c0.481,0.03645 0.9287,0.25966 1.2473,0.62189c0.3186,0.36224 0.4828,0.83475 0.4576,1.3165c-0.0253,0.48175 -0.238,0.93451 -0.5927,1.26145l-9.752,8.57899c-0.02677,0.0235 -0.04822,0.0524 -0.06292,0.0848c-0.01469,0.0324 -0.02229,0.0676 -0.02229,0.1032c0,0.0356 0.0076,0.0708 0.02229,0.1032c0.0147,0.0324 0.03615,0.0613 0.06292,0.0848l9.752,8.579c0.1886,0.1582 0.3436,0.3526 0.456,0.5716c0.1124,0.219 0.1799,0.4583 0.1985,0.7037c0.0186,0.2455 -0.0121,0.4922 -0.0902,0.7257c-0.0781,0.2334 -0.2021,0.4489 -0.3647,0.6337c-0.1625,0.1849 -0.3604,0.3353 -0.582,0.4426c-0.2216,0.1073 -0.4623,0.1692 -0.7082,0.1821c-0.2458,0.0128 -0.4917,-0.0235 -0.7233,-0.1071c-0.2316,-0.0835 -0.4441,-0.2125 -0.6251,-0.3793l-11.148,-9.808c-0.24609,-0.2165 -0.44327,-0.483 -0.57845,-0.7816c-0.13517,-0.2986 -0.20524,-0.6226 -0.20555,-0.9504z"/>
</svg>
