<svg width="16" height="16" viewBox="0 0 16 16" fill="none" xmlns="http://www.w3.org/2000/svg">
    <g clip-path="url(#icon-download_svg__clip0)">
        <path d="M15.1114 11.292C14.8971 11.292 14.6915 11.3771 14.54 11.5287C14.3885 11.6802 14.3034 11.8857 14.3034 12.1V13.3367C14.303 13.6143 14.1925 13.8804 13.9962 14.0766C13.7998 14.2728 13.5336 14.3832 13.256 14.3833H2.74402C2.46642 14.3832 2.20023 14.2728 2.00388 14.0766C1.80752 13.8804 1.69704 13.6143 1.69669 13.3367V12.1C1.69669 11.8857 1.61156 11.6802 1.46003 11.5287C1.3085 11.3771 1.10298 11.292 0.888688 11.292C0.674393 11.292 0.468876 11.3771 0.317346 11.5287C0.165817 11.6802 0.0806885 11.8857 0.0806885 12.1V13.3367C0.0806879 14.0433 0.361182 14.7211 0.860558 15.2211C1.35993 15.7211 2.03736 16.0024 2.74402 16.0033H13.256C13.9633 16.0033 14.6415 15.7224 15.1416 15.2223C15.6417 14.7222 15.9227 14.0439 15.9227 13.3367V12.1C15.9227 11.9936 15.9017 11.8883 15.8609 11.79C15.8201 11.6918 15.7602 11.6025 15.6849 11.5275C15.6095 11.4524 15.52 11.393 15.4216 11.3525C15.3232 11.3121 15.2177 11.2916 15.1114 11.292Z" fill="currentColor"/>
        <path d="M7.99998 0C7.65715 0 7.32835 0.136191 7.08593 0.378613C6.84351 0.621035 6.70732 0.94983 6.70732 1.29267V7.33667C6.70732 7.38087 6.68976 7.42326 6.6585 7.45452C6.62725 7.48577 6.58485 7.50333 6.54065 7.50333H4.76798C4.64398 7.50338 4.5226 7.53909 4.41832 7.60619C4.31404 7.67329 4.23125 7.76896 4.17982 7.8818C4.12839 7.99464 4.11049 8.11988 4.12825 8.24261C4.14601 8.36534 4.19868 8.48037 4.27999 8.574L7.51198 12.2913C7.57263 12.3612 7.64758 12.4173 7.73178 12.4557C7.81597 12.4942 7.90744 12.514 7.99998 12.514C8.09253 12.514 8.184 12.4942 8.26819 12.4557C8.35239 12.4173 8.42734 12.3612 8.48799 12.2913L11.72 8.574C11.8013 8.48037 11.854 8.36534 11.8717 8.24261C11.8895 8.11988 11.8716 7.99464 11.8201 7.8818C11.7687 7.76896 11.6859 7.67329 11.5816 7.60619C11.4774 7.53909 11.356 7.50338 11.232 7.50333H9.45932C9.41511 7.50333 9.37272 7.48577 9.34147 7.45452C9.31021 7.42326 9.29265 7.38087 9.29265 7.33667V1.29267C9.29265 0.94983 9.15646 0.621035 8.91404 0.378613C8.67162 0.136191 8.34282 0 7.99998 0Z" fill="currentColor"/>
    </g>
    <defs>
        <clipPath id="icon-download_svg__clip0">
            <rect width="16" height="16" fill="white"/>
        </clipPath>
    </defs>
</svg>
