<svg width="40" height="40" viewBox="0 0 40 40" fill="none" xmlns="http://www.w3.org/2000/svg">
<circle cx="20" cy="20" r="20" fill="#EDF2FB"/>
<g clip-path="url(#clip0)">
<path d="M17.5 12.75H21.5C21.6326 12.75 21.7598 12.6973 21.8536 12.6036C21.9473 12.5098 22 12.3826 22 12.25V11.75C22 11.087 21.7366 10.4511 21.2678 9.98223C20.7989 9.51339 20.163 9.25 19.5 9.25C18.837 9.25 18.2011 9.51339 17.7322 9.98223C17.2634 10.4511 17 11.087 17 11.75V12.25C17 12.3826 17.0527 12.5098 17.1464 12.6036C17.2402 12.6973 17.3674 12.75 17.5 12.75Z" fill="#264887"/>
<path d="M13 30.75C14.1046 30.75 15 29.8546 15 28.75C15 27.6454 14.1046 26.75 13 26.75C11.8954 26.75 11 27.6454 11 28.75C11 29.8546 11.8954 30.75 13 30.75Z" fill="#264887"/>
<path d="M31 14.25H17.5C17.3674 14.25 17.2402 14.3027 17.1465 14.3964C17.0527 14.4902 17 14.6174 17 14.75V15.25C17 15.3826 16.9473 15.5098 16.8536 15.6036C16.7598 15.6973 16.6326 15.75 16.5 15.75H13.589C13.218 15.754 12.8552 15.8595 12.5398 16.055C12.2245 16.2504 11.9686 16.5285 11.8 16.859L9.58501 21.859C9.57044 21.9067 9.55973 21.9556 9.55301 22.005L8.73301 22.825C8.5 23.0568 8.31524 23.3325 8.18943 23.6361C8.06361 23.9398 7.99923 24.2653 8.00001 24.594V28.25C8.00001 28.5152 8.10536 28.7696 8.2929 28.9571C8.48044 29.1446 8.73479 29.25 9.00001 29.25C9.13262 29.25 9.25979 29.1973 9.35356 29.1036C9.44733 29.0098 9.50001 28.8826 9.50001 28.75C9.50001 27.8217 9.86876 26.9315 10.5251 26.2751C11.1815 25.6187 12.0717 25.25 13 25.25C13.9283 25.25 14.8185 25.6187 15.4749 26.2751C16.1313 26.9315 16.5 27.8217 16.5 28.75V28.761C16.5 28.8936 16.5527 29.0208 16.6465 29.1146C16.7402 29.2083 16.8674 29.261 17 29.261L23 29.246C23.1326 29.246 23.2598 29.1933 23.3536 29.0996C23.4473 29.0058 23.5 28.8786 23.5 28.746C23.5 27.8177 23.8688 26.9275 24.5251 26.2711C25.1815 25.6147 26.0718 25.246 27 25.246C27.9283 25.246 28.8185 25.6147 29.4749 26.2711C30.1313 26.9275 30.5 27.8177 30.5 28.746C30.5 28.8786 30.5527 29.0058 30.6465 29.0996C30.7402 29.1933 30.8674 29.246 31 29.246C31.2652 29.246 31.5196 29.1406 31.7071 28.9531C31.8947 28.7656 32 28.5112 32 28.246V15.246C31.9989 14.9815 31.8931 14.7281 31.7057 14.5415C31.5183 14.3548 31.2645 14.25 31 14.25ZM17 20.766C17 20.8986 16.9473 21.0258 16.8536 21.1196C16.7598 21.2133 16.6326 21.266 16.5 21.266H12.8C12.717 21.266 12.6353 21.2453 12.5623 21.2058C12.4893 21.1663 12.4273 21.1092 12.3819 21.0398C12.3364 20.9703 12.309 20.8906 12.302 20.8079C12.2951 20.7252 12.3088 20.6421 12.342 20.566L13.454 18.05C13.4929 17.9609 13.5569 17.885 13.6383 17.8317C13.7196 17.7785 13.8148 17.7501 13.912 17.75H16.5C16.6326 17.75 16.7598 17.8027 16.8536 17.8964C16.9473 17.9902 17 18.1174 17 18.25V20.766ZM27.5 21.25C27.5 21.3826 27.4473 21.5098 27.3536 21.6036C27.2598 21.6973 27.1326 21.75 27 21.75H26C25.8674 21.75 25.7402 21.8027 25.6465 21.8964C25.5527 21.9902 25.5 22.1174 25.5 22.25V23.25C25.5 23.3826 25.4473 23.5098 25.3536 23.6036C25.2598 23.6973 25.1326 23.75 25 23.75H24C23.8674 23.75 23.7402 23.6973 23.6465 23.6036C23.5527 23.5098 23.5 23.3826 23.5 23.25V22.25C23.5 22.1174 23.4473 21.9902 23.3536 21.8964C23.2598 21.8027 23.1326 21.75 23 21.75H22C21.8674 21.75 21.7402 21.6973 21.6465 21.6036C21.5527 21.5098 21.5 21.3826 21.5 21.25V20.25C21.5 20.1174 21.5527 19.9902 21.6465 19.8964C21.7402 19.8027 21.8674 19.75 22 19.75H23C23.1326 19.75 23.2598 19.6973 23.3536 19.6036C23.4473 19.5098 23.5 19.3826 23.5 19.25V18.25C23.5 18.1174 23.5527 17.9902 23.6465 17.8964C23.7402 17.8027 23.8674 17.75 24 17.75H25C25.1326 17.75 25.2598 17.8027 25.3536 17.8964C25.4473 17.9902 25.5 18.1174 25.5 18.25V19.25C25.5 19.3826 25.5527 19.5098 25.6465 19.6036C25.7402 19.6973 25.8674 19.75 26 19.75H27C27.1326 19.75 27.2598 19.8027 27.3536 19.8964C27.4473 19.9902 27.5 20.1174 27.5 20.25V21.25Z" fill="#264887"/>
<path d="M27 30.75C28.1046 30.75 29 29.8546 29 28.75C29 27.6454 28.1046 26.75 27 26.75C25.8954 26.75 25 27.6454 25 28.75C25 29.8546 25.8954 30.75 27 30.75Z" fill="#264887"/>
</g>
<defs>
<clipPath id="clip0">
<rect x="8" y="8" width="24" height="24" fill="white"/>
</clipPath>
</defs>
</svg>
