<svg width="16" height="11" viewBox="0 0 16 11" fill="none" xmlns="http://www.w3.org/2000/svg">
    <path fill-rule="evenodd" clip-rule="evenodd" d="M1 0C0.447754 0 0 0.447723 0 1V10C0 10.5523 0.447754 11 1 11H15C15.5522 11 16 10.5523 16 10V1C16 0.447723 15.5522 0 15 0H1ZM2.25 9.09091C2.11194 9.09091 2 9.20285 2 9.34091V9.47726C2 9.61536 2.11194 9.72726 2.25 9.72726H4.75C4.88806 9.72726 5 9.61536 5 9.47726V9.34091C5 9.20285 4.88806 9.09091 4.75 9.09091H2.25ZM6 9.34091C6 9.20285 6.11194 9.09091 6.25 9.09091H8.75C8.88806 9.09091 9 9.20285 9 9.34091V9.47726C9 9.61536 8.88806 9.72726 8.75 9.72726H6.25C6.11194 9.72726 6 9.61536 6 9.47726V9.34091ZM1.25 2C1.11194 2 1 2.11194 1 2.25V3.75C1 3.88806 1.11194 4 1.25 4H14.75C14.8881 4 15 3.88806 15 3.75V2.25C15 2.11194 14.8881 2 14.75 2H1.25Z" fill="#41536B"/>
</svg>
