<svg width="24" height="24" viewBox="0 0 24 24" fill="none" xmlns="http://www.w3.org/2000/svg">
<g clip-path="url(#clip0)">
<path d="M12 19.5C11.6729 19.5004 11.3495 19.431 11.0514 19.2965C10.7532 19.162 10.4872 18.9655 10.271 18.72L0.460017 7.56799C0.149927 7.19844 -0.00327309 6.72224 0.0331766 6.2412C0.0696263 5.76017 0.292832 5.31248 0.655067 4.99388C1.0173 4.67528 1.48981 4.51104 1.97156 4.53629C2.45332 4.56154 2.90607 4.77427 3.23302 5.12899L11.812 14.881C11.8355 14.9078 11.8644 14.9292 11.8968 14.9439C11.9292 14.9586 11.9644 14.9662 12 14.9662C12.0356 14.9662 12.0708 14.9586 12.1032 14.9439C12.1356 14.9292 12.1646 14.9078 12.188 14.881L20.767 5.12899C20.9253 4.94041 21.1196 4.78537 21.3386 4.67298C21.5576 4.56058 21.7969 4.4931 22.0423 4.4745C22.2878 4.4559 22.5345 4.48656 22.768 4.56467C23.0014 4.64278 23.2169 4.76677 23.4017 4.92935C23.5866 5.09193 23.737 5.28982 23.8443 5.51138C23.9516 5.73295 24.0135 5.97373 24.0264 6.21956C24.0392 6.46539 24.0029 6.71131 23.9193 6.94288C23.8358 7.17444 23.7069 7.38698 23.54 7.56799L13.732 18.716C13.5155 18.9621 13.249 19.1593 12.9504 19.2944C12.6518 19.4296 12.3278 19.4997 12 19.5Z" fill="#41536B"/>
</g>
<defs>
<clipPath id="clip0">
<path d="M0 0L24 0V24H0L0 0Z" fill="white"/>
</clipPath>
</defs>
</svg>
