<svg width="24" height="24" viewBox="0 0 24 24" fill="none" xmlns="http://www.w3.org/2000/svg">
<g clip-path="url(#clip0)">
<g clip-path="url(#clip1)">
<path d="M12 4.50001C12.3271 4.49961 12.6505 4.56897 12.9486 4.70347C13.2468 4.83798 13.5128 5.03453 13.729 5.28001L23.54 16.432C23.8501 16.8016 24.0033 17.2778 23.9668 17.7588C23.9304 18.2398 23.7072 18.6875 23.3449 19.0061C22.9827 19.3247 22.5102 19.489 22.0284 19.4637C21.5467 19.4385 21.0939 19.2257 20.767 18.871L12.188 9.11901C12.1645 9.09224 12.1356 9.07079 12.1032 9.0561C12.0708 9.0414 12.0356 9.0338 12 9.0338C11.9644 9.0338 11.9292 9.0414 11.8968 9.0561C11.8644 9.07079 11.8354 9.09224 11.812 9.11901L3.23298 18.871C3.07475 19.0596 2.88041 19.2146 2.6614 19.327C2.44239 19.4394 2.20312 19.5069 1.95766 19.5255C1.71219 19.5441 1.46549 19.5134 1.23204 19.4353C0.998594 19.3572 0.783115 19.2332 0.598272 19.0707C0.413429 18.9081 0.262953 18.7102 0.155684 18.4886C0.0484142 18.2671 -0.0134811 18.0263 -0.0263653 17.7804C-0.0392494 17.5346 -0.00286102 17.2887 0.0806599 17.0571C0.164181 16.8256 0.293146 16.613 0.459982 16.432L10.268 5.28401C10.4845 5.03792 10.751 4.84074 11.0496 4.70557C11.3482 4.57039 11.6722 4.50032 12 4.50001Z" fill="#41536B"/>
</g>
</g>
<defs>
<clipPath id="clip0">
<path d="M0 0L24 0V24H0L0 0Z" fill="white"/>
</clipPath>
<clipPath id="clip1">
<path d="M24 24L0 24L0 0L24 0L24 24Z" fill="white"/>
</clipPath>
</defs>
</svg>
