<svg width="16" height="12" viewBox="0 0 16 12" fill="none" xmlns="http://www.w3.org/2000/svg">
    <path fill-rule="evenodd" clip-rule="evenodd" d="M9.5 0C9.22388 0 9 0.223846 9 0.5V11.5C9 11.7762 9.22388 12 9.5 12H11V9.25C11 9.11194 11.1119 9 11.25 9H12.75C12.8881 9 13 9.11194 13 9.25V12H15.5C15.7761 12 16 11.7762 16 11.5V0.5C16 0.223846 15.7761 0 15.5 0H9.5ZM14 6.25C14 6.11194 14.1119 6 14.25 6H14.75C14.8881 6 15 6.11194 15 6.25V6.75C15 6.88806 14.8881 7 14.75 7H14.25C14.1119 7 14 6.88806 14 6.75V6.25ZM12.25 6C12.1119 6 12 6.11194 12 6.25V6.75C12 6.88806 12.1119 7 12.25 7H12.75C12.8881 7 13 6.88806 13 6.75V6.25C13 6.11194 12.8881 6 12.75 6H12.25ZM12 4.25C12 4.11194 12.1119 4 12.25 4H12.75C12.8881 4 13 4.11194 13 4.25V4.75C13 4.88806 12.8881 5 12.75 5H12.25C12.1119 5 12 4.88806 12 4.75V4.25ZM14.25 4C14.1119 4 14 4.11194 14 4.25V4.75C14 4.88806 14.1119 5 14.25 5H14.75C14.8881 5 15 4.88806 15 4.75V4.25C15 4.11194 14.8881 4 14.75 4H14.25ZM12 2.25C12 2.11194 12.1119 2 12.25 2H12.75C12.8881 2 13 2.11194 13 2.25V2.75C13 2.88806 12.8881 3 12.75 3H12.25C12.1119 3 12 2.88806 12 2.75V2.25ZM10.25 6C10.1119 6 10 6.11194 10 6.25V6.75C10 6.88806 10.1119 7 10.25 7H10.75C10.8881 7 11 6.88806 11 6.75V6.25C11 6.11194 10.8881 6 10.75 6H10.25ZM10 4.25C10 4.11194 10.1119 4 10.25 4H10.75C10.8881 4 11 4.11194 11 4.25V4.75C11 4.88806 10.8881 5 10.75 5H10.25C10.1119 5 10 4.88806 10 4.75V4.25ZM10.25 2C10.1119 2 10 2.11194 10 2.25V2.75C10 2.88806 10.1119 3 10.25 3H10.75C10.8881 3 11 2.88806 11 2.75V2.25C11 2.11194 10.8881 2 10.75 2H10.25ZM14 2.25C14 2.11194 14.1119 2 14.25 2H14.75C14.8881 2 15 2.11194 15 2.25V2.75C15 2.88806 14.8881 3 14.75 3H14.25C14.1119 3 14 2.88806 14 2.75V2.25ZM0.5 4C0.223858 4 0 4.22386 0 4.5V11.5C0 11.7761 0.223858 12 0.5 12H3V9.25C3 9.11193 3.11193 9 3.25 9H4.75C4.88807 9 5 9.11193 5 9.25V12H6.5C6.77614 12 7 11.7761 7 11.5V4.5C7 4.22386 6.77614 4 6.5 4H0.5ZM3 6.25C3 6.11193 3.11193 6 3.25 6H3.75C3.88807 6 4 6.11193 4 6.25V6.75C4 6.88807 3.88807 7 3.75 7H3.25C3.11193 7 3 6.88807 3 6.75V6.25ZM1.25 6C1.11193 6 1 6.11193 1 6.25V6.75C1 6.88807 1.11193 7 1.25 7H1.75C1.88807 7 2 6.88807 2 6.75V6.25C2 6.11193 1.88807 6 1.75 6H1.25ZM5 6.25C5 6.11193 5.11193 6 5.25 6H5.75C5.88807 6 6 6.11193 6 6.25V6.75C6 6.88807 5.88807 7 5.75 7H5.25C5.11193 7 5 6.88807 5 6.75V6.25Z" fill="#41536B"/>
</svg>
