<svg width="40" height="40" viewBox="0 0 40 40" fill="none" xmlns="http://www.w3.org/2000/svg">
<circle cx="20" cy="20" r="20" fill="#FBEBEB"/>
<g clip-path="url(#clip0)">
<path d="M31.407 23.685L30.54 23.326C29.787 21.1723 29.787 18.8267 30.54 16.673L31.407 16.314C31.5235 16.2657 31.6293 16.195 31.7185 16.1059C31.8076 16.0167 31.8783 15.9108 31.9266 15.7943C31.9748 15.6779 31.9996 15.553 31.9996 15.4269C31.9996 15.3008 31.9748 15.176 31.9265 15.0595C31.8782 14.943 31.8075 14.8372 31.7183 14.748C31.6292 14.6589 31.5233 14.5882 31.4068 14.5399C31.2903 14.4917 31.1655 14.4669 31.0394 14.4669C30.9133 14.4669 30.7885 14.4917 30.672 14.54L29.806 14.899C27.7513 13.9095 26.0927 12.2527 25.101 10.199L25.46 9.332C25.558 9.09676 25.5585 8.83222 25.4615 8.59658C25.3644 8.36094 25.1777 8.1735 24.9425 8.0755C24.7073 7.97751 24.4427 7.97697 24.2071 8.07402C23.9714 8.17108 23.784 8.35776 23.686 8.593L23.327 9.46C21.1733 10.213 18.8277 10.213 16.674 9.46L16.314 8.593C16.2681 8.47327 16.1986 8.36395 16.1098 8.2715C16.0209 8.17905 15.9144 8.10533 15.7966 8.05471C15.6788 8.00409 15.552 7.97759 15.4238 7.97677C15.2956 7.97594 15.1685 8.00082 15.05 8.04993C14.9316 8.09903 14.8241 8.17138 14.7341 8.26268C14.6441 8.35399 14.5732 8.46241 14.5258 8.58154C14.4783 8.70067 14.4552 8.82811 14.4578 8.95631C14.4605 9.08452 14.4887 9.2109 14.541 9.328L14.9 10.195C13.9096 12.2479 12.2529 13.9046 10.2 14.895L9.328 14.54C9.21152 14.4917 9.08667 14.4669 8.96058 14.4669C8.8345 14.4669 8.70965 14.4917 8.59316 14.5399C8.47667 14.5882 8.37082 14.6589 8.28165 14.748C8.19249 14.8372 8.12176 14.943 8.0735 15.0595C8.02524 15.176 8.00039 15.3008 8.00038 15.4269C8.00037 15.553 8.02519 15.6779 8.07343 15.7943C8.12167 15.9108 8.19239 16.0167 8.28153 16.1059C8.37068 16.195 8.47652 16.2657 8.593 16.314L9.461 16.673C10.213 18.8269 10.213 21.1721 9.461 23.326L8.593 23.685C8.35775 23.7825 8.17086 23.9694 8.07343 24.2047C7.97601 24.4399 7.97603 24.7043 8.0735 24.9395C8.17097 25.1748 8.35789 25.3616 8.59316 25.4591C8.82842 25.5565 9.09275 25.5565 9.328 25.459L10.195 25.1C12.2494 26.09 13.9079 27.7467 14.9 29.8L14.541 30.667C14.4926 30.7835 14.4677 30.9083 14.4676 31.0345C14.4675 31.1606 14.4923 31.2855 14.5405 31.402C14.5887 31.5186 14.6593 31.6245 14.7485 31.7137C14.8376 31.8029 14.9435 31.8737 15.06 31.922C15.1761 31.9716 15.3008 31.9981 15.427 32C15.617 32.0001 15.8027 31.9438 15.9606 31.8382C16.1185 31.7327 16.2415 31.5826 16.314 31.407L16.673 30.54C18.8271 29.787 21.1729 29.787 23.327 30.54L23.686 31.407C23.7586 31.5825 23.8816 31.7325 24.0395 31.8381C24.1974 31.9436 24.3831 32 24.573 32C24.6992 31.9997 24.8242 31.9749 24.941 31.927C25.1761 31.8293 25.3628 31.6422 25.4602 31.4069C25.5575 31.1716 25.5574 30.9073 25.46 30.672L25.101 29.805C26.0925 27.7512 27.7512 26.0944 29.806 25.105L30.672 25.464C30.7885 25.5123 30.9133 25.5371 31.0394 25.5371C31.1655 25.5371 31.2903 25.5123 31.4068 25.4641C31.5233 25.4158 31.6292 25.3451 31.7183 25.256C31.8075 25.1668 31.8782 25.061 31.9265 24.9445C31.9748 24.828 31.9996 24.7032 31.9996 24.5771C31.9996 24.451 31.9748 24.3262 31.9266 24.2097C31.8783 24.0932 31.8076 23.9873 31.7185 23.8982C31.6293 23.809 31.5235 23.7383 31.407 23.69V23.685ZM28.833 22.619L27.18 21.934C26.7873 20.6742 26.7873 19.3248 27.18 18.065L28.833 17.38C28.4299 19.1031 28.4299 20.8959 28.833 22.619ZM23.033 15.189C23.5272 15.8732 24.1278 16.4738 24.812 16.968L21.775 18.226L23.033 15.189ZM20 17.491L18.742 14.454C19.5752 14.589 20.4248 14.589 21.258 14.454L20 17.491ZM18.226 18.226L15.189 16.968C15.8734 16.4741 16.4741 15.8734 16.968 15.189L18.226 18.226ZM17.491 20L14.454 21.257C14.589 20.4238 14.589 19.5742 14.454 18.741L17.491 20ZM18.227 21.773L16.968 24.811C16.4735 24.1265 15.8725 23.5255 15.188 23.031L18.227 21.773ZM20 22.509L21.258 25.546C20.4251 25.4073 19.5749 25.4073 18.742 25.546L20 22.509ZM21.774 21.773L24.812 23.032C24.1273 23.5259 23.5263 24.1266 23.032 24.811L21.774 21.773ZM22.509 20L25.547 18.741C25.4125 19.5746 25.4125 20.4244 25.547 21.258L22.509 20ZM28.1 15.606L26.446 16.291C25.2768 15.6788 24.3222 14.7242 23.71 13.555L24.394 11.9C25.3276 13.4041 26.5959 14.6724 28.1 15.606ZM22.62 11.167L21.935 12.82C20.6752 13.215 19.3248 13.215 18.065 12.82L17.381 11.167C19.1041 11.5701 20.8969 11.5701 22.62 11.167ZM15.607 11.9L16.292 13.553C15.6798 14.7228 14.7253 15.6779 13.556 16.291L11.9 15.606C13.4045 14.6725 14.6731 13.4042 15.607 11.9ZM11.167 17.38L12.821 18.065C13.2137 19.3248 13.2137 20.6742 12.821 21.934L11.167 22.619C11.5701 20.8959 11.5701 19.1031 11.167 17.38ZM11.9 24.393L13.553 23.708C14.7221 24.3212 15.6768 25.2759 16.29 26.445L15.607 28.1C14.6732 26.5954 13.4046 25.3268 11.9 24.393ZM17.378 28.833L18.063 27.18C19.3228 26.785 20.6732 26.785 21.933 27.18L22.618 28.833C20.8952 28.4303 19.1028 28.4303 17.38 28.833H17.378ZM24.392 28.098L23.707 26.445C24.3193 25.2755 25.2743 24.3209 26.444 23.709L28.096 24.393C26.593 25.3271 25.3261 26.5958 24.394 28.1L24.392 28.098Z" fill="#D32D27"/>
</g>
<defs>
<clipPath id="clip0">
<rect x="8" y="8" width="24" height="24" fill="white"/>
</clipPath>
</defs>
</svg>
