<?xml version="1.0" encoding="UTF-8"?>
<svg width="22px" height="15px" viewBox="0 0 22 15" version="1.1" xmlns="http://www.w3.org/2000/svg" xmlns:xlink="http://www.w3.org/1999/xlink">
    <g stroke="none" stroke-width="1" fill="none" fill-rule="evenodd">
        <g transform="translate(-928.000000, -251.000000)" fill="currentColor" fill-rule="nonzero">
            <path d="M943.093593,252.22199 L942.316368,253.007106 C941.25136,252.637933 940.140318,252.439085 939,252.439085 C936.323077,252.439085 933.807484,253.534911 931.670052,255.357555 C930.842414,256.063304 930.123617,256.840992 929.59703,257.566355 C929.236564,258.06289 929.011481,258.50094 929.000423,258.500879 C929.011433,258.498968 929.236526,258.937057 929.59703,259.433645 C930.123617,260.159008 930.842414,260.936696 931.670052,261.642445 C932.055876,261.971446 932.454021,262.276766 932.863213,262.556234 L932.145012,263.281726 C929.532393,261.451308 928,259.096137 928,258.5 C928,257.489847 932.4,251.428932 939,251.428932 C940.484111,251.428932 941.85698,251.735399 943.093593,252.22199 Z M945.854988,253.718274 C948.467607,255.548692 950,257.903863 950,258.5 C950,259.510153 945.6,265.571068 939,265.571068 C937.515889,265.571068 936.14302,265.264601 934.906407,264.77801 L935.683632,263.992894 C936.74864,264.362067 937.859682,264.560915 939,264.560915 C941.676923,264.560915 944.192516,263.465089 946.329948,261.642445 C947.157586,260.936696 947.876383,260.159008 948.40297,259.433645 C948.763474,258.937057 948.988567,258.498968 948.999577,258.499121 C948.988519,258.50094 948.763436,258.06289 948.40297,257.566355 C947.876383,256.840992 947.157586,256.063304 946.329948,255.357555 C945.944124,255.028554 945.545979,254.723234 945.136787,254.443766 L945.854988,253.718274 Z M936.687217,262.979121 L939.12517,260.516416 C940.130037,260.453729 940.934093,259.641509 940.996147,258.626445 L943.434104,256.163736 C943.795587,256.86238 944,257.657076 944,258.5 C944,261.289459 941.761424,263.550763 939,263.550763 C938.165548,263.550763 937.378839,263.344274 936.687217,262.979121 Z M934.565896,260.836264 C934.204413,260.13762 934,259.342924 934,258.5 C934,255.710541 936.238576,253.449237 939,253.449237 C939.834452,253.449237 940.621161,253.655726 941.312783,254.020879 L938.87483,256.483584 C937.869963,256.546271 937.065907,257.358491 937.003853,258.373555 L934.565896,260.836264 Z M945.717514,251 L946.424621,251.714286 L932.282486,266 L931.575379,265.285714 L945.717514,251 Z"/>
        </g>
    </g>
</svg>
