<svg width="24" height="24" viewBox="0 0 24 24" fill="none" xmlns="http://www.w3.org/2000/svg">
    <g clip-path="url(#icon-close_svg__clip0)">
        <path d="M14.3 12.179C14.2767 12.1558 14.2583 12.1282 14.2456 12.0978C14.233 12.0674 14.2266 12.0349 14.2266 12.002C14.2266 11.9691 14.233 11.9366 14.2456 11.9062C14.2583 11.8758 14.2767 11.8482 14.3 11.825L23.563 2.563C23.8443 2.28134 24.0021 1.89948 24.0018 1.50144C24.0016 1.10339 23.8432 0.72176 23.5615 0.440498C23.2798 0.159236 22.898 0.00138228 22.4999 0.00166358C22.1019 0.00194488 21.7203 0.160338 21.439 0.441998L12.177 9.7C12.1538 9.72328 12.1262 9.74175 12.0958 9.75435C12.0654 9.76696 12.0329 9.77345 12 9.77345C11.9671 9.77345 11.9346 9.76696 11.9042 9.75435C11.8738 9.74175 11.8462 9.72328 11.823 9.7L2.56101 0.441998C2.42174 0.302665 2.25639 0.192128 2.07441 0.116696C1.89242 0.041265 1.69736 0.0024171 1.50036 0.00237067C1.1025 0.0022769 0.7209 0.160236 0.439505 0.441498C0.15811 0.72276 -2.82604e-05 1.10429 -0.000122029 1.50214C-0.000215797 1.9 0.157743 2.2816 0.439005 2.563L9.7 11.825C9.72329 11.8482 9.74176 11.8758 9.75436 11.9062C9.76696 11.9366 9.77345 11.9691 9.77345 12.002C9.77345 12.0349 9.76696 12.0674 9.75436 12.0978C9.74176 12.1282 9.72329 12.1558 9.7 12.179L0.439005 21.442C0.299738 21.5813 0.189279 21.7467 0.113933 21.9288C0.0385875 22.1108 -0.000168458 22.3059 -0.000122029 22.5029C-2.82604e-05 22.9007 0.15811 23.2822 0.439505 23.5635C0.578838 23.7028 0.744236 23.8132 0.926258 23.8886C1.10828 23.9639 1.30336 24.0027 1.50036 24.0026C1.89822 24.0025 2.27974 23.8444 2.56101 23.563L11.823 14.3C11.8462 14.2767 11.8738 14.2582 11.9042 14.2456C11.9346 14.233 11.9671 14.2266 12 14.2266C12.0329 14.2266 12.0654 14.233 12.0958 14.2456C12.1262 14.2582 12.1538 14.2767 12.177 14.3L21.439 23.563C21.7203 23.8444 22.1018 24.0025 22.4997 24.0026C22.8975 24.0027 23.2791 23.8448 23.5605 23.5635C23.8419 23.2822 24 22.9007 24.0001 22.5029C24.0002 22.105 23.8423 21.7234 23.561 21.442L14.3 12.179Z" fill="currentColor"/>
    </g>
    <defs>
        <clipPath id="icon-close_svg__clip0">
            <rect width="24" height="24" fill="white"/>
        </clipPath>
    </defs>
</svg>
