<svg width="120" height="120" viewBox="0 0 120 120" fill="none" xmlns="http://www.w3.org/2000/svg">
<path fill-rule="evenodd" clip-rule="evenodd" d="M60 120C93.1371 120 120 93.1371 120 60C120 26.8629 93.1371 0 60 0C26.8629 0 0 26.8629 0 60C0 93.1371 26.8629 120 60 120Z" fill="#ECF5FB"/>
<path d="M36.6666 98.6667H84" stroke="#B5D9F1" stroke-width="1.79259" stroke-linecap="round" stroke-linejoin="round"/>
<g filter="url(#filter0_i)">
<path fill-rule="evenodd" clip-rule="evenodd" d="M46.0003 52.7118C37.2482 57.6192 31.3334 66.9855 31.3334 77.7333C31.3334 93.5655 88.6667 93.5655 88.6667 77.7333C88.6667 66.9855 82.752 57.6192 74 52.7118L77.5243 47.5355C78.7396 45.7504 77.4611 43.3333 75.3016 43.3333H44.6986C42.5391 43.3333 41.2606 45.7504 42.476 47.5355L46.0003 52.7118Z" fill="white"/>
</g>
<path d="M46.0003 52.7118L46.7411 52.2073L47.2913 53.0154L46.4386 53.4935L46.0003 52.7118ZM74 52.7118L73.5616 53.4936L72.7089 53.0154L73.2591 52.2074L74 52.7118ZM77.5243 47.5355L78.2651 48.0399H78.2651L77.5243 47.5355ZM42.476 47.5355L43.2169 47.0311L43.2169 47.0311L42.476 47.5355ZM58.424 88.695C58.9189 88.7051 59.3119 89.1146 59.3018 89.6095C59.2916 90.1044 58.8822 90.4973 58.3873 90.4872L58.424 88.695ZM60.269 90.5033C59.774 90.5049 59.3713 90.105 59.3696 89.61C59.368 89.115 59.7679 88.7124 60.2629 88.7107L60.269 90.5033ZM60.5257 88.7093C61.0206 88.7059 61.4247 89.1045 61.428 89.5995C61.4314 90.0945 61.0329 90.4985 60.5379 90.5019L60.5257 88.7093ZM61.6129 90.4872C61.118 90.4973 60.7086 90.1044 60.6984 89.6095C60.6882 89.1146 61.0812 88.7051 61.5761 88.695L61.6129 90.4872ZM84.3082 64.2946C84.0683 63.8616 84.2249 63.3161 84.6578 63.0762C85.0908 62.8363 85.6363 62.9928 85.8762 63.4258L84.3082 64.2946ZM85.4428 62.6701C85.6954 63.0958 85.555 63.6456 85.1293 63.8982C84.7036 64.1508 84.1537 64.0104 83.9011 63.5847L85.4428 62.6701ZM83.8413 63.4844C83.5869 63.0597 83.725 62.5092 84.1496 62.2549C84.5743 62.0005 85.1248 62.1386 85.3791 62.5632L83.8413 63.4844ZM85.1197 62.1382C85.3811 62.5585 85.2524 63.1112 84.8321 63.3727C84.4118 63.6342 83.8591 63.5054 83.5976 63.0851L85.1197 62.1382ZM74.9373 49.7425C75.2159 49.3333 75.7734 49.2274 76.1826 49.506C76.5918 49.7846 76.6977 50.3421 76.4191 50.7513L74.9373 49.7425ZM76.517 50.6075C76.2384 51.0167 75.6808 51.1226 75.2717 50.844C74.8625 50.5654 74.7566 50.0078 75.0352 49.5987L76.517 50.6075ZM75.0492 49.5781C75.3278 49.169 75.8853 49.0631 76.2945 49.3417C76.7037 49.6203 76.8095 50.1778 76.531 50.587L75.0492 49.5781ZM76.5869 50.5048C76.3083 50.914 75.7508 51.0199 75.3416 50.7413C74.9324 50.4627 74.8266 49.9051 75.1051 49.496L76.5869 50.5048ZM76.9279 45.268C76.7189 44.8193 76.9131 44.2861 77.3618 44.077C77.8105 43.8679 78.3437 44.0622 78.5528 44.5109L76.9279 45.268ZM78.4563 44.3189C78.6914 44.7545 78.5289 45.2982 78.0933 45.5333C77.6577 45.7684 77.114 45.6059 76.8788 45.1703L78.4563 44.3189ZM76.8714 45.1566C76.6326 44.723 76.7906 44.1779 77.2242 43.9391C77.6578 43.7003 78.2029 43.8583 78.4416 44.2919L76.8714 45.1566ZM78.3806 44.1854C78.6338 44.6107 78.4943 45.1608 78.069 45.414C77.6436 45.6672 77.0935 45.5277 76.8403 45.1024L78.3806 44.1854ZM60.7288 44.2296C60.2338 44.2296 59.8325 43.8283 59.8325 43.3333C59.8325 42.8383 60.2338 42.437 60.7288 42.437V44.2296ZM59.8787 42.437C60.3737 42.437 60.775 42.8383 60.775 43.3333C60.775 43.8283 60.3737 44.2296 59.8787 44.2296V42.437ZM59.7572 44.2296C59.2622 44.2296 58.8609 43.8283 58.8609 43.3333C58.8609 42.8383 59.2622 42.437 59.7572 42.437V44.2296ZM59.2715 42.437C59.7665 42.437 60.1678 42.8383 60.1678 43.3333C60.1678 43.8283 59.7665 44.2296 59.2715 44.2296V42.437ZM43.1599 45.1024C42.9067 45.5277 42.3566 45.6672 41.9313 45.414C41.5059 45.1608 41.3664 44.6107 41.6196 44.1854L43.1599 45.1024ZM41.5152 44.3731C41.743 43.9336 42.2839 43.762 42.7234 43.9897C43.1629 44.2175 43.3345 44.7584 43.1068 45.1979L41.5152 44.3731ZM43.0997 45.2118C42.8756 45.6532 42.3361 45.8294 41.8947 45.6054C41.4533 45.3813 41.2771 44.8419 41.5012 44.4005L43.0997 45.2118ZM41.4475 44.5109C41.6565 44.0622 42.1898 43.8679 42.6384 44.077C43.0871 44.2861 43.2814 44.8193 43.0723 45.268L41.4475 44.5109ZM44.8951 49.496C45.1737 49.9051 45.0678 50.4627 44.6586 50.7413C44.2495 51.0198 43.6919 50.914 43.4133 50.5048L44.8951 49.496ZM43.5112 50.6486C43.2326 50.2394 43.3385 49.6819 43.7477 49.4033C44.1569 49.1247 44.7144 49.2306 44.993 49.6397L43.5112 50.6486ZM45.007 49.6603C45.2856 50.0695 45.1797 50.627 44.7705 50.9056C44.3613 51.1842 43.8038 51.0783 43.5252 50.6691L45.007 49.6603ZM43.5812 50.7513C43.3026 50.3421 43.4084 49.7846 43.8176 49.506C44.2268 49.2274 44.7843 49.3333 45.0629 49.7424L43.5812 50.7513ZM36.4026 63.0851C36.1411 63.5054 35.5884 63.6342 35.1681 63.3727C34.7478 63.1112 34.619 62.5585 34.8805 62.1382L36.4026 63.0851ZM34.4313 62.8845C34.6803 62.4567 35.229 62.3117 35.6568 62.5607C36.0847 62.8097 36.2296 63.3583 35.9807 63.7862L34.4313 62.8845ZM35.9221 63.8873C35.6749 64.3162 35.1269 64.4635 34.698 64.2163C34.2691 63.9691 34.1218 63.4211 34.369 62.9922L35.9221 63.8873ZM34.1239 63.4258C34.3639 62.9928 34.9093 62.8362 35.3423 63.0761C35.7753 63.3161 35.9319 63.8615 35.6919 64.2945L34.1239 63.4258ZM32.2297 77.7333C32.2297 80.9389 35.0335 83.6236 40.028 85.58C44.9417 87.5048 51.5958 88.5549 58.424 88.695L58.3873 90.4872C51.4328 90.3445 44.5509 89.2769 39.3741 87.2491C34.2782 85.2529 30.4371 82.1501 30.4371 77.7333H32.2297ZM60.2629 88.7107C60.3505 88.7104 60.4381 88.7099 60.5257 88.7093L60.5379 90.5019C60.4483 90.5025 60.3586 90.5029 60.269 90.5033L60.2629 88.7107ZM61.5761 88.695C68.4043 88.5549 75.0584 87.5048 79.9722 85.58C84.9667 83.6236 87.7705 80.9389 87.7705 77.7333H89.563C89.563 82.1501 85.722 85.2529 80.626 87.2491C75.4493 89.2769 68.5673 90.3445 61.6129 90.4872L61.5761 88.695ZM87.7705 77.7333C87.7705 72.8565 86.5142 68.2759 84.3082 64.2946L85.8762 63.4258C88.2257 67.6662 89.563 72.5449 89.563 77.7333H87.7705ZM83.9011 63.5847C83.8813 63.5512 83.8613 63.5178 83.8413 63.4844L85.3791 62.5632C85.4004 62.5988 85.4217 62.6344 85.4428 62.6701L83.9011 63.5847ZM83.5976 63.0851C81.1199 59.1024 77.6619 55.7927 73.5616 53.4936L74.4383 51.93C78.8029 54.3773 82.4827 57.8995 85.1197 62.1382L83.5976 63.0851ZM73.2591 52.2074L74.9373 49.7425L76.4191 50.7513L74.7408 53.2162L73.2591 52.2074ZM75.0352 49.5987L75.0492 49.5781L76.531 50.587L76.517 50.6075L75.0352 49.5987ZM75.1051 49.496L76.7834 47.0311L78.2651 48.0399L76.5869 50.5048L75.1051 49.496ZM76.7834 47.0311C77.1698 46.4635 77.1807 45.8105 76.9279 45.268L78.5528 44.5109C79.0517 45.5816 79.0339 46.9107 78.2651 48.0399L76.7834 47.0311ZM76.8788 45.1703C76.8764 45.1657 76.8739 45.1611 76.8714 45.1566L78.4416 44.2919C78.4466 44.3009 78.4515 44.3099 78.4563 44.3189L76.8788 45.1703ZM76.8403 45.1024C76.5342 44.5881 75.9882 44.2296 75.3016 44.2296V42.437C76.6677 42.437 77.7764 43.1704 78.3806 44.1854L76.8403 45.1024ZM75.3016 44.2296H60.7288V42.437H75.3016V44.2296ZM59.8787 44.2296H59.7572V42.437H59.8787V44.2296ZM59.2715 44.2296H44.6986V42.437H59.2715V44.2296ZM44.6986 44.2296C44.012 44.2296 43.4661 44.5881 43.1599 45.1024L41.6196 44.1854C42.2239 43.1704 43.3326 42.437 44.6986 42.437V44.2296ZM43.1068 45.1979C43.1044 45.2025 43.102 45.2072 43.0997 45.2118L41.5012 44.4005C41.5058 44.3913 41.5105 44.3822 41.5152 44.3731L43.1068 45.1979ZM43.0723 45.268C42.8196 45.8104 42.8305 46.4635 43.2169 47.0311L41.7351 48.0399C40.9663 46.9107 40.9486 45.5816 41.4475 44.5109L43.0723 45.268ZM43.2169 47.0311L44.8951 49.496L43.4133 50.5048L41.7351 48.0399L43.2169 47.0311ZM44.993 49.6397L45.007 49.6603L43.5252 50.6691L43.5112 50.6486L44.993 49.6397ZM45.0629 49.7424L46.7411 52.2073L45.2594 53.2162L43.5812 50.7513L45.0629 49.7424ZM46.4386 53.4935C42.3383 55.7926 38.8803 59.1024 36.4026 63.0851L34.8805 62.1382C37.5175 57.8994 41.1973 54.3773 45.5619 51.93L46.4386 53.4935ZM35.9807 63.7862C35.9611 63.8198 35.9415 63.8536 35.9221 63.8873L34.369 62.9922C34.3897 62.9563 34.4105 62.9204 34.4313 62.8845L35.9807 63.7862ZM35.6919 64.2945C33.486 68.2759 32.2297 72.8565 32.2297 77.7333H30.4371C30.4371 72.5449 31.7745 67.6662 34.1239 63.4258L35.6919 64.2945Z" fill="#264887"/>
<g filter="url(#filter1_i)">
<path fill-rule="evenodd" clip-rule="evenodd" d="M60 60C68.8366 60 76 52.8366 76 44C76 35.1634 68.8366 28 60 28C51.1634 28 44 35.1634 44 44C44 52.8366 51.1634 60 60 60Z" fill="#B5D9F1"/>
</g>
<path d="M75.1037 44C75.1037 52.3415 68.3415 59.1037 60 59.1037C51.6585 59.1037 44.8963 52.3415 44.8963 44C44.8963 35.6585 51.6585 28.8963 60 28.8963C68.3415 28.8963 75.1037 35.6585 75.1037 44Z" stroke="#264887" stroke-width="1.79259"/>
<g filter="url(#filter2_di)">
<mask id="path-8-inside-1" fill="white">
<path fill-rule="evenodd" clip-rule="evenodd" d="M68.6774 50.5275L60.0001 81.3334L81.3218 56.2804C82.7097 54.6497 81.7273 52.1299 79.6018 51.8689L75.8961 51.4139L78.8854 46.9085C79.9906 45.243 78.9566 42.9967 76.9726 42.7531L65.4099 41.3333L68.6775 50.5275L68.6774 50.5275Z"/>
</mask>
<path fill-rule="evenodd" clip-rule="evenodd" d="M68.6774 50.5275L60.0001 81.3334L81.3218 56.2804C82.7097 54.6497 81.7273 52.1299 79.6018 51.8689L75.8961 51.4139L78.8854 46.9085C79.9906 45.243 78.9566 42.9967 76.9726 42.7531L65.4099 41.3333L68.6775 50.5275L68.6774 50.5275Z" fill="white"/>
<path d="M60.0001 81.3334L58.2747 80.8473L61.3652 82.4952L60.0001 81.3334ZM68.6774 50.5275L68.8959 48.7483L67.369 48.5608L66.9519 50.0415L68.6774 50.5275ZM81.3218 56.2804L82.6869 57.4423L82.6869 57.4423L81.3218 56.2804ZM75.8961 51.4139L74.4024 50.4228L72.7988 52.8396L75.6776 53.1931L75.8961 51.4139ZM78.8854 46.9085L80.3791 47.8996L80.3791 47.8996L78.8854 46.9085ZM65.4099 41.3333L65.6283 39.5541L62.7495 39.2006L63.7208 41.9336L65.4099 41.3333ZM68.6775 50.5275L68.459 52.3068L71.3379 52.6602L70.3666 49.9272L68.6775 50.5275ZM61.7256 81.8194L70.4028 51.0135L66.9519 50.0415L58.2747 80.8473L61.7256 81.8194ZM79.9567 55.1186L58.635 80.1715L61.3652 82.4952L82.6869 57.4423L79.9567 55.1186ZM79.3833 53.6481C80.0918 53.7351 80.4193 54.575 79.9567 55.1186L82.6869 57.4423C85.0001 54.7243 83.3627 50.5246 79.8203 50.0896L79.3833 53.6481ZM75.6776 53.1931L79.3833 53.6481L79.8203 50.0896L76.1145 49.6346L75.6776 53.1931ZM77.3917 45.9175L74.4024 50.4228L77.3898 52.405L80.3791 47.8996L77.3917 45.9175ZM76.7541 44.5323C77.4154 44.6135 77.7601 45.3623 77.3917 45.9175L80.3791 47.8996C82.221 45.1237 80.4977 41.3798 77.191 40.9738L76.7541 44.5323ZM65.1914 43.1126L76.7541 44.5323L77.191 40.9738L65.6283 39.5541L65.1914 43.1126ZM70.3666 49.9272L67.099 40.733L63.7208 41.9336L66.9884 51.1278L70.3666 49.9272ZM68.4589 52.3068L68.459 52.3068L68.8959 48.7483L68.8959 48.7483L68.4589 52.3068Z" fill="#264887" mask="url(#path-8-inside-1)"/>
</g>
<mask id="path-10-inside-2" fill="white">
<path fill-rule="evenodd" clip-rule="evenodd" d="M50.9445 50.5275L59.9999 81.3334L38.3585 56.2903C36.9523 54.6631 37.9306 52.1254 40.0652 51.8633L43.7259 51.4139L40.7365 46.9086C39.6314 45.243 40.6654 42.9967 42.6494 42.7531L54.2121 41.3334L50.9445 50.5275Z"/>
</mask>
<g filter="url(#filter3_i)">
<path fill-rule="evenodd" clip-rule="evenodd" d="M50.9445 50.5275L59.9999 81.3334L38.3585 56.2903C36.9523 54.6631 37.9306 52.1254 40.0652 51.8633L43.7259 51.4139L40.7365 46.9086C39.6314 45.243 40.6654 42.9967 42.6494 42.7531L54.2121 41.3334L50.9445 50.5275Z" fill="white"/>
</g>
<path d="M59.9999 81.3334L61.7197 80.8278L58.6436 82.5055L59.9999 81.3334ZM50.9445 50.5275L49.2247 51.0331L49.0607 50.4752L49.2554 49.9272L50.9445 50.5275ZM38.3585 56.2903L37.0021 57.4624L37.0021 57.4624L38.3585 56.2903ZM40.0652 51.8633L40.2837 53.6426L40.0652 51.8633ZM43.7259 51.4139L45.2196 50.4228L46.8232 52.8396L43.9443 53.1931L43.7259 51.4139ZM40.7365 46.9086L39.2428 47.8997L39.2428 47.8997L40.7365 46.9086ZM42.6494 42.7531L42.4309 40.9738L42.6494 42.7531ZM54.2121 41.3334L53.9936 39.5541L56.8724 39.2006L55.9012 41.9336L54.2121 41.3334ZM58.2801 81.8389L49.2247 51.0331L52.6643 50.022L61.7197 80.8278L58.2801 81.8389ZM39.7148 55.1182L61.3562 80.1613L58.6436 82.5055L37.0021 57.4624L39.7148 55.1182ZM40.2837 53.6426C39.5722 53.7299 39.246 54.5758 39.7148 55.1182L37.0021 57.4624C34.6585 54.7504 36.2891 50.5209 39.8468 50.0841L40.2837 53.6426ZM43.9443 53.1931L40.2837 53.6426L39.8468 50.0841L43.5074 49.6346L43.9443 53.1931ZM42.2302 45.9175L45.2196 50.4228L42.2322 52.405L39.2428 47.8997L42.2302 45.9175ZM42.8678 44.5323C42.2065 44.6135 41.8618 45.3623 42.2302 45.9175L39.2428 47.8997C37.4009 45.1237 39.1243 41.3798 42.4309 40.9738L42.8678 44.5323ZM54.4305 43.1126L42.8678 44.5323L42.4309 40.9738L53.9936 39.5541L54.4305 43.1126ZM49.2554 49.9272L52.523 40.7331L55.9012 41.9336L52.6336 51.1278L49.2554 49.9272Z" fill="#264887" mask="url(#path-10-inside-2)"/>
<mask id="path-12-inside-3" fill="white">
<path fill-rule="evenodd" clip-rule="evenodd" d="M68.3096 50.4913C72.5569 50.4913 76.0001 47.0981 76.0001 42.9123C76.0001 38.7266 72.5569 35.3334 68.3096 35.3334C65.2103 35.3334 62.5393 37.1401 61.3217 39.7432H58.6783C57.4608 37.1401 54.7897 35.3334 51.6905 35.3334C47.4431 35.3334 44 38.7266 44 42.9123C44 47.0981 47.4431 50.4913 51.6905 50.4913C55.278 50.4913 58.2918 48.0704 59.1416 44.7958H60.8585C61.7083 48.0704 64.7221 50.4913 68.3096 50.4913Z"/>
</mask>
<path fill-rule="evenodd" clip-rule="evenodd" d="M68.3096 50.4913C72.5569 50.4913 76.0001 47.0981 76.0001 42.9123C76.0001 38.7266 72.5569 35.3334 68.3096 35.3334C65.2103 35.3334 62.5393 37.1401 61.3217 39.7432H58.6783C57.4608 37.1401 54.7897 35.3334 51.6905 35.3334C47.4431 35.3334 44 38.7266 44 42.9123C44 47.0981 47.4431 50.4913 51.6905 50.4913C55.278 50.4913 58.2918 48.0704 59.1416 44.7958H60.8585C61.7083 48.0704 64.7221 50.4913 68.3096 50.4913Z" fill="#D32D27"/>
<path d="M61.3217 39.7432V41.5358H62.4622L62.9455 40.5027L61.3217 39.7432ZM58.6783 39.7432L57.0546 40.5027L57.5378 41.5358H58.6783V39.7432ZM59.1416 44.7958V43.0032H57.7548L57.4064 44.3456L59.1416 44.7958ZM60.8585 44.7958L62.5936 44.3456L62.2453 43.0032H60.8585V44.7958ZM74.2075 42.9123C74.2075 46.0834 71.5917 48.6987 68.3096 48.6987V52.2839C73.5222 52.2839 77.7927 48.1127 77.7927 42.9123H74.2075ZM68.3096 37.126C71.5917 37.126 74.2075 39.7412 74.2075 42.9123H77.7927C77.7927 37.712 73.5222 33.5408 68.3096 33.5408V37.126ZM62.9455 40.5027C63.8745 38.5165 65.921 37.126 68.3096 37.126V33.5408C64.4997 33.5408 61.204 35.7638 59.698 38.9837L62.9455 40.5027ZM58.6783 41.5358H61.3217V37.9506H58.6783V41.5358ZM51.6905 37.126C54.0791 37.126 56.1256 38.5165 57.0546 40.5027L60.3021 38.9837C58.796 35.7638 55.5004 33.5408 51.6905 33.5408V37.126ZM45.7926 42.9123C45.7926 39.7412 48.4084 37.126 51.6905 37.126V33.5408C46.4779 33.5408 42.2074 37.712 42.2074 42.9123H45.7926ZM51.6905 48.6987C48.4084 48.6987 45.7926 46.0835 45.7926 42.9123H42.2074C42.2074 48.1127 46.4779 52.2839 51.6905 52.2839V48.6987ZM57.4064 44.3456C56.7609 46.8333 54.4577 48.6987 51.6905 48.6987V52.2839C56.0983 52.2839 59.8228 49.3075 60.8767 45.2461L57.4064 44.3456ZM60.8585 43.0032H59.1416V46.5884H60.8585V43.0032ZM68.3096 48.6987C65.5424 48.6987 63.2392 46.8333 62.5936 44.3456L59.1234 45.2461C60.1773 49.3075 63.9018 52.2839 68.3096 52.2839V48.6987Z" fill="#264887" mask="url(#path-12-inside-3)"/>
<mask id="path-14-inside-4" fill="white">
<path fill-rule="evenodd" clip-rule="evenodd" d="M60 20.7249C56.5849 17.1323 50.0005 17.9778 48.077 23.2611L45.5564 30.1847C40.142 31.4055 36.6666 33.2973 36.6666 35.4209C36.6666 39.1028 47.1133 42.0876 60 42.0876C72.8866 42.0876 83.3333 39.1028 83.3333 35.4209C83.3333 33.2973 79.8579 31.4055 74.4435 30.1847L71.9229 23.2612C69.9994 17.9778 63.4151 17.1324 60 20.7249Z"/>
</mask>
<g filter="url(#filter4_i)">
<path fill-rule="evenodd" clip-rule="evenodd" d="M60 20.7249C56.5849 17.1323 50.0005 17.9778 48.077 23.2611L45.5564 30.1847C40.142 31.4055 36.6666 33.2973 36.6666 35.4209C36.6666 39.1028 47.1133 42.0876 60 42.0876C72.8866 42.0876 83.3333 39.1028 83.3333 35.4209C83.3333 33.2973 79.8579 31.4055 74.4435 30.1847L71.9229 23.2612C69.9994 17.9778 63.4151 17.1324 60 20.7249Z" fill="white"/>
</g>
<path d="M60 20.7249L58.7007 21.96L60 23.3267L61.2992 21.96L60 20.7249ZM48.077 23.2611L46.3926 22.6479V22.6479L48.077 23.2611ZM45.5564 30.1847L45.9507 31.9334L46.9059 31.718L47.2408 30.7979L45.5564 30.1847ZM74.4435 30.1847L72.7591 30.7979L73.0941 31.718L74.0492 31.9334L74.4435 30.1847ZM71.9229 23.2612L73.6073 22.6479L71.9229 23.2612ZM61.2992 19.4899C57.0451 15.0146 48.8095 16.0092 46.3926 22.6479L49.7614 23.8744C51.1915 19.9463 56.1247 19.2501 58.7007 21.96L61.2992 19.4899ZM46.3926 22.6479L43.872 29.5714L47.2408 30.7979L49.7614 23.8744L46.3926 22.6479ZM45.1621 28.436C42.369 29.0658 39.9514 29.8935 38.1859 30.9112C36.5439 31.8577 34.874 33.3234 34.874 35.4209H38.4592C38.4592 35.3947 38.527 34.8528 39.9764 34.0173C41.3021 33.253 43.3294 32.5244 45.9507 31.9334L45.1621 28.436ZM34.874 35.4209C34.874 37.2511 36.1578 38.5968 37.4969 39.5013C38.8984 40.4481 40.8088 41.2301 43.0083 41.8586C47.4319 43.1224 53.4387 43.8802 60 43.8802V40.295C53.6746 40.295 48.0147 39.5603 43.9933 38.4113C41.9703 37.8334 40.4636 37.1788 39.5037 36.5304C38.4813 35.8398 38.4592 35.4317 38.4592 35.4209H34.874ZM60 43.8802C66.5612 43.8802 72.5681 43.1224 76.9916 41.8586C79.1912 41.2301 81.1015 40.4481 82.5031 39.5013C83.8421 38.5968 85.1259 37.2511 85.1259 35.4209H81.5407C81.5407 35.4317 81.5187 35.8398 80.4962 36.5304C79.5364 37.1788 78.0296 37.8334 76.0067 38.4113C71.9852 39.5603 66.3254 40.295 60 40.295V43.8802ZM85.1259 35.4209C85.1259 33.3234 83.456 31.8577 81.8141 30.9112C80.0485 29.8935 77.6309 29.0658 74.8378 28.436L74.0492 31.9334C76.6705 32.5244 78.6978 33.253 80.0236 34.0173C81.4729 34.8528 81.5407 35.3947 81.5407 35.4209H85.1259ZM70.2385 23.8744L72.7591 30.7979L76.128 29.5714L73.6073 22.6479L70.2385 23.8744ZM61.2992 21.96C63.8752 19.2501 68.8084 19.9463 70.2385 23.8744L73.6073 22.6479C71.1904 16.0092 62.9549 15.0146 58.7007 19.4899L61.2992 21.96Z" fill="#264887" mask="url(#path-14-inside-4)"/>
<path d="M56.4077 33.2343C55.4105 33.8819 54.077 33.5985 53.4294 32.6013C52.7818 31.604 53.0652 30.2706 54.0625 29.6229C55.0597 28.9753 56.3932 29.2587 57.0408 30.256C57.6884 31.2533 57.405 32.5867 56.4077 33.2343Z" stroke="#D32D27" stroke-width="1.79259"/>
<path d="M57.555 30.0241L64.8636 25.2778" stroke="#D32D27" stroke-width="1.79259" stroke-linecap="square"/>
<path d="M65.3311 25.5129L66.8073 27.7861" stroke="#D32D27" stroke-width="1.79259" stroke-linecap="square"/>
<path d="M61.8228 27.6668L62.7454 29.0876" stroke="#D32D27" stroke-width="1.79259" stroke-linecap="square"/>
<rect width="4" height="4" transform="matrix(0.707107 -0.707106 0.707107 0.707106 94.5049 71.3334)" stroke="#B5D9F1" stroke-width="1.79259" stroke-linecap="round" stroke-linejoin="round"/>
<path fill-rule="evenodd" clip-rule="evenodd" d="M25.3334 63.3334C26.4379 63.3334 27.3334 62.4379 27.3334 61.3334C27.3334 60.2288 26.4379 59.3334 25.3334 59.3334C24.2288 59.3334 23.3334 60.2288 23.3334 61.3334C23.3334 62.4379 24.2288 63.3334 25.3334 63.3334Z" stroke="#B5D9F1" stroke-width="1.79259" stroke-linecap="round" stroke-linejoin="round"/>
<rect x="22" y="30" width="4" height="4" stroke="#B5D9F1" stroke-width="1.79259" stroke-linecap="round" stroke-linejoin="round"/>
<path d="M82.8034 22.8033L85.9186 25.9185" stroke="#B5D9F1" stroke-width="1.79259" stroke-linecap="round" stroke-linejoin="round"/>
<path d="M85.8087 22.8033L82.6935 25.9185" stroke="#B5D9F1" stroke-width="1.79259" stroke-linecap="round" stroke-linejoin="round"/>
<defs>
<filter id="filter0_i" x="30.4371" y="42.437" width="59.1259" height="48.0662" filterUnits="userSpaceOnUse" color-interpolation-filters="sRGB">
<feFlood flood-opacity="0" result="BackgroundImageFix"/>
<feBlend mode="normal" in="SourceGraphic" in2="BackgroundImageFix" result="shape"/>
<feColorMatrix in="SourceAlpha" type="matrix" values="0 0 0 0 0 0 0 0 0 0 0 0 0 0 0 0 0 0 127 0" result="hardAlpha"/>
<feOffset dx="-5.37778" dy="-6.27407"/>
<feComposite in2="hardAlpha" operator="arithmetic" k2="-1" k3="1"/>
<feColorMatrix type="matrix" values="0 0 0 0 0.709804 0 0 0 0 0.85098 0 0 0 0 0.945098 0 0 0 1 0"/>
<feBlend mode="normal" in2="shape" result="effect1_innerShadow"/>
</filter>
<filter id="filter1_i" x="44" y="28" width="32" height="32" filterUnits="userSpaceOnUse" color-interpolation-filters="sRGB">
<feFlood flood-opacity="0" result="BackgroundImageFix"/>
<feBlend mode="normal" in="SourceGraphic" in2="BackgroundImageFix" result="shape"/>
<feColorMatrix in="SourceAlpha" type="matrix" values="0 0 0 0 0 0 0 0 0 0 0 0 0 0 0 0 0 0 127 0" result="hardAlpha"/>
<feOffset dx="5.37778" dy="-4.48148"/>
<feComposite in2="hardAlpha" operator="arithmetic" k2="-1" k3="1"/>
<feColorMatrix type="matrix" values="0 0 0 0 0.564706 0 0 0 0 0.776471 0 0 0 0 0.921569 0 0 0 1 0"/>
<feBlend mode="normal" in2="shape" result="effect1_innerShadow"/>
</filter>
<filter id="filter2_di" x="60.0001" y="41.2731" width="26.0275" height="43.2183" filterUnits="userSpaceOnUse" color-interpolation-filters="sRGB">
<feFlood flood-opacity="0" result="BackgroundImageFix"/>
<feColorMatrix in="SourceAlpha" type="matrix" values="0 0 0 0 0 0 0 0 0 0 0 0 0 0 0 0 0 0 127 0"/>
<feOffset dx="2.68889" dy="0.896296"/>
<feColorMatrix type="matrix" values="0 0 0 0 0.709804 0 0 0 0 0.85098 0 0 0 0 0.945098 0 0 0 1 0"/>
<feBlend mode="normal" in2="BackgroundImageFix" result="effect1_dropShadow"/>
<feBlend mode="normal" in="SourceGraphic" in2="effect1_dropShadow" result="shape"/>
<feColorMatrix in="SourceAlpha" type="matrix" values="0 0 0 0 0 0 0 0 0 0 0 0 0 0 0 0 0 0 127 0" result="hardAlpha"/>
<feOffset dx="-4.48148" dy="0.896296"/>
<feComposite in2="hardAlpha" operator="arithmetic" k2="-1" k3="1"/>
<feColorMatrix type="matrix" values="0 0 0 0 0.709804 0 0 0 0 0.85098 0 0 0 0 0.945098 0 0 0 1 0"/>
<feBlend mode="normal" in2="shape" result="effect2_innerShadow"/>
</filter>
<filter id="filter3_i" x="36.3282" y="41.2274" width="23.6716" height="42.4079" filterUnits="userSpaceOnUse" color-interpolation-filters="sRGB">
<feFlood flood-opacity="0" result="BackgroundImageFix"/>
<feBlend mode="normal" in="SourceGraphic" in2="BackgroundImageFix" result="shape"/>
<feColorMatrix in="SourceAlpha" type="matrix" values="0 0 0 0 0 0 0 0 0 0 0 0 0 0 0 0 0 0 127 0" result="hardAlpha"/>
<feOffset dy="8.96296"/>
<feComposite in2="hardAlpha" operator="arithmetic" k2="-1" k3="1"/>
<feColorMatrix type="matrix" values="0 0 0 0 0.709804 0 0 0 0 0.85098 0 0 0 0 0.945098 0 0 0 1 0"/>
<feBlend mode="normal" in2="shape" result="effect1_innerShadow"/>
</filter>
<filter id="filter4_i" x="36.6666" y="18.5438" width="46.6667" height="23.5438" filterUnits="userSpaceOnUse" color-interpolation-filters="sRGB">
<feFlood flood-opacity="0" result="BackgroundImageFix"/>
<feBlend mode="normal" in="SourceGraphic" in2="BackgroundImageFix" result="shape"/>
<feColorMatrix in="SourceAlpha" type="matrix" values="0 0 0 0 0 0 0 0 0 0 0 0 0 0 0 0 0 0 127 0" result="hardAlpha"/>
<feOffset dx="5.37778" dy="-4.48148"/>
<feComposite in2="hardAlpha" operator="arithmetic" k2="-1" k3="1"/>
<feColorMatrix type="matrix" values="0 0 0 0 0.709804 0 0 0 0 0.85098 0 0 0 0 0.945098 0 0 0 1 0"/>
<feBlend mode="normal" in2="shape" result="effect1_innerShadow"/>
</filter>
</defs>
</svg>
