<svg width="24" height="24" viewBox="0 0 24 24" fill="none" xmlns="http://www.w3.org/2000/svg">
    <path fill-rule="evenodd" clip-rule="evenodd" d="M12 14.1213L5.63604 20.4853C5.35473 20.7666 4.9732 20.9246 4.57538 20.9246C4.17755 20.9246 3.79602 20.7666 3.51472 20.4853C3.23341 20.204 3.07538 19.8224 3.07538 19.4246C3.07538 19.0268 3.23341 18.6453 3.51472 18.364L9.87868 12L3.51472 5.63604C3.23341 5.35473 3.07538 4.9732 3.07538 4.57538C3.07538 4.17755 3.23341 3.79602 3.51472 3.51472C3.79602 3.23341 4.17755 3.07538 4.57538 3.07538C4.9732 3.07538 5.35473 3.23341 5.63604 3.51472L12 9.87868L18.364 3.51472C18.6453 3.23341 19.0268 3.07538 19.4246 3.07538C19.8224 3.07538 20.204 3.23341 20.4853 3.51472C20.7666 3.79602 20.9246 4.17755 20.9246 4.57538C20.9246 4.9732 20.7666 5.35473 20.4853 5.63604L14.1213 12L20.4853 18.364C20.7666 18.6453 20.9246 19.0268 20.9246 19.4246C20.9246 19.8224 20.7666 20.204 20.4853 20.4853C20.204 20.7666 19.8224 20.9246 19.4246 20.9246C19.0268 20.9246 18.6453 20.7666 18.364 20.4853L12 14.1213Z" fill="currentColor"/>
</svg>
