<svg width="16" height="16" viewBox="0 0 16 16" xmlns="http://www.w3.org/2000/svg">
    <defs/>
    <path d=" M 15.919882,4.5599662 C 15.999881,4.4799668 15.999881,4.3999674 15.999881,4.3999674 C 15.999881,4.319968 15.999881,4.2399686 15.999881,4.1599692 C 15.919882,4.1599692 15.919882,4.0799698 15.839883,4.0799698 C 15.759883,3.9999704 15.759883,3.9999704 15.679884,3.9999704 L 15.519885,3.9999704 C 15.439886,3.9999704 15.439886,3.9999704 15.359886,3.919971 C 15.359886,3.919971 15.359886,3.8399716 15.359886,3.8399716 L 15.359886,2.6399804 C 15.359886,2.159984 15.119888,1.5999881 14.719891,1.2799905 C 14.399893,0.87999348 13.839897,0.63999526 13.359901,0.63999526 L 12.15991,0.63999526 C 12.15991,0.63999526 12.079911,0.63999526 12.079911,0.63999526 C 11.999911,0.55999585 11.999911,0.55999585 11.999911,0.47999644 L 11.999911,0.31999763 C 11.999911,0.23999822 11.999911,0.23999822 11.919912,0.15999881 C 11.919912,0.079999407 11.839912,0.079999407 11.839912,0 C 11.759913,0 11.679913,0 11.599914,0 C 11.599914,0 11.519915,0 11.439915,0.079999407 L 10.159925,1.0399923 C 10.079925,1.1199917 10.079925,1.1199917 9.9999259,1.1999911 C 9.9999259,1.1999911 9.9999259,1.2799905 9.9999259,1.3599899 C 9.9999259,1.3599899 9.9999259,1.4399893 9.9999259,1.5199887 C 10.079925,1.5199887 10.079925,1.5999881 10.159925,1.5999881 L 11.439915,2.6399804 C 11.519915,2.6399804 11.599914,2.6399804 11.599914,2.6399804 C 11.679913,2.6399804 11.759913,2.6399804 11.839912,2.6399804 C 11.839912,2.6399804 11.919912,2.559981 11.919912,2.4799816 C 11.999911,2.4799816 11.999911,2.3999822 11.999911,2.3199828 L 11.999911,2.159984 C 11.999911,2.159984 11.999911,2.0799846 12.079911,2.0799846 C 12.079911,1.9999852 12.15991,1.9999852 12.15991,1.9999852 L 13.359901,1.9999852 C 13.5199,1.9999852 13.679899,2.0799846 13.839897,2.159984 C 13.919897,2.3199828 13.999896,2.4799816 13.999896,2.6399804 L 13.999896,3.8399716 C 13.999896,3.8399716 13.999896,3.919971 13.919897,3.919971 C 13.919897,3.9999704 13.839897,3.9999704 13.839897,3.9999704 L 13.679899,3.9999704 C 13.599899,3.9999704 13.5199,3.9999704 13.5199,4.0799698 C 13.4399,4.0799698 13.359901,4.1599692 13.359901,4.1599692 C 13.359901,4.2399686 13.359901,4.319968 13.359901,4.3999674 C 13.359901,4.3999674 13.359901,4.4799668 13.4399,4.5599662 L 14.399893,5.8399567 C 14.399893,5.9199561 14.479893,5.9199561 14.479893,5.9999556 C 14.559892,5.9999556 14.639892,5.9999556 14.639892,5.9999556 C 14.719891,5.9999556 14.79989,5.9999556 14.79989,5.9999556 C 14.87989,5.9199561 14.87989,5.9199561 14.959889,5.8399567 z " style="fill:#41536b;fill-rule:nonzero;fill-opacity:1;stroke:none"/>
    <path d=" M 7.3599455,2.6399804 L 1.3599899,2.6399804 C 0.55999585,2.6399804 0,3.2799757 0,3.9999704 L 0,9.9999259 C 0,10.719921 0.55999585,11.359916 1.3599899,11.359916 L 7.3599455,11.359916 C 8.0799401,11.359916 8.639936,10.719921 8.639936,9.9999259 L 8.639936,3.9999704 C 8.639936,3.2799757 8.0799401,2.6399804 7.3599455,2.6399804 z " style="fill:#41536b;fill-rule:nonzero;fill-opacity:1;stroke:none"/>
    <path d=" M 13.359901,7.9999407 C 13.359901,7.6799431 13.199902,7.2799461 12.959904,7.0399479 C 12.719906,6.7999496 12.319909,6.6399508 11.999911,6.6399508 L 10.319924,6.6399508 C 10.159925,6.6399508 9.9999259,6.7199502 9.8399271,6.879949 C 9.7599277,6.9599484 9.6799283,7.1199473 9.6799283,7.3599455 C 9.6799283,7.5199443 9.7599277,7.6799431 9.8399271,7.8399419 C 9.9999259,7.9199413 10.159925,7.9999407 10.319924,7.9999407 L 11.679913,7.9999407 C 11.759913,7.9999407 11.839912,7.9999407 11.919912,8.0799401 C 11.999911,8.1599396 11.999911,8.239939 11.999911,8.3199384 L 11.999911,14.319894 C 11.999911,14.399893 11.999911,14.479893 11.919912,14.559892 C 11.839912,14.639892 11.759913,14.639892 11.679913,14.639892 L 5.6799579,14.639892 C 5.5999585,14.639892 5.5199591,14.639892 5.4399597,14.559892 C 5.3599603,14.479893 5.3599603,14.399893 5.3599603,14.319894 L 5.3599603,13.039903 C 5.3599603,12.799905 5.2799609,12.639906 5.1199621,12.559907 C 5.0399627,12.399908 4.8799639,12.319909 4.6399656,12.319909 C 4.4799668,12.319909 4.319968,12.399908 4.1599692,12.559907 C 4.0799698,12.639906 3.9999704,12.799905 3.9999704,13.039903 L 3.9999704,14.639892 C 3.9999704,15.039889 4.1599692,15.359886 4.3999674,15.599884 C 4.6399656,15.839883 4.9599633,15.999881 5.3599603,15.999881 L 11.999911,15.999881 C 12.319909,15.999881 12.719906,15.839883 12.959904,15.599884 C 13.199902,15.359886 13.359901,15.039889 13.359901,14.639892 z " style="fill:#41536b;fill-rule:nonzero;fill-opacity:1;stroke:none"/>
</svg>
