<?xml version="1.0" encoding="UTF-8"?>
<svg width="22px" height="15px" viewBox="0 0 22 15" version="1.1" xmlns="http://www.w3.org/2000/svg" xmlns:xlink="http://www.w3.org/1999/xlink">
    <g stroke="none" stroke-width="1" fill="none" fill-rule="evenodd" transform="translate(0,.5)">
        <g transform="translate(-428.000000, -251.000000)" fill="currentColor" fill-rule="nonzero">
            <path d="M428,258 C428,257 432.4,251 439,251 C445.6,251 450,257 450,258 C450,259 445.6,265 439,265 C432.4,265 428,259 428,258 Z M429.59703,258.924261 C430.123617,259.642334 430.842414,260.412206 431.670052,261.110861 C433.807484,262.915187 436.323077,264 439,264 C441.676923,264 444.192516,262.915187 446.329948,261.110861 C447.157586,260.412206 447.876383,259.642334 448.40297,258.924261 C448.763474,258.432665 448.988567,257.998978 448.999577,257.999129 C448.988519,258.00093 448.763436,257.567283 448.40297,257.075739 C447.876383,256.357666 447.157586,255.587794 446.329948,254.889139 C444.192516,253.084813 441.676923,252 439,252 C436.323077,252 433.807484,253.084813 431.670052,254.889139 C430.842414,255.587794 430.123617,256.357666 429.59703,257.075739 C429.236564,257.567283 429.011481,258.00093 429.000423,258.000871 C429.011433,257.998978 429.236526,258.432665 429.59703,258.924261 Z M439,263 C436.238576,263 434,260.761424 434,258 C434,255.238576 436.238576,253 439,253 C441.761424,253 444,255.238576 444,258 C444,260.761424 441.761424,263 439,263 Z M439,260 C440.104569,260 441,259.104569 441,258 C441,256.895431 440.104569,256 439,256 C437.895431,256 437,256.895431 437,258 C437,259.104569 437.895431,260 439,260 Z"/>
        </g>
    </g>
</svg>
