<svg width="16" height="16" viewBox="0 0 16 16" fill="none" xmlns="http://www.w3.org/2000/svg">
<path d="M15.6212 7.01599C13.8579 5.07599 10.9332 3.02533 7.99985 3.06666C5.06652 3.02466 2.14185 5.07666 0.378519 7.01599C0.136805 7.28624 0.00317383 7.63609 0.00317383 7.99866C0.00317383 8.36123 0.136805 8.71108 0.378519 8.98133C2.12119 10.9007 5.00452 12.9333 7.89252 12.9333H8.09785C10.9959 12.9333 13.8785 10.9007 15.6232 8.98066C15.8646 8.71028 15.9978 8.3604 15.9975 7.99794C15.9971 7.63549 15.8631 7.28588 15.6212 7.01599ZM4.93319 7.99999C4.93319 7.39346 5.11304 6.80055 5.45001 6.29624C5.78698 5.79193 6.26593 5.39887 6.82629 5.16676C7.38665 4.93465 8.00325 4.87392 8.59813 4.99225C9.193 5.11058 9.73943 5.40265 10.1683 5.83153C10.5972 6.26041 10.8893 6.80684 11.0076 7.40172C11.1259 7.99659 11.0652 8.61319 10.8331 9.17355C10.601 9.73391 10.2079 10.2129 9.7036 10.5498C9.19929 10.8868 8.60638 11.0667 7.99985 11.0667C7.18652 11.0667 6.4065 10.7436 5.83139 10.1685C5.25628 9.59334 4.93319 8.81332 4.93319 7.99999Z" fill="#41536B"/>
<path d="M8.00008 9.33331C8.73646 9.33331 9.33341 8.73635 9.33341 7.99997C9.33341 7.26359 8.73646 6.66664 8.00008 6.66664C7.2637 6.66664 6.66675 7.26359 6.66675 7.99997C6.66675 8.73635 7.2637 9.33331 8.00008 9.33331Z" fill="#41536B"/>
</svg>
