<svg width="24" height="24" viewBox="0 0 24 24" fill="none" xmlns="http://www.w3.org/2000/svg">
    <path d="M9.375 13.5C9.375 13.3011 9.45402 13.1103 9.59467 12.9697C9.73532 12.829 9.92609 12.75 10.125 12.75H13.875C14.0739 12.75 14.2647 12.829 14.4053 12.9697C14.546 13.1103 14.625 13.3011 14.625 13.5V13.75C14.625 13.8826 14.6777 14.0098 14.7714 14.1036C14.8652 14.1973 14.9924 14.25 15.125 14.25H23C23.1326 14.25 23.2598 14.1973 23.3536 14.1036C23.4473 14.0098 23.5 13.8826 23.5 13.75V10C23.5 9.7348 23.3946 9.48044 23.2071 9.29291C23.0196 9.10537 22.7652 9.00002 22.5 9.00002H16.975C16.8512 7.76659 16.2736 6.62313 15.3543 5.7915C14.4351 4.95988 13.2396 4.49939 12 4.49939C10.7604 4.49939 9.56494 4.95988 8.64567 5.7915C7.72639 6.62313 7.14881 7.76659 7.025 9.00002H1.5C1.23478 9.00002 0.98043 9.10537 0.792893 9.29291C0.605357 9.48044 0.5 9.7348 0.5 10V13.75C0.5 13.8826 0.552678 14.0098 0.646447 14.1036C0.740215 14.1973 0.867392 14.25 1 14.25H8.875C9.00761 14.25 9.13479 14.1973 9.22855 14.1036C9.32232 14.0098 9.375 13.8826 9.375 13.75V13.5ZM12 6.50002C12.709 6.50002 13.395 6.75111 13.9365 7.20874C14.4779 7.66637 14.8398 8.30098 14.958 9.00002H9.042C9.16016 8.30098 9.52206 7.66637 10.0635 7.20874C10.605 6.75111 11.291 6.50002 12 6.50002Z" fill="currentColor"/>
    <path d="M14.625 16.626C14.6245 17.0151 14.5377 17.3992 14.3708 17.7507C14.2039 18.1022 13.9611 18.4122 13.6598 18.6585C13.3586 18.9047 13.0064 19.081 12.6288 19.1747C12.2511 19.2683 11.8574 19.277 11.476 19.2C10.8718 19.0624 10.3333 18.7211 9.95096 18.2335C9.56859 17.7459 9.36558 17.1416 9.376 16.522V16.251C9.376 16.1184 9.32332 15.9912 9.22955 15.8975C9.13579 15.8037 9.00861 15.751 8.876 15.751H1C0.867392 15.751 0.740215 15.8037 0.646447 15.8975C0.552678 15.9912 0.5 16.1184 0.5 16.251V23C0.5 23.2652 0.605357 23.5196 0.792893 23.7071C0.98043 23.8947 1.23478 24 1.5 24H22.5C22.7652 24 23.0196 23.8947 23.2071 23.7071C23.3946 23.5196 23.5 23.2652 23.5 23V16.25C23.5 16.1174 23.4473 15.9902 23.3536 15.8965C23.2598 15.8027 23.1326 15.75 23 15.75H15.17C15.1007 15.7437 15.0308 15.752 14.9648 15.7743C14.8989 15.7966 14.8383 15.8325 14.787 15.8795C14.7357 15.9266 14.6948 15.9839 14.6669 16.0477C14.639 16.1115 14.6247 16.1804 14.625 16.25V16.626Z" fill="currentColor"/>
    <path d="M12.625 14.251H11.375C11.2424 14.251 11.1152 14.3037 11.0214 14.3975C10.9277 14.4912 10.875 14.6184 10.875 14.751V16.626C10.875 16.9244 10.9935 17.2105 11.2045 17.4215C11.4155 17.6325 11.7016 17.751 12 17.751C12.2984 17.751 12.5845 17.6325 12.7955 17.4215C13.0065 17.2105 13.125 16.9244 13.125 16.626V14.751C13.125 14.6184 13.0723 14.4912 12.9786 14.3975C12.8848 14.3037 12.7576 14.251 12.625 14.251Z" fill="currentColor"/>
</svg>
