<svg width="40" height="40" viewBox="0 0 40 40" fill="none" xmlns="http://www.w3.org/2000/svg">
<circle cx="20" cy="20" r="20" fill="#FBEBEB"/>
<path d="M27.5 17.5H26.75V14.75C26.75 12.9598 26.0388 11.2429 24.773 9.97703C23.5071 8.71116 21.7902 8 20 8C18.2098 8 16.4929 8.71116 15.227 9.97703C13.9612 11.2429 13.25 12.9598 13.25 14.75V17.5H12.5C11.9696 17.5 11.4609 17.7107 11.0858 18.0858C10.7107 18.4609 10.5 18.9696 10.5 19.5V30C10.5 30.5304 10.7107 31.0391 11.0858 31.4142C11.4609 31.7893 11.9696 32 12.5 32H27.5C28.0304 32 28.5391 31.7893 28.9142 31.4142C29.2893 31.0391 29.5 30.5304 29.5 30V19.5C29.5 18.9696 29.2893 18.4609 28.9142 18.0858C28.5391 17.7107 28.0304 17.5 27.5 17.5ZM20 26.5C19.6044 26.5 19.2178 26.3827 18.8889 26.1629C18.56 25.9432 18.3036 25.6308 18.1522 25.2654C18.0009 24.8999 17.9613 24.4978 18.0384 24.1098C18.1156 23.7219 18.3061 23.3655 18.5858 23.0858C18.8655 22.8061 19.2219 22.6156 19.6098 22.5384C19.9978 22.4613 20.3999 22.5009 20.7654 22.6522C21.1308 22.8036 21.4432 23.06 21.6629 23.3889C21.8827 23.7178 22 24.1044 22 24.5C22 25.0304 21.7893 25.5391 21.4142 25.9142C21.0391 26.2893 20.5304 26.5 20 26.5ZM24.25 17C24.25 17.1326 24.1973 17.2598 24.1036 17.3536C24.0098 17.4473 23.8826 17.5 23.75 17.5H16.25C16.1174 17.5 15.9902 17.4473 15.8964 17.3536C15.8027 17.2598 15.75 17.1326 15.75 17V14.75C15.75 13.6228 16.1978 12.5418 16.9948 11.7448C17.7918 10.9478 18.8728 10.5 20 10.5C21.1272 10.5 22.2082 10.9478 23.0052 11.7448C23.8022 12.5418 24.25 13.6228 24.25 14.75V17Z" fill="#D32D27"/>
</svg>
