<svg width="16" height="17" viewBox="0 0 16 17" fill="none" xmlns="http://www.w3.org/2000/svg">
    <g clip-path="url(#icon-newspaper_svg__clip0)">
        <path d="M5.83447 3.31445H3.66781C3.20757 3.31445 2.83447 3.68755 2.83447 4.14779V7.31445C2.83447 7.77469 3.20757 8.14779 3.66781 8.14779H5.83447C6.29471 8.14779 6.66781 7.77469 6.66781 7.31445V4.14779C6.66781 3.68755 6.29471 3.31445 5.83447 3.31445Z" fill="#41536B"/>
        <path d="M16 6.98104C16 6.45061 15.7893 5.9419 15.4142 5.56682C15.0391 5.19175 14.5304 4.98104 14 4.98104H12.6667V1.98104C12.6667 1.62742 12.5262 1.28828 12.2761 1.03823C12.0261 0.788181 11.687 0.647705 11.3333 0.647705H1.33333C0.979711 0.647705 0.640573 0.788181 0.390524 1.03823C0.140476 1.28828 0 1.62742 0 1.98104L0 13.6477C0 14.2665 0.245833 14.86 0.683417 15.2976C1.121 15.7352 1.71449 15.981 2.33333 15.981H13.6667C14.2855 15.981 14.879 15.7352 15.3166 15.2976C15.7542 14.86 16 14.2665 16 13.6477V6.98104ZM2.33333 14.6477C2.06812 14.6477 1.81376 14.5423 1.62623 14.3548C1.43869 14.1673 1.33333 13.9129 1.33333 13.6477V2.31437C1.33333 2.22597 1.36845 2.14118 1.43096 2.07867C1.49348 2.01616 1.57826 1.98104 1.66667 1.98104H11C11.0884 1.98104 11.1732 2.01616 11.2357 2.07867C11.2982 2.14118 11.3333 2.22597 11.3333 2.31437V13.6477C11.3331 13.8442 11.3577 14.04 11.4067 14.2304C11.4194 14.2796 11.4207 14.3311 11.4104 14.3809C11.4001 14.4308 11.3786 14.4776 11.3475 14.5178C11.3163 14.558 11.2764 14.5906 11.2307 14.613C11.1851 14.6354 11.1349 14.647 11.084 14.647L2.33333 14.6477ZM14.6667 13.6477C14.6667 13.9129 14.5613 14.1673 14.3738 14.3548C14.1862 14.5423 13.9319 14.6477 13.6667 14.6477C13.4015 14.6477 13.1471 14.5423 12.9596 14.3548C12.772 14.1673 12.6667 13.9129 12.6667 13.6477V6.64771C12.6667 6.5593 12.7018 6.47451 12.7643 6.412C12.8268 6.34949 12.9116 6.31437 13 6.31437H14C14.1768 6.31437 14.3464 6.38461 14.4714 6.50963C14.5964 6.63466 14.6667 6.80423 14.6667 6.98104V13.6477Z" fill="#41536B"/>
        <path d="M8.50067 4.34595H9.834C9.96661 4.34595 10.0938 4.39863 10.1876 4.49239C10.2813 4.58616 10.334 4.71334 10.334 4.84595V5.17928C10.334 5.31189 10.2813 5.43907 10.1876 5.53283C10.0938 5.6266 9.96661 5.67928 9.834 5.67928H8.50067C8.4351 5.67946 8.37013 5.66671 8.30948 5.64178C8.24883 5.61685 8.19369 5.58022 8.1472 5.53397C8.1007 5.48773 8.06378 5.43278 8.03852 5.37227C8.01327 5.31175 8.00018 5.24685 8 5.18128V4.84795C7.99983 4.78209 8.01265 4.71684 8.03773 4.65594C8.06281 4.59504 8.09966 4.53969 8.14617 4.49306C8.19268 4.44643 8.24793 4.40943 8.30876 4.38419C8.36959 4.35894 8.43481 4.34595 8.50067 4.34595Z" fill="#41536B"/>
        <path d="M8.50067 7.01245H9.834C9.96661 7.01245 10.0938 7.06513 10.1876 7.1589C10.2813 7.25267 10.334 7.37984 10.334 7.51245V7.84579C10.334 7.97839 10.2813 8.10557 10.1876 8.19934C10.0938 8.29311 9.96661 8.34579 9.834 8.34579H8.50067C8.36829 8.34596 8.24124 8.29364 8.14739 8.20028C8.05353 8.10693 8.00053 7.98016 8 7.84779V7.51445C7.99983 7.44859 8.01265 7.38334 8.03773 7.32245C8.06281 7.26155 8.09966 7.2062 8.14617 7.15956C8.19268 7.11293 8.24793 7.07593 8.30876 7.05069C8.36959 7.02544 8.43481 7.01245 8.50067 7.01245Z" fill="#41536B"/>
        <path d="M3.16717 9.6792H9.83384C9.96645 9.6792 10.0936 9.73188 10.1874 9.82565C10.2812 9.91941 10.3338 10.0466 10.3338 10.1792V10.5125C10.3338 10.6451 10.2812 10.7723 10.1874 10.8661C10.0936 10.9599 9.96645 11.0125 9.83384 11.0125H3.16717C3.03479 11.0127 2.90775 10.9604 2.81389 10.867C2.72004 10.7737 2.66704 10.6469 2.66651 10.5145V10.1812C2.66633 10.1153 2.67915 10.0501 2.70423 9.98919C2.72932 9.9283 2.76617 9.87295 2.81268 9.82631C2.85918 9.77968 2.91444 9.74268 2.97527 9.71744C3.0361 9.69219 3.10131 9.6792 3.16717 9.6792Z" fill="#41536B"/>
        <path d="M3.16651 12.3459H8.16651C8.29912 12.3459 8.42629 12.3986 8.52006 12.4924C8.61383 12.5862 8.66651 12.7133 8.66651 12.8459V13.1793C8.66651 13.3119 8.61383 13.4391 8.52006 13.5328C8.42629 13.6266 8.29912 13.6793 8.16651 13.6793H3.16651C3.03419 13.6795 2.90721 13.6271 2.81347 13.5337C2.71972 13.4404 2.66686 13.3136 2.66651 13.1813V12.8479C2.66624 12.7821 2.67898 12.7169 2.70399 12.656C2.729 12.5951 2.76579 12.5397 2.81225 12.4931C2.8587 12.4465 2.91391 12.4094 2.9747 12.3842C3.0355 12.3589 3.10068 12.3459 3.16651 12.3459Z" fill="#41536B"/>
    </g>
    <defs>
        <clipPath id="icon-newspaper_svg__clip0">
            <rect y="0.314453" width="16" height="16" fill="white"/>
        </clipPath>
    </defs>
</svg>
