<svg width="24" height="24" viewBox="0 0 24 24" fill="none" xmlns="http://www.w3.org/2000/svg">
    <g clip-path="url(#icon-signout_svg__clip0)">
        <path d="M7 14.5C6.55546 14.5004 6.11639 14.4019 5.71455 14.2118C5.31272 14.0217 4.95815 13.7446 4.67651 13.4007C4.39487 13.0567 4.19318 12.6545 4.08604 12.223C3.9789 11.7916 3.96898 11.3417 4.057 10.906C4.2105 10.2143 4.59839 9.59689 5.15496 9.15841C5.71153 8.71993 6.40257 8.48733 7.111 8.5H14C14.1326 8.5 14.2598 8.44732 14.3536 8.35355C14.4473 8.25979 14.5 8.13261 14.5 8V1.5C14.5 1.23478 14.3946 0.98043 14.2071 0.792893C14.0196 0.605357 13.7652 0.5 13.5 0.5H1C0.734784 0.5 0.48043 0.605357 0.292893 0.792893C0.105357 0.98043 0 1.23478 0 1.5L0 22.5C0 22.7652 0.105357 23.0196 0.292893 23.2071C0.48043 23.3946 0.734784 23.5 1 23.5H13.5C13.7652 23.5 14.0196 23.3946 14.2071 23.2071C14.3946 23.0196 14.5 22.7652 14.5 22.5V15C14.5 14.8674 14.4473 14.7402 14.3536 14.6464C14.2598 14.5527 14.1326 14.5 14 14.5H7Z" fill="currentColor"/>
        <path d="M23.625 10.719L22.466 9.79299L21.123 8.71799L18.623 6.71799C18.4758 6.60077 18.2985 6.52745 18.1116 6.50646C17.9246 6.48547 17.7354 6.51766 17.5659 6.59933C17.3964 6.68101 17.2534 6.80885 17.1533 6.96817C17.0532 7.1275 17 7.31183 17 7.49999V9.99999H7C6.60218 9.99999 6.22064 10.158 5.93934 10.4393C5.65804 10.7206 5.5 11.1022 5.5 11.5C5.5 11.8978 5.65804 12.2793 5.93934 12.5607C6.22064 12.842 6.60218 13 7 13H17V15.5C16.9999 15.6884 17.0531 15.873 17.1534 16.0326C17.2537 16.1921 17.397 16.32 17.5668 16.4017C17.7367 16.4833 17.9261 16.5153 18.1133 16.4939C18.3005 16.4726 18.4779 16.3988 18.625 16.281L21.125 14.281L22.468 13.207L23.627 12.28C23.7442 12.1863 23.8387 12.0675 23.9037 11.9323C23.9687 11.7971 24.0025 11.649 24.0025 11.499C24.0025 11.349 23.9687 11.2009 23.9037 11.0657C23.8387 10.9305 23.7442 10.8117 23.627 10.718L23.625 10.719Z" fill="currentColor"/>
    </g>
    <defs>
        <clipPath id="icon-signout_svg__clip0">
            <rect width="24" height="24" fill="white"/>
        </clipPath>
    </defs>
</svg>
