<svg width="40" height="40" viewBox="0 0 40 40" fill="none" xmlns="http://www.w3.org/2000/svg">
<circle cx="20" cy="20" r="20" fill="#EDF2FB"/>
<g clip-path="url(#clip0)">
<path d="M25.2499 21.5001C24.7475 21.5004 24.2502 21.6023 23.7881 21.7994C23.3259 21.9966 22.9084 22.2851 22.5604 22.6476L18.4407 20.5873C18.476 20.3934 18.4958 20.1971 18.4999 20.0001C18.4958 19.803 18.476 19.6067 18.4407 19.4128L22.5604 17.3526C23.1661 17.975 23.9695 18.3675 24.8328 18.4627C25.6961 18.5579 26.5657 18.35 27.2925 17.8745C28.0193 17.3989 28.5582 16.6855 28.8167 15.8563C29.0753 15.0271 29.0374 14.1338 28.7096 13.3295C28.3819 12.5251 27.7846 11.8598 27.0202 11.4475C26.2557 11.0351 25.3717 10.9015 24.5195 11.0694C23.6673 11.2373 22.9001 11.6963 22.3492 12.3678C21.7983 13.0393 21.4981 13.8815 21.4999 14.7501C21.504 14.9473 21.5238 15.1439 21.5592 15.3381L17.4394 17.3968C16.9206 16.8587 16.2527 16.4879 15.5217 16.3321C14.7906 16.1762 14.0296 16.2424 13.3364 16.5222C12.6433 16.8019 12.0495 17.2825 11.6314 17.9021C11.2133 18.5217 10.9899 19.2522 10.9899 19.9997C10.9899 20.7472 11.2133 21.4776 11.6314 22.0973C12.0495 22.7169 12.6433 23.1974 13.3364 23.4772C14.0296 23.7569 14.7906 23.8231 15.5217 23.6673C16.2527 23.5114 16.9206 23.1407 17.4394 22.6026L21.5592 24.6621C21.5238 24.8562 21.504 25.0528 21.4999 25.2501C21.4999 25.9917 21.7198 26.7168 22.1319 27.3334C22.544 27.9501 23.1296 28.4308 23.8148 28.7146C24.5001 28.9984 25.2541 29.0727 25.9815 28.928C26.7089 28.7833 27.3771 28.4262 27.9016 27.9017C28.426 27.3773 28.7832 26.7091 28.9279 25.9816C29.0726 25.2542 28.9983 24.5002 28.7145 23.815C28.4306 23.1298 27.95 22.5441 27.3333 22.132C26.7166 21.72 25.9916 21.5001 25.2499 21.5001Z" fill="#264887"/>
</g>
<defs>
<clipPath id="clip0">
<rect x="11" y="11" width="18" height="18" fill="white"/>
</clipPath>
</defs>
</svg>
