<svg width="32" height="32" viewBox="0 0 32 32" fill="none" xmlns="http://www.w3.org/2000/svg">
<circle cx="16" cy="16" r="16" fill="#EDF2FB"/>
<rect width="32" height="32" rx="4" fill="#EDF2FB"/>
<path d="M23.5 13.5H22.75V10.75C22.75 8.95979 22.0388 7.2429 20.773 5.97703C19.5071 4.71116 17.7902 4 16 4C14.2098 4 12.4929 4.71116 11.227 5.97703C9.96116 7.2429 9.25 8.95979 9.25 10.75V13.5H8.5C7.96957 13.5 7.46086 13.7107 7.08579 14.0858C6.71071 14.4609 6.5 14.9696 6.5 15.5V26C6.5 26.5304 6.71071 27.0391 7.08579 27.4142C7.46086 27.7893 7.96957 28 8.5 28H23.5C24.0304 28 24.5391 27.7893 24.9142 27.4142C25.2893 27.0391 25.5 26.5304 25.5 26V15.5C25.5 14.9696 25.2893 14.4609 24.9142 14.0858C24.5391 13.7107 24.0304 13.5 23.5 13.5ZM16 22.5C15.6044 22.5 15.2178 22.3827 14.8889 22.1629C14.56 21.9432 14.3036 21.6308 14.1522 21.2654C14.0009 20.8999 13.9613 20.4978 14.0384 20.1098C14.1156 19.7219 14.3061 19.3655 14.5858 19.0858C14.8655 18.8061 15.2219 18.6156 15.6098 18.5384C15.9978 18.4613 16.3999 18.5009 16.7654 18.6522C17.1308 18.8036 17.4432 19.06 17.6629 19.3889C17.8827 19.7178 18 20.1044 18 20.5C18 21.0304 17.7893 21.5391 17.4142 21.9142C17.0391 22.2893 16.5304 22.5 16 22.5ZM20.25 13C20.25 13.1326 20.1973 13.2598 20.1036 13.3536C20.0098 13.4473 19.8826 13.5 19.75 13.5H12.25C12.1174 13.5 11.9902 13.4473 11.8964 13.3536C11.8027 13.2598 11.75 13.1326 11.75 13V10.75C11.75 9.62283 12.1978 8.54183 12.9948 7.7448C13.7918 6.94777 14.8728 6.5 16 6.5C17.1272 6.5 18.2082 6.94777 19.0052 7.7448C19.8022 8.54183 20.25 9.62283 20.25 10.75V13Z" fill="#264887"/>
</svg>
