<svg xmlns="http://www.w3.org/2000/svg" viewBox="0 0 108 108">
  <defs>
    <style>
      .cls-1{fill:#0a2240;}
      .cls-2{fill:#d22630;}
      .cls-3{fill:#fff;stroke:#0a2240;stroke-miterlimit:10;stroke-width:0.71156px;}
    </style>
  </defs>
  <rect class="cls-1" width="108" height="108"/>
  <svg height="150" width="150" x="-21" y="-21" xmlns="http://www.w3.org/2000/svg" viewBox="0 0 108 108">
    <path class="cls-2" d="M53.92667,26.5l23.37144,8.90757-.21177,23.30607a19.13737,19.13737,0,0,1-7.824,15.9225C60.0305,81.23266,56.00062,82.72,56.00062,82.72L54,83.5s-6.23179-2.12806-15.36253-8.86386a19.79235,19.79235,0,0,1-7.824-15.9225l-.11159-23.37732Z"/>
    <path class="cls-3" d="M53.93886,31.23724l19.48666,7.427-.17657,19.43216a15.95638,15.95638,0,0,1-6.52349,13.27588c-7.69735,5.50005-11.05738,6.74018-11.05738,6.74018L54,78.76275s-5.196-1.77434-12.809-7.39051a16.50251,16.50251,0,0,1-6.52349-13.27588l-.093-19.49156Z"/>
    <path class="cls-2" d="M68.102,46.8834a.80889.80889,0,0,0-.81034.80744V60.77491a.81038.81038,0,1,0,1.62075.00123V47.69482A.811.811,0,0,0,68.102,46.8834ZM52.06237,51.11824A3.11037,3.11037,0,1,0,55.148,54.25313l.00009-.02462A3.09813,3.09813,0,0,0,52.06237,51.11824Zm8.75057,0a3.11037,3.11037,0,1,0,3.08565,3.13489l.0001-.02462A3.09806,3.09806,0,0,0,60.81294,51.11824Zm-17.50114,0a3.11037,3.11037,0,1,0,3.08566,3.13489l.0001-.02462A3.09807,3.09807,0,0,0,43.3118,51.11824Z"/>
  </svg>
</svg>