<svg width="176" height="27" viewBox="0 0 176 27" fill="none" xmlns="http://www.w3.org/2000/svg">
<path fill-rule="evenodd" clip-rule="evenodd" d="M0.208359 0.152665C0.346785 0.0512517 0.567761 0 0.870567 0H3.70937C4.06264 0 4.30201 0.0447089 4.42854 0.133763C4.55434 0.223181 4.61779 0.445272 4.61779 0.801489V18.4688C4.61779 19.4607 4.864 20.1612 5.35606 20.5679C5.84812 20.975 6.52258 21.1786 7.38089 21.1786L14.016 21.1786C14.2932 21.1786 14.6118 21.2027 14.8018 21.3634C14.9918 21.524 14.9486 21.6233 15.0743 22.0348C15.2001 22.4463 15.4522 24.4159 15.4522 24.4159C15.4522 24.6175 15.4522 24.7665 15.3221 24.9016C15.1919 25.0368 14.9212 25.1454 14.7041 25.2061C14.4869 25.2667 14.0691 25.3005 13.4519 25.3005C12.8347 25.3005 6.66173 25.3005 6.66173 25.3005C5.34957 25.3005 4.26415 25.1093 3.40657 24.728C2.54862 24.3464 1.8673 23.8375 1.36263 23.201C0.857589 22.5657 0.504676 21.8405 0.302806 21.0259C0.100575 20.2121 0 19.3597 0 18.4688V0.801489C0 0.471079 0.0692128 0.254805 0.208359 0.152665Z" fill="white"/>
<path fill-rule="evenodd" clip-rule="evenodd" d="M94.6882 24.3498C95.1328 24.1377 95.355 23.7488 95.355 23.1831V12.5764C95.355 10.5022 94.7877 8.92299 93.653 7.83875C92.5182 6.7545 90.7343 6.21239 88.3011 6.21239C87.2717 6.21239 85.1976 6.55313 84.2149 6.93026C83.9108 7.04811 83.8055 7.2956 83.8991 7.67273L84.3904 9.688C84.4372 9.90013 84.5191 10.0298 84.6361 10.0769C84.7531 10.1241 84.9402 10.1123 85.1976 10.0416C85.7825 9.85299 86.8389 9.64188 87.6343 9.64188C88.383 9.64188 88.9913 9.71848 89.4592 9.87169C89.9271 10.0249 90.2956 10.2429 90.5647 10.5258C90.8337 10.8086 91.0151 11.1386 91.1086 11.5157C91.2022 11.8929 91.249 12.3053 91.249 12.7532V13.3542H87.3185C85.9147 13.3542 84.7274 13.531 83.7564 13.8846C82.7855 14.2381 81.9959 14.7036 81.3876 15.2811C80.7793 15.8586 80.3406 16.5303 80.0716 17.2964C79.8025 18.0624 79.668 18.8579 79.668 19.6829C79.668 20.4843 79.7849 21.2444 80.0189 21.9633C80.2529 22.6822 80.6681 23.3068 81.2647 23.8372C81.8614 24.3675 82.6685 24.7918 83.6862 25.11C84.704 25.4282 85.9849 25.5873 87.529 25.5873C88.0906 25.5873 88.6813 25.5696 89.3013 25.5342C89.9213 25.4989 90.5471 25.4341 91.1788 25.3398C91.8105 25.2455 92.4247 25.1159 93.0213 24.9509C93.6179 24.7859 94.1735 24.5855 94.6882 24.3498ZM87.8449 16.5009H91.2139V21.6981C90.9098 21.816 90.5764 21.9103 90.2137 21.981C89.8511 22.0517 89.506 22.1106 89.1785 22.1578C88.8509 22.2049 88.5409 22.2344 88.2485 22.2462C87.956 22.2579 87.7279 22.2638 87.5641 22.2638C86.4411 22.2638 85.5404 22.0635 84.8619 21.6628C84.1834 21.2621 83.8442 20.555 83.8442 19.5415C83.8442 18.8343 83.9787 18.2804 84.2477 17.8797C84.5168 17.479 84.856 17.1726 85.2655 16.9605C85.6749 16.7484 86.1077 16.6187 86.564 16.5716C87.0202 16.5244 87.4472 16.5009 87.8449 16.5009Z" fill="white"/>
<path fill-rule="evenodd" clip-rule="evenodd" d="M47.9115 19.6526C47.9277 20.5798 47.7657 21.3941 47.4259 22.0956C47.0862 22.7968 46.6099 23.3791 45.9959 23.8419C45.3822 24.3048 44.6555 24.654 43.8148 24.8886C42.9742 25.1235 42.0614 25.2497 41.0765 25.2669C40.5134 25.2768 39.9147 25.2577 39.2804 25.2112C38.6461 25.1643 38.0112 25.0882 37.3759 24.9837C36.7409 24.8792 36.1283 24.7332 35.5387 24.5461C34.9487 24.36 34.4055 24.1313 33.9094 23.8618C33.5553 23.6825 33.4682 23.4061 33.6492 23.0313L34.4574 21.0699C34.5704 20.8593 34.685 20.7241 34.8013 20.6641C34.9173 20.6045 35.1046 20.63 35.3643 20.7411C36.2133 21.1208 37.1541 21.4111 38.1876 21.6136C39.2204 21.8162 40.1347 21.9099 40.9304 21.896C41.913 21.8788 42.6465 21.6746 43.1311 21.2835C43.6157 20.8925 43.8527 20.3962 43.8422 19.7932C43.8305 19.1214 43.5054 18.5938 42.8669 18.2104C42.2283 17.8274 41.2734 17.4155 40.0021 16.9736C39.0365 16.6427 38.1943 16.3096 37.4747 15.9744C36.7552 15.6391 36.1579 15.2614 35.6825 14.8404C35.2068 14.4201 34.8422 13.9455 34.5869 13.4164C34.3323 12.8879 34.1986 12.2755 34.1864 11.5801C34.1731 10.8152 34.3022 10.1118 34.5742 9.46941C34.8461 8.82706 35.2552 8.26942 35.8019 7.79584C36.3486 7.32258 37.031 6.94566 37.8498 6.6644C38.6683 6.38381 39.6154 6.2338 40.6918 6.21501C41.6743 6.19786 42.6584 6.26746 43.644 6.42415C44.6295 6.58117 45.5817 6.83715 46.5005 7.19175C46.689 7.2812 46.8023 7.39515 46.8398 7.53361C46.8773 7.67207 46.8741 7.83443 46.8309 8.02067L46.0584 10.0165C45.9915 10.2035 45.9054 10.3094 45.8009 10.334C45.696 10.359 45.5492 10.3384 45.3609 10.2722C44.4429 9.96358 43.6376 9.7577 42.9458 9.65352C42.2533 9.54967 41.5094 9.5047 40.7144 9.51857C39.8485 9.53369 39.2203 9.72451 38.8289 10.0904C38.4371 10.4573 38.2456 10.8604 38.2533 11.3005C38.259 11.6253 38.328 11.9023 38.461 12.1315C38.5934 12.3611 38.802 12.5721 39.0862 12.7642C39.3703 12.9563 39.7425 13.1525 40.2023 13.3532C40.6618 13.5538 41.2214 13.7646 41.8805 13.9847C42.6336 14.2497 43.3696 14.5327 44.0893 14.8328C44.8079 15.1332 45.4461 15.4994 46.0035 15.9298C46.5606 16.361 47.0146 16.8744 47.3646 17.4711C47.7137 18.0682 47.8965 18.7953 47.9115 19.6526Z" fill="white"/>
<path fill-rule="evenodd" clip-rule="evenodd" d="M60.9756 24.7922C60.1798 25.0514 59.3839 25.2047 58.5891 25.2523C57.7932 25.2991 57.1732 25.323 56.729 25.323C54.8101 25.323 53.4527 24.9105 52.6579 24.0844C51.8621 23.2587 51.4646 21.9965 51.4646 20.2979L51.5561 10.2529H48.9728C48.735 10.2529 48.6126 10.1914 48.5143 10.0861C48.4161 9.98087 48.3656 9.87754 48.4113 9.70498C48.457 9.53242 49.0966 7.83217 49.0966 7.83217C49.1351 7.76993 49.3073 7.37363 49.3498 7.31644C49.42 7.22241 49.5223 7.15702 49.7996 7.15702H51.5272V3.73186C51.5272 3.26425 51.7413 3.18007 51.8466 3.08571C51.9519 2.99167 52.1327 2.89731 52.3907 2.8026L54.904 2.0965C55.0909 2.04932 55.2426 2.06718 55.3603 2.14942C55.4769 2.23266 55.5357 2.4032 55.5357 2.66272V7.15702H59.0627C59.3198 7.15702 59.4779 7.21028 59.5363 7.31644C59.5945 7.42227 59.6243 7.55843 59.6243 7.72324L59.6243 9.65125C59.6243 9.86358 59.5945 10.0173 59.5363 10.1113C59.4779 10.2057 59.3198 10.2529 59.0627 10.2529H55.5357V19.7671C55.5357 20.5224 55.7112 21.0411 56.0622 21.3242C56.4131 21.6073 56.9509 21.7488 57.6766 21.7488C57.817 21.7488 58.0038 21.7431 58.2381 21.731C58.4718 21.7195 58.7118 21.7016 58.9574 21.678C59.2031 21.6548 59.4488 21.6248 59.6944 21.5894C59.9401 21.5544 60.1447 21.525 60.3088 21.5011C60.5424 21.4543 60.6948 21.46 60.765 21.5186C60.8352 21.5779 60.8817 21.6902 60.9054 21.855L61.2915 24.1198C61.3142 24.2614 61.3202 24.3851 61.3088 24.4912C61.2968 24.5977 61.1862 24.6982 60.9756 24.7922Z" fill="white"/>
<path fill-rule="evenodd" clip-rule="evenodd" d="M69.0827 24.7882C69.0827 25.137 69.027 25.3547 68.9159 25.4418C68.8048 25.5293 68.348 25.5723 68.0027 25.5723H65.6818C65.4099 25.5723 65.2001 25.5225 65.0519 25.423C64.9042 25.3238 64.8301 25.1118 64.8301 24.7882L64.8301 2.61C64.8301 2.32682 64.8936 1.84269 64.9426 1.61488C65.014 1.28225 65.0097 1.16499 65.1853 0.950539C65.3737 0.721826 65.6611 0.565357 66.0481 0.481587C66.2706 0.433409 66.3867 0.481587 66.6753 0.481587H73.7258C74.9598 0.481587 76.0891 0.674691 77.1141 1.06019C78.1383 1.4464 79.015 1.9937 79.7433 2.70318C80.4713 3.413 81.0394 4.25939 81.4468 5.24269C81.8542 6.226 82.058 7.30283 82.058 8.47248C82.058 9.14461 81.9526 9.94761 81.7431 10.8811C81.5332 11.8146 81.1135 12.7169 80.484 13.5881C79.8544 14.4598 78.9717 15.2002 77.8364 15.8097C76.7004 16.42 75.2067 16.7248 73.3551 16.7248H69.0827L69.0827 24.7882ZM77.6218 7.3896C77.4856 6.89173 77.2514 6.43724 76.9182 6.02649C76.5849 5.61574 76.1221 5.27399 75.5293 4.9998C74.9371 4.72597 74.1838 4.58906 73.2707 4.58906H68.848V12.8787H73.3447C74.9001 12.8787 76.0354 12.4928 76.7517 11.7211C77.4673 10.9498 77.8256 9.9661 77.8256 8.7712C77.8256 8.34801 77.7572 7.88783 77.6218 7.3896Z" fill="white"/>
<path fill-rule="evenodd" clip-rule="evenodd" d="M110.887 22.3257C110.547 23.0268 110.07 23.6092 109.456 24.072C108.842 24.5349 108.116 24.884 107.275 25.1187C106.435 25.3536 105.522 25.4798 104.537 25.497C103.974 25.5068 103.375 25.4878 102.741 25.4413C102.106 25.3944 101.472 25.3183 100.836 25.2138C100.201 25.1093 99.5887 24.9633 98.9991 24.7762C98.4092 24.5898 97.866 24.3614 97.3698 24.0919C97.0157 23.9126 96.9286 23.6362 97.1096 23.2614L97.9178 21.3C98.0312 21.0894 98.1455 20.9542 98.2618 20.8942C98.3777 20.8346 98.565 20.8601 98.8247 20.9712C99.6738 21.3508 100.615 21.6411 101.648 21.8437C102.681 22.0463 103.595 22.1399 104.391 22.126C105.373 22.1089 106.107 21.9046 106.592 21.5136C107.076 21.1226 107.313 20.6263 107.303 20.0233C107.291 19.3514 106.966 18.8242 106.327 18.4405C105.689 18.0575 104.734 17.6456 103.463 17.2037C102.497 16.8728 101.655 16.5397 100.935 16.2045C100.216 15.8692 99.6183 15.4915 99.1429 15.0705C98.6672 14.6502 98.3026 14.1756 98.0477 13.6465C97.7927 13.118 97.659 12.5056 97.6469 11.8102C97.6335 11.0453 97.7627 10.3419 98.0346 9.6995C98.3065 9.05715 98.7157 8.49951 99.2623 8.02592C99.809 7.55267 100.491 7.17575 101.31 6.89449C102.129 6.6139 103.076 6.46388 104.152 6.44509C105.135 6.42794 106.119 6.49755 107.104 6.65424C108.09 6.81126 109.042 7.06723 109.961 7.42184C110.149 7.51129 110.263 7.62523 110.3 7.7637C110.338 7.90216 110.335 8.06451 110.292 8.25075L109.519 10.2466C109.452 10.4336 109.366 10.5394 109.261 10.5641C109.156 10.5891 109.01 10.5685 108.821 10.5022C107.903 10.1937 107.098 9.98779 106.406 9.8836C105.714 9.77976 104.97 9.73478 104.175 9.74866C103.309 9.76377 102.681 9.95459 102.289 10.3205C101.898 10.6874 101.706 11.0905 101.714 11.5305C101.719 11.8554 101.788 12.1324 101.921 12.3616C102.054 12.5912 102.262 12.8021 102.547 12.9943C102.831 13.1864 103.203 13.3826 103.663 13.5832C104.122 13.7839 104.682 13.9947 105.341 14.2147C106.094 14.4798 106.83 14.7628 107.55 15.0629C108.268 15.3633 108.907 15.7295 109.464 16.1599C110.021 16.5911 110.475 17.1045 110.825 17.7012C111.174 18.2983 111.357 19.0254 111.372 19.8827C111.388 20.8098 111.226 21.6242 110.887 22.3257Z" fill="white"/>
<path fill-rule="evenodd" clip-rule="evenodd" d="M127.123 19.8827C127.139 20.8098 126.977 21.6242 126.638 22.3257C126.298 23.0268 125.821 23.6092 125.208 24.072C124.594 24.5348 123.867 24.884 123.026 25.1187C122.186 25.3536 121.273 25.4798 120.288 25.497C119.725 25.5068 119.126 25.4878 118.492 25.4413C117.857 25.3944 117.223 25.3183 116.588 25.2138C115.952 25.1093 115.34 24.9633 114.75 24.7762C114.16 24.5898 113.617 24.3614 113.121 24.0919C112.767 23.9126 112.68 23.6362 112.861 23.2614L113.669 21.3C113.782 21.0894 113.896 20.9542 114.013 20.8942C114.129 20.8346 114.316 20.8601 114.576 20.9712C115.425 21.3508 116.366 21.6411 117.399 21.8437C118.432 22.0463 119.346 22.1399 120.142 22.126C121.124 22.1089 121.858 21.9046 122.343 21.5136C122.827 21.1226 123.064 20.6263 123.054 20.0233C123.042 19.3514 122.717 18.8242 122.078 18.4405C121.44 18.0575 120.485 17.6455 119.213 17.2037C118.248 16.8728 117.406 16.5397 116.686 16.2045C115.967 15.8692 115.369 15.4915 114.894 15.0705C114.418 14.6502 114.054 14.1756 113.798 13.6465C113.543 13.118 113.41 12.5056 113.398 11.8102C113.385 11.0453 113.514 10.3418 113.785 9.69951C114.057 9.05715 114.467 8.49951 115.013 8.02592C115.56 7.55267 116.242 7.17575 117.062 6.89448C117.88 6.6139 118.827 6.46388 119.903 6.44509C120.886 6.42794 121.87 6.49755 122.856 6.65423C123.841 6.81126 124.793 7.06723 125.712 7.42184C125.901 7.51128 126.014 7.62523 126.051 7.7637C126.089 7.90215 126.086 8.06451 126.042 8.25075L125.27 10.2466C125.203 10.4336 125.117 10.5394 125.012 10.5641C124.907 10.5891 124.761 10.5685 124.572 10.5022C123.655 10.1937 122.849 9.98779 122.157 9.8836C121.465 9.77976 120.721 9.73478 119.926 9.74866C119.06 9.76377 118.431 9.9546 118.04 10.3205C117.649 10.6874 117.457 11.0905 117.465 11.5305C117.47 11.8554 117.539 12.1324 117.672 12.3616C117.805 12.5912 118.013 12.8021 118.298 12.9943C118.582 13.1864 118.954 13.3826 119.413 13.5832C119.874 13.7839 120.433 13.9947 121.092 14.2147C121.845 14.4798 122.581 14.7628 123.301 15.0629C124.019 15.3633 124.658 15.7295 125.215 16.1599C125.772 16.5911 126.226 17.1045 126.576 17.7012C126.925 18.2983 127.108 19.0254 127.123 19.8827Z" fill="white"/>
<path fill-rule="evenodd" clip-rule="evenodd" d="M31.8953 22.9683C31.8953 23.5349 31.6727 23.9238 31.2285 24.1365C30.7138 24.3727 30.1583 24.5733 29.5616 24.7377C28.965 24.9036 28.3507 25.0326 27.7189 25.1273C27.0872 25.2214 26.4612 25.2864 25.8411 25.3218C25.2211 25.3572 24.6305 25.3751 24.069 25.3751C22.5248 25.3751 21.2439 25.2157 20.2262 24.8972C19.2084 24.579 18.4012 24.154 17.8045 23.6232C17.2076 23.0927 16.7921 22.4675 16.5585 21.7476C16.3242 21.0284 16.2075 20.2677 16.2075 19.4652C16.2075 18.6395 16.3419 17.8434 16.6113 17.0767C16.8797 16.3103 17.3186 15.6379 17.9272 15.0592C18.5355 14.4815 19.325 14.0154 20.2963 13.6616C21.2667 13.3077 22.4546 13.1307 23.8584 13.1307H27.7891V12.5291C27.7891 12.0812 27.742 11.668 27.6487 11.2905C27.5548 10.9134 27.3733 10.5828 27.1049 10.2997C26.8355 10.0166 26.4672 9.7985 25.9992 9.64482C25.531 9.4918 24.9226 9.41496 24.1743 9.41496C23.3788 9.41496 22.5127 9.48574 21.5772 9.62729C20.641 9.76884 19.8805 9.93399 19.2959 10.1227C19.0382 10.1935 18.8511 10.2056 18.7344 10.1581C18.6171 10.1113 18.5355 9.98117 18.4887 9.76884L17.9974 7.75171C17.9035 7.37458 18.0088 7.12686 18.3133 7.00856C19.2959 6.63142 20.3719 6.36584 21.5421 6.21215C22.7119 6.05914 23.8113 5.9823 24.8411 5.9823C27.2744 5.9823 29.0583 6.52526 30.1934 7.61016C31.3278 8.6954 31.8953 10.2764 31.8953 12.3522V22.9683ZM27.754 16.2803H24.3848C23.9868 16.2803 23.5603 16.3042 23.104 16.3511C22.6478 16.3986 22.2142 16.528 21.8055 16.7403C21.3957 16.9527 21.0564 17.2597 20.7877 17.6604C20.5183 18.0618 20.3839 18.6159 20.3839 19.3237C20.3839 20.3385 20.7228 21.0459 21.4017 21.447C22.0802 21.8484 22.981 22.0486 24.1041 22.0486C24.2675 22.0486 24.4958 22.0428 24.7886 22.0307C25.0807 22.0192 25.3906 21.9899 25.7185 21.9424C26.046 21.8952 26.391 21.8362 26.7536 21.7655C27.1163 21.6947 27.4499 21.6007 27.754 21.4824V16.2803Z" fill="white"/>
<path fill-rule="evenodd" clip-rule="evenodd" d="M173.717 6.43341C173.717 5.80305 174.228 5.29204 174.859 5.29204C175.489 5.29204 176 5.80305 176 6.43341V24.8586C176 25.489 175.489 26 174.859 26C174.228 26 173.717 25.489 173.717 24.8586V6.43341Z" fill="white"/>
<path fill-rule="evenodd" clip-rule="evenodd" d="M137.193 20.0177C139.336 20.0177 141.074 18.2665 141.074 16.1062C141.074 13.9459 139.336 12.1947 137.193 12.1947C135.05 12.1947 133.313 13.9459 133.313 16.1062C133.313 18.2665 135.05 20.0177 137.193 20.0177Z" fill="white"/>
<path fill-rule="evenodd" clip-rule="evenodd" d="M150.205 20.0177C152.348 20.0177 154.086 18.2665 154.086 16.1062C154.086 13.9459 152.348 12.1947 150.205 12.1947C148.062 12.1947 146.324 13.9459 146.324 16.1062C146.324 18.2665 148.062 20.0177 150.205 20.0177Z" fill="white"/>
<path fill-rule="evenodd" clip-rule="evenodd" d="M163.217 20.0177C165.36 20.0177 167.097 18.2665 167.097 16.1062C167.097 13.9459 165.36 12.1947 163.217 12.1947C161.073 12.1947 159.336 13.9459 159.336 16.1062C159.336 18.2665 161.073 20.0177 163.217 20.0177Z" fill="white"/>
</svg>
