<svg version="1.1" id="Layer_1"
	 xmlns="http://www.w3.org/2000/svg" xmlns:xlink="http://www.w3.org/1999/xlink" x="0px" y="0px" viewBox="0 0 352 52"
	 style="enable-background:new 0 0 352 52;" xml:space="preserve">
<style type="text/css">
	.st0{fill:#D32D27;}
</style>
<title>LastPass_Color</title>
<desc>Created with Sketch.</desc>
<g id="Page-1" >
	<g id="LastPass" transform="translate(-74.000000, -124.000000)" >
		<g id="LastPass_Color" transform="translate(74.000000, 124.000000)" >
			<g id="Group" >
				<path id="Fill-1" d="M0.4,0.3C0.7,0.1,1.1,0,1.7,0h5.7c0.7,0,1.2,0.1,1.4,0.3c0.3,0.2,0.4,0.6,0.4,1.3v35.3c0,2,0.5,3.4,1.5,4.2
					c1,0.8,2.3,1.2,4,1.2l13.3,0c0.6,0,1.2,0,1.6,0.4c0.4,0.3,0.3,0.5,0.5,1.3c0.3,0.8,0.8,4.8,0.8,4.8c0,0.4,0,0.7-0.3,1
					s-0.8,0.5-1.2,0.6s-1.3,0.2-2.5,0.2c-1.2,0-13.6,0-13.6,0c-2.6,0-4.8-0.4-6.5-1.1c-1.7-0.8-3.1-1.8-4.1-3.1
					c-1-1.3-1.7-2.7-2.1-4.4C0.2,40.4,0,38.7,0,36.9V1.6C0,0.9,0.1,0.5,0.4,0.3z"/>
				<path id="Path" class="st0" d="M190.7,46.4c0,1.1-0.4,1.9-1.3,2.3c-1,0.5-2.1,0.9-3.3,1.2c-1.2,0.3-2.4,0.6-3.7,0.8
					s-2.5,0.3-3.8,0.4c-1.2,0.1-2.4,0.1-3.5,0.1c-3.1,0-5.7-0.3-7.7-1c-2-0.6-3.6-1.5-4.8-2.5c-1.2-1.1-2-2.3-2.5-3.7
					s-0.7-3-0.7-4.6c0-1.6,0.3-3.2,0.8-4.8c0.5-1.5,1.4-2.9,2.6-4c1.2-1.2,2.8-2.1,4.7-2.8c1.9-0.7,4.3-1.1,7.1-1.1h7.9v-1.2
					c0-0.9-0.1-1.7-0.3-2.5s-0.5-1.4-1.1-2c-0.5-0.6-1.3-1-2.2-1.3s-2.2-0.5-3.6-0.5c-1.6,0-3.7,0.4-4.9,0.8
					c-0.5,0.1-0.9,0.2-1.1,0.1s-0.4-0.4-0.5-0.8l-1-4c-0.2-0.8,0-1.2,0.6-1.5c2-0.8,6.1-1.4,8.2-1.4c4.9,0,8.4,1.1,10.7,3.3
					c2.3,2.2,3.4,5.3,3.4,9.5V46.4z M182.4,33h-6.7c-0.8,0-1.6,0-2.6,0.1c-0.9,0.1-1.8,0.4-2.6,0.8c-0.8,0.4-1.5,1-2,1.8
					c-0.5,0.8-0.8,1.9-0.8,3.3c0,2,0.7,3.4,2,4.2c1.4,0.8,3.2,1.2,5.4,1.2c0.3,0,0.8,0,1.4,0c0.6,0,1.2-0.1,1.9-0.2
					c0.7-0.1,1.3-0.2,2.1-0.4c0.7-0.1,1.4-0.3,2-0.6V33z"/>
				<path id="Fill-3" d="M95.8,39.3c0,1.9-0.3,3.5-1,4.9c-0.7,1.4-1.6,2.6-2.9,3.5c-1.2,0.9-2.7,1.6-4.4,2.1
					c-1.7,0.5-3.5,0.7-5.5,0.8c-1.1,0-2.3,0-3.6-0.1c-1.3-0.1-2.5-0.2-3.8-0.5c-1.3-0.2-2.5-0.5-3.7-0.9c-1.2-0.4-2.3-0.8-3.3-1.4
					c-0.7-0.4-0.9-0.9-0.5-1.7l1.6-3.9c0.2-0.4,0.5-0.7,0.7-0.8c0.2-0.1,0.6-0.1,1.1,0.2c1.7,0.8,3.6,1.3,5.6,1.7
					c2.1,0.4,3.9,0.6,5.5,0.6c2,0,3.4-0.4,4.4-1.2c1-0.8,1.4-1.8,1.4-3c0-1.3-0.7-2.4-2-3.2c-1.3-0.8-3.2-1.6-5.7-2.5
					c-1.9-0.7-3.6-1.3-5.1-2c-1.4-0.7-2.6-1.4-3.6-2.3c-1-0.8-1.7-1.8-2.2-2.8c-0.5-1.1-0.8-2.3-0.8-3.7c0-1.5,0.2-2.9,0.8-4.2
					c0.5-1.3,1.4-2.4,2.5-3.3c1.1-0.9,2.5-1.7,4.1-2.3c1.6-0.6,3.5-0.9,5.7-0.9c2,0,3.9,0.1,5.9,0.4c2,0.3,3.9,0.8,5.7,1.5
					c0.4,0.2,0.6,0.4,0.7,0.7s0.1,0.6,0,1l-1.5,4c-0.1,0.4-0.3,0.6-0.5,0.6c-0.2,0.1-0.5,0-0.9-0.1c-1.8-0.6-3.4-1-4.8-1.2
					C84.5,19.1,83,19,81.4,19c-1.7,0-3,0.4-3.8,1.1c-0.8,0.7-1.2,1.5-1.2,2.4c0,0.6,0.1,1.2,0.4,1.7c0.3,0.5,0.7,0.9,1.3,1.3
					c0.6,0.4,1.3,0.8,2.2,1.2c0.9,0.4,2,0.8,3.4,1.3c1.5,0.5,3,1.1,4.4,1.7c1.4,0.6,2.7,1.3,3.8,2.2c1.1,0.9,2,1.9,2.7,3.1
					C95.4,36.1,95.8,37.6,95.8,39.3"/>
				<path id="Fill-4" d="M122,49.6c-1.6,0.5-3.2,0.8-4.8,0.9c-1.6,0.1-2.8,0.1-3.7,0.1c-3.8,0-6.6-0.8-8.1-2.5
					c-1.6-1.7-2.4-4.2-2.4-7.6l0.2-20.1h-5.2c-0.5,0-0.7-0.1-0.9-0.3c-0.2-0.2-0.3-0.4-0.2-0.8c0.1-0.3,1.4-3.7,1.4-3.7
					c0.1-0.1,0.4-0.9,0.5-1c0.1-0.2,0.3-0.3,0.9-0.3h3.5V7.5c0-0.9,0.4-1.1,0.6-1.3c0.2-0.2,0.6-0.4,1.1-0.6l5-1.4
					c0.4-0.1,0.7-0.1,0.9,0.1c0.2,0.2,0.4,0.5,0.4,1v9h7.1c0.5,0,0.8,0.1,0.9,0.3c0.1,0.2,0.2,0.5,0.2,0.8v3.9
					c0,0.4-0.1,0.7-0.2,0.9c-0.1,0.2-0.4,0.3-0.9,0.3h-7.1v19c0,1.5,0.4,2.5,1.1,3.1c0.7,0.6,1.8,0.8,3.2,0.8c0.3,0,0.7,0,1.1,0
					c0.5,0,0.9-0.1,1.4-0.1c0.5,0,1-0.1,1.5-0.2c0.5-0.1,0.9-0.1,1.2-0.2c0.5-0.1,0.8-0.1,0.9,0c0.1,0.1,0.2,0.3,0.3,0.7l0.8,4.5
					c0,0.3,0.1,0.5,0,0.7C122.6,49.2,122.4,49.4,122,49.6z"/>
				<path id="Fill-5" class="st0" d="M138.2,49.6c0,0.7-0.1,1.1-0.3,1.3c-0.2,0.2-1.1,0.3-1.8,0.3h-4.6c-0.5,0-1-0.1-1.3-0.3
					c-0.3-0.2-0.4-0.6-0.4-1.3V5.2c0-0.6,0.1-1.5,0.2-2c0.1-0.7,0.1-0.9,0.5-1.3c0.4-0.5,1-0.8,1.7-0.9c0.4-0.1,0.7,0,1.3,0h14.1
					c2.5,0,4.7,0.4,6.8,1.2c2,0.8,3.8,1.9,5.3,3.3c1.5,1.4,2.6,3.1,3.4,5.1c0.8,2,1.2,4.1,1.2,6.5c0,1.3-0.2,3-0.6,4.8
					c-0.4,1.9-1.3,3.7-2.5,5.4c-1.3,1.7-3,3.2-5.3,4.4c-2.3,1.2-5.3,1.8-9,1.8h-8.5V49.6z M156.2,14.8c-0.3-1-0.7-1.9-1.4-2.7
					c-0.7-0.8-1.6-1.5-2.8-2.1c-1.2-0.5-2.7-0.8-4.5-0.8h-8.8v16.6h9c3.1,0,5.4-0.8,6.8-2.3c1.4-1.5,2.1-3.5,2.1-5.9
					C156.7,16.7,156.5,15.8,156.2,14.8z"/>
				<path id="Fill-7" class="st0" d="M221.8,44.7c-0.7,1.4-1.6,2.6-2.9,3.5c-1.2,0.9-2.7,1.6-4.4,2.1c-1.7,0.5-3.5,0.7-5.5,0.8
					c-1.1,0-2.3,0-3.6-0.1c-1.3-0.1-2.5-0.2-3.8-0.5c-1.3-0.2-2.5-0.5-3.7-0.9c-1.2-0.4-2.3-0.8-3.3-1.4c-0.7-0.4-0.9-0.9-0.5-1.7
					l1.6-3.9c0.2-0.4,0.5-0.7,0.7-0.8c0.2-0.1,0.6-0.1,1.1,0.2c1.7,0.8,3.6,1.3,5.6,1.7c2.1,0.4,3.9,0.6,5.5,0.6
					c2,0,3.4-0.4,4.4-1.2c1-0.8,1.4-1.8,1.4-3c0-1.3-0.7-2.4-2-3.2c-1.3-0.8-3.2-1.6-5.7-2.5c-1.9-0.7-3.6-1.3-5.1-2
					c-1.4-0.7-2.6-1.4-3.6-2.3c-1-0.8-1.7-1.8-2.2-2.8c-0.5-1.1-0.8-2.3-0.8-3.7c0-1.5,0.2-2.9,0.8-4.2s1.4-2.4,2.5-3.3
					c1.1-0.9,2.5-1.7,4.1-2.3c1.6-0.6,3.5-0.9,5.7-0.9c2,0,3.9,0.1,5.9,0.4c2,0.3,3.9,0.8,5.7,1.5c0.4,0.2,0.6,0.4,0.7,0.7
					c0.1,0.3,0.1,0.6,0,1l-1.5,4c-0.1,0.4-0.3,0.6-0.5,0.6c-0.2,0.1-0.5,0-0.9-0.1c-1.8-0.6-3.4-1-4.8-1.2c-1.4-0.2-2.9-0.3-4.5-0.3
					c-1.7,0-3,0.4-3.8,1.1c-0.8,0.7-1.2,1.5-1.2,2.4c0,0.6,0.1,1.2,0.4,1.7c0.3,0.5,0.7,0.9,1.3,1.3c0.6,0.4,1.3,0.8,2.2,1.2
					c0.9,0.4,2,0.8,3.4,1.3c1.5,0.5,3,1.1,4.4,1.7c1.4,0.6,2.7,1.3,3.8,2.2c1.1,0.9,2,1.9,2.7,3.1c0.7,1.2,1.1,2.6,1.1,4.4
					C222.8,41.6,222.5,43.2,221.8,44.7z"/>
				<path id="Fill-8" class="st0" d="M254.2,39.8c0,1.9-0.3,3.5-1,4.9c-0.7,1.4-1.6,2.6-2.9,3.5c-1.2,0.9-2.7,1.6-4.4,2.1
					c-1.7,0.5-3.5,0.7-5.5,0.8c-1.1,0-2.3,0-3.6-0.1c-1.3-0.1-2.5-0.2-3.8-0.5c-1.3-0.2-2.5-0.5-3.7-0.9c-1.2-0.4-2.3-0.8-3.3-1.4
					c-0.7-0.4-0.9-0.9-0.5-1.7l1.6-3.9c0.2-0.4,0.5-0.7,0.7-0.8c0.2-0.1,0.6-0.1,1.1,0.2c1.7,0.8,3.6,1.3,5.6,1.7
					c2.1,0.4,3.9,0.6,5.5,0.6c2,0,3.4-0.4,4.4-1.2c1-0.8,1.4-1.8,1.4-3c0-1.3-0.7-2.4-2-3.2c-1.3-0.8-3.2-1.6-5.7-2.5
					c-1.9-0.7-3.6-1.3-5.1-2c-1.4-0.7-2.6-1.4-3.6-2.3c-1-0.8-1.7-1.8-2.2-2.8c-0.5-1.1-0.8-2.3-0.8-3.7c0-1.5,0.2-2.9,0.8-4.2
					c0.5-1.3,1.4-2.4,2.5-3.3c1.1-0.9,2.5-1.7,4.1-2.3c1.6-0.6,3.5-0.9,5.7-0.9c2,0,3.9,0.1,5.9,0.4c2,0.3,3.9,0.8,5.7,1.5
					c0.4,0.2,0.6,0.4,0.7,0.7c0.1,0.3,0.1,0.6,0,1l-1.5,4c-0.1,0.4-0.3,0.6-0.5,0.6c-0.2,0.1-0.5,0-0.9-0.1c-1.8-0.6-3.4-1-4.8-1.2
					c-1.4-0.2-2.9-0.3-4.5-0.3c-1.7,0-3,0.4-3.8,1.1c-0.8,0.7-1.2,1.5-1.2,2.4c0,0.6,0.1,1.2,0.4,1.7c0.3,0.5,0.7,0.9,1.3,1.3
					c0.6,0.4,1.3,0.8,2.2,1.2c0.9,0.4,2,0.8,3.4,1.3c1.5,0.5,3,1.1,4.4,1.7c1.4,0.6,2.7,1.3,3.8,2.2c1.1,0.9,2,1.9,2.7,3.1
					C253.9,36.6,254.2,38.1,254.2,39.8"/>
				<path id="Fill-2" d="M63.8,45.9c0,1.1-0.4,1.9-1.3,2.3c-1,0.5-2.1,0.9-3.3,1.2c-1.2,0.3-2.4,0.6-3.7,0.8
					c-1.3,0.2-2.5,0.3-3.8,0.4c-1.2,0.1-2.4,0.1-3.5,0.1c-3.1,0-5.7-0.3-7.7-1c-2-0.6-3.6-1.5-4.8-2.5c-1.2-1.1-2-2.3-2.5-3.8
					c-0.5-1.4-0.7-3-0.7-4.6c0-1.7,0.3-3.2,0.8-4.8c0.5-1.5,1.4-2.9,2.6-4c1.2-1.2,2.8-2.1,4.7-2.8c1.9-0.7,4.3-1.1,7.1-1.1h7.9
					v-1.2c0-0.9-0.1-1.7-0.3-2.5c-0.2-0.8-0.6-1.4-1.1-2c-0.5-0.6-1.3-1-2.2-1.3c-0.9-0.3-2.2-0.5-3.6-0.5c-1.6,0-3.3,0.1-5.2,0.4
					c-1.9,0.3-3.4,0.6-4.6,1c-0.5,0.1-0.9,0.2-1.1,0.1c-0.2-0.1-0.4-0.4-0.5-0.8l-1-4c-0.2-0.8,0-1.2,0.6-1.5c2-0.8,4.1-1.3,6.5-1.6
					c2.3-0.3,4.5-0.5,6.6-0.5c4.9,0,8.4,1.1,10.7,3.3c2.3,2.2,3.4,5.3,3.4,9.5V45.9L63.8,45.9z M55.5,32.6h-6.7
					c-0.8,0-1.6,0-2.6,0.1c-0.9,0.1-1.8,0.4-2.6,0.8c-0.8,0.4-1.5,1-2,1.8c-0.5,0.8-0.8,1.9-0.8,3.3c0,2,0.7,3.4,2,4.2
					c1.4,0.8,3.2,1.2,5.4,1.2c0.3,0,0.8,0,1.4,0c0.6,0,1.2-0.1,1.9-0.2c0.7-0.1,1.3-0.2,2.1-0.4c0.7-0.1,1.4-0.3,2-0.6V32.6
					L55.5,32.6z"/>
			</g>
			<path id="Line" class="st0" d="M347.4,12.9c0-1.3,1-2.3,2.3-2.3l0,0c1.3,0,2.3,1,2.3,2.3v36.8
				c0,1.3-1,2.3-2.3,2.3l0,0c-1.3,0-2.3-1-2.3-2.3V12.9z"/>
			<g id="Dots" transform="translate(266.625162, 24.389381)" >
				<ellipse id="Oval-74" class="st0" cx="7.8" cy="7.8" rx="7.8" ry="7.8"/>
				<ellipse id="Oval-74_1_" class="st0" cx="33.8" cy="7.8" rx="7.8" ry="7.8"/>
				<ellipse id="Oval-74_2_" class="st0" cx="59.8" cy="7.8" rx="7.8" ry="7.8"/>
			</g>
		</g>
	</g>
</g>
</svg>
