<svg width="24" height="24" viewBox="0 0 24 24" fill="#B9C0C9" xmlns="http://www.w3.org/2000/svg">
    <path d="M23.5548 8.72874C23.4479 8.44174 23.2561 8.19416 23.0049 8.01906C22.7537 7.84395 22.455 7.74965 22.1488 7.74874H16.0618C15.9582 7.74881 15.8571 7.71672 15.7726 7.65689C15.688 7.59705 15.6241 7.51244 15.5898 7.41474L13.4048 1.22174C13.2977 0.935499 13.1058 0.688778 12.8547 0.514593C12.6037 0.340408 12.3054 0.24707 11.9998 0.24707C11.6942 0.24707 11.3959 0.340408 11.1448 0.514593C10.8937 0.688778 10.7018 0.935499 10.5948 1.22174L10.5898 1.23774L8.40976 7.41474C8.37543 7.51228 8.3117 7.59678 8.22735 7.6566C8.14299 7.71641 8.04217 7.7486 7.93876 7.74874H1.84976C1.54158 7.74851 1.2408 7.8432 0.988344 8.01996C0.735885 8.19671 0.543995 8.44693 0.438772 8.73659C0.333549 9.02625 0.320101 9.3413 0.400257 9.63887C0.480413 9.93645 0.650282 10.2021 0.886761 10.3997L6.07076 14.6997C6.1483 14.7641 6.2046 14.8504 6.23225 14.9473C6.25991 15.0442 6.25765 15.1471 6.22576 15.2427L4.04776 21.7737C3.94711 22.0757 3.94512 22.4019 4.04208 22.705C4.13905 23.0082 4.32995 23.2727 4.58716 23.4602C4.84437 23.6477 5.15456 23.7485 5.47286 23.7481C5.79116 23.7476 6.10107 23.646 6.35776 23.4577L11.7038 19.5377C11.7895 19.4749 11.893 19.4411 11.9993 19.4411C12.1055 19.4411 12.209 19.4749 12.2948 19.5377L17.6388 23.4567C17.8953 23.6456 18.2054 23.7479 18.524 23.7487C18.8426 23.7495 19.1532 23.6489 19.4107 23.4614C19.6683 23.2739 19.8595 23.0093 19.9566 22.7058C20.0537 22.4024 20.0516 22.0759 19.9508 21.7737L17.7728 15.2387C17.7409 15.1431 17.7386 15.0402 17.7663 14.9433C17.7939 14.8464 17.8502 14.7601 17.9278 14.6957L23.1218 10.3897C23.3552 10.1904 23.5219 9.92432 23.5993 9.62729C23.6768 9.33027 23.6612 9.01664 23.5548 8.72874Z"/>
</svg>
