<svg width="16" height="16" viewBox="0 0 16 16" fill="none" xmlns="http://www.w3.org/2000/svg">
    <path d="M15.6093 13.7272L12.5127 10.6305C13.4556 9.2191 13.8397 7.50741 13.5905 5.82842C13.3412 4.14942 12.4764 2.62317 11.1641 1.54653C9.85185 0.469895 8.18604 -0.0801415 6.4907 0.00341195C4.79537 0.0869654 3.19172 0.798135 1.99169 1.99859C0.791662 3.19904 0.0810594 4.80294 -0.00189467 6.49831C-0.0848487 8.19367 0.465777 9.85929 1.54288 11.1712C2.61998 12.483 4.14654 13.3474 5.82562 13.596C7.5047 13.8447 9.21625 13.4599 10.6273 12.5165L13.724 15.6125C13.9761 15.8585 14.3144 15.9961 14.6667 15.9961C15.0189 15.9961 15.3572 15.8585 15.6093 15.6125C15.8593 15.3625 15.9997 15.0234 15.9997 14.6699C15.9997 14.3163 15.8593 13.9772 15.6093 13.7272ZM6.83334 2.00319C7.78928 2.00319 8.72376 2.28666 9.5186 2.81775C10.3134 3.34884 10.9329 4.10371 11.2988 4.98688C11.6646 5.87006 11.7603 6.84188 11.5738 7.77946C11.3873 8.71703 10.927 9.57825 10.251 10.2542C9.57507 10.9302 8.71385 11.3905 7.77628 11.577C6.8387 11.7635 5.86688 11.6678 4.9837 11.3019C4.10053 10.9361 3.34566 10.3166 2.81457 9.52178C2.28348 8.72694 2.00001 7.79246 2.00001 6.83652C2.00142 5.55507 2.5111 4.32652 3.41722 3.4204C4.32334 2.51428 5.55189 2.0046 6.83334 2.00319Z" fill="currentColor"/>
</svg>
