<svg width="92" height="96" viewBox="0 0 92 96" fill="none"
  xmlns="http://www.w3.org/2000/svg">
  <g filter="url(#filter0_i)">
    <path fill-rule="evenodd" clip-rule="evenodd" d="M1 5C1 2.79086 2.79086 1 5 1H87C89.2091 1 91 2.79086 91 5V87.3626C91 89.5717 89.2091 91.3626 87 91.3626H82.9431C82.0806 93.4953 79.9902 95 77.5483 95C75.1064 95 73.0159 93.4953 72.1535 91.3626H21.7318C20.8693 93.4953 18.7789 95 16.337 95C13.8951 95 11.8046 93.4953 10.9422 91.3626H5C2.79086 91.3626 1 89.5717 1 87.3626V5Z" fill="white"/>
  </g>
  <path d="M82.9431 91.3626V90.3626H82.2688L82.016 90.9877L82.9431 91.3626ZM72.1535 91.3626L73.0806 90.9877L72.8278 90.3626H72.1535V91.3626ZM21.7318 91.3626V90.3626H21.0575L20.8047 90.9877L21.7318 91.3626ZM10.9422 91.3626L11.8692 90.9877L11.6164 90.3626H10.9422V91.3626ZM1.65818 1.28078C1.24746 1.65002 1.21384 2.28229 1.58307 2.693C1.9523 3.10371 2.58457 3.13734 2.99529 2.76811L1.65818 1.28078ZM2.86996 2.88744C3.25888 2.49532 3.25629 1.86216 2.86418 1.47324C2.47206 1.08431 1.8389 1.0869 1.44997 1.47902L2.86996 2.88744ZM1.42117 1.5083C1.03546 1.90358 1.04323 2.5367 1.43851 2.9224C1.83379 3.30811 2.46691 3.30035 2.85262 2.90507L1.42117 1.5083ZM2.76811 2.99529C3.13734 2.58457 3.10371 1.9523 2.693 1.58307C2.28229 1.21384 1.65002 1.24746 1.28078 1.65818L2.76811 2.99529ZM0 43.3784C0 43.9307 0.447715 44.3784 1 44.3784C1.55228 44.3784 2 43.9307 2 43.3784H0ZM2 46.3969C2 45.8446 1.55228 45.3969 1 45.3969C0.447715 45.3969 0 45.8446 0 46.3969H2ZM0 46.8281C0 47.3804 0.447715 47.8281 1 47.8281C1.55228 47.8281 2 47.3804 2 46.8281H0ZM2 48.9842C2 48.4319 1.55228 47.9842 1 47.9842C0.447715 47.9842 0 48.4319 0 48.9842H2ZM1.28078 90.7044C1.65002 91.1151 2.28229 91.1488 2.693 90.7795C3.10372 90.4103 3.13734 89.778 2.76811 89.3673L1.28078 90.7044ZM2.88744 89.4926C2.49532 89.1037 1.86216 89.1063 1.47324 89.4984C1.08431 89.8905 1.0869 90.5237 1.47902 90.9126L2.88744 89.4926ZM1.5083 90.9414C1.90358 91.3271 2.5367 91.3194 2.9224 90.9241C3.30811 90.5288 3.30035 89.8957 2.90507 89.51L1.5083 90.9414ZM2.99529 89.5945C2.58457 89.2253 1.9523 89.2589 1.58307 89.6696C1.21384 90.0803 1.24746 90.7126 1.65818 91.0818L2.99529 89.5945ZM7.76886 92.3626C8.32115 92.3626 8.76886 91.9149 8.76886 91.3626C8.76886 90.8103 8.32115 90.3626 7.76886 90.3626V92.3626ZM7.98664 90.3626C7.43435 90.3626 6.98664 90.8103 6.98664 91.3626C6.98664 91.9149 7.43435 92.3626 7.98664 92.3626V90.3626ZM8.01775 92.3626C8.57003 92.3626 9.01775 91.9149 9.01775 91.3626C9.01775 90.8103 8.57003 90.3626 8.01775 90.3626V92.3626ZM8.1733 90.3626C7.62102 90.3626 7.1733 90.8103 7.1733 91.3626C7.1733 91.9149 7.62102 92.3626 8.1733 92.3626V90.3626ZM12.2991 94.6759C12.7438 95.0033 13.3698 94.9082 13.6973 94.4634C14.0247 94.0187 13.9296 93.3927 13.4848 93.0653L12.2991 94.6759ZM13.6563 93.1859C13.1977 92.878 12.5765 93.0002 12.2686 93.4588C11.9608 93.9173 12.083 94.5386 12.5415 94.8464L13.6563 93.1859ZM12.5768 94.8699C13.0372 95.1749 13.6577 95.0488 13.9627 94.5884C14.2676 94.128 14.1416 93.5075 13.6812 93.2025L12.5768 94.8699ZM13.8073 93.2832C13.3376 92.9927 12.7213 93.1379 12.4307 93.6076C12.1402 94.0773 12.2854 94.6935 12.7551 94.9841L13.8073 93.2832ZM19.9188 94.9841C20.3885 94.6935 20.5337 94.0773 20.2432 93.6076C19.9527 93.1379 19.3364 92.9927 18.8667 93.2832L19.9188 94.9841ZM19.0425 93.1691C18.5858 93.4798 18.4675 94.1018 18.7782 94.5584C19.0888 95.015 19.7109 95.1334 20.1675 94.8227L19.0425 93.1691ZM20.2024 94.7988C20.6571 94.4853 20.7716 93.8625 20.4581 93.4079C20.1446 92.9532 19.5219 92.8387 19.0672 93.1522L20.2024 94.7988ZM19.1891 93.0653C18.7444 93.3927 18.6493 94.0187 18.9767 94.4634C19.3041 94.9082 19.9301 95.0033 20.3748 94.6759L19.1891 93.0653ZM45.2267 92.3626C45.779 92.3626 46.2267 91.9149 46.2267 91.3626C46.2267 90.8103 45.779 90.3626 45.2267 90.3626V92.3626ZM47.0746 90.3626C46.5223 90.3626 46.0746 90.8103 46.0746 91.3626C46.0746 91.9149 46.5223 92.3626 47.0746 92.3626V90.3626ZM47.3386 92.3626C47.8909 92.3626 48.3386 91.9149 48.3386 91.3626C48.3386 90.8103 47.8909 90.3626 47.3386 90.3626V92.3626ZM48.6585 90.3626C48.1063 90.3626 47.6585 90.8103 47.6585 91.3626C47.6585 91.9149 48.1063 92.3626 48.6585 92.3626V90.3626ZM73.5104 94.6759C73.9552 95.0033 74.5811 94.9082 74.9086 94.4634C75.236 94.0187 75.1409 93.3927 74.6961 93.0653L73.5104 94.6759ZM74.8676 93.1859C74.409 92.878 73.7878 93.0002 73.4799 93.4588C73.1721 93.9173 73.2943 94.5386 73.7528 94.8464L74.8676 93.1859ZM73.7881 94.8699C74.2485 95.1749 74.869 95.0488 75.174 94.5884C75.479 94.128 75.3529 93.5075 74.8925 93.2025L73.7881 94.8699ZM75.0186 93.2832C74.5489 92.9927 73.9326 93.1379 73.6421 93.6076C73.3515 94.0773 73.4967 94.6935 73.9664 94.9841L75.0186 93.2832ZM81.1301 94.9841C81.5998 94.6936 81.7451 94.0773 81.4545 93.6076C81.164 93.1379 80.5477 92.9927 80.078 93.2832L81.1301 94.9841ZM80.2538 93.1691C79.7972 93.4798 79.6788 94.1018 79.9895 94.5584C80.3002 95.015 80.9222 95.1334 81.3788 94.8227L80.2538 93.1691ZM81.4137 94.7988C81.8684 94.4853 81.9829 93.8625 81.6694 93.4079C81.3559 92.9532 80.7332 92.8387 80.2785 93.1522L81.4137 94.7988ZM80.4005 93.0653C79.9557 93.3927 79.8606 94.0187 80.188 94.4634C80.5154 94.9082 81.1414 95.0033 81.5862 94.6759L80.4005 93.0653ZM84.8335 92.3626C85.3858 92.3626 85.8335 91.9149 85.8335 91.3626C85.8335 90.8103 85.3858 90.3626 84.8335 90.3626V92.3626ZM84.9822 90.3626C84.4299 90.3626 83.9822 90.8103 83.9822 91.3626C83.9822 91.9149 84.4299 92.3626 84.9822 92.3626V90.3626ZM85.0034 92.3626C85.5557 92.3626 86.0034 91.9149 86.0034 91.3626C86.0034 90.8103 85.5557 90.3626 85.0034 90.3626V92.3626ZM85.1096 90.3626C84.5573 90.3626 84.1096 90.8103 84.1096 91.3626C84.1096 91.9149 84.5573 92.3626 85.1096 92.3626V90.3626ZM90.3418 91.0818C90.7525 90.7126 90.7862 90.0803 90.4169 89.6696C90.0477 89.2589 89.4154 89.2253 89.0047 89.5945L90.3418 91.0818ZM89.13 89.4752C88.7411 89.8673 88.7437 90.5004 89.1358 90.8894C89.5279 91.2783 90.1611 91.2757 90.55 90.8836L89.13 89.4752ZM90.5788 90.8543C90.9645 90.459 90.9568 89.8259 90.5615 89.4402C90.1662 89.0545 89.5331 89.0622 89.1474 89.4575L90.5788 90.8543ZM89.2319 89.3673C88.8627 89.778 88.8963 90.4103 89.307 90.7795C89.7177 91.1488 90.35 91.1151 90.7192 90.7044L89.2319 89.3673ZM92 48.9842C92 48.4319 91.5523 47.9842 91 47.9842C90.4477 47.9842 90 48.4319 90 48.9842H92ZM90 45.9657C90 46.518 90.4477 46.9657 91 46.9657C91.5523 46.9657 92 46.518 92 45.9657H90ZM92 45.5345C92 44.9822 91.5523 44.5345 91 44.5345C90.4477 44.5345 90 44.9822 90 45.5345H92ZM90 43.3784C90 43.9307 90.4477 44.3784 91 44.3784C91.5523 44.3784 92 43.9307 92 43.3784H90ZM90.7192 1.65818C90.35 1.24746 89.7177 1.21384 89.307 1.58307C88.8963 1.9523 88.8627 2.58457 89.2319 2.99529L90.7192 1.65818ZM89.1126 2.86996C89.5047 3.25888 90.1378 3.25629 90.5268 2.86418C90.9157 2.47206 90.9131 1.8389 90.521 1.44998L89.1126 2.86996ZM90.4917 1.42117C90.0964 1.03546 89.4633 1.04323 89.0776 1.43851C88.6919 1.83379 88.6997 2.46691 89.0949 2.85262L90.4917 1.42117ZM89.0047 2.76811C89.4154 3.13734 90.0477 3.10371 90.4169 2.693C90.7862 2.28229 90.7525 1.65002 90.3418 1.28078L89.0047 2.76811ZM48.7906 0C48.2383 0 47.7906 0.447715 47.7906 1C47.7906 1.55228 48.2383 2 48.7906 2V0ZM45.7853 2C46.3376 2 46.7853 1.55228 46.7853 1C46.7853 0.447715 46.3376 0 45.7853 0V2ZM45.356 0C44.8037 0 44.356 0.447715 44.356 1C44.356 1.55228 44.8037 2 45.356 2V0ZM43.2094 2C43.7617 2 44.2094 1.55228 44.2094 1C44.2094 0.447715 43.7617 0 43.2094 0V2ZM5 0C3.71605 0 2.54307 0.485263 1.65818 1.28078L2.99529 2.76811C3.52731 2.28982 4.22863 2 5 2V0ZM1.44997 1.47902C1.44033 1.48874 1.43073 1.4985 1.42117 1.5083L2.85262 2.90507C2.85837 2.89917 2.86415 2.89329 2.86996 2.88744L1.44997 1.47902ZM1.28078 1.65818C0.485263 2.54307 0 3.71605 0 5H2C2 4.22863 2.28982 3.52731 2.76811 2.99529L1.28078 1.65818ZM0 5V43.3784H2V5H0ZM0 46.3969V46.8281H2V46.3969H0ZM0 48.9842V87.3626H2V48.9842H0ZM0 87.3626C0 88.6465 0.485263 89.8195 1.28078 90.7044L2.76811 89.3673C2.28982 88.8353 2 88.134 2 87.3626H0ZM1.47902 90.9126C1.48874 90.9223 1.4985 90.9319 1.5083 90.9414L2.90507 89.51C2.89917 89.5042 2.89329 89.4984 2.88744 89.4926L1.47902 90.9126ZM1.65818 91.0818C2.54307 91.8773 3.71605 92.3626 5 92.3626V90.3626C4.22863 90.3626 3.52731 90.0728 2.99529 89.5945L1.65818 91.0818ZM5 92.3626H7.76886V90.3626H5V92.3626ZM7.98664 92.3626H8.01775V90.3626H7.98664V92.3626ZM8.1733 92.3626H10.9422V90.3626H8.1733V92.3626ZM10.0151 91.7375C10.4925 92.9181 11.29 93.933 12.2991 94.6759L13.4848 93.0653C12.7698 92.5389 12.2059 91.8203 11.8692 90.9877L10.0151 91.7375ZM12.5415 94.8464C12.5532 94.8543 12.565 94.8621 12.5768 94.8699L13.6812 93.2025C13.6729 93.197 13.6646 93.1914 13.6563 93.1859L12.5415 94.8464ZM12.7551 94.9841C13.7966 95.6283 15.0249 96 16.337 96V94C15.4072 94 14.5418 93.7376 13.8073 93.2832L12.7551 94.9841ZM16.337 96C17.649 96 18.8773 95.6283 19.9188 94.9841L18.8667 93.2832C18.1322 93.7376 17.2667 94 16.337 94V96ZM20.1675 94.8227C20.1792 94.8148 20.1908 94.8068 20.2024 94.7988L19.0672 93.1522C19.059 93.1579 19.0507 93.1635 19.0425 93.1691L20.1675 94.8227ZM20.3748 94.6759C21.3839 93.933 22.1814 92.9181 22.6588 91.7375L20.8047 90.9877C20.468 91.8203 19.9042 92.5389 19.1891 93.0653L20.3748 94.6759ZM21.7318 92.3626H45.2267V90.3626H21.7318V92.3626ZM47.0746 92.3626H47.3386V90.3626H47.0746V92.3626ZM48.6585 92.3626H72.1535V90.3626H48.6585V92.3626ZM71.2264 91.7375C71.7039 92.9181 72.5013 93.933 73.5104 94.6759L74.6961 93.0653C73.9811 92.5389 73.4173 91.8203 73.0806 90.9877L71.2264 91.7375ZM73.7528 94.8464C73.7646 94.8543 73.7763 94.8621 73.7881 94.8699L74.8925 93.2025C74.8842 93.197 74.8759 93.1914 74.8676 93.1859L73.7528 94.8464ZM73.9664 94.9841C75.0079 95.6283 76.2362 96 77.5483 96V94C76.6185 94 75.7531 93.7376 75.0186 93.2832L73.9664 94.9841ZM77.5483 96C78.8603 96 80.0886 95.6283 81.1301 94.9841L80.078 93.2832C79.3435 93.7376 78.4781 94 77.5483 94V96ZM81.3788 94.8227C81.3905 94.8148 81.4021 94.8068 81.4137 94.7988L80.2785 93.1522C80.2703 93.1579 80.262 93.1635 80.2538 93.1691L81.3788 94.8227ZM81.5862 94.6759C82.5953 93.933 83.3927 92.9181 83.8702 91.7375L82.016 90.9877C81.6793 91.8203 81.1155 92.5389 80.4005 93.0653L81.5862 94.6759ZM82.9431 92.3626H84.8335V90.3626H82.9431V92.3626ZM84.9822 92.3626H85.0034V90.3626H84.9822V92.3626ZM85.1096 92.3626H87V90.3626H85.1096V92.3626ZM87 92.3626C88.284 92.3626 89.4569 91.8773 90.3418 91.0818L89.0047 89.5945C88.4727 90.0728 87.7714 90.3626 87 90.3626V92.3626ZM90.55 90.8836C90.5597 90.8739 90.5693 90.8641 90.5788 90.8543L89.1474 89.4575C89.1416 89.4634 89.1358 89.4693 89.13 89.4752L90.55 90.8836ZM90.7192 90.7044C91.5147 89.8195 92 88.6465 92 87.3626H90C90 88.134 89.7102 88.8353 89.2319 89.3673L90.7192 90.7044ZM92 87.3626V48.9842H90V87.3626H92ZM92 45.9657V45.5345H90V45.9657H92ZM92 43.3784V5H90V43.3784H92ZM92 5C92 3.71605 91.5147 2.54307 90.7192 1.65818L89.2319 2.99529C89.7102 3.52731 90 4.22863 90 5H92ZM90.521 1.44998C90.5113 1.44033 90.5015 1.43073 90.4917 1.42117L89.0949 2.85262C89.1008 2.85837 89.1067 2.86415 89.1126 2.86996L90.521 1.44998ZM90.3418 1.28078C89.4569 0.485263 88.284 0 87 0V2C87.7714 2 88.4727 2.28982 89.0047 2.76811L90.3418 1.28078ZM87 0H48.7906V2H87V0ZM45.7853 0H45.356V2H45.7853V0ZM43.2094 0H5V2H43.2094V0Z" fill="#264887"/>
  <g filter="url(#filter1_i)">
    <path fill-rule="evenodd" clip-rule="evenodd" d="M10.8413 12C10.8413 10.8954 11.7367 10 12.8413 10H80.3743C81.4789 10 82.3743 10.8954 82.3743 12V79.4815C82.3743 80.586 81.4789 81.4815 80.3743 81.4815H12.8413C11.7367 81.4815 10.8413 80.586 10.8413 79.4815V12Z" fill="white"/>
  </g>
  <path fill-rule="evenodd" clip-rule="evenodd" d="M10.8413 12C10.8413 10.8954 11.7367 10 12.8413 10H80.3743C81.4789 10 82.3743 10.8954 82.3743 12V79.4815C82.3743 80.586 81.4789 81.4815 80.3743 81.4815H12.8413C11.7367 81.4815 10.8413 80.586 10.8413 79.4815V12Z" stroke="#264887" stroke-width="2" stroke-linecap="round" stroke-linejoin="round"/>
  <g filter="url(#filter2_i)">
    <path fill-rule="evenodd" clip-rule="evenodd" d="M7 22.6108C7 20.416 8.77925 18.6367 10.9741 18.6367C13.1689 18.6367 14.9481 20.416 14.9481 22.6108V31.4299C14.9481 33.6247 13.1689 35.404 10.9741 35.404C8.77925 35.404 7 33.6247 7 31.4299V22.6108Z" fill="white"/>
  </g>
  <path fill-rule="evenodd" clip-rule="evenodd" d="M7 22.6108C7 20.416 8.77925 18.6367 10.9741 18.6367C13.1689 18.6367 14.9481 20.416 14.9481 22.6108V31.4299C14.9481 33.6247 13.1689 35.404 10.9741 35.404C8.77925 35.404 7 33.6247 7 31.4299V22.6108Z" stroke="#264887" stroke-width="2" stroke-linecap="round" stroke-linejoin="round"/>
  <g filter="url(#filter3_i)">
    <path fill-rule="evenodd" clip-rule="evenodd" d="M7 63.8757C7 61.6809 8.77925 59.9016 10.9741 59.9016C13.1689 59.9016 14.9481 61.6809 14.9481 63.8757V72.6948C14.9481 74.8896 13.1689 76.6689 10.9741 76.6689C8.77925 76.6689 7 74.8896 7 72.6948V63.8757Z" fill="white"/>
  </g>
  <path fill-rule="evenodd" clip-rule="evenodd" d="M7 63.8757C7 61.6809 8.77925 59.9016 10.9741 59.9016C13.1689 59.9016 14.9481 61.6809 14.9481 63.8757V72.6948C14.9481 74.8896 13.1689 76.6689 10.9741 76.6689C8.77925 76.6689 7 74.8896 7 72.6948V63.8757Z" stroke="#264887" stroke-width="2" stroke-linecap="round" stroke-linejoin="round"/>
  <rect x="22" y="21" width="50" height="50" fill="white"/>
  <path d="M60 36L40.7 55.6L34 49" stroke="#00A878" stroke-width="6" stroke-miterlimit="10" stroke-linecap="round" stroke-linejoin="round"/>
  <defs>
    <filter id="filter0_i" x="0" y="0" width="92" height="96" filterUnits="userSpaceOnUse" color-interpolation-filters="sRGB">
      <feFlood flood-opacity="0" result="BackgroundImageFix"/>
      <feBlend mode="normal" in="SourceGraphic" in2="BackgroundImageFix" result="shape"/>
      <feColorMatrix in="SourceAlpha" type="matrix" values="0 0 0 0 0 0 0 0 0 0 0 0 0 0 0 0 0 0 127 0" result="hardAlpha"/>
      <feOffset dy="-4"/>
      <feComposite in2="hardAlpha" operator="arithmetic" k2="-1" k3="1"/>
      <feColorMatrix type="matrix" values="0 0 0 0 0.709804 0 0 0 0 0.85098 0 0 0 0 0.945098 0 0 0 1 0"/>
      <feBlend mode="normal" in2="shape" result="effect1_innerShadow"/>
    </filter>
    <filter id="filter1_i" x="9.84131" y="9" width="73.533" height="73.4815" filterUnits="userSpaceOnUse" color-interpolation-filters="sRGB">
      <feFlood flood-opacity="0" result="BackgroundImageFix"/>
      <feBlend mode="normal" in="SourceGraphic" in2="BackgroundImageFix" result="shape"/>
      <feColorMatrix in="SourceAlpha" type="matrix" values="0 0 0 0 0 0 0 0 0 0 0 0 0 0 0 0 0 0 127 0" result="hardAlpha"/>
      <feOffset dx="6" dy="-6"/>
      <feComposite in2="hardAlpha" operator="arithmetic" k2="-1" k3="1"/>
      <feColorMatrix type="matrix" values="0 0 0 0 0.709804 0 0 0 0 0.85098 0 0 0 0 0.945098 0 0 0 1 0"/>
      <feBlend mode="normal" in2="shape" result="effect1_innerShadow"/>
    </filter>
    <filter id="filter2_i" x="6" y="17.6367" width="9.94812" height="18.7673" filterUnits="userSpaceOnUse" color-interpolation-filters="sRGB">
      <feFlood flood-opacity="0" result="BackgroundImageFix"/>
      <feBlend mode="normal" in="SourceGraphic" in2="BackgroundImageFix" result="shape"/>
      <feColorMatrix in="SourceAlpha" type="matrix" values="0 0 0 0 0 0 0 0 0 0 0 0 0 0 0 0 0 0 127 0" result="hardAlpha"/>
      <feOffset dx="3" dy="-4"/>
      <feComposite in2="hardAlpha" operator="arithmetic" k2="-1" k3="1"/>
      <feColorMatrix type="matrix" values="0 0 0 0 0.709804 0 0 0 0 0.85098 0 0 0 0 0.945098 0 0 0 1 0"/>
      <feBlend mode="normal" in2="shape" result="effect1_innerShadow"/>
    </filter>
    <filter id="filter3_i" x="6" y="58.9016" width="9.94812" height="18.7673" filterUnits="userSpaceOnUse" color-interpolation-filters="sRGB">
      <feFlood flood-opacity="0" result="BackgroundImageFix"/>
      <feBlend mode="normal" in="SourceGraphic" in2="BackgroundImageFix" result="shape"/>
      <feColorMatrix in="SourceAlpha" type="matrix" values="0 0 0 0 0 0 0 0 0 0 0 0 0 0 0 0 0 0 127 0" result="hardAlpha"/>
      <feOffset dx="3" dy="-4"/>
      <feComposite in2="hardAlpha" operator="arithmetic" k2="-1" k3="1"/>
      <feColorMatrix type="matrix" values="0 0 0 0 0.709804 0 0 0 0 0.85098 0 0 0 0 0.945098 0 0 0 1 0"/>
      <feBlend mode="normal" in2="shape" result="effect1_innerShadow"/>
    </filter>
  </defs>
</svg>
